<svg xmlns="http://www.w3.org/2000/svg" fill="none" viewBox="0 0 1024 1024" height="1024" width="1024">
<rect fill="#EBEADF" height="1024" width="1024"></rect>
<path fill="#030303" d="M566.964 381.35C569.348 375.795 573.845 371.47 579.277 368.938C606.731 369.577 634.184 369.725 661.662 368.865C666.406 396.539 661.465 425.344 663.874 453.412C661.392 458.918 656.796 463.047 651.536 465.849C628.236 465.111 604.961 465.087 581.71 465.8C575.369 462.555 569.987 457.492 566.939 451.004C567.578 427.753 567.553 404.551 566.964 381.35ZM616.636 413.694C622.755 421.658 645.195 413.08 655.813 416.005C657.336 401.651 656.575 389.436 653.502 379.31C646.571 372.379 627.179 379.015 616.586 376.901C612.285 381.522 612.162 408.631 616.636 413.694Z"></path>
<path fill="#271F19" d="M581.71 465.8C604.961 465.087 628.236 465.111 651.536 465.849C650.332 466.463 647.898 467.717 646.67 468.331C626.663 467.643 606.657 467.643 586.675 468.184C585.446 467.594 582.964 466.39 581.71 465.8Z"></path>
<path fill="#F8F9F9" d="M368.35 379.286C380.639 379.237 392.879 379.188 405.217 379.286C405.168 390.641 405.242 402.193 405.192 413.67C393.026 413.769 380.762 413.72 368.645 413.498C367.76 402.094 368.449 390.592 368.35 379.286Z"></path>
<path fill="#7A7B75" d="M926.022 200.31C931.773 200.801 930.863 210.927 927.693 214.319C927.275 210.804 926.439 203.824 926.022 200.31Z"></path>
<path fill="#7F7F79" d="M98.977 202.521C96.3963 200.236 96.0031 192.592 100.55 192.911C100.894 196.156 100.575 199.547 98.977 202.521Z"></path>
<path fill="#9B9C96" d="M834.764 596.037C831.176 582.667 827.759 561.382 850.617 571.115C830.586 566.446 835.919 584.338 834.764 596.037Z"></path>
<path fill="#DFDDD3" d="M247.968 72.087C427.337 72.0624 606.706 71.8657 786.075 72.1606L786.223 74.4463C606.805 74.5447 427.362 74.5201 247.943 74.4463L247.968 72.087Z"></path>
<path fill="#575553" d="M233.197 76.8796C236.883 76.2651 244.257 75.0608 247.943 74.4464C427.362 74.5201 606.805 74.5447 786.223 74.4464C790.377 73.3895 792.834 74.2006 793.621 76.8796C606.805 76.9779 420.013 77.027 233.197 76.8796Z"></path>
<path fill="#0C0D0E" d="M100.55 192.912C114.903 131.786 170.13 81.918 233.196 76.8795C420.013 77.027 606.804 76.9778 793.621 76.8795C858.482 82.5816 914.691 136.653 926.022 200.31C926.439 203.824 927.275 210.804 927.693 214.319C929.462 411.876 929.364 609.678 927.816 807.235C927.324 810.799 926.316 817.927 925.825 821.49L925.235 823.899C923.711 826.848 923.367 830.191 923.785 833.509C909.333 888.809 861.578 935.802 805.32 947.157C802.37 946.936 799.421 946.911 796.521 947.132C606.952 946.985 417.383 946.813 227.839 947.206C224.865 946.985 221.94 946.96 219.015 947.157C160.249 938.063 114.092 887.482 100.574 831.027C100.845 827.586 100.378 824.145 98.4607 821.318C98.2149 816.648 98.0429 812.003 97.748 807.407C97.2073 626.809 100.132 445.842 96.3715 265.49C95.7079 249.269 94.5774 232.998 96.3961 216.875C98.1166 213.115 98.4853 208.986 98.1904 204.955L98.9769 202.522C100.574 199.548 100.894 196.156 100.55 192.912ZM245.485 84.3513V86.7353C175.66 85.6293 113.65 145.943 107.8 214.54C107.186 218.227 105.981 225.625 105.367 229.311L103.057 229.434C102.786 416.177 102.958 602.944 102.983 789.711H105.343C104.015 797.379 104.826 803.131 107.776 806.965C113.281 868.827 161.994 930.641 225.823 937.277C229.51 937.891 236.859 939.071 240.545 939.661L240.668 941.971C423.306 942.241 605.993 942.045 788.656 942.069V939.71C792.785 940.693 795.267 939.857 796.128 937.227C850.125 930.296 897.855 886.523 911.521 834.221C918.501 825.251 918.132 811.045 918.968 799.542H921.352C921.376 606.999 921.401 414.481 921.327 221.963L918.968 221.987C917.788 218.301 921.548 209.846 916.51 209.575C914.077 189.2 906.556 168.408 893.874 152.137C890.261 141.691 880.307 132.376 871.606 125.74C863.79 113.451 846.733 104.849 833.24 98.5572C819.649 89.2913 801.633 88.4312 785.731 86.9319L786.468 84.5233C606.141 84.0809 425.813 84.4004 245.485 84.3513Z"></path>
<path fill="#4A4556" d="M245.485 84.3512C425.813 84.4004 606.141 84.0809 786.468 84.5233L785.731 86.9319H783.249C681.226 86.8581 579.154 86.3419 477.131 87.1776C455.011 86.7598 432.916 86.5141 410.845 87.1531C391.158 86.809 371.471 86.3666 351.809 87.2268C316.368 86.4157 280.926 86.9564 245.485 86.7352V84.3512Z"></path>
<path fill="#7A7091" d="M107.8 214.54C113.65 145.943 175.66 85.6293 245.485 86.7353C280.927 86.9565 316.368 86.4158 351.809 87.2269C321.161 101.015 281.91 110.994 249.221 97.9674C213.78 91.8721 185.909 120.702 156.415 135.326C139.432 142.38 146.977 164.008 147.494 177.968C176.348 161.993 194.929 117.359 232.828 121.734C256.324 128.837 280.583 123.651 304.497 123.406C342.101 121.218 383.466 116.204 410.845 87.1532C432.916 86.5142 455.012 86.7599 477.132 87.1777C447.638 104.456 410.575 102.785 382.335 123.258C475.215 122.791 569.127 128.1 660.925 111.534C677.785 111.756 697.374 111.387 710.941 123.111C680.907 121.046 648.39 114.41 620.863 130.582C494.729 132.696 368.252 128.567 242.315 132.573C197.829 140.02 160.618 176.518 153.908 221.397C150.467 248.63 152.753 276.181 151.647 303.61C148.255 278.615 150.32 253.398 149.042 228.353C128.372 291.985 128.077 360.68 108.415 424.189C108.169 410.942 107.481 397.866 108.267 384.717C111.634 356.698 116.992 328.925 118.148 300.71C127.585 264.286 133.877 227.099 139.727 189.962C120.777 190.626 120.433 214.565 108.218 225.133C108.095 221.569 107.948 218.03 107.8 214.54Z"></path>
<path fill="#8E82A3" d="M351.809 87.227C371.472 86.3668 391.159 86.8092 410.845 87.1533C383.466 116.204 342.101 121.218 304.497 123.406C280.583 123.651 256.324 128.837 232.828 121.734C194.929 117.359 176.348 161.993 147.494 177.968C146.978 164.008 139.432 142.38 156.415 135.326C185.909 120.702 213.78 91.8722 249.221 97.9675C281.91 110.994 321.161 101.015 351.809 87.227Z"></path>
<path fill="#8E82A3" d="M124.808 833.828C158.996 857.374 189.546 890.677 231.501 899.402C266.917 903.334 302.039 909.602 337.358 914.272C379.41 924.496 423.528 923.267 464.917 936.514C444.468 936.908 423.994 937.866 403.595 936.736C366.114 923.39 324.405 916.361 284.441 921.915C218.278 942.929 141.054 902.204 124.808 833.828Z"></path>
<path fill="#8D81A3" d="M477.132 87.1777C579.154 86.3421 681.226 86.8583 783.249 86.932C806.622 97.6234 825.916 115.025 845.554 131.246C844.276 117.925 830.61 110.895 825.35 99.3192C827.317 99.1226 831.274 98.7539 833.24 98.5573C846.733 104.849 863.79 113.451 871.606 125.74C869.886 143.092 873.376 160.567 872.048 178.042C845.111 151.351 808.171 108.511 765.946 130.287C717.601 131.615 669.207 131.172 620.863 130.582C648.39 114.41 680.906 121.046 710.941 123.111C697.374 111.387 677.785 111.756 660.925 111.534C569.126 128.1 475.214 122.791 382.335 123.258C410.575 102.785 447.638 104.456 477.132 87.1777ZM720.845 92.9782C667.192 100.302 613.195 99.0243 559.344 96.886C576.696 107.676 599.21 107.012 619.069 108.954C662.301 105.169 706.492 108.339 748.741 96.1979C757.663 85.8752 726.277 94.33 720.845 92.9782Z"></path>
<path fill="#786E8D" d="M783.249 86.9319H785.731C801.633 88.4311 819.649 89.2913 833.24 98.5572C831.274 98.7538 827.317 99.1224 825.351 99.3191C830.61 110.895 844.276 117.925 845.554 131.246C825.916 115.024 806.622 97.6232 783.249 86.9319Z"></path>
<path fill="#7B7193" d="M720.846 92.9781C726.277 94.3299 757.663 85.8751 748.742 96.1978C706.492 108.339 662.301 105.169 619.069 108.954C599.21 107.012 576.697 107.676 559.345 96.8859C613.195 99.0242 667.192 100.302 720.846 92.9781Z"></path>
<path fill="#786E90" d="M765.946 130.287C808.171 108.511 845.111 151.35 872.049 178.042C873.376 160.567 869.886 143.092 871.606 125.74C880.307 132.376 890.261 141.691 893.874 152.137C891.072 183.375 882.175 215.597 891.981 246.54C896.577 268.464 908.62 287.659 916.166 308.525C916.362 378.572 917.124 448.693 915.92 518.74C894.906 573.131 885.886 630.766 884.632 689.015C895.324 713.519 867.256 696.978 877.013 686.435C871.41 636.32 878.611 585.1 899.109 538.943C909.726 470.838 906.974 401.159 898.986 332.686C900.067 296.507 883.477 264.433 872.909 230.958C872.27 237.446 871.016 250.448 870.377 256.937C869.935 243.37 870.058 229.803 867.87 216.457C858.998 173.814 823.163 138.594 779.562 132.523C775.04 131.565 770.493 130.828 765.946 130.287Z"></path>
<path fill="#3F3C4C" d="M242.315 132.573C368.252 128.567 494.729 132.696 620.863 130.582C669.207 131.172 717.601 131.615 765.946 130.287C770.493 130.828 775.04 131.565 779.562 132.524C600.512 134.122 421.364 134.072 242.315 132.573Z"></path>
<path fill="#0C0B0B" d="M153.908 221.398C160.618 176.519 197.829 140.02 242.315 132.573C421.364 134.073 600.512 134.122 779.562 132.524C823.163 138.595 858.998 173.815 867.87 216.458C866.715 409.271 867.354 602.109 867.551 794.922C864.233 831.469 841.302 864.453 808.097 880.084C796.57 884.607 784.355 887.04 772.164 889.031C593.213 886.941 414.188 888.195 235.212 888.392C205.276 881.485 178.707 861.454 165.263 833.607C160.938 820.95 154.474 808.735 153.785 795.217C155.162 603.952 154.867 412.638 153.908 221.398ZM247.943 140.881V143.24C243.765 142.183 241.283 143.019 240.521 145.698C204.957 149.409 174.578 181.041 166.935 215.032C162.511 214.565 162.535 222.037 165.042 224.323L162.314 224.421C161.478 291.567 161.994 358.788 162.019 425.959C161.872 489.788 161.749 553.666 162.093 617.519C163.125 673.335 158.922 735.345 164.305 787.254C164.354 814.093 178.117 839.457 196.846 858.013C239.464 895.716 300.343 871.58 351.023 878.044C351.195 832.796 351.514 787.548 350.801 742.325C334.998 757.858 331.483 783.985 314.107 797.085C280.951 789.81 249.32 771.819 223.709 749.895C241.848 706.417 269.965 666.724 291.987 624.843C297.271 621.968 299.385 614.717 302.088 609.433C311.133 600.216 319.465 586.526 325.953 574.409C331.901 568.412 348.344 554.403 337.062 545.678C325.068 535.109 317.72 520.584 313.419 505.419C313.836 463.367 317.105 414.973 311.821 376.779C282.5 370.831 241.455 375.476 208.127 375.181C209.135 356.699 207.635 338.118 210.511 319.807C243.691 300.882 275.79 279.868 309.068 260.968C327.747 245.509 321.382 205.25 350.31 201.268C398.753 182.393 449.26 166.024 497.212 147.615C501.39 148.574 505.2 146.239 509.083 145.034C513.286 146.239 516.948 145.206 518.865 141.077C428.566 140.586 338.242 140.93 247.943 140.881ZM657.828 144.617C706.296 181.655 759.728 211.935 807.556 249.908C811.12 253.079 816.699 256.028 813.725 261.533L811.096 261.238C809.547 290.142 812.521 319.218 809.228 348.097C799.814 348.564 763.242 342.616 768.305 351.513C772.68 360.287 777.522 368.939 784.109 376.361C783.298 389.682 783.617 402.93 783.912 416.349L782.069 417.037C776.072 417.332 763.488 412.712 761.645 418.905C760.613 419.077 758.524 419.397 757.491 419.544C750.437 420.134 734.019 413.621 732.078 421.216C721.313 423.87 719.002 412.122 713.841 405.56C712.956 405.191 711.162 404.454 710.253 404.06C709.515 436.921 709.81 469.855 710.597 502.765C704.6 522.354 694.154 541.18 676.089 551.994C680.563 563.153 691.057 574.95 697.202 586.182C702.707 595.595 708.68 606.459 717.233 612.874C737.829 647.086 763.39 678.669 778.825 715.978C783.224 728.021 802.641 745.373 788.041 757.146C761.866 772.163 735.838 791.112 705.706 796.446C689.632 782.731 683.979 759.186 670.928 742.522C668.962 787.18 675.45 832.722 677.294 876.52C724.164 875.807 781.995 890.874 822.45 857.866C844.448 839.531 859.563 811.537 857.523 782.387L859.784 782.215C860.153 720.795 859.858 659.35 859.883 597.93C858.211 551.257 861.21 504.535 859.809 457.812C860.104 378.401 859.907 298.965 859.883 219.554L857.523 219.456C851.379 184.678 823.335 152.924 788.238 145.845C788.631 141.274 780.889 141.593 778.849 144.395C777.67 144.15 775.335 143.633 774.18 143.363L773.737 141.028C737.731 140.389 701.675 141.028 665.668 140.905C645.244 127.191 652.298 145.526 657.828 144.617ZM542.877 145.772C475.534 164.942 409.936 190.356 344.51 215.302C338.955 223.143 336.522 233.048 333.4 242.141C332.86 242.559 331.754 243.346 331.188 243.764C327.133 248.605 321.75 263.426 338.857 254.086C367.269 250.891 395.828 251.555 424.363 251.039C440.437 251.604 464.425 257.822 454.348 231.573C455.012 220.783 454.053 209.895 453.709 199.228C485.316 194.632 521.765 198.786 555.24 197.459C556.076 214.516 551.357 233.932 558.288 249.195C571.461 255.536 602.282 248.925 621.084 251.628C628.163 264.188 629.637 279.082 634.627 292.501C638.829 305.356 658.393 297.245 666.406 302.48C674.369 322.953 678.178 345.172 683.586 366.555C716.004 355.888 711.285 397.228 729.964 411.139C743.285 406.936 762.038 411.311 771.427 406.346C775.925 398.186 775.998 389.953 771.623 381.645C749.012 335.832 724.508 290.56 702.609 244.157C701.454 235.8 692.434 239.979 687.149 239.536C670.83 238.234 654.387 239.118 638.117 239.487C635.044 238.823 631.333 238.897 631.161 234.916C647.997 220.144 675.057 234.571 695.285 227.813C707.549 225.723 710.154 236.562 714.578 244.452C715.93 249.785 718.584 254.873 722.935 258.437C747.39 259.248 771.869 258.928 796.373 258.658C795.931 256.716 794.53 249.269 791.802 252.636C743.187 213.852 690.025 180.574 638.584 145.698L638.706 143.437C607.345 144.371 570.208 140.266 542.877 145.772ZM464.228 251.186C484.456 259.616 520.266 250.817 545.114 253.791C545.974 238.332 545.261 222.774 545.212 207.364C518.226 206.897 491.215 207.118 464.228 207.315C457.568 214.835 461.549 244.231 464.228 251.186ZM321.849 266.326C321.111 277.46 321.406 288.643 322.684 299.826C319.096 318.21 324.823 336.717 324.577 355.2C346.328 338.02 353.259 305.479 380.147 295.23C384.35 288.422 382.63 280.852 390.667 278.369C465.998 278.517 541.329 278.664 616.66 278.345C623.468 265.097 608.451 260.108 599.456 263.672C506.773 262.074 414.434 266.252 321.849 266.326ZM309.412 273.306C278.862 290.953 248.779 309.509 218.868 328.188C217.442 340.502 218.597 352.865 219.261 365.276L217.958 366.899C249 360.066 281.099 370.88 311.501 364.048C312.534 333.129 311.624 302.136 311.772 271.217C311.182 271.733 310.002 272.79 309.412 273.306ZM727.383 270.947C737.829 289.38 743.261 311.5 756.361 327.893C756.336 330.745 757.442 333.104 759.654 334.972C766.02 342.468 791.261 334.898 803.255 337.331C801.977 318.357 806.745 290.068 800.847 276.55C791.876 271.807 781.184 273.478 771.55 273.724C757 270.971 742.105 270.652 727.383 270.947ZM373.192 310.591L373.511 312.975C366.261 316.662 362.623 326.861 358.199 333.915C351.514 342.247 344.952 350.702 338.783 359.427C333.4 363.974 328.608 369.184 324.405 375.009L321.972 374.174C322.807 416.079 318.629 464.03 324.061 502.224C327.526 524.344 345.591 545.26 368.35 548.799L368.497 551.134C461.82 551.552 555.191 551.208 648.538 551.282L648.587 548.922C673.091 548.332 695.58 526.434 697.742 502.224C701.65 466.39 702.24 414.973 697.423 378.917L694.744 378.942C691.893 374.395 682.922 376.14 678.277 377.86L676.384 376.877C672.231 355.814 666.111 330.228 658.123 312.95L658.443 310.566C563.351 310.37 468.259 310.32 373.192 310.591ZM349.818 560.449C322.807 595.546 299.778 633.593 277.338 671.713C272.767 676.555 279.206 679.676 282.598 682.65C296.14 690.171 308.798 699.142 322.439 706.54C328.386 713.643 341.634 719.37 351.072 723.745L353.431 723.155C354.021 676.53 353.358 629.882 353.677 583.257C353.087 580.382 355.766 550.569 349.818 560.449ZM363.41 578.342C357.855 639.172 362.402 710.325 361.149 775.137L363.508 774.621C383.908 777.054 404.283 780.716 424.904 780.028C427.927 785.828 441.125 780.691 447.442 782.928C444.394 786.32 456.585 786.098 454.373 782.313C454.495 752.058 454.52 721.803 454.274 691.596C442.796 690.835 431.22 691.326 419.767 691.523C414.089 678.128 429.696 651.953 399.908 661.956C395.435 628.702 399.195 595.03 397.671 561.629C382.089 562.391 352.424 548.234 363.41 578.342ZM621.428 577.973C621.133 604.91 622.116 631.897 621.256 658.884C617.52 663.283 611.056 661.513 606.067 662.939L604.175 662.177C591.763 660.456 610.393 686.214 598.841 691.007C588.469 692.186 577.925 690.884 567.603 691.548C567.16 721.705 567.381 751.911 567.578 782.117C573.305 780.667 589.846 787.671 589.428 780.2C612.31 777.767 635.683 776.341 658.172 772.015C658.836 759.26 658.59 746.577 657.484 733.944C657.926 696.045 661.22 651.584 655.886 617.691C655.788 616.585 655.616 614.422 655.518 613.341C655.493 609.04 655.444 600.437 655.419 596.136C655.1 584.019 659.893 568.83 652.937 558.999C639.051 559.491 612.113 552.904 621.428 577.973ZM407.822 561.236C409.1 589.476 404.406 625.875 410.206 649.224C416.129 649.126 421.905 650.011 427.534 651.83C428.885 660.457 423.183 677.685 429.918 681.47C439.822 681.421 449.752 681.421 459.706 681.421C466.194 699.24 457.002 723.966 464.228 738.098C467.767 745.668 486.029 737.582 493.722 740.654C516.702 749.158 502.103 719.935 505.052 710.153C521.396 711.382 543.099 713.618 555.093 708.604C565.833 707.646 547.965 678.742 562.54 681.569C569.274 681.544 582.718 681.47 589.428 681.446C598.055 679.504 588.322 658.244 591.247 651.436C595.843 648.241 601.815 647.529 609.213 649.372C615.677 626.146 609.729 589.156 611.597 561.285C568.34 560.769 525.083 561.383 481.851 561.014C477.353 561.039 468.357 561.137 463.884 561.187C445.18 560.695 426.477 561.088 407.822 561.236ZM666.012 560.769C664.046 615.946 669.92 670.976 668.421 726.202C679.555 721.975 690.812 714.012 699.438 707.031C712.661 698.822 725.909 690.663 739.255 682.675C746.21 680.045 745.03 672.647 740.655 668.248C717.822 633.445 695.678 597.783 669.429 565.537C669.404 563.448 668.249 561.85 666.012 560.769ZM267.458 688.77C257.75 703.738 251.187 720.476 241.823 735.689C235.359 742.129 238.751 750.805 246.395 754.295C267.36 765.232 287.907 780.593 311.379 784.599C322.881 768.673 332.171 751.1 340.995 733.576C334.31 726.841 325.413 722.786 317.474 717.993C304.226 709.686 291.446 699.486 277.092 693.169C276.208 689.827 269.989 683.265 267.458 688.77ZM744.318 691.548C729.473 702.952 710.867 710.595 697.423 723.179C690.295 724.236 683.709 729.373 680.415 735.615C688.821 750.141 697.3 764.667 705.706 779.241C707.844 781.33 709.786 785.926 713.349 783.37C737.018 773.81 760.342 762.381 781.086 747.438C781.233 744.464 780.57 735.591 777.498 736.869C771.378 720.156 759.924 705.95 753.608 689.286C750.241 688.229 746.923 689.385 744.318 691.548ZM515.694 737.68C522.773 746.503 545.802 737.41 557.477 740.457C556.051 735.493 563.449 718.46 555.314 721.139C542.165 720.353 528.868 720.697 515.793 721.508C511.074 723.376 511.197 735.517 515.694 737.68ZM464.253 765.207C469.955 772.335 500.8 768.157 484.063 752.943C479.417 746.356 452.75 746.921 464.253 765.207ZM493.746 750.436C491.583 765.65 499.743 770.541 518.275 765.084C520.389 749.772 512.229 744.881 493.746 750.436ZM528.45 750.485C528.254 756.433 527.885 768.329 527.713 774.276C512.008 789.613 459.067 758.276 463.884 792.022C430.212 793.324 396.787 787.868 363.336 785.066L363.287 787.352C356.405 807.752 363.484 841.423 361.001 865.927C353.259 882.812 372.946 881.51 380.786 877.823C406.077 879.003 431.417 877.897 456.757 878.118C488.831 883.869 468.972 836.901 476.886 819.377C501.218 818.959 525.575 819.008 549.931 819.328C558.189 836.655 537.495 887.924 572.617 878.044C597.907 878.634 623.222 878.093 648.562 878.069C652.863 878.093 661.49 878.142 665.791 878.167C663.874 850.345 661.883 822.498 660.925 794.652C677.073 784.083 651.045 778.529 654.068 784.009C623.075 788.507 591.886 791.997 560.672 794.283C552.659 786.541 560.278 772.261 557.6 762.676C565.735 740.752 538.306 753.656 528.45 750.485ZM489.421 829.355C481.58 842.75 485.906 862.388 483.891 877.971C503.43 878.806 523.043 878.019 542.632 878.093C538.625 862.118 541.648 844.004 534.988 829.38C519.823 828.077 504.536 829.036 489.421 829.355Z"></path>
<path fill="#313233" d="M247.943 140.88C338.242 140.929 428.566 140.585 518.865 141.077C516.948 145.206 513.286 146.238 509.083 145.034C422.151 140.978 334.949 144.542 247.943 143.239V140.88Z"></path>
<path fill="#505353" d="M657.828 144.616C652.298 145.526 645.244 127.191 665.668 140.905C701.675 141.028 737.73 140.389 773.737 141.028L774.179 143.363C735.396 143.854 696.538 141.814 657.828 144.616Z"></path>
<path fill="#A5ACAF" d="M240.521 145.697C241.283 143.018 243.765 142.183 247.943 143.239C334.949 144.542 422.151 140.978 509.083 145.034C505.199 146.238 501.39 148.573 497.212 147.614C411.804 143.264 326.052 147.049 240.521 145.697Z"></path>
<path fill="#475278" d="M542.877 145.771C570.208 140.266 607.345 144.37 638.706 143.436L638.583 145.697C632.955 146.508 617.545 141.986 622.829 149.581C647.898 170.963 677.294 186.546 703.149 206.872C670.436 215.105 633.84 204.881 604.322 224.445C590.337 232.875 573.403 231.769 557.821 234.006C557.354 221.717 558.017 209.575 557.526 197.36C523.977 190.06 480.597 199.793 443.73 192.199C487.577 176.469 531.645 161.304 575.836 146.484C564.776 145.968 553.864 145.673 542.877 145.771Z"></path>
<path fill="#BDC6C9" d="M657.828 144.616C696.538 141.814 735.395 143.854 774.179 143.363C775.335 143.633 777.669 144.149 778.849 144.395C781.725 145.919 784.994 146.189 788.238 145.845C823.335 152.924 851.378 184.678 857.523 219.456C857.351 280.827 857.621 342.222 857.4 403.617C825.08 397.571 844.964 440.312 843.071 457.664C834.469 455.944 844.62 431.784 825.989 443.065C825.817 449.185 825.473 461.425 825.301 467.545C821.565 477.818 788.459 458.402 798.561 482.537C803.943 501.216 776.342 484.553 773.442 496.694C770.812 502.863 771.549 513.53 759.089 506.992C737.411 499.717 749.429 525.991 747.021 536.436C755.205 536.51 763.635 536.51 771.894 536.166C779.808 543.588 767.765 567.429 776.367 573.401C786.296 575.81 799.298 567.773 808.171 573.991C808.195 579.988 808.269 591.982 808.318 597.955C793.768 597.905 779.341 596.16 764.815 597.316C754.812 591.466 771.378 566.79 749.233 575.687C720.428 559.392 739.426 608.326 720.698 594.809C713.693 589.967 704.255 591.146 697.201 586.182C691.057 574.95 680.562 563.152 676.089 551.994C694.154 541.18 704.599 522.353 710.596 502.765C715.954 470.617 709.023 437.658 713.841 405.559C719.002 412.122 721.312 423.87 732.077 421.215C740.459 421.215 749.208 421.559 757.491 419.544C758.523 419.397 760.612 419.077 761.645 418.905C768.305 418.217 775.507 419.224 782.069 417.037L783.912 416.349C787.55 406.149 788.508 387.691 784.109 376.361C777.522 368.938 772.68 360.287 768.305 351.513C781.823 349.522 795.808 350.874 809.227 348.096C819.132 324.452 810.038 289.699 813.725 261.533C816.699 256.027 811.12 253.078 807.556 249.908C759.728 211.935 706.295 181.655 657.828 144.616ZM764.692 426.795C755.254 431.292 738.959 433.504 737.116 445.031C747.537 447.366 758.106 449.332 768.895 448.079C768.133 441.443 773.073 427.114 764.692 426.795Z"></path>
<path fill="#6D7273" d="M778.849 144.395C780.889 141.593 788.631 141.274 788.238 145.845C784.994 146.189 781.725 145.919 778.849 144.395Z"></path>
<path fill="#BBC5C8" d="M166.934 215.032C174.578 181.041 204.956 149.409 240.521 145.698C326.051 147.049 411.803 143.264 497.212 147.615C449.26 166.024 398.753 182.392 350.31 201.268C321.382 205.25 327.747 245.508 309.068 260.968C275.79 279.868 243.691 300.882 210.511 319.807C200.065 332.637 208.963 358.05 205.866 375.402C203.088 357.977 204.022 340.354 203.457 322.879C190.406 322.584 177.38 322.535 164.378 322.707C164.772 289.896 163.346 257.06 165.042 224.322C166.959 221.57 167.278 218.202 166.934 215.032Z"></path>
<path fill="#5F627E" d="M344.51 215.302C409.936 190.355 475.534 164.942 542.877 145.771C553.864 145.673 564.776 145.968 575.836 146.484C531.645 161.304 487.577 176.469 443.73 192.199C412.787 203.677 381.131 213.975 350.728 226.559C345.616 229.434 336.817 253.226 333.4 242.141C336.522 233.047 338.955 223.142 344.51 215.302Z"></path>
<path fill="#565D7C" d="M622.829 149.581C617.545 141.986 632.955 146.509 638.584 145.698C690.025 180.574 743.187 213.852 791.802 252.636C785.633 261.631 773.934 241.748 764.398 251.21C744.121 236.242 725.54 218.989 703.15 206.872C677.294 186.546 647.899 170.964 622.829 149.581Z"></path>
<path fill="#897FA0" d="M891.981 246.541C882.175 215.597 891.072 183.376 893.874 152.137C906.556 168.408 914.077 189.2 916.51 209.576C916.338 242.534 916.731 275.542 916.166 308.526C908.62 287.659 896.577 268.464 891.981 246.541Z"></path>
<path fill="#8E82A2" d="M108.218 225.133C120.433 214.564 120.777 190.626 139.727 189.962C133.877 227.099 127.585 264.285 118.147 300.71C116.992 328.925 111.634 356.698 108.267 384.717C107.776 331.506 107.382 278.295 108.218 225.133Z"></path>
<path fill="#424B6D" d="M350.728 226.558C381.131 213.975 412.787 203.676 443.73 192.199C480.597 199.793 523.977 190.06 557.526 197.36L555.24 197.458C521.765 198.786 485.316 194.632 453.709 199.228C452.554 206.208 452.456 213.729 451.497 220.881C409.174 218.571 372.16 243.173 331.877 251.284C331.704 249.391 331.36 245.631 331.188 243.763C331.754 243.345 332.86 242.559 333.4 242.141C336.817 253.225 345.616 229.434 350.728 226.558Z"></path>
<path fill="#353D5E" d="M555.24 197.459L557.526 197.361C558.018 209.576 557.354 221.717 557.821 234.006C573.403 231.77 590.337 232.876 604.322 224.445C633.84 204.881 670.437 215.106 703.15 206.872C725.54 218.989 744.121 236.243 764.398 251.211C747.709 249.613 730.308 251.063 714.578 244.452C710.154 236.562 707.549 225.723 695.285 227.813C675.057 234.571 647.997 220.144 631.161 234.916C616.218 250.105 590.632 236.022 571.879 244.796C570.921 251.432 563.449 248.655 558.288 249.195C551.357 233.933 556.076 214.516 555.24 197.459Z"></path>
<path fill="#2C324D" d="M451.497 220.881C452.456 213.729 452.554 206.208 453.709 199.228C454.053 209.895 455.012 220.783 454.348 231.573C446.434 240.814 435.349 246.319 424.363 251.038C395.828 251.554 367.269 250.891 338.857 254.086C321.751 263.426 327.133 248.605 331.188 243.763C331.36 245.631 331.705 249.392 331.877 251.284C372.16 243.173 409.174 218.571 451.497 220.881Z"></path>
<path fill="#74746F" d="M96.3961 216.875C94.0858 213.754 93.2748 205.496 98.1903 204.955C98.4853 208.986 98.1166 213.115 96.3961 216.875Z"></path>
<path fill="#4F371A" d="M464.228 251.186C461.549 244.23 457.568 214.835 464.228 207.314L464.302 209.699C464.228 221.84 464.081 234.129 464.204 246.344C464.204 247.548 464.204 249.982 464.228 251.186Z"></path>
<path fill="#9A6D2F" d="M464.228 207.314C491.215 207.117 518.226 206.896 545.212 207.363C545.261 222.774 545.974 238.331 545.114 253.791C520.266 250.817 484.456 259.616 464.228 251.186C464.204 249.981 464.203 247.548 464.203 246.344C486.029 258.633 517.611 248.236 542.754 251.259C543 237.422 543.467 223.585 542.681 209.846C516.53 209.256 490.404 209.747 464.302 209.698L464.228 207.314Z"></path>
<path fill="#E3A142" d="M464.302 209.698C490.404 209.748 516.53 209.256 542.681 209.846C543.467 223.585 543 237.422 542.754 251.259C517.611 248.236 486.029 258.633 464.203 246.344C464.081 234.129 464.228 221.84 464.302 209.698ZM476.419 224.42C467.546 248.925 496.351 236.095 508.468 239.265C519.577 240.961 545.679 241.551 530.834 224.47C518.914 217.809 488.191 221.791 476.419 224.42Z"></path>
<path fill="#645D77" d="M916.51 209.575C921.548 209.846 917.788 218.3 918.968 221.987C918.869 414.505 918.869 607.024 918.968 799.542C918.132 811.044 918.501 825.25 911.521 834.221C912.16 822.35 915.011 810.799 915.944 799.001C916.829 737.532 916.854 676.014 915.92 614.545C915.92 610.243 915.969 601.592 915.994 597.266C916.928 571.066 916.436 544.891 915.92 518.74C917.124 448.693 916.362 378.573 916.166 308.526C916.731 275.542 916.338 242.534 916.51 209.575Z"></path>
<path fill="#5C566C" d="M105.367 229.311C105.981 225.625 107.186 218.227 107.8 214.54C107.948 218.03 108.095 221.569 108.218 225.133C107.382 278.295 107.776 331.506 108.267 384.717C107.481 397.866 108.169 410.942 108.415 424.189C107.456 458.869 107.653 493.597 108.144 528.326C107.726 558.679 107.407 589.082 108.488 619.485C107.677 649.666 107.456 679.922 108.242 710.177C108.193 714.601 108.07 723.474 107.997 727.922C107.776 749.895 107.677 771.917 108.242 793.963C108.095 798.264 107.923 802.59 107.776 806.965C104.826 803.131 104.015 797.379 105.342 789.711C105.416 602.895 105.416 416.103 105.367 229.311Z"></path>
<path fill="#666B6F" d="M165.042 224.322C162.535 222.037 162.511 214.565 166.935 215.032C167.279 218.202 166.959 221.57 165.042 224.322Z"></path>
<path fill="#888983" d="M927.693 214.319L930.495 214.614C931.822 412.023 931.38 609.531 930.716 806.94L927.816 807.235C929.364 609.678 929.463 411.875 927.693 214.319Z"></path>
<path fill="#8D8C87" d="M93.6188 217.047L96.3961 216.875C94.5773 232.998 95.7079 249.269 96.3715 265.49C94.6265 445.277 95.8062 625.113 95.757 804.924L93.2992 804.212C93.1764 608.498 92.5373 412.711 93.6188 217.047Z"></path>
<path fill="#454151" d="M867.87 216.457C870.058 229.803 869.935 243.37 870.377 256.937C869.001 436.109 870.033 615.306 869.861 794.479L867.551 794.922C867.354 602.108 866.715 409.271 867.87 216.457Z"></path>
<path fill="#787C7D" d="M857.523 219.455L859.883 219.554C859.907 298.965 860.104 378.401 859.809 457.812L857.425 458.082C857.474 439.894 857.498 421.731 857.4 403.617C857.621 342.222 857.351 280.826 857.523 219.455Z"></path>
<path fill="#3A3642" d="M151.647 303.61C152.753 276.182 150.468 248.63 153.908 221.398C154.867 412.638 155.162 603.952 153.786 795.217C149.534 631.455 153.835 467.422 151.647 303.61Z"></path>
<path fill="#9C6F2F" d="M476.419 224.421C488.192 221.791 518.914 217.809 530.834 224.47C513.457 224.372 496.13 224.347 478.803 224.47L476.419 224.421Z"></path>
<path fill="#201F28" d="M918.968 221.988L921.327 221.963C921.401 414.481 921.376 607 921.352 799.543H918.968C918.869 607.024 918.869 414.506 918.968 221.988Z"></path>
<path fill="#595D5D" d="M162.314 224.42L165.042 224.322C163.346 257.06 164.772 289.896 164.378 322.707C164.354 329.663 164.551 337.036 165.091 344.163C164.108 371.371 164.329 398.653 164.378 425.934L162.019 425.959C161.994 358.787 161.478 291.567 162.314 224.42Z"></path>
<path fill="#59401C" d="M476.419 224.42L478.803 224.469C473.617 246.491 503.405 233.367 515.842 236.881C530.687 243.198 531.277 233.834 530.834 224.469C545.679 241.551 519.578 240.961 508.469 239.265C496.352 236.095 467.546 248.924 476.419 224.42Z"></path>
<path fill="#080704" d="M478.803 224.47C496.13 224.347 513.457 224.371 530.834 224.47C531.276 233.834 530.687 243.198 515.842 236.881C503.405 233.367 473.617 246.491 478.803 224.47Z"></path>
<path fill="#16151B" d="M103.057 229.434L105.367 229.311C105.416 416.103 105.416 602.895 105.342 789.711H102.983C102.958 602.944 102.786 416.177 103.057 229.434Z"></path>
<path fill="#8E83A2" d="M108.415 424.189C128.077 360.68 128.372 291.985 149.042 228.353C150.32 253.397 148.255 278.614 151.647 303.61C153.834 467.421 149.533 631.454 153.785 795.216C154.473 808.734 160.937 820.949 165.263 833.607C165.238 837.736 163.346 839.383 159.586 838.547C137.293 830.903 120.9 813.084 108.243 793.963C107.677 771.916 107.776 749.895 107.997 727.922C116.009 742.128 131.469 752.279 132.919 769.877C132.624 778.036 138.916 783.222 144.569 787.622C141.865 749.305 140.39 710.595 131.223 673.138C126.381 641.777 114.928 609.678 122.891 577.899C133.017 597.561 124.144 633.617 142.258 650.084C145.036 623.417 136.384 597.512 137.416 570.992C141.054 550.519 147.518 530.267 147.223 509.302C129.65 522.058 133.853 555.484 117.73 570.919C109.938 563.103 121.515 537.665 108.144 528.325C107.653 493.597 107.456 458.868 108.415 424.189ZM135.278 315.334C129.527 360.409 134.737 406.812 120.826 450.831C122.08 457.172 111.978 471.723 122.301 475.188C142.406 434.118 144.716 387.273 142.332 342.369C139.063 335.193 148.919 314.817 135.278 315.334Z"></path>
<path fill="#181D2F" d="M424.363 251.038C435.349 246.319 446.434 240.814 454.348 231.573C464.425 257.822 440.437 251.604 424.363 251.038Z"></path>
<path fill="#8D83A5" d="M872.909 230.958C883.477 264.433 900.067 296.507 898.986 332.686C906.974 401.16 909.726 470.838 899.109 538.943C878.611 585.101 871.41 636.321 877.013 686.435C867.256 696.979 895.324 713.52 884.632 689.016C885.886 630.766 894.906 573.131 915.92 518.74C916.436 544.891 916.928 571.067 915.994 597.266C888.762 644.456 896.651 702.362 883.084 753.803C875.662 776.98 877.554 803.45 864.97 824.685C865.929 814.486 870.082 804.802 869.861 794.479C870.033 615.307 869.001 436.11 870.377 256.937C871.016 250.449 872.27 237.447 872.909 230.958ZM882.052 408.705C886.107 439.182 880.626 469.462 877.357 499.766C876.301 503.109 878.341 506.378 881.781 507.115C896.405 476.639 896.799 440.878 886.697 408.976C885.542 408.902 883.207 408.779 882.052 408.705Z"></path>
<path fill="#2E3453" d="M571.879 244.795C590.632 236.021 616.218 250.104 631.161 234.915C631.333 238.897 635.044 238.823 638.116 239.486C634.479 252.808 645.097 265.367 646.62 278.295C655.37 278.27 663.899 276.107 672.673 276.132C681.496 293.287 685.625 312.409 692.728 330.302C727.555 332.292 727.187 375.5 742.572 398.235C746.112 411.187 761.325 405.068 771.427 406.346C762.038 411.31 743.285 406.935 729.964 411.138C711.285 397.227 716.004 355.887 683.585 366.554C678.178 345.171 674.369 322.953 666.406 302.48C658.393 297.244 638.829 305.355 634.626 292.501C629.637 279.081 628.162 264.187 621.084 251.628C602.282 248.924 571.461 255.536 558.288 249.195C563.449 248.654 570.921 251.431 571.879 244.795Z"></path>
<path fill="#4A5378" d="M638.116 239.487C654.387 239.118 670.83 238.233 687.149 239.536C700.716 270.185 715.021 300.907 732.323 329.712C719.174 331.359 705.902 332.711 692.728 330.302C685.625 312.409 681.496 293.288 672.673 276.132C663.899 276.108 655.37 278.271 646.62 278.295C645.097 265.367 634.479 252.808 638.116 239.487Z"></path>
<path fill="#596285" d="M687.149 239.536C692.434 239.978 701.454 235.8 702.609 244.157C724.508 290.56 749.012 335.832 771.623 381.645C771.476 385.922 771.279 390.223 770.935 394.548C756.36 373.977 744.76 351.537 732.323 329.712C715.021 300.907 700.716 270.185 687.149 239.536Z"></path>
<path fill="#2A2D43" d="M714.578 244.451C730.308 251.063 747.709 249.613 764.398 251.21C773.934 241.748 785.633 261.631 791.802 252.635C794.53 249.268 795.931 256.715 796.373 258.657C771.869 258.927 747.39 259.247 722.935 258.436C718.584 254.872 715.93 249.785 714.578 244.451Z"></path>
<path fill="#4D5050" d="M811.096 261.238L813.725 261.533C810.039 289.7 819.132 324.453 809.228 348.097C812.521 319.218 809.547 290.142 811.096 261.238Z"></path>
<path fill="#3A2617" d="M321.849 266.326C414.433 266.252 506.772 262.074 599.456 263.672C608.451 260.108 623.468 265.097 616.66 278.345C541.329 278.664 465.998 278.517 390.667 278.369C352.522 267.211 348.737 315.482 324.724 333.35C323.864 322.093 324.798 310.861 322.684 299.826C321.406 288.643 321.111 277.46 321.849 266.326Z"></path>
<path fill="#1A1B1C" d="M96.3713 265.49C100.132 445.843 97.207 626.809 97.7477 807.407L96.4205 807.186L95.7569 804.925C95.806 625.113 94.6263 445.277 96.3713 265.49Z"></path>
<path fill="#442A16" d="M309.412 273.306C310.002 272.79 311.182 271.733 311.772 271.217C311.624 302.135 312.534 333.128 311.501 364.047C281.099 370.88 249 360.065 217.958 366.898L219.261 365.276C248.017 343.377 276.281 320.864 304.546 298.351C313.345 293.435 308.011 281.515 309.412 273.306Z"></path>
<path fill="#65381B" d="M727.383 270.947C742.105 270.652 757 270.971 771.55 273.724C756.238 286.799 756.926 309.706 756.361 327.893C743.261 311.5 737.829 289.38 727.383 270.947Z"></path>
<path fill="#5E3A22" d="M218.868 328.188C248.779 309.509 278.862 290.952 309.412 273.306C308.011 281.515 313.345 293.435 304.546 298.35C276.281 320.864 248.017 343.377 219.261 365.276C218.597 352.864 217.442 340.501 218.868 328.188Z"></path>
<path fill="#8B5924" d="M771.55 273.724C781.184 273.478 791.876 271.807 800.847 276.55C800.65 295.942 801.731 315.432 800.674 334.873C786.96 335.193 773.295 335.07 759.654 334.972C757.442 333.104 756.336 330.744 756.361 327.893C756.926 309.706 756.238 286.799 771.55 273.724Z"></path>
<path fill="#3E2810" d="M800.847 276.55C806.745 290.068 801.977 318.357 803.255 337.331C791.261 334.898 766.02 342.468 759.654 334.972C773.295 335.07 786.96 335.193 800.675 334.873C801.731 315.432 800.65 295.942 800.847 276.55Z"></path>
<path fill="#1D140D" d="M324.724 333.35C348.737 315.482 352.522 267.211 390.667 278.369C382.63 280.851 384.35 288.421 380.147 295.229C353.259 305.478 346.328 338.019 324.577 355.199C324.823 336.717 319.096 318.21 322.684 299.825C324.798 310.861 323.864 322.093 324.724 333.35Z"></path>
<path fill="#6E533B" d="M373.192 310.59C468.259 310.32 563.351 310.369 658.442 310.566L658.123 312.95C563.252 312.876 468.382 312.827 373.511 312.975L373.192 310.59Z"></path>
<path fill="#D9A171" d="M358.199 333.915C362.623 326.861 366.261 316.661 373.511 312.974C468.382 312.827 563.252 312.876 658.123 312.95C666.111 330.228 672.231 355.814 676.384 376.877C672.304 373.411 673.337 365.546 665.84 366.579C653.478 353.577 653.576 322.633 628.9 327.77C548.825 327.819 468.603 326.984 388.627 328.139C380.934 336.495 368.424 337.847 358.199 333.915Z"></path>
<path fill="#7D7292" d="M135.278 315.334C148.919 314.818 139.063 335.193 142.332 342.369C144.716 387.273 142.406 434.119 122.301 475.188C111.978 471.723 122.08 457.173 120.826 450.832C134.737 406.813 129.527 360.41 135.278 315.334Z"></path>
<path fill="#545350" d="M205.866 375.402C208.963 358.05 200.066 332.637 210.511 319.807C207.636 338.118 209.135 356.699 208.127 375.181L205.866 375.402Z"></path>
<path fill="#E0D9D0" d="M164.378 322.708C177.38 322.536 190.406 322.585 203.457 322.88C204.023 340.355 203.089 357.977 205.866 375.403C193.012 377.492 179.985 378.77 166.959 378.082C166.32 366.702 168.016 355.224 165.091 344.164C164.551 337.036 164.354 329.663 164.378 322.708Z"></path>
<path fill="#F1BC8C" d="M358.2 333.915C368.424 337.847 380.934 336.496 388.627 328.139C468.603 326.984 548.825 327.82 628.9 327.77C653.576 322.634 653.478 353.577 665.841 366.579C664.636 366.628 662.228 366.726 661.023 366.751C633.988 368.815 605.674 363.482 579.277 368.938C573.846 371.47 569.348 375.796 566.964 381.35C565.243 404.06 561.483 428.687 566.939 451.004C569.987 457.492 575.369 462.555 581.711 465.8C582.964 466.39 585.446 467.594 586.675 468.184C606.215 469.88 627.401 473.665 646.67 468.331C647.899 467.717 650.332 466.463 651.536 465.849C656.796 463.047 661.392 458.918 663.874 453.412C667.758 424.632 665.054 395.507 665.841 366.579C673.337 365.547 672.305 373.412 676.384 376.877L678.277 377.86C679.408 378.352 681.644 379.384 682.775 379.875C680.415 414.973 682.971 449.8 683.045 484.995C685.11 507.68 668.814 531.349 645.048 532.971C559.443 535.675 473.666 533.241 387.988 534.2C365.425 537.96 342.543 520.461 340.626 497.677C336.694 451.717 339.914 405.486 338.783 359.427C344.952 350.702 351.514 342.247 358.2 333.915ZM358.593 369.43C351.834 390.493 356.135 431.612 358.544 453.019C358.986 460.982 368.301 466.832 375.699 467.741C390.519 471.969 422.274 471.944 437.291 467.741C445.353 465.284 454.864 459.483 456.781 450.365C463.491 435.126 459.337 397.522 456.806 381.793C454.79 376.263 448.326 370.118 442.207 369.43C420.504 362.794 379.926 366.972 358.593 369.43ZM471.897 472.657C462.164 489.517 486.643 504.387 501.046 507.066C502.84 511.244 519.062 511.244 520.807 507.017C535.971 505.517 559.64 488.854 549.882 472.878C540.813 479.957 533.858 491.926 521.569 495.563C514.539 494.457 507.412 494.531 500.407 495.49C487.332 492.737 483.424 477.622 471.897 472.657Z"></path>
<path fill="#3E4568" d="M692.728 330.302C705.902 332.71 719.174 331.359 732.323 329.712C744.76 351.537 756.361 373.976 770.935 394.548C771.279 390.222 771.476 385.921 771.623 381.645C775.998 389.952 775.925 398.186 771.427 406.346C761.325 405.068 746.112 411.187 742.572 398.235C727.187 375.5 727.555 332.293 692.728 330.302Z"></path>
<path fill="#BEC8CA" d="M165.091 344.163C168.016 355.223 166.32 366.701 166.959 378.081C179.985 378.769 193.012 377.491 205.866 375.402L208.127 375.181C241.774 378.228 275.618 376.287 309.388 376.852C310.961 417.086 306.389 457.959 311.133 497.923C311.796 500.405 312.558 502.912 313.418 505.419C317.72 520.583 325.068 535.109 337.062 545.677C348.344 554.402 331.901 568.412 325.953 574.409C322.365 554.476 300.146 562.095 285.572 564.11C284.687 575.367 283.483 586.894 279.575 597.635C270.53 594.292 283.163 566.323 262.641 575.785C244.871 568.289 248.312 582.397 247.525 592.768C237.104 592.277 226.732 590.483 216.336 590.532C215.869 597.561 215.992 605.549 215.918 612.824C185.614 621.746 202.081 582.913 198.738 565.757C211.101 563.545 230.689 568.559 226.118 550.249C246.812 554.255 263.869 546.316 283.114 542.089C285.449 532.11 292.208 504.829 270.014 514.488C250.45 518.838 271.562 482.045 247.894 492.417C226.782 498.66 250.548 460.662 225.848 470.076C215.943 471.698 222.726 454.248 218.155 450.831C217.565 442.794 204.367 450.241 198.959 447.833C189.595 446.481 198.959 433.774 193.306 428.662C183.672 428.367 174.037 428.244 164.452 428.342L164.378 425.934C164.329 398.652 164.108 371.371 165.091 344.163Z"></path>
<path fill="#9CA3A2" d="M768.305 351.513C763.242 342.616 799.814 348.563 809.228 348.096C795.808 350.874 781.823 349.522 768.305 351.513Z"></path>
<path fill="#D69F6F" d="M324.405 375.009C328.608 369.184 333.4 363.974 338.783 359.427C339.913 405.486 336.694 451.717 340.626 497.677C342.543 520.461 365.425 537.96 387.988 534.2C473.666 533.241 559.443 535.675 645.047 532.971C668.814 531.349 685.109 507.68 683.045 484.995C682.971 449.8 680.415 414.973 682.774 379.876C686.756 379.556 690.738 379.237 694.744 378.942L697.423 378.917C698.013 419.987 697.57 461.105 697.742 502.224C695.579 526.433 673.091 548.332 648.587 548.922C555.166 548.676 461.746 548.971 368.35 548.799C345.591 545.26 327.526 524.344 324.061 502.224C324.306 459.803 323.815 417.406 324.405 375.009Z"></path>
<path fill="#63503F" d="M358.593 369.43C379.926 366.972 420.504 362.794 442.206 369.43C414.335 369.356 386.464 369.43 358.593 369.43Z"></path>
<path fill="#4D4033" d="M579.277 368.938C605.674 363.482 633.987 368.815 661.023 366.751L661.662 368.865C634.184 369.725 606.731 369.577 579.277 368.938Z"></path>
<path fill="#8C7154" d="M661.023 366.751C662.227 366.726 664.636 366.628 665.84 366.579C665.054 395.507 667.757 424.631 663.874 453.412C661.465 425.344 666.406 396.539 661.662 368.864L661.023 366.751Z"></path>
<path fill="#87684D" d="M358.544 453.019C356.135 431.612 351.834 390.493 358.593 369.43C358.543 397.277 358.494 425.148 358.544 453.019Z"></path>
<path fill="#040304" d="M358.592 369.429C386.464 369.429 414.335 369.356 442.206 369.429C448.326 370.118 454.79 376.262 456.806 381.792C456.879 404.625 456.928 427.482 456.781 450.364C454.864 459.483 445.352 465.283 437.291 467.741C416.744 467.692 396.221 467.79 375.699 467.741C368.301 466.832 358.986 460.982 358.543 453.019C358.494 425.148 358.543 397.276 358.592 369.429ZM368.35 379.285C365.228 389.436 364.442 401.676 365.99 416.005C377.444 414.087 397.868 420.232 405.192 413.67C410.992 408.041 408.559 384.004 405.217 379.285C400.227 374.837 373.364 374.837 368.35 379.285Z"></path>
<path fill="#3F4243" d="M208.127 375.181C241.455 375.476 282.5 370.831 311.821 376.779L309.388 376.852C275.618 376.287 241.774 378.229 208.127 375.181Z"></path>
<path fill="#7E6045" d="M321.972 374.173L324.405 375.009C323.815 417.406 324.307 459.803 324.061 502.224C318.629 464.03 322.807 416.079 321.972 374.173Z"></path>
<path fill="#737475" d="M405.217 379.286C408.56 384.005 410.993 408.042 405.192 413.67C405.242 402.192 405.168 390.641 405.217 379.286Z"></path>
<path fill="#A5ADAE" d="M309.388 376.852L311.821 376.778C311.526 417.135 312.632 457.541 311.133 497.923C306.389 457.959 310.961 417.086 309.388 376.852Z"></path>
<path fill="#424645" d="M311.821 376.778C317.105 414.972 313.836 463.366 313.419 505.419C312.558 502.912 311.796 500.405 311.133 497.923C312.632 457.541 311.526 417.135 311.821 376.778Z"></path>
<path fill="#707174" d="M368.35 379.286C373.364 374.837 400.227 374.837 405.217 379.286C392.879 379.187 380.639 379.237 368.35 379.286Z"></path>
<path fill="#494A4A" d="M616.635 413.695C612.162 408.632 612.285 381.522 616.586 376.902L616.66 379.261C616.586 390.641 616.611 402.192 616.635 413.695Z"></path>
<path fill="#888789" d="M616.586 376.902C627.179 379.015 646.571 372.379 653.502 379.31C641.975 379.187 630.547 379.237 619.069 379.31L616.66 379.261L616.586 376.902Z"></path>
<path fill="#624B38" d="M678.277 377.86C682.922 376.139 691.893 374.394 694.744 378.941C690.738 379.236 686.756 379.556 682.775 379.875C681.644 379.384 679.408 378.351 678.277 377.86Z"></path>
<path fill="#8C9497" d="M784.109 376.361C788.509 387.691 787.55 406.149 783.912 416.349C783.618 402.929 783.298 389.682 784.109 376.361Z"></path>
<path fill="#6B6C6D" d="M365.99 416.005C364.442 401.676 365.228 389.437 368.35 379.286C368.448 390.592 367.76 402.094 368.645 413.498C380.762 413.719 393.026 413.769 405.192 413.67C397.868 420.233 377.444 414.088 365.99 416.005Z"></path>
<path fill="#CACACB" d="M616.66 379.261L619.069 379.31C619.02 390.665 619.069 402.192 619.069 413.645L616.636 413.694C616.611 402.192 616.587 390.64 616.66 379.261Z"></path>
<path fill="#FAFAFA" d="M619.068 379.31C630.546 379.236 641.975 379.187 653.502 379.31C653.281 390.591 654.067 402.118 653.207 413.498C641.778 413.695 630.448 413.768 619.068 413.645C619.068 402.192 619.019 390.665 619.068 379.31Z"></path>
<path fill="#626262" d="M653.502 379.31C656.574 389.436 657.336 401.651 655.812 416.005C645.195 413.08 622.755 421.658 616.635 413.694L619.069 413.645C630.448 413.768 641.779 413.694 653.207 413.498C654.067 402.118 653.281 390.591 653.502 379.31Z"></path>
<path fill="#977351" d="M697.423 378.917C702.24 414.972 701.65 466.389 697.742 502.224C697.57 461.105 698.013 419.986 697.423 378.917Z"></path>
<path fill="#846B51" d="M456.806 381.792C459.337 397.522 463.491 435.126 456.781 450.365C456.929 427.483 456.879 404.625 456.806 381.792Z"></path>
<path fill="#645343" d="M566.939 451.003C561.483 428.687 565.243 404.06 566.964 381.35C567.554 404.551 567.578 427.753 566.939 451.003Z"></path>
<path fill="#80898F" d="M710.253 404.06C711.162 404.454 712.956 405.191 713.841 405.56C709.024 437.658 715.955 470.617 710.597 502.765C709.81 469.855 709.515 436.921 710.253 404.06Z"></path>
<path fill="#DDDBD5" d="M843.071 457.665C844.964 440.313 825.08 397.572 857.4 403.618C857.498 421.732 857.474 439.895 857.425 458.082C852.632 458.009 847.815 458.083 843.071 457.665Z"></path>
<path fill="#7C7193" d="M882.052 408.706C883.207 408.779 885.542 408.902 886.697 408.976C896.799 440.878 896.405 476.639 881.781 507.115C878.341 506.378 876.301 503.109 877.357 499.767C880.626 469.462 886.107 439.182 882.052 408.706Z"></path>
<path fill="#474C51" d="M761.645 418.905C763.488 412.711 776.072 417.332 782.069 417.037C775.507 419.225 768.305 418.217 761.645 418.905Z"></path>
<path fill="#61676E" d="M732.078 421.215C734.019 413.621 750.437 420.134 757.491 419.544C749.208 421.559 740.459 421.215 732.078 421.215Z"></path>
<path fill="#44483D" d="M162.019 425.959L164.379 425.935L164.452 428.343C164.329 467.766 164.329 507.214 164.403 546.661C164.354 550.815 164.28 559.122 164.231 563.276C164.182 580.677 164.354 598.176 164.452 615.627L164.379 618.011L162.093 617.519C161.749 553.666 161.872 489.788 162.019 425.959Z"></path>
<path fill="#E3DFDB" d="M764.692 426.795C773.074 427.114 768.133 441.443 768.895 448.079C758.106 449.333 747.537 447.366 737.116 445.031C738.96 433.504 755.255 431.292 764.692 426.795Z"></path>
<path fill="#7E9261" d="M164.452 428.343C174.037 428.245 183.672 428.368 193.306 428.663C198.959 433.775 189.595 446.482 198.959 447.834C204.367 450.242 217.565 442.795 218.155 450.832C222.726 454.248 215.943 471.699 225.848 470.076C250.548 460.663 226.782 498.66 247.894 492.418C271.562 482.046 250.45 518.839 270.014 514.489C292.208 504.83 285.449 532.111 283.114 542.09C263.87 546.317 246.812 554.255 226.118 550.249C223.095 537.051 207.119 548.971 199.082 543.318C198.542 531.988 199.328 520.805 198.443 509.598C161.134 494.531 196.87 553.027 164.403 546.661C164.329 507.214 164.329 467.766 164.452 428.343Z"></path>
<path fill="#7D9061" d="M825.99 443.065C844.62 431.784 834.469 455.944 843.071 457.664C847.815 458.082 852.632 458.008 857.425 458.082C857.081 489.935 858.211 521.837 857.204 553.69C847.545 554.107 837.91 554.034 828.349 553.493C822.279 538.968 835.796 506.893 808.81 514.488C801.731 525.401 808.245 540.958 805.467 553.37C795.808 553.419 786.174 553.665 776.588 554.058C776.392 560.473 776.318 566.912 776.367 573.401C767.765 567.429 779.808 543.588 771.894 536.166C764.447 530.783 740.803 541.352 749.233 521.812C739.623 496.128 783.249 521.886 773.442 496.694C776.343 484.552 803.944 501.216 798.561 482.537C788.459 458.401 821.566 477.818 825.302 467.544C825.474 461.424 825.818 449.185 825.99 443.065Z"></path>
<path fill="#656154" d="M857.425 458.082L859.809 457.812C861.21 504.534 858.211 551.257 859.883 597.93L857.499 598.102C853.468 590.95 865.462 567.626 850.617 571.116C827.759 561.383 831.176 582.667 834.764 596.037C839.09 602.108 850.592 596.406 857.499 598.102C857.474 602.969 857.474 607.835 857.425 612.75C810.678 612.775 763.955 612.628 717.233 612.873C708.68 606.459 702.707 595.595 697.202 586.182C704.256 591.146 713.694 589.967 720.698 594.809C739.427 608.326 720.428 559.392 749.233 575.687C771.378 566.79 754.812 591.466 764.815 597.316C779.341 596.16 793.768 597.905 808.318 597.955C808.269 591.982 808.195 579.988 808.171 573.991C799.298 567.773 786.297 575.81 776.367 573.401C776.318 566.913 776.392 560.473 776.588 554.059C786.174 553.665 795.808 553.419 805.467 553.37C808.245 540.959 801.731 525.401 808.81 514.488C835.796 506.894 822.279 538.968 828.349 553.493C837.91 554.034 847.545 554.108 857.204 553.69C858.211 521.837 857.081 489.935 857.425 458.082Z"></path>
<path fill="#A48161" d="M375.699 467.741C396.221 467.79 416.744 467.692 437.291 467.741C422.274 471.944 390.519 471.969 375.699 467.741Z"></path>
<path fill="#B08967" d="M586.675 468.184C606.657 467.643 626.663 467.643 646.67 468.331C627.401 473.665 606.215 469.88 586.675 468.184Z"></path>
<path fill="#1C1812" d="M471.896 472.657C483.423 477.622 487.331 492.737 500.407 495.49C507.215 496.596 514.908 498.857 521.568 495.563C533.857 491.926 540.813 479.957 549.882 472.878C559.639 488.854 535.971 505.518 520.806 507.017C514.195 507.017 507.583 507.041 501.046 507.066C486.643 504.387 462.164 489.517 471.896 472.657Z"></path>
<path fill="#886F58" d="M500.407 495.489C507.412 494.531 514.539 494.457 521.569 495.563C514.908 498.856 507.215 496.595 500.407 495.489Z"></path>
<path fill="#95A48A" d="M759.089 506.992C771.55 513.53 770.812 502.863 773.442 496.694C783.249 521.887 739.623 496.129 749.233 521.813C740.803 541.352 764.447 530.784 771.894 536.166C763.636 536.51 755.205 536.51 747.021 536.437C749.43 525.991 737.411 499.717 759.089 506.992Z"></path>
<path fill="#A98767" d="M501.046 507.066C507.584 507.041 514.195 507.016 520.807 507.016C519.062 511.244 502.84 511.244 501.046 507.066Z"></path>
<path fill="#7B7192" d="M117.73 570.919C133.853 555.484 129.65 522.058 147.223 509.302C147.518 530.267 141.054 550.519 137.417 570.993C136.384 597.512 145.036 623.417 142.258 650.084C124.145 633.617 133.017 597.561 122.891 577.899C114.928 609.678 126.381 641.777 131.223 673.138C140.391 710.595 141.865 749.305 144.569 787.622C138.916 783.223 132.624 778.037 132.919 769.877C131.469 752.279 116.009 742.128 107.997 727.922C108.071 723.474 108.194 714.601 108.243 710.177C117.263 716.469 120.9 727.701 127.413 736.328C129.257 696.414 114.289 658.49 108.488 619.485C107.407 589.082 107.727 558.679 108.144 528.326C121.515 537.665 109.939 563.103 117.73 570.919Z"></path>
<path fill="#605D4F" d="M164.403 546.66C196.871 553.026 161.134 494.531 198.444 509.597C199.328 520.805 198.542 531.987 199.083 543.318C207.12 548.971 223.095 537.05 226.118 550.249C226.708 568.584 200.778 553.739 198.739 565.757C202.081 582.913 185.614 621.746 215.918 612.824C244.773 614.938 273.431 610.882 302.088 609.432C299.385 614.716 297.271 621.967 291.987 624.843C249.639 629.709 206.751 627.055 164.452 632.462C164.379 627.62 164.379 622.803 164.379 618.01L164.452 615.626C186.376 618.256 173.399 588.049 176.84 575.883C183.599 559.809 173.399 559.515 164.231 563.275C164.28 559.121 164.354 550.814 164.403 546.66Z"></path>
<path fill="#5A432F" d="M368.35 548.799C461.746 548.971 555.166 548.677 648.587 548.922L648.537 551.282C555.191 551.208 461.819 551.552 368.497 551.134L368.35 548.799Z"></path>
<path fill="#84837A" d="M198.738 565.758C200.778 553.739 226.708 568.584 226.118 550.249C230.69 568.56 211.101 563.546 198.738 565.758Z"></path>
<path fill="#1E2335" d="M349.818 560.448C355.766 550.568 353.087 580.381 353.677 583.257C353.358 629.881 354.021 676.53 353.431 723.154L351.072 723.744C351.096 675.842 351.465 627.939 350.875 580.062C350.703 573.278 351.121 566.912 349.818 560.448Z"></path>
<path fill="#2C324B" d="M363.41 578.342C352.424 548.234 382.089 562.391 397.671 561.629C399.195 595.03 395.435 628.702 399.908 661.956C398.802 661.907 396.639 661.759 395.558 661.686C394.526 633.913 396.443 606.115 395.115 578.44C380.098 577.826 357.732 571.78 366.163 595.055C365.622 599.012 364.541 606.901 364 610.858C363.754 599.921 363.631 589.156 363.41 578.342Z"></path>
<path fill="#262B41" d="M621.428 577.973C612.113 552.904 639.051 559.491 652.937 558.999C659.893 568.83 655.1 584.019 655.419 596.136C661.466 573.402 635.757 574.188 621.428 577.973Z"></path>
<path fill="#BEBEC5" d="M164.231 563.275C173.399 559.515 183.598 559.81 176.84 575.884C173.399 588.05 186.376 618.256 164.452 615.626C164.354 598.176 164.182 580.676 164.231 563.275Z"></path>
<path fill="#808E65" d="M285.572 564.111C300.147 562.095 322.365 554.476 325.953 574.409C319.465 586.526 311.133 600.216 302.088 609.433C273.43 610.883 244.773 614.938 215.918 612.824C215.992 605.549 215.869 597.561 216.336 590.532C226.733 590.483 237.104 592.277 247.525 592.769C248.312 582.397 244.871 568.289 262.641 575.785C283.163 566.323 270.53 594.292 279.575 597.635C283.483 586.895 284.687 575.368 285.572 564.111Z"></path>
<path fill="#555E7C" d="M349.818 560.449C351.121 566.913 350.703 573.278 350.875 580.062C343.158 589.205 337.185 599.675 331.09 609.949C313.148 632.732 303.538 662.791 282.598 682.65C279.206 679.676 272.767 676.555 277.338 671.713C299.778 633.592 322.807 595.546 349.818 560.449Z"></path>
<path fill="#874F57" d="M407.822 561.235C426.477 561.088 445.181 560.695 463.884 561.186C463.516 566.274 463.467 571.41 462.508 576.498C445.131 575.859 427.73 575.466 410.378 576.031C409.764 600.388 410.182 624.793 410.206 649.224C404.406 625.875 409.1 589.475 407.822 561.235Z"></path>
<path fill="#CB7C49" d="M463.884 561.186C468.357 561.137 477.353 561.039 481.851 561.014C483.153 565.807 483.817 570.772 484.259 575.785C483.841 582.421 483.571 589.156 483.424 595.964C481.31 585.74 485.144 568.044 467.153 575.982C460.861 586.6 465.236 600.978 463.712 613.242C460.542 601.322 461.353 588.664 462.508 576.498C463.466 571.411 463.515 566.274 463.884 561.186Z"></path>
<path fill="#91575B" d="M481.851 561.014C525.083 561.383 568.34 560.769 611.597 561.285C609.729 589.156 615.677 626.146 609.213 649.372C608.746 624.892 610.172 600.388 608.918 575.982C591.099 573.23 572.912 578.882 555.412 576.179C561.876 557.524 527.148 557.745 538.011 576.228C520.217 579.988 502.078 577.58 484.259 575.785C483.817 570.772 483.153 565.807 481.851 561.014Z"></path>
<path fill="#2F3552" d="M666.013 560.768C668.249 561.85 669.404 563.447 669.429 565.537C668.642 579.964 680.046 592.179 685.527 605.082C693.392 638.951 665.275 682.969 699.438 707.031C690.812 714.011 679.555 721.975 668.421 726.202C669.921 670.976 664.046 615.946 666.013 560.768Z"></path>
<path fill="#D37B42" d="M538.011 576.228C527.148 557.746 561.876 557.524 555.412 576.179L555.486 578.17C551.185 578.219 542.558 578.366 538.257 578.44L538.011 576.228Z"></path>
<path fill="#5A6280" d="M685.527 605.083C680.046 592.179 668.642 579.964 669.429 565.537C695.678 597.783 717.823 633.445 740.655 668.248C745.03 672.647 746.21 680.045 739.255 682.675C715.635 661.808 703.469 630.742 685.527 605.083Z"></path>
<path fill="#C2C4C2" d="M850.617 571.115C865.462 567.625 853.468 590.95 857.499 598.102C850.592 596.406 839.09 602.108 834.764 596.037C835.919 584.338 830.586 566.446 850.617 571.115Z"></path>
<path fill="#B06B74" d="M410.378 576.031C427.73 575.466 445.131 575.859 462.508 576.498C461.353 588.664 460.541 601.322 463.712 613.242C475.19 615.528 487.651 616.29 501.095 615.503C504.118 622.754 496.892 632.781 501.66 639.663C508.124 636.763 530.293 647.381 520.806 627.497C514.17 600.683 546.49 620.542 557.452 609.629C557.477 599.061 559.123 588.222 555.486 578.17L555.412 576.179C572.911 578.882 591.099 573.229 608.918 575.982C610.171 600.388 608.746 624.892 609.213 649.372C601.815 647.528 595.843 648.241 591.246 651.436C589.305 661.218 589.698 671.393 589.428 681.446C582.718 681.47 569.274 681.544 562.54 681.569C547.965 678.742 565.833 707.646 555.092 708.604C538.502 709.735 521.249 705.729 505.052 710.153C504.241 719.32 503.577 728.586 503.061 737.901C490.109 738.171 477.156 738.221 464.228 738.098C459.116 722.614 473.445 689.384 459.706 681.421C449.752 681.421 439.822 681.421 429.917 681.47C426.698 673.237 434.833 657.31 427.533 651.829C421.905 650.011 416.129 649.126 410.206 649.224C410.182 624.794 409.764 600.388 410.378 576.031ZM477.107 631.086C460.984 628.874 460.615 650.035 467.202 659.227C488.781 670.337 493.083 633.593 477.107 631.086ZM535.602 632.364C539.756 638.213 527.369 661.71 540.42 659.522C565.268 668.616 558.632 619.976 535.602 632.364ZM506.674 660.186C495.221 661.292 493.132 684.936 505.961 684.1C526.066 692.162 525.599 654.877 506.674 660.186Z"></path>
<path fill="#EAA04A" d="M467.153 575.982C485.144 568.044 481.31 585.74 483.423 595.964C497.457 601.322 518.644 596.75 535.234 597.856C537.249 591.589 536.782 584.83 538.257 578.44C542.558 578.366 551.185 578.219 555.486 578.17C559.123 588.222 557.476 599.061 557.452 609.629C546.49 620.542 514.17 600.683 520.806 627.497C530.293 647.381 508.124 636.763 501.66 639.663C496.892 632.781 504.118 622.754 501.095 615.503C487.651 616.29 475.19 615.528 463.712 613.242C465.236 600.978 460.861 586.6 467.153 575.982Z"></path>
<path fill="#B86B75" d="M484.259 575.785C502.078 577.579 520.217 579.988 538.011 576.228L538.257 578.44C536.782 584.83 537.249 591.589 535.234 597.856C518.644 596.75 497.457 601.322 483.424 595.964C483.571 589.156 483.841 582.421 484.259 575.785Z"></path>
<path fill="#384060" d="M621.428 577.973C635.757 574.188 661.466 573.401 655.419 596.136C655.444 600.437 655.493 609.039 655.518 613.34C659.549 596.775 649.447 596.234 639.395 601.15C634.627 614.815 633.029 629.513 627.474 643.006C622.559 607.245 624.501 659.399 623.665 666.993C616.955 666.748 611.794 665.544 606.067 662.938C611.057 661.513 617.52 663.282 621.256 658.883C622.117 631.896 621.133 604.91 621.428 577.973Z"></path>
<path fill="#161924" d="M361.149 775.136C362.402 710.324 357.855 639.171 363.41 578.341C363.631 589.156 363.754 599.921 364 610.858C362.82 665.421 363.705 720.033 363.508 774.62L361.149 775.136Z"></path>
<path fill="#373E5D" d="M366.163 595.054C357.732 571.779 380.098 577.825 395.115 578.439C396.442 606.114 394.525 633.912 395.558 661.685C396.639 661.758 398.802 661.906 399.908 661.955C429.696 651.952 414.089 678.127 419.767 691.522C428.222 696.364 441.322 692.431 451.767 694.201C452.062 723.252 452.48 752.352 451.546 781.452C450.514 781.821 448.474 782.558 447.441 782.927C441.125 780.69 427.927 785.827 424.904 780.027C429.082 779.978 437.389 779.904 441.543 779.855C439.601 756.825 433.531 734.386 431.712 711.381C431.613 693.488 395.582 715.461 405.389 688.941C410.034 674.219 403.619 666.772 390.888 663.823C382.064 641.211 388.75 610.735 366.163 595.054Z"></path>
<path fill="#33395A" d="M331.09 609.949C337.185 599.675 343.158 589.205 350.875 580.062C351.465 627.94 351.096 675.842 351.072 723.745C341.634 719.37 328.387 713.643 322.439 706.54C329.64 697.373 338.906 689.36 342.937 678.177C342.568 655 337.235 632.192 331.09 609.949Z"></path>
<path fill="#495377" d="M366.163 595.055C388.75 610.735 382.065 641.212 390.888 663.823C403.619 666.773 410.034 674.22 405.389 688.942C395.582 715.461 431.614 693.489 431.712 711.382C433.531 734.386 439.601 756.826 441.543 779.855C437.389 779.905 429.082 779.978 424.904 780.028C404.283 780.716 383.908 777.054 363.508 774.62C363.705 720.033 362.82 665.421 364 610.858C364.541 606.901 365.622 599.012 366.163 595.055Z"></path>
<path fill="#4B547A" d="M639.395 601.15C649.447 596.234 659.548 596.775 655.518 613.34C655.616 614.422 655.788 616.585 655.886 617.691C656.82 656.401 654.043 695.283 657.484 733.944C658.59 746.577 658.836 759.259 658.172 772.015C635.683 776.341 612.31 777.766 589.428 780.199C587.658 779.953 584.094 779.462 582.325 779.216C583.332 753.311 589.968 727.554 585.372 701.599C614.128 710.497 602.159 678.668 604.175 662.176L606.067 662.938C611.794 665.544 616.955 666.748 623.665 666.994C624.5 659.399 622.559 607.245 627.474 643.006C633.029 629.513 634.627 614.815 639.395 601.15Z"></path>
<path fill="#21241A" d="M857.498 598.102L859.882 597.93C859.858 659.35 860.153 720.795 859.784 782.215L857.523 782.387C857.326 725.833 857.597 669.28 857.425 612.751C857.474 607.835 857.474 602.969 857.498 598.102Z"></path>
<path fill="#776D8E" d="M883.084 753.803C896.651 702.361 888.762 644.456 915.994 597.266C915.969 601.592 915.92 610.243 915.92 614.544C907.121 645.832 902.427 678.275 901.149 710.742C893.8 764.592 883.453 818.049 874.9 871.629C898.863 855.014 904.516 823.948 915.945 799.001C915.011 810.799 912.16 822.35 911.521 834.221C897.855 886.523 850.125 930.296 796.128 937.227C776.588 937.08 757.098 937.473 737.632 936.711C689.878 922.653 639.051 922.382 590.337 911.863C570.208 907.095 546.81 906.873 530.097 892.987C592.426 904.317 655.739 909.43 718.486 918.474C747.464 923.291 784.699 926.486 802.543 897.091C804.681 892.643 818.911 880.133 808.097 880.084C841.302 864.452 864.233 831.469 867.551 794.921L869.861 794.479C870.082 804.801 865.929 814.485 864.97 824.685C877.554 803.45 875.662 776.98 883.084 753.803ZM858.211 854.228C834.764 874.209 817.314 899.328 800.871 925.159C829.111 920.121 858.285 901.343 867.059 873.054C867.526 867.229 868.706 849.951 858.211 854.228Z"></path>
<path fill="#454E72" d="M685.527 605.082C703.469 630.742 715.635 661.808 739.255 682.674C725.909 690.662 712.661 698.822 699.438 707.031C665.275 682.969 693.392 638.951 685.527 605.082Z"></path>
<path fill="#495174" d="M282.598 682.65C303.538 662.791 313.148 632.733 331.09 609.949C337.234 632.192 342.568 655 342.936 678.177C338.906 689.36 329.64 697.373 322.439 706.54C308.798 699.142 296.14 690.171 282.598 682.65Z"></path>
<path fill="#43452F" d="M717.233 612.874C763.955 612.628 810.678 612.776 857.425 612.751C857.597 669.28 857.327 725.834 857.523 782.387C859.563 811.537 844.448 839.531 822.451 857.866C781.995 890.874 724.164 875.808 677.294 876.52C675.45 832.723 668.962 787.18 670.928 742.522C683.979 759.186 689.632 782.731 705.706 796.446C735.838 791.112 761.866 772.163 788.042 757.146C802.641 745.373 783.224 728.021 778.825 715.978C763.39 678.669 737.829 647.086 717.233 612.874Z"></path>
<path fill="#43452F" d="M164.452 632.462C206.751 627.055 249.639 629.71 291.987 624.843C269.965 666.724 241.848 706.417 223.709 749.895C249.32 771.819 280.951 789.81 314.107 797.085C331.483 783.985 334.998 757.858 350.801 742.325C351.514 787.548 351.195 832.796 351.023 878.044C300.343 871.58 239.464 895.716 196.846 858.013C178.117 839.457 164.354 814.093 164.305 787.254C164.55 735.64 164.182 684.051 164.452 632.462Z"></path>
<path fill="#8A80A2" d="M901.149 710.742C902.427 678.275 907.121 645.832 915.92 614.545C916.854 676.014 916.829 737.532 915.945 799.002C904.516 823.948 898.863 855.014 874.9 871.629C883.453 818.049 893.8 764.593 901.149 710.742Z"></path>
<path fill="#24261C" d="M162.093 617.519L164.379 618.01C164.379 622.803 164.379 627.62 164.452 632.462C164.182 684.051 164.551 735.64 164.305 787.253C158.922 735.345 163.125 673.335 162.093 617.519Z"></path>
<path fill="#30354B" d="M655.886 617.69C661.219 651.583 657.926 696.045 657.484 733.944C654.043 695.283 656.82 656.401 655.886 617.69Z"></path>
<path fill="#8D84A2" d="M108.488 619.485C114.289 658.49 129.257 696.414 127.413 736.328C120.9 727.701 117.263 716.469 108.242 710.177C107.456 679.922 107.677 649.667 108.488 619.485Z"></path>
<path fill="#E4954B" d="M477.107 631.085C493.083 633.592 488.782 670.336 467.202 659.227C460.615 650.035 460.984 628.873 477.107 631.085Z"></path>
<path fill="#E89B4E" d="M535.602 632.364C558.632 619.977 565.268 668.617 540.419 659.523C527.369 661.71 539.756 638.214 535.602 632.364Z"></path>
<path fill="#442E32" d="M427.533 651.829C434.833 657.31 426.698 673.236 429.917 681.47C423.183 677.685 428.885 660.456 427.533 651.829Z"></path>
<path fill="#513639" d="M589.428 681.445C589.698 671.393 589.305 661.218 591.246 651.436C588.322 658.244 598.054 679.504 589.428 681.445Z"></path>
<path fill="#E3A54F" d="M506.674 660.186C525.599 654.877 526.066 692.162 505.961 684.1C493.132 684.936 495.221 661.292 506.674 660.186Z"></path>
<path fill="#343A58" d="M598.841 691.006C610.393 686.214 591.763 660.456 604.175 662.177C602.159 678.668 614.129 710.497 585.372 701.6C589.969 727.554 583.333 753.311 582.325 779.216C584.094 779.462 587.658 779.954 589.428 780.199C589.846 787.671 573.305 780.667 567.578 782.117C567.381 751.91 567.16 721.704 567.603 691.547C577.925 690.884 588.469 692.186 598.841 691.006Z"></path>
<path fill="#3B282C" d="M459.706 681.421C473.445 689.384 459.116 722.613 464.228 738.097C457.002 723.965 466.194 699.24 459.706 681.421Z"></path>
<path fill="#DFC1A4" d="M267.458 688.77C269.989 683.265 276.208 689.827 277.092 693.17C266.966 708.678 259.888 725.932 249.737 741.441C246.542 740.236 243.273 738.983 241.823 735.689C251.187 720.476 257.75 703.738 267.458 688.77Z"></path>
<path fill="#DFBCA6" d="M744.318 691.548C746.923 689.385 750.241 688.23 753.608 689.286C759.924 705.95 771.378 720.156 777.498 736.869L775.876 738.049C759.285 731.708 755.255 706.098 744.318 691.548Z"></path>
<path fill="#24283B" d="M419.767 691.523C431.22 691.326 442.796 690.834 454.274 691.596C454.52 721.802 454.495 752.058 454.372 782.313C456.584 786.098 444.394 786.319 447.441 782.928C448.474 782.559 450.514 781.822 451.546 781.453C452.48 752.353 452.062 723.253 451.767 694.202C441.322 692.432 428.222 696.365 419.767 691.523Z"></path>
<path fill="#F0BB89" d="M697.423 723.179C710.867 710.595 729.473 702.951 744.318 691.547C755.255 706.097 759.285 731.707 775.875 738.048C758.13 748.002 740.655 758.694 722.271 767.443C712.145 753.704 705.386 738.098 697.423 723.179Z"></path>
<path fill="#F0BB8A" d="M249.737 741.44C259.888 725.932 266.966 708.678 277.092 693.169C291.446 699.486 304.226 709.685 317.474 717.993C322.586 730.06 312.214 740.703 307.815 751.222C303.71 756.58 301.252 767.566 292.503 764.887C277.117 759.284 263.845 749.453 249.737 741.44Z"></path>
<path fill="#6A4549" d="M505.052 710.153C521.249 705.729 538.503 709.735 555.093 708.604C543.099 713.618 521.396 711.381 505.052 710.153Z"></path>
<path fill="#613F47" d="M503.061 737.901C503.577 728.586 504.241 719.32 505.052 710.153C502.103 719.935 516.702 749.158 493.722 740.654C486.029 737.582 467.767 745.668 464.228 738.098C477.156 738.22 490.109 738.171 503.061 737.901Z"></path>
<path fill="#CF996A" d="M317.474 717.993C325.413 722.786 334.31 726.841 340.995 733.576C332.171 751.1 322.881 768.673 311.379 784.599C287.907 780.593 267.36 765.232 246.395 754.295C238.751 750.805 235.359 742.129 241.823 735.689C243.273 738.983 246.542 740.236 249.737 741.441C263.845 749.453 277.117 759.284 292.503 764.888C301.253 767.567 303.71 756.58 307.815 751.222C312.214 740.703 322.586 730.061 317.474 717.993Z"></path>
<path fill="#53343F" d="M515.694 737.68C511.196 735.517 511.073 723.376 515.792 721.508C515.768 725.539 515.719 733.625 515.694 737.68Z"></path>
<path fill="#A15F79" d="M515.792 721.507C528.868 720.696 542.164 720.352 555.314 721.139C565.292 750.288 529.998 734.017 515.694 737.68C515.719 733.624 515.768 725.538 515.792 721.507Z"></path>
<path fill="#684151" d="M555.314 721.138C563.449 718.459 556.051 735.492 557.476 740.457C545.802 737.409 522.773 746.503 515.694 737.679C529.998 734.017 565.292 750.288 555.314 721.138Z"></path>
<path fill="#D0986A" d="M680.415 735.615C683.708 729.373 690.295 724.236 697.423 723.179C705.386 738.098 712.145 753.705 722.271 767.444C740.655 758.694 758.13 748.003 775.875 738.049L777.498 736.869C780.57 735.591 781.233 744.464 781.086 747.438C760.342 762.381 737.018 773.81 713.349 783.37C709.785 785.926 707.844 781.33 705.706 779.241C697.3 764.666 688.821 750.141 680.415 735.615Z"></path>
<path fill="#B57A38" d="M464.253 765.207C452.751 746.921 479.418 746.355 484.063 752.942C488.02 767.615 475.018 765.624 464.253 765.207Z"></path>
<path fill="#8C622F" d="M493.746 750.436C512.229 744.881 520.389 749.772 518.275 765.084C499.743 770.54 491.584 765.649 493.746 750.436Z"></path>
<path fill="#563D2D" d="M528.45 750.484C538.306 753.655 565.735 740.752 557.599 762.675C560.278 772.26 552.659 786.54 560.672 794.282C591.885 791.996 623.075 788.506 654.067 784.009C664.243 786.172 659.548 809.84 646.227 800.033C557.452 812.47 467.276 810.7 378.304 801.68C368.694 801.459 360.215 798.731 363.287 787.351L363.336 785.065C396.786 787.867 430.212 793.323 463.884 792.021C459.067 758.275 512.007 789.612 527.713 774.276C527.885 768.328 528.253 756.432 528.45 750.484Z"></path>
<path fill="#744E25" d="M484.063 752.943C500.8 768.156 469.955 772.335 464.253 765.207C475.018 765.625 488.02 767.616 484.063 752.943Z"></path>
<path fill="#3A281C" d="M654.068 784.009C651.045 778.528 677.073 784.083 660.925 794.651C661.884 822.498 663.874 850.345 665.791 878.167C661.49 878.142 652.863 878.093 648.562 878.068C648.169 857.62 649.447 837.171 648.243 816.796C621.281 818.074 594.688 823.162 567.726 824.735C568.684 842.529 571.756 860.2 572.617 878.044C537.495 887.924 558.189 836.655 549.931 819.328C525.575 819.008 501.218 818.959 476.886 819.376C468.972 836.9 488.831 883.869 456.757 878.118C455.995 860.938 458.453 844.004 459.19 826.947C432.67 821.54 405.119 822.572 378.23 819.18C377.591 838.793 380.123 858.234 380.787 877.823C372.946 881.509 353.259 882.812 361.001 865.927C363.484 841.423 356.405 807.751 363.287 787.352C360.215 798.731 368.694 801.459 378.304 801.681C467.276 810.701 557.452 812.47 646.227 800.034C659.549 809.84 664.243 786.172 654.068 784.009Z"></path>
<path fill="#776C8D" d="M108.243 793.963C120.9 813.085 137.294 830.904 159.586 838.548C163.346 839.383 165.239 837.737 165.263 833.607C178.707 861.454 205.276 881.485 235.212 888.392C249.664 891.169 264.46 890.136 279.108 890.997C294.174 900.656 313.075 900.68 330.156 903.974C393.764 914.542 457.912 922.973 522.453 923.12C585.79 939.12 653.158 915.034 715.562 936.687C632.021 937.351 548.432 937.768 464.917 936.515C423.528 923.267 379.41 924.497 337.357 914.272C302.039 909.602 266.917 903.335 231.501 899.402C189.546 890.677 158.996 857.374 124.808 833.829C141.054 902.204 218.278 942.93 284.441 921.916C324.405 916.361 366.114 923.39 403.595 936.736C392.805 936.687 382.089 936.982 371.373 936.736C335.981 928.453 296.878 924.595 262.051 936.687C249.934 936.908 237.891 937.08 225.823 937.277C161.995 930.641 113.281 868.828 107.776 806.965C107.923 802.59 108.095 798.265 108.243 793.963Z"></path>
<path fill="#7A7A77" d="M96.4205 807.186L97.7477 807.407C98.0427 812.003 98.2146 816.649 98.4604 821.318C93.6677 819.549 94.356 811.045 96.4205 807.186Z"></path>
<path fill="#686966" d="M925.825 821.491C926.316 817.927 927.324 810.799 927.816 807.235C930.814 810.799 931.65 820.63 925.825 821.491Z"></path>
<path fill="#22150E" d="M567.726 824.735C594.688 823.162 621.281 818.074 648.243 816.796C649.447 837.171 648.169 857.62 648.562 878.069C623.223 878.093 597.907 878.634 572.617 878.044C571.756 860.2 568.684 842.529 567.726 824.735Z"></path>
<path fill="#21150D" d="M378.23 819.18C405.118 822.572 432.67 821.54 459.19 826.947C458.452 844.004 455.995 860.938 456.756 878.118C431.417 877.897 406.077 879.003 380.786 877.823C380.123 858.234 377.591 838.793 378.23 819.18Z"></path>
<path fill="#757671" d="M98.4605 821.318C100.378 824.145 100.845 827.586 100.574 831.027C96.1011 831.272 96.3222 823.8 98.4605 821.318Z"></path>
<path fill="#777874" d="M923.785 833.509C923.367 830.191 923.711 826.849 925.235 823.899C927.816 826.037 928.307 833.779 923.785 833.509Z"></path>
<path fill="#41432D" d="M489.421 829.355C504.536 829.036 519.823 828.077 534.988 829.38C541.649 844.004 538.626 862.118 542.632 878.093C523.043 878.019 503.43 878.806 483.891 877.97C485.906 862.388 481.58 842.75 489.421 829.355Z"></path>
<path fill="#8B82A0" d="M858.211 854.228C868.706 849.951 867.526 867.23 867.059 873.055C858.285 901.344 829.111 920.121 800.871 925.16C817.314 899.328 834.764 874.21 858.211 854.228Z"></path>
<path fill="#8E83A4" d="M772.164 889.03C784.355 887.04 796.57 884.606 808.097 880.084C818.911 880.133 804.681 892.643 802.542 897.092C784.699 926.487 747.463 923.292 718.486 918.475C655.739 909.43 592.426 904.318 530.097 892.987C546.81 906.874 570.208 907.095 590.337 911.863C639.05 922.382 689.877 922.653 737.632 936.711C730.111 936.441 722.935 936.957 715.561 936.687C653.158 915.034 585.79 939.12 522.453 923.12C457.912 922.972 393.763 914.542 330.156 903.974C313.074 900.68 294.174 900.656 279.108 890.996C443.411 888.76 608.008 892.84 772.164 889.03Z"></path>
<path fill="#5C5669" d="M235.212 888.391C414.188 888.195 593.213 886.941 772.164 889.03C608.009 892.84 443.411 888.76 279.108 890.996C264.459 890.136 249.664 891.169 235.212 888.391Z"></path>
<path fill="#8C7FA2" d="M262.051 936.687C296.878 924.595 335.981 928.453 371.373 936.736C334.924 937.252 298.475 937.597 262.051 936.687Z"></path>
<path fill="#685E77" d="M225.823 937.277C237.891 937.08 249.934 936.908 262.051 936.687C298.475 937.596 334.924 937.252 371.373 936.736C382.089 936.982 392.805 936.687 403.595 936.736C423.995 937.866 444.468 936.908 464.917 936.515C548.432 937.768 632.021 937.35 715.562 936.687C722.935 936.957 730.112 936.441 737.632 936.711C757.098 937.473 776.588 937.08 796.128 937.228C795.267 939.857 792.785 940.693 788.656 939.71C605.944 939.562 423.257 939.636 240.545 939.661C236.859 939.071 229.51 937.891 225.823 937.277Z"></path>
<path fill="#181619" d="M240.545 939.661C423.257 939.636 605.944 939.562 788.656 939.71V942.069C605.993 942.045 423.306 942.241 240.668 941.971L240.545 939.661Z"></path>
<path fill="#686964" d="M219.015 947.157C221.94 946.96 224.865 946.985 227.839 947.206L227.863 948.926C225.7 951.163 218.819 950.991 219.015 947.157Z"></path>
<path fill="#191918" d="M227.839 947.206C417.383 946.813 606.952 946.985 796.521 947.132L796.349 948.73L793.989 949.271C605.281 949.344 416.547 950.082 227.863 948.927L227.839 947.206Z"></path>
<path fill="#787872" d="M796.521 947.133C799.421 946.911 802.37 946.936 805.32 947.157C805.418 951.065 798.413 951.065 796.349 948.73L796.521 947.133Z"></path>
<path fill="#A6A69F" d="M227.863 948.927C416.547 950.082 605.281 949.345 793.989 949.271L793.375 951.729C605.059 951.901 416.744 952.343 228.453 951.507L227.863 948.927Z"></path>
</svg>
