<svg xmlns="http://www.w3.org/2000/svg" fill="none" viewBox="0 0 1024 1024" height="1024" width="1024">
<rect fill="white" height="1024" width="1024"></rect>
<path fill="white" d="M723.562 214.169C740.924 207.666 759.145 196.562 778.102 203.924C775.095 212.819 770.924 221.285 766.138 229.384C759.758 216.071 746.2 219.936 734.666 220.979C730.924 218.709 727.243 216.439 723.562 214.169Z"></path>
<path fill="#F0EEDB" d="M502.46 176.501C511.908 156.071 524.484 136.256 543.564 123.495C543.257 127.728 542.644 136.133 542.337 140.366C529.024 152.39 515.589 164.292 502.46 176.501Z"></path>
<path fill="#F0EEDB" d="M286.021 266.07C310.377 252.696 340.315 238.525 368.045 249.506C341.296 250.794 316.634 262.205 294.917 277.174C297.677 278.708 303.199 281.837 305.959 283.371C284.303 284.904 266.205 296.254 249.702 309.444C249.273 287.849 270.438 276.438 286.021 266.07Z"></path>
<path fill="#F0EEDB" d="M648.594 260.733C658.409 239.322 682.888 253.678 697.673 261.224C714.421 272.451 740.678 284.966 733.562 309.567C714.114 281.776 683.931 259.445 648.594 260.733Z"></path>
<path fill="#F0EEDB" d="M623.686 285.15C638.778 276.929 655.403 290.119 669.943 294.475C689.022 305.518 714.789 316.07 717.856 340.916C690.311 316.929 660.618 292.205 623.686 285.15Z"></path>
<path fill="#F0EEDB" d="M592.643 432.265C592.643 418.522 610.005 418.154 616.999 426.559C615.465 430.117 612.336 437.234 610.802 440.792C605.894 435.209 599.882 432.387 592.643 432.265Z"></path>
<path fill="#39393A" d="M527 119.814C534.362 114.17 551.049 105.765 554.852 119.262C560.987 156.562 551.171 194.537 543.748 231.101C554.914 222.758 565.527 208.525 580.926 209.997C591.355 213.678 589.269 226.377 588.41 234.966C585.588 256.132 575.22 275.089 563.687 292.757C575.527 293.371 587.306 294.168 599.085 294.904C608.287 274.782 628.778 264.046 640.68 245.764C664.974 238.463 674.36 208.832 702.458 210.549C700.74 214.292 697.182 221.776 695.403 225.519C687.857 221.776 675.894 229.322 682.704 237.42C687.673 237.052 697.673 236.255 702.642 235.825L701.722 243.494C704.36 243.064 709.697 242.144 712.335 241.653C712.703 244.414 713.378 249.935 713.746 252.696L713.808 242.512C718.531 244.475 727.918 248.402 732.58 250.365L730.617 256.07C741.599 253.985 744.912 263.862 749.267 271.469C750.126 267.175 751.783 258.524 752.642 254.23C738.04 240.181 722.274 222.758 700.188 223.249C713.808 197.973 744.728 190.795 771.353 190.918C781.905 190.182 790.923 200.12 788.776 210.549C785.586 227.236 776.138 241.776 767.181 255.886C767.856 271.469 762.948 285.825 751.967 296.99C750.556 314.229 740.556 328.646 734.789 344.536C732.151 356.56 719.574 360.486 710.127 365.762C712.703 408.952 709.39 455.332 684.667 492.325C670.311 515.27 646.692 530.668 621.416 539.257C617.98 558.705 623.441 586.312 605.588 598.889C579.883 602.569 572.644 572.386 564.239 554.411C555.65 559.932 538.104 558.644 536.877 571.527C535.527 593.613 528.718 621.22 545.405 639.195C571.048 661.035 605.956 649.072 636.201 650.974C646.078 649.808 652.949 657.109 658.471 664.041C656.262 666.618 651.906 671.648 649.759 674.164C659.882 681.771 671.968 698.274 651.17 701.035C657.305 713.427 647.244 718.949 636.201 714.531C637.673 725.022 639.514 743.856 622.95 741.034C600.68 726.188 584.361 702.507 557.306 695.206C559.76 740.053 556.754 788.886 583.564 827.659C593.38 847.168 615.527 865.757 608.717 889.437C599.821 893.118 590.128 895.02 585.343 904.529C579.637 900.542 573.993 896.431 568.41 892.321C569.76 904.713 557.429 921.216 547.613 905.695C540.19 909.192 530.129 913.302 527 902.382C520.252 880.174 527.491 855.511 521.969 832.69C515.344 821.095 499.884 825.144 488.902 823.978C475.712 825.389 459.209 821.647 448.903 832.015C441.295 855.573 441.663 880.664 438.903 905.081C428.842 908.885 420.437 903.732 412.4 898.21C408.228 904.468 402.768 908.762 395.958 911.032C382.523 911.891 386.204 896.493 383.259 888.21C373.627 900.173 354.977 897.351 358.413 879.069C370.989 839.929 396.081 806.064 411.602 768.212C413.443 744.47 413.382 720.544 413.872 696.802C393.995 702.691 377.676 715.329 363.382 729.869C355.407 740.789 337.186 735.022 339.272 720.85C324.61 727.108 312.892 719.685 315.469 703.305C295.285 698.887 309.15 679.44 316.511 669.563C316.266 665.084 315.775 656.189 315.53 651.771C347.615 635.575 386.02 659.317 418.228 642.508C441.725 622.017 438.657 588.214 439.578 560.055C424.977 556.312 410.437 551.957 396.388 546.435C388.719 562.754 382.768 582.447 365.529 591.097C357.431 596.251 344.855 595.269 340.315 585.883C333.689 566.926 333.321 546.558 332.769 526.681C300.438 515.883 270.929 493.859 257.248 461.896C241.236 424.719 242.954 382.265 251.788 343.493C236.022 324.72 239.825 299.628 235.408 277.174C233.506 266.561 238.598 256.623 243.506 247.666C254.181 231.101 249.396 208.709 263.69 193.74C286.144 166.93 296.696 117.912 339.947 119.508C346.45 139.078 345.53 159.814 348.413 179.936C362.216 199.875 368.781 223.433 381.48 244.046C386.204 252.328 387.86 261.837 390.008 270.978C406.326 272.144 422.645 273.616 438.596 277.359C430.621 262.328 424.486 245.702 426.081 228.402C426.817 219.016 436.878 211.347 446.019 215.151C456.08 219.506 462.522 228.893 470.191 236.255C476.694 193.31 491.479 147.544 527 119.814ZM502.46 176.501C484.424 206.5 485.467 243.371 481.418 276.99C468.534 273.248 468.412 253.555 456.694 246.316L456.817 243.126C451.357 238.218 445.897 233.31 440.375 228.463C441.479 246.745 445.712 264.905 456.019 280.242C460.068 289.567 470.559 292.328 478.902 296.254C480.129 293.309 482.583 287.481 483.81 284.598C493.135 282.144 502.767 283.555 512.215 283.923C528.84 237.972 542.153 189.568 542.337 140.366C542.644 136.133 543.257 127.728 543.564 123.495C524.485 136.256 511.908 156.072 502.46 176.501ZM287.187 172.881C302.156 169.998 317.002 166.01 332.278 166.255C333.014 153.127 332.708 139.937 330.683 126.931C311.91 137.421 296.389 153.372 287.187 172.881ZM260.009 229.506C276.451 221.04 293.076 212.697 308.045 201.777C315.53 201.347 323.014 200.918 330.499 200.55C333.567 198.096 339.701 193.126 342.769 190.672C333.198 176.071 314.303 176.992 298.966 178.464C273.874 179.2 263.138 208.464 260.009 229.506ZM723.562 214.169C727.243 216.439 730.924 218.709 734.666 220.979C746.2 219.936 759.758 216.071 766.138 229.384C770.923 221.286 775.095 212.819 778.101 203.924C759.145 196.562 740.924 207.666 723.562 214.169ZM246.083 288.156C255.96 279.935 265.653 271.469 275.96 263.8L277.003 258.218L277.371 263.8C300.438 248.647 324.978 236.255 351.051 227.236C364.916 219.322 341.787 205.457 334.18 213.126C293.69 213.433 235.285 238.341 246.083 288.156ZM514.362 298.953C522.153 302.328 530.497 301.407 537.061 295.947C561.355 278.831 574.239 249.383 576.386 220.365C546.816 237.666 526.509 267.42 514.362 298.953ZM286.021 266.07C270.438 276.438 249.273 287.849 249.702 309.444C266.205 296.254 284.303 284.904 305.959 283.371C325.652 278.095 344.916 270.978 363.873 263.432C364.916 259.997 367.002 253.003 368.045 249.506C340.315 238.525 310.377 252.696 286.021 266.07ZM648.594 260.733C683.931 259.445 714.114 281.776 733.562 309.567C740.678 284.966 714.421 272.451 697.673 261.224C682.888 253.678 658.409 239.322 648.594 260.733ZM623.686 285.15C660.618 292.205 690.311 316.929 717.857 340.916C714.789 316.07 689.023 305.518 669.943 294.475C655.403 290.119 638.778 276.929 623.686 285.15ZM342.217 287.726C300.868 294.536 262.156 325.517 260.745 369.934C256.635 403.676 259.334 439.995 278.291 469.197C290.806 489.933 311.972 503.061 333.996 511.834C336.45 499.687 339.088 487.663 341.971 475.638C318.781 478.706 295.714 463.798 289.334 441.222C281.481 420.915 288.107 399.504 294.119 379.689C301.849 368.953 308.413 356.315 320.438 349.689C342.339 336.928 374.302 346.744 383.689 370.793C400.682 403.063 408.412 447.541 446.142 462.571C475.835 471.16 512.828 471.589 536.693 448.952C561.11 429.381 571.539 398.339 593.073 376.437C614.054 362.818 649.023 351.468 666.63 375.946C698.286 414.78 679.268 478.89 631.968 494.902C632.582 496.62 633.931 499.933 634.545 501.589C626.569 501.466 611.6 518.767 624.299 522.141C666.937 506.988 690.986 462.448 695.526 419.443C698.9 389.627 699.452 353.124 673.501 332.573C645.219 311.039 608.287 306.008 574.177 300.426C559.76 297.113 547.552 306.193 536.08 313.37C537.184 323.063 542.583 334.045 534.73 342.388C521.969 352.634 510.068 337.665 501.295 329.751C492.583 336.315 484.24 348.707 471.724 343.247C460.866 332.204 472.522 318.953 476.878 307.849C457.123 297.542 438.841 282.144 415.345 281.837C391.235 280.917 364.609 277.788 342.217 287.726ZM491.172 291.101C484.73 299.751 499.025 310.855 505.589 302.021C512.399 293.432 497.552 282.021 491.172 291.101ZM485.221 313.984C478.964 316.622 470.743 331.223 481.295 333.309C493.626 334.965 502.276 308.033 485.221 313.984ZM506.448 315.027C510.865 325.395 517.798 335.763 530.742 331.1C526.939 320.119 518.595 313.738 506.448 315.027ZM323.751 456.62C333.689 461.896 345.039 456.498 355.468 456.129C376.02 445.025 387.063 423.921 383.443 400.547L380.498 398.952C374.67 383.615 367.063 363.922 347.738 362.94C304.732 364.719 285.96 434.657 323.751 456.62ZM589.637 402.94L588.472 402.817C579.883 418.093 566.999 433.062 569.76 451.896L573.073 453.246C581.478 466.988 593.257 482.448 611.6 479.565C658.716 481.957 682.029 416.805 652.888 383.615C630.741 371.161 606.631 389.504 589.637 402.94ZM394.731 439.381C387.063 451.835 378.045 463.43 366.695 472.816C435.344 503.859 514.301 511.528 587.061 491.098C573.932 481.221 562.214 469.504 554.3 454.902C540.497 465.393 527.613 478.522 510.313 482.816C475.467 490.178 435.099 481.16 411.909 452.694C406.265 448.461 403.198 437.725 394.731 439.381ZM350.315 480.792C350.315 484.963 350.253 493.368 350.192 497.601C345.959 523.491 342.769 553.368 354.977 577.294C378.474 566.128 381.91 536.435 390.498 514.534L397.247 515.454C395.284 535.883 417.247 539.073 432.277 543.061C474.915 550.607 519.638 554.656 561.969 543.184C563.625 538.644 566.938 529.503 568.595 524.902C580.803 542.202 580.251 572.447 603.563 579.134C607.735 552.386 608.655 525.208 606.324 498.215C577.858 506.313 549.024 514.288 519.209 514.963C500.436 516.558 481.663 512.571 463.013 514.472C424.424 506.742 386.511 496.497 350.315 480.792ZM455.651 593.428C454.301 618.582 441.909 643.98 421.848 659.379C393.75 669.44 363.443 662.139 334.548 660.851C330.438 670.483 326.266 680.115 322.156 689.746C330.744 687.477 339.333 685.145 347.984 682.814C347.738 691.403 347.615 699.992 347.554 708.519C369.885 689.072 398.044 679.808 427.124 676.311C425.161 708.397 426.449 740.666 424.67 772.752C411.05 809.684 387.554 842.015 371.603 877.904C380.314 873.671 388.965 869.438 397.738 865.389C398.474 873.793 399.149 882.198 399.762 890.603C404.915 883.609 410.069 876.615 415.651 869.928C419.701 875.266 423.504 880.726 427.185 886.309C432.277 862.076 424.731 824.285 453.565 813.303C478.043 809.806 505.405 805.696 528.902 815.328C550.313 834.162 537.675 866.186 545.773 890.419C559.576 892.198 555.282 871.585 562.092 863.732C573.196 864.223 576.693 877.781 583.809 884.652C583.932 872.75 589.821 859.07 582.03 848.456C568.595 826.187 552.398 804.346 548.779 777.844C544.852 745.267 546.263 712.323 544.055 679.562C574.791 682.63 603.87 695.636 623.686 719.869C622.643 710.114 621.293 700.421 619.391 690.851C623.87 690.483 632.766 689.685 637.183 689.317C634.422 682.998 631.661 676.74 628.901 670.483C632.029 669.563 638.348 667.783 641.477 666.925C615.158 667.17 588.472 670.606 562.46 665.33C535.282 659.44 524.239 631.035 510.436 610.115C493.258 612.569 475.835 613.367 458.473 612.569C476.326 609.625 510.068 619.011 512.338 593.613C493.442 593.306 474.547 593.306 455.651 593.428Z"></path>
<path fill="#F9F8F4" d="M287.187 172.881C296.389 153.372 311.91 137.421 330.683 126.931C332.708 139.937 333.014 153.127 332.278 166.255C317.002 166.01 302.156 169.998 287.187 172.881Z"></path>
<path fill="#3D3A4F" d="M592.643 432.265C599.882 432.387 605.895 435.209 610.803 440.792C607.796 453.307 584.361 443.062 592.643 432.265Z"></path>
<path fill="#37384D" d="M472.154 630.299C489.638 620.483 508.84 631.894 518.349 647.047C541.355 671.71 538.779 707.599 535.895 738.641C535.098 762.261 509.392 773.917 490.068 780.543C463.319 789.5 441.172 762.629 439.7 738.089C433.258 700.973 436.448 651.587 472.154 630.299ZM468.35 639.44L467.736 642.508C439.332 672.937 439.393 721.77 454.485 758.334L454.546 762.813C477 783.426 507.491 768.702 525.159 749.5C534.668 726.924 532.766 700.36 527.184 676.924C520.497 652.691 495.282 624.103 468.35 639.44Z"></path>
<path fill="#AFD144" d="M502.46 176.501C515.589 164.292 529.025 152.391 542.337 140.366C542.153 189.568 528.84 237.972 512.215 283.923C502.767 283.555 493.135 282.144 483.81 284.598C482.583 287.481 480.129 293.309 478.902 296.254C470.559 292.328 460.068 289.567 456.019 280.242C455.958 268.892 456.265 257.604 456.694 246.316C468.412 253.555 468.534 273.248 481.418 276.99C485.467 243.371 484.424 206.5 502.46 176.501Z"></path>
<path fill="#FCEA8E" d="M440.375 228.463C445.897 233.31 451.357 238.218 456.817 243.126L456.694 246.316C456.265 257.604 455.958 268.892 456.019 280.242C445.713 264.905 441.479 246.745 440.375 228.463Z"></path>
<path fill="#F7EEE9" d="M260.009 229.506C263.138 208.464 273.874 179.2 298.966 178.464C314.303 176.992 333.199 176.071 342.769 190.672C339.702 193.126 333.567 198.096 330.499 200.55C323.015 200.918 315.53 201.347 308.046 201.777C293.076 212.697 276.451 221.04 260.009 229.506Z"></path>
<path fill="#FFDBC2" d="M454.485 758.335C439.393 721.771 439.332 672.937 467.736 642.508C458.964 680.483 452.951 719.194 454.485 758.335Z"></path>
<path fill="#F9F5EC" d="M246.083 288.156C235.286 238.34 293.69 213.433 334.18 213.126C319.763 224.23 304.426 233.985 289.027 243.555C286.635 243.432 281.849 243.187 279.518 243.003C278.598 248.095 277.8 253.187 277.003 258.217L275.96 263.8C265.653 271.469 255.96 279.935 246.083 288.156Z"></path>
<path fill="#BDB9B1" d="M334.18 213.126C341.788 205.457 364.916 219.322 351.051 227.236C324.978 236.255 300.438 248.647 277.371 263.8L277.003 258.218C277.801 253.187 278.598 248.095 279.518 243.003C281.85 243.187 286.635 243.432 289.028 243.555C304.426 233.985 319.763 224.23 334.18 213.126Z"></path>
<path fill="#B0D130" d="M514.362 298.953C526.51 267.42 546.816 237.666 576.386 220.365C574.239 249.383 561.356 278.831 537.062 295.947C530.497 301.407 522.154 302.327 514.362 298.953Z"></path>
<path fill="#FEFEFE" d="M589.638 402.94C606.631 389.504 630.741 371.161 652.888 383.615C682.029 416.805 658.717 481.957 611.601 479.565C593.257 482.448 581.478 466.988 573.073 453.246C583.687 457.356 594.116 462.571 605.527 463.737C628.472 462.325 640.373 428.584 623.257 413.001C614.116 404.903 600.987 405.332 589.638 402.94Z"></path>
<path fill="#9F9D98" d="M294.917 277.174C316.634 262.205 341.297 250.794 368.045 249.506C367.002 253.003 364.916 259.997 363.873 263.432C344.916 270.978 325.653 278.094 305.96 283.371C303.199 281.837 297.678 278.708 294.917 277.174Z"></path>
<path fill="#F86F76" d="M342.217 287.726C364.609 277.788 391.235 280.917 415.345 281.837C438.841 282.144 457.123 297.542 476.878 307.849C472.522 318.953 460.866 332.205 471.725 343.247C484.24 348.707 492.583 336.315 501.295 329.751C510.068 337.665 521.969 352.634 534.73 342.388C542.583 334.045 537.184 323.064 536.08 313.37C547.552 306.193 559.76 297.113 574.177 300.426C608.287 306.008 645.22 311.039 673.501 332.573C699.452 353.125 698.9 389.627 695.526 419.443C690.986 462.448 666.937 506.988 624.3 522.141C611.6 518.767 626.569 501.466 634.545 501.589C633.931 499.933 632.582 496.62 631.968 494.902C679.268 478.89 698.286 414.78 666.63 375.946C649.023 351.468 614.054 362.818 593.073 376.437C571.539 398.339 561.11 429.381 536.693 448.952C512.828 471.589 475.835 471.16 446.142 462.571C408.412 447.541 400.682 403.063 383.689 370.793C374.302 346.744 342.34 336.928 320.438 349.689C308.414 356.315 301.849 368.953 294.119 379.689C291.297 375.394 285.653 366.805 282.831 362.45C292.524 330.671 317.493 308.217 342.217 287.726ZM465.099 432.694C485.16 433.737 455.712 451.344 465.099 432.694Z"></path>
<path fill="#F6D4D4" d="M260.746 369.934C262.157 325.517 300.868 294.536 342.217 287.726C317.493 308.217 292.524 330.671 282.831 362.45C277.064 380.118 272.831 398.277 266.758 415.884C262.77 400.915 260.623 385.455 260.746 369.934Z"></path>
<path fill="#D0ECEF" d="M491.172 291.1C497.553 282.021 512.399 293.432 505.589 302.021C499.025 310.855 484.731 299.751 491.172 291.1Z"></path>
<path fill="#AEB349" d="M485.221 313.984C502.276 308.033 493.626 334.965 481.295 333.309C470.743 331.223 478.964 316.622 485.221 313.984Z"></path>
<path fill="#FCEF4A" d="M506.448 315.027C518.595 313.738 526.939 320.119 530.742 331.1C517.798 335.763 510.865 325.395 506.448 315.027Z"></path>
<path fill="#EE6E83" d="M266.758 415.884C272.831 398.277 277.064 380.118 282.831 362.449C285.653 366.805 291.297 375.394 294.119 379.689C288.107 399.504 281.481 420.915 289.334 441.222C295.714 463.798 318.782 478.706 341.971 475.638C339.088 487.663 336.45 499.687 333.996 511.834C311.972 503.061 290.806 489.933 278.291 469.197C259.334 439.995 256.635 403.676 260.745 369.934C260.623 385.455 262.77 400.915 266.758 415.884Z"></path>
<path fill="#FDFCFC" d="M323.751 456.62C285.96 434.657 304.733 364.719 347.738 362.94C367.063 363.922 374.67 383.615 380.499 398.952C367.922 390.915 352.217 385.026 337.677 391.774C323.628 399.872 320.867 418.89 327.738 432.571C334.794 442.632 345.836 448.767 355.468 456.129C345.039 456.497 333.689 461.896 323.751 456.62Z"></path>
<path fill="#DCA530" d="M337.677 391.774C352.217 385.026 367.922 390.915 380.499 398.952L383.443 400.547C387.063 423.921 376.02 445.025 355.468 456.129C345.837 448.767 334.794 442.633 327.739 432.571C320.868 418.891 323.628 399.872 337.677 391.774ZM334.794 423.86C340.867 427.234 347.125 430.301 353.505 433.062C365.1 432.203 369.824 413.983 358.045 409.627C347.677 403.185 338.413 415.148 334.794 423.86Z"></path>
<path fill="#46A749" d="M588.472 402.817L589.637 402.94C600.987 405.332 614.116 404.903 623.257 413.001C640.373 428.584 628.471 462.326 605.527 463.737C594.116 462.571 583.686 457.356 573.073 453.246L569.76 451.896C567 433.062 579.883 418.093 588.472 402.817ZM592.643 432.265C584.361 443.062 607.797 453.307 610.803 440.792C612.336 437.234 615.465 430.117 616.999 426.559C610.005 418.154 592.643 418.522 592.643 432.265Z"></path>
<path fill="#DFD398" d="M334.794 423.86C338.413 415.148 347.677 403.185 358.045 409.627C369.824 413.983 365.1 432.203 353.505 433.062C347.125 430.301 340.867 427.234 334.794 423.86Z"></path>
<path fill="#893A39" d="M465.099 432.694C485.16 433.737 455.712 451.344 465.099 432.694Z"></path>
<path fill="#F36A75" d="M394.732 439.381C403.198 437.725 406.265 448.461 411.909 452.694C435.099 481.16 475.467 490.178 510.313 482.816C527.614 478.522 540.497 465.393 554.3 454.902C562.214 469.503 573.932 481.221 587.061 491.098C514.301 511.527 435.345 503.859 366.695 472.816C378.045 463.43 387.063 451.835 394.732 439.381Z"></path>
<path fill="#F98698" d="M350.315 480.792C386.511 496.497 424.425 506.742 463.013 514.472C441.296 518.705 419.149 517.417 397.247 515.454L390.499 514.533C384.057 511.773 377.799 508.705 371.48 505.699C365.407 506.558 359.272 507.478 353.198 508.399C352.462 505.699 350.99 500.301 350.192 497.601C350.254 493.368 350.315 484.963 350.315 480.792Z"></path>
<path fill="#F57284" d="M350.192 497.601C350.99 500.301 352.462 505.699 353.198 508.399C359.272 507.479 365.407 506.558 371.48 505.699C377.799 508.706 384.057 511.773 390.498 514.534C381.909 536.435 378.474 566.128 354.977 577.294C342.769 553.368 345.959 523.491 350.192 497.601Z"></path>
<path fill="#F66A7D" d="M519.209 514.963C549.024 514.288 577.859 506.313 606.324 498.215C608.656 525.208 607.735 552.386 603.564 579.134C580.251 572.447 580.803 542.202 568.595 524.902C566.938 529.503 563.626 538.644 561.969 543.184C519.638 554.656 474.915 550.607 432.277 543.061C417.247 539.073 395.284 535.883 397.247 515.454C419.149 517.417 441.296 518.705 463.013 514.472C481.663 512.57 500.436 516.558 519.209 514.963Z"></path>
<path fill="#F56B7A" d="M455.651 593.428C474.546 593.306 493.442 593.306 512.337 593.613C510.067 619.011 476.326 609.625 458.473 612.569C475.835 613.367 493.258 612.569 510.436 610.115C524.239 631.035 535.282 659.44 562.46 665.329C588.471 670.606 615.158 667.17 641.477 666.925C638.348 667.783 632.029 669.563 628.9 670.483C631.661 676.74 634.422 682.998 637.183 689.317C632.765 689.685 623.87 690.483 619.391 690.851C621.293 700.421 622.643 710.114 623.686 719.869C603.87 695.636 574.791 682.63 544.055 679.562C546.263 712.323 544.852 745.267 548.779 777.844C552.398 804.346 568.594 826.187 582.03 848.456C589.821 859.07 583.932 872.75 583.809 884.652C576.692 877.781 573.196 864.223 562.091 863.732C555.282 871.585 559.576 892.198 545.773 890.419C537.675 866.186 550.312 834.162 528.902 815.328C505.405 805.696 478.043 809.806 453.565 813.303C424.731 824.285 432.277 862.076 427.185 886.309C423.504 880.726 419.7 875.266 415.651 869.928C410.069 876.615 404.915 883.609 399.762 890.603C399.148 882.198 398.474 873.793 397.737 865.389C388.965 869.438 380.314 873.671 371.603 877.904C387.554 842.015 411.05 809.684 424.67 772.752C426.449 740.666 425.16 708.396 427.124 676.311C398.044 679.808 369.885 689.072 347.554 708.519C347.615 699.992 347.738 691.403 347.983 682.814C339.333 685.145 330.744 687.476 322.156 689.746C326.266 680.115 330.438 670.483 334.548 660.851C363.443 662.139 393.75 669.44 421.848 659.379C441.909 643.98 454.301 618.582 455.651 593.428ZM472.154 630.299C436.449 651.587 433.259 700.973 439.7 738.089C441.173 762.629 463.32 789.5 490.068 780.543C509.393 773.917 535.098 762.261 535.895 738.642C538.779 707.599 541.355 671.71 518.35 647.048C508.841 631.894 489.638 620.483 472.154 630.299Z"></path>
<path fill="#FAE867" d="M468.351 639.44C495.283 624.103 520.497 652.692 527.184 676.924C532.767 700.36 534.669 726.924 525.16 749.5C507.491 768.703 477.001 783.426 454.547 762.813L454.486 758.335C452.952 719.194 458.964 680.483 467.737 642.508L468.351 639.44Z"></path>
</svg>
