<svg xmlns="http://www.w3.org/2000/svg" fill="none" viewBox="0 0 1024 1024" height="1024" width="1024">
<rect fill="white" height="1024" width="1024"></rect>
<path fill="white" d="M596.425 457.384C601.674 452.749 606.924 448.225 612.229 443.702C612.564 453.307 612.955 462.968 613.122 472.741C607.482 467.715 601.953 462.298 596.425 457.384Z"></path>
<path fill="white" d="M458.545 496.196C463.012 488.936 467.536 481.286 474.963 476.706C482.781 481.509 485.797 491.226 491.158 498.486C480.268 497.648 469.379 496.922 458.545 496.196Z"></path>
<path fill="white" d="M457.092 905.481C467.926 900.008 480.603 901.237 492.386 900.567C523.659 900.902 554.82 894.758 586.037 898.891C589.611 916.426 593.353 934.017 595.028 951.999H450.223C452.234 936.419 453.183 920.671 457.092 905.481Z"></path>
<path fill="#FFFFFE" d="M348.586 251.261C392.815 235.792 450.279 262.597 459.829 310.233C469.322 352.004 439.613 398.914 396.612 405.336C349.982 413.713 303.743 373.002 302.067 326.484C298.158 294.485 317.76 261.425 348.586 251.261ZM369.249 317.269C343.839 304.704 328.426 340.891 336.3 361.107C346.576 398.02 406.944 404.275 421.128 366.971C437.547 337.373 398.064 292.083 369.249 317.269Z"></path>
<path fill="#37384D" d="M471.444 193.127C484.512 197.706 485.629 213.454 490.208 224.679C474.851 222.725 474.962 204.798 471.444 193.127Z"></path>
<path fill="#37384D" d="M358.694 238.751C400.242 232.161 447.71 253.383 464.463 293.311C484.623 339.104 458.544 399.528 409.122 412.372C350.317 430.912 285.761 375.403 292.295 314.867C292.462 277.507 322.172 244.615 358.694 238.751ZM348.586 251.26C317.76 261.424 298.158 294.484 302.067 326.483C303.743 373.001 349.982 413.712 396.612 405.335C439.613 398.913 469.322 352.004 459.828 310.232C450.279 262.596 392.815 235.791 348.586 251.26Z"></path>
<path fill="#37384D" d="M615.3 238.472C654.335 227.806 701.748 245.509 719.059 283.315C734.975 317.939 726.989 362.391 700.128 389.42C673.267 414.662 629.764 425.161 596.536 406.341C560.516 387.745 543.54 342.846 552.419 304.313C558.841 272.817 583.804 245.788 615.3 238.472ZM606.197 252.098C569.563 267.176 551.972 312.466 563.644 349.379C572.467 383.445 606.477 410.027 642.217 406.062C690.523 402.376 727.38 351.334 715.764 304.201C708.058 256.175 648.025 232.05 606.197 252.098Z"></path>
<path fill="#37384D" d="M636.911 636.422C639.369 622.126 640.206 597.721 658.077 595.097C651.487 608.946 649.979 626.761 636.911 636.422Z"></path>
<path fill="#37384D" d="M352.494 628.156C368.187 634.858 382.483 645.413 391.195 660.323C373.38 658.48 363.049 640.777 352.494 628.156Z"></path>
<path fill="#37384D" d="M561.131 734.931C566.604 725.773 580.788 735.881 573.696 744.034C568.056 752.523 554.876 742.694 561.131 734.931Z"></path>
<path fill="#5C6170" d="M470.215 612.8C492.721 602.859 520.085 594.371 543.763 604.87C507.352 600.905 465.971 609.561 442.405 639.828C424.702 664.232 414.371 693.718 410.071 723.483C406.162 755.818 408.061 792.229 430.231 818.141C448.883 840.925 478.257 850.084 506.012 855.892C475.186 857.288 444.806 840.981 425.261 817.693C399.74 784.689 399.684 739.288 410.015 700.643C419.341 666.075 435.424 628.38 470.215 612.8Z"></path>
<path fill="#FDFDFD" d="M488.812 477.265C502.997 477.879 517.181 478.716 531.366 479.331C524.273 487.596 517.069 495.805 508.916 503.177C501.265 495.247 494.676 486.479 488.812 477.265Z"></path>
<path fill="#293E5B" d="M414.092 186.593C428.611 191.619 437.435 205.859 440.897 220.211C426.936 214.515 418.336 200.442 414.092 186.593Z"></path>
<path fill="#293E5B" d="M707.053 423.095C714.257 422.034 726.878 429.126 723.862 437.671C715.988 442.976 704.149 430.969 707.053 423.095Z"></path>
<path fill="#293E5B" d="M546.388 605.819C576.656 610.789 600.948 633.462 616.585 658.816C639.928 702.598 645.735 758.498 622.281 803.453C605.807 830.482 578.163 854.663 545.271 856.338C580.341 847.626 612.899 823.557 625.352 788.822C650.706 720.301 620.103 628.827 546.388 605.819Z"></path>
<path fill="#293E5B" d="M738.661 607.103C742.012 611.18 745.363 615.424 748.881 619.612C751.506 616.094 756.699 609.002 759.324 605.484C757.872 613.246 754.8 620.562 751.17 627.654C743.464 623.522 734.92 621.344 726.431 619.948C730.508 615.648 734.529 611.292 738.661 607.103Z"></path>
<path fill="#293E5B" d="M447.375 902.13C449.218 891.743 461.224 892.749 469.098 891.576C501.042 889.901 532.929 888.393 564.872 887.388C574.366 888.393 587.936 885.768 592.906 896.379C600.501 913.97 602.511 933.348 606.867 952H595.028C593.353 934.018 589.611 916.427 586.037 898.891C554.82 894.759 523.659 900.902 492.386 900.567C480.602 901.237 467.926 900.009 457.092 905.481C453.183 920.671 452.233 936.419 450.223 952H437.77C441.176 935.358 442.516 918.381 447.375 902.13Z"></path>
<path fill="#FCFCFC" d="M430.79 456.881C441.847 461.907 453.016 466.766 464.241 471.624C455.752 478.437 449.833 496.531 436.933 492.845C432.968 481.23 432.409 468.832 430.79 456.881Z"></path>
<path fill="#8EC5BF" d="M329.822 162.134C363.441 148.117 399.237 140.242 435.48 137.394C502.047 131.81 570.066 131.028 635.348 147.167C630.266 154.873 625.129 162.747 620.047 170.565C632.835 188.547 651.432 207.144 675.221 206.25C688.903 206.92 694.041 192.513 701.133 183.745C741.788 217.085 761.725 268.852 764.796 320.341C768.761 381.547 766.025 449.733 726.096 499.826C702.529 530.652 666.845 547.461 632.891 563.991C633.114 565.723 633.673 569.185 633.896 570.916C648.528 567.509 662.098 560.808 675.836 555C723.192 669.035 739.499 796.137 721.907 918.381C720.176 927.931 719.841 938.541 713.922 946.862C706.662 938.82 701.636 928.601 692.533 922.57C677.12 923.351 674.663 941.724 667.18 952H651.878C648.807 943.846 645.959 935.805 642.273 928.098C628.647 929.215 622.951 943.623 613.904 952H606.867C602.512 933.348 600.501 913.97 592.906 896.379C587.936 885.768 574.366 888.393 564.872 887.388C532.929 888.393 501.042 889.901 469.099 891.576C461.225 892.749 449.218 891.743 447.375 902.13C442.517 918.381 441.176 935.358 437.77 952H432.521C426.378 943.511 420.682 934.688 413.757 926.926C400.466 927.54 399.74 942.73 394.658 952H382.372C376.341 943.344 370.812 934.241 363.497 926.758C350.261 927.763 344.9 942.003 336.747 950.268C332.112 937.089 328.482 923.519 326.304 909.781C306.87 793.847 318.988 674.005 352.384 561.701C367.35 567.286 382.707 572.815 398.958 571.754C369.584 552.655 332.559 547.629 306.144 523.336C259.793 485.362 249.015 422.09 246.335 365.575C245.385 315.985 247.619 263.044 272.582 218.927C303.296 225.014 328.259 202.341 342.499 177.546C339.316 173.693 333.005 165.987 329.822 162.134ZM414.092 186.593C418.336 200.442 426.936 214.515 440.897 220.211C437.435 205.859 428.611 191.619 414.092 186.593ZM576.209 214.292C579.95 214.348 587.434 214.46 591.175 214.46C596.48 205.357 601.395 195.975 605.36 186.258C588.606 185.03 582.408 202.118 576.209 214.292ZM471.444 193.127C474.962 204.798 474.851 222.725 490.208 224.679C485.629 213.454 484.512 197.706 471.444 193.127ZM536.168 234.676C552.363 226.634 548.175 205.972 547.337 191.452C533.153 201.113 536.783 219.877 536.168 234.676ZM358.694 238.752C322.172 244.616 292.462 277.508 292.295 314.868C285.761 375.404 350.317 430.913 409.122 412.373C458.544 399.529 484.624 339.105 464.464 293.313C447.71 253.384 400.242 232.163 358.694 238.752ZM615.3 238.473C583.804 245.788 558.841 272.817 552.419 304.314C543.54 342.847 560.517 387.746 596.536 406.342C629.764 425.162 673.267 414.663 700.128 389.421C726.989 362.392 734.975 317.94 719.06 283.316C701.748 245.509 654.335 227.806 615.3 238.473ZM285.873 388.639C282.857 397.574 285.928 400.59 295.143 397.63C298.214 388.527 295.143 385.568 285.873 388.639ZM716.993 394.503C711.074 402.88 726.04 409.693 731.345 402.824C738.214 393.944 722.131 386.35 716.993 394.503ZM481.552 422.704C495.96 419.242 506.794 430.075 520.308 431.639C515.897 415.5 491.046 406.118 481.552 422.704ZM523.436 428.903C531.31 428.959 538.458 426.725 544.936 422.258C550.074 423.877 555.267 425.553 560.517 427.284C555.1 410.139 527.289 411.256 523.436 428.903ZM292.797 421.699C291.289 423.43 288.33 426.893 286.822 428.68C291.234 447.555 314.465 416.45 292.797 421.699ZM707.053 423.095C704.149 430.97 715.988 442.976 723.862 437.671C726.878 429.127 714.257 422.034 707.053 423.095ZM397.618 425.944C389.073 444.261 385.053 469.335 399.461 485.753C427.55 506.08 463.738 506.527 496.91 509.543C524.329 510.38 552.14 512.614 579.336 508.258C601.451 501.055 626.469 485.418 628.647 460.009C628.368 449.231 627.753 433.762 615.077 430.578C602.791 434.823 593.297 444.149 582.352 450.906C545.438 475.813 496.574 471.066 456.199 457.831C434.196 451.632 419.676 431.64 397.618 425.944ZM693.371 435.437C691.528 443.311 694.488 446.103 702.194 443.758C703.814 435.772 700.854 433.036 693.371 435.437ZM308.601 439.569C305.642 448.728 308.713 451.632 317.816 448.337C320.72 439.067 317.648 436.163 308.601 439.569ZM636.912 636.422C649.98 626.761 651.487 608.946 658.077 595.096C640.207 597.721 639.369 622.125 636.912 636.422ZM470.216 612.799C435.424 628.38 419.341 666.075 410.015 700.643C399.684 739.287 399.74 784.689 425.261 817.693C444.806 840.98 475.186 857.288 506.012 855.891L511.15 856.003C512.881 866.725 538.346 867.563 540.133 856.394L545.271 856.338C578.163 854.663 605.806 830.482 622.281 803.453C645.735 758.498 639.928 702.598 616.585 658.815C600.948 633.462 576.656 610.789 546.388 605.819L543.763 604.869C520.085 594.371 492.721 602.859 470.216 612.799ZM372.599 604.311C376.508 620.841 390.358 633.294 404.654 641.448C401.75 624.136 387.286 612.018 372.599 604.311ZM352.495 628.157C363.05 640.778 373.381 658.48 391.196 660.323C382.484 645.413 368.188 634.858 352.495 628.157ZM673.323 629.832C667.459 633.239 662.321 641.951 666.398 648.54C676.841 654.404 688.568 626.258 673.323 629.832ZM661.763 734.988C654.782 736.216 648.807 749.34 658.58 751.294C670.475 753.975 677.399 729.515 661.763 734.988ZM369.751 773.409C356.404 778.267 365.73 801.833 378.24 794.127C393.932 790.329 383.768 766.372 369.751 773.409ZM666.789 785.806C650.538 793.457 672.82 802.727 678.963 792.117C686.055 784.075 671.368 781.283 666.789 785.806ZM385.946 802.225C382.93 811.216 386.058 814.175 395.328 811.272C398.288 802.225 395.16 799.209 385.946 802.225Z"></path>
<path fill="#3C3747" d="M369.248 317.269C398.064 292.083 437.546 337.373 421.128 366.971C406.943 404.275 346.575 398.02 336.3 361.107C328.426 340.891 343.839 304.704 369.248 317.269Z"></path>
<path fill="#394859" d="M292.183 80.7114C301.062 107.349 311.952 133.373 325.578 158C349.815 145.77 375.671 136.556 402.476 131.977C480.603 118.072 562.08 117.737 638.811 139.684C639.313 117.011 636.409 94.5054 634.343 72C681.085 79.204 702.92 132.312 700.966 174.865C717.887 188.994 735.198 203.514 746.814 222.613C773.955 264.887 780.042 316.599 779.93 365.798C779.539 418.181 769.096 473.802 733.3 514.177C775.127 569.687 809.751 632.401 823.88 700.978C825.499 713.543 828.962 736.607 811.091 738.617C799.308 733.256 792.551 721.529 784.621 711.979C784.23 723.204 792.495 754.98 772 745.989C758.43 725.326 750.891 699.582 728.162 686.458C742.067 774.19 745.362 864.435 727.994 952H696.386C700.128 944.907 693.818 937.089 687.675 934.353C681.978 939.043 679.968 944.907 681.643 952H667.18C674.663 941.724 677.12 923.351 692.533 922.569C701.636 928.601 706.662 938.82 713.922 946.862C719.841 938.541 720.176 927.93 721.907 918.381C739.498 796.137 723.192 669.035 675.836 555C662.098 560.808 648.528 567.509 633.896 570.916C633.673 569.185 633.114 565.722 632.891 563.991C666.845 547.461 702.529 530.652 726.096 499.826C766.025 449.733 768.761 381.547 764.796 320.341C761.725 268.852 741.788 217.084 701.133 183.745C694.041 192.513 688.903 206.92 675.221 206.25C651.432 207.144 632.835 188.547 620.047 170.565C625.129 162.747 630.266 154.873 635.348 147.167C570.066 131.028 502.047 131.809 435.48 137.394C399.237 140.242 363.441 148.116 329.822 162.133C333.005 165.987 339.316 173.693 342.499 177.546C328.258 202.341 303.296 225.014 272.581 218.927C247.619 263.044 245.385 315.985 246.334 365.575C249.015 422.09 259.793 485.362 306.144 523.336C332.559 547.628 369.584 552.655 398.958 571.754C382.707 572.815 367.35 567.286 352.383 561.701C318.988 674.005 306.87 793.847 326.304 909.781C328.482 923.519 332.112 937.089 336.747 950.268C344.9 942.003 350.261 927.763 363.497 926.758C370.812 934.241 376.341 943.344 382.372 952H366.568C368.299 945.187 365.674 941.166 358.806 940.049C357.298 943.009 354.338 948.984 352.83 952H323.288C303.073 864.268 302.961 773.408 313.18 684.392C296.036 691.875 281.014 704.049 272.246 720.859C263.2 734.094 259.793 751.908 246.446 761.848C228.408 757.102 238.293 735.546 237.343 722.143C229.358 730.129 222.656 739.957 212.437 745.263C197.638 746.547 198.42 728.063 199.537 718.122C208.695 646.753 239.131 579.293 280.623 520.935C241.197 475.366 232.373 412.931 231.759 354.852C232.094 304.536 238.572 251.541 267.444 208.875C252.533 167.215 267.444 90.6519 274.257 80.4326C287.855 75.5738 284.811 77.668 292.183 80.7114ZM646.126 83.113C648.192 113.604 652.046 148.395 627.418 171.571C639.592 189.441 664.22 211.109 686.111 197.427C703.144 156.884 684.771 104.446 646.126 83.113ZM269.398 159.062C269.901 177.435 268.505 202.341 286.71 213.064C307.875 214.46 322.562 195.081 335.798 181.4C311.003 156.158 298.326 122.595 284.811 90.6519C268.952 109.304 270.571 135.998 269.398 159.062ZM684.938 550.198C703.311 591.299 716.1 634.467 726.263 678.305C746.367 684.336 759.938 700.81 770.548 718.066C771.107 708.126 771.665 698.242 772.335 688.469C788.139 686.347 796.795 701.09 807.629 709.69C797.465 641.001 761.892 579.571 725.37 521.772C712.749 532.383 699.29 541.988 684.938 550.198ZM288.05 527.804C253.203 585.659 224.22 648.652 216.29 716.391C227.459 709.802 236.45 696.287 250.467 696.455C259.179 704.384 252.757 717.564 253.148 727.839C266.215 702.765 287.548 682.549 315.861 676.685C320.217 636.198 331.777 597.107 340.991 557.569C321.669 550.756 305.027 538.805 288.05 527.804Z"></path>
<path fill="#FBD034" d="M646.126 83.113C684.77 104.446 703.143 156.884 686.111 197.427C664.22 211.109 639.592 189.441 627.418 171.571C652.046 148.395 648.192 113.604 646.126 83.113Z"></path>
<path fill="#FCD035" d="M269.398 159.061C270.571 135.998 268.951 109.304 284.811 90.6517C298.326 122.595 311.003 156.157 335.798 181.399C322.562 195.081 307.875 214.46 286.71 213.063C268.505 202.341 269.901 177.434 269.398 159.061Z"></path>
<path fill="#455B67" d="M576.209 214.292C582.408 202.118 588.607 185.029 605.36 186.258C601.395 195.975 596.481 205.357 591.175 214.46C587.434 214.46 579.951 214.348 576.209 214.292Z"></path>
<path fill="#415A69" d="M536.168 234.675C536.782 219.877 533.152 201.113 547.337 191.452C548.175 205.971 552.363 226.634 536.168 234.675Z"></path>
<path fill="#FFFEFE" d="M606.198 252.099C648.025 232.051 708.058 256.175 715.765 304.202C727.381 351.334 690.523 402.376 642.218 406.062C606.477 410.027 572.468 383.445 563.644 349.38C551.973 312.466 569.564 267.177 606.198 252.099ZM626.023 321.29C621.555 320.397 612.676 318.554 608.264 317.604C585.926 343.516 602.791 388.136 637.694 389.811C668.911 396.512 696.163 360.661 682.258 332.347C674.887 309.842 636.968 293.759 626.023 321.29Z"></path>
<path fill="#3D3747" d="M626.022 321.29C636.968 293.759 674.886 309.842 682.258 332.348C696.163 360.661 668.911 396.513 637.694 389.811C602.791 388.136 585.926 343.516 608.264 317.604C612.675 318.554 621.555 320.397 626.022 321.29Z"></path>
<path fill="#3C575E" d="M285.872 388.639C295.143 385.567 298.214 388.527 295.143 397.63C285.928 400.59 282.857 397.574 285.872 388.639Z"></path>
<path fill="#4E6B75" d="M716.994 394.503C722.131 386.349 738.215 393.944 731.346 402.823C726.04 409.692 711.074 402.879 716.994 394.503Z"></path>
<path fill="#406069" d="M481.552 422.704C491.045 406.118 515.896 415.5 520.308 431.639C506.793 430.076 495.96 419.242 481.552 422.704Z"></path>
<path fill="#3E5E66" d="M523.435 428.903C527.289 411.256 555.099 410.139 560.516 427.284C555.267 425.553 550.073 423.877 544.935 422.258C538.457 426.725 531.31 428.959 523.435 428.903Z"></path>
<path fill="#48646D" d="M292.797 421.699C314.465 416.45 291.234 447.555 286.822 428.68C288.33 426.893 291.29 423.43 292.797 421.699Z"></path>
<path fill="#3B3E54" d="M397.618 425.943C419.677 431.64 434.197 451.632 456.199 457.831C496.575 471.066 545.439 475.813 582.352 450.906C593.298 444.149 602.791 434.823 615.077 430.578C627.754 433.761 628.368 449.231 628.648 460.009C626.47 485.418 601.451 501.054 579.337 508.258C552.14 512.614 524.33 510.38 496.91 509.543C463.738 506.527 427.551 506.08 399.461 485.753C385.053 469.335 389.074 444.261 397.618 425.943ZM400.857 440.742C399.74 452.413 401.416 464.253 403.314 475.924C410.742 468.776 418.169 461.739 425.708 454.815C417.611 450.738 410.463 435.157 400.857 440.742ZM596.425 457.384C601.954 462.298 607.482 467.715 613.123 472.741C612.955 462.969 612.564 453.307 612.229 443.702C606.924 448.225 601.675 452.749 596.425 457.384ZM430.79 456.881C432.409 468.832 432.968 481.23 436.933 492.845C449.833 496.531 455.753 478.437 464.241 471.624C453.016 466.766 441.847 461.907 430.79 456.881ZM553.927 476.818C562.081 482.849 566.157 500.663 578.22 497.983C583.302 485.808 586.987 473.188 591.511 460.846C579.225 466.71 566.66 472.015 553.927 476.818ZM458.545 496.196C469.379 496.922 480.268 497.648 491.158 498.486C485.797 491.226 482.781 481.509 474.963 476.706C467.536 481.285 463.012 488.936 458.545 496.196ZM488.813 477.264C494.676 486.479 501.266 495.246 508.917 503.176C517.07 495.805 524.274 487.596 531.366 479.331C517.182 478.716 502.997 477.879 488.813 477.264ZM528.406 499.826C538.961 499.882 549.571 499.882 560.126 499.826C554.933 493.404 549.627 486.981 544.434 480.783C538.57 486.646 533.377 493.069 528.406 499.826Z"></path>
<path fill="#4D7476" d="M693.371 435.437C700.855 433.035 703.814 435.772 702.195 443.757C694.488 446.103 691.528 443.311 693.371 435.437Z"></path>
<path fill="#587C80" d="M308.601 439.57C317.648 436.163 320.72 439.067 317.816 448.338C308.713 451.632 305.642 448.728 308.601 439.57Z"></path>
<path fill="#F8F8FB" d="M400.857 440.742C410.462 435.158 417.61 450.738 425.708 454.815C418.169 461.74 410.741 468.776 403.314 475.925C401.415 464.253 399.74 452.414 400.857 440.742Z"></path>
<path fill="#FCFBF9" d="M553.927 476.818C566.659 472.015 579.224 466.71 591.51 460.847C586.987 473.188 583.301 485.809 578.219 497.983C566.157 500.663 562.08 482.849 553.927 476.818Z"></path>
<path fill="#E6E8EA" d="M528.406 499.826C533.376 493.069 538.57 486.646 544.433 480.783C549.627 486.981 554.932 493.404 560.126 499.826C549.571 499.882 538.961 499.882 528.406 499.826Z"></path>
<path fill="#8DC5BE" d="M684.938 550.198C699.29 541.989 712.749 532.383 725.37 521.772C761.892 579.572 797.465 641.001 807.629 709.69C796.795 701.09 788.139 686.347 772.335 688.469C771.665 698.242 771.107 708.126 770.548 718.066C759.938 700.811 746.367 684.336 726.263 678.305C716.1 634.467 703.311 591.3 684.938 550.198ZM738.661 607.103C734.528 611.292 730.507 615.648 726.431 619.948C734.919 621.344 743.463 623.522 751.17 627.654C754.8 620.562 757.871 613.246 759.323 605.484C756.699 609.002 751.505 616.094 748.88 619.612C745.362 615.424 742.011 611.18 738.661 607.103Z"></path>
<path fill="#8DC5BE" d="M288.051 527.804C305.027 538.805 321.669 550.756 340.991 557.569C331.777 597.107 320.217 636.198 315.861 676.685C287.548 682.549 266.215 702.765 253.148 727.839C252.757 717.564 259.179 704.384 250.467 696.454C236.45 696.287 227.459 709.802 216.29 716.391C224.22 648.652 253.204 585.659 288.051 527.804ZM281.126 595.822C278.278 604.366 292.909 613.302 300.336 609.393C304.134 599.955 288.832 591.578 281.126 595.822ZM287.492 623.745C289.223 630.948 293.468 632.177 300.225 627.375C298.494 619.947 294.249 618.774 287.492 623.745Z"></path>
<path fill="#49636D" d="M281.126 595.823C288.832 591.578 304.134 599.955 300.336 609.393C292.909 613.302 278.277 604.367 281.126 595.823Z"></path>
<path fill="#344C57" d="M372.6 604.311C387.287 612.017 401.75 624.136 404.654 641.448C390.358 633.294 376.509 620.841 372.6 604.311Z"></path>
<path fill="#FBCE36" d="M442.405 639.828C465.971 609.56 507.352 600.904 543.763 604.869L546.388 605.819C620.103 628.827 650.705 720.301 625.352 788.822C612.899 823.557 580.341 847.626 545.271 856.338L540.133 856.394C530.472 855.835 520.811 855.724 511.15 856.003L506.012 855.891C478.257 850.084 448.883 840.925 430.231 818.14C408.06 792.228 406.162 755.817 410.071 723.483C414.371 693.718 424.702 664.232 442.405 639.828ZM470.271 728.398C464.799 731.581 460.889 744.258 469.713 745.431C484.623 753.137 485.126 722.869 470.271 728.398ZM521.425 729.012C514.5 730.743 509.754 744.09 519.191 745.933C531.03 747.943 536.447 723.986 521.425 729.012ZM561.131 734.932C554.876 742.694 568.055 752.523 573.696 744.034C580.788 735.881 566.603 725.773 561.131 734.932Z"></path>
<path fill="#3D6069" d="M287.492 623.745C294.249 618.775 298.494 619.948 300.225 627.375C293.468 632.178 289.223 630.949 287.492 623.745Z"></path>
<path fill="#52757A" d="M673.323 629.833C688.568 626.258 676.841 654.404 666.398 648.54C662.321 641.951 667.459 633.239 673.323 629.833Z"></path>
<path fill="#76622C" d="M470.271 728.398C485.126 722.869 484.623 753.137 469.713 745.431C460.89 744.258 464.799 731.581 470.271 728.398Z"></path>
<path fill="#5E5024" d="M521.425 729.012C536.447 723.986 531.03 747.943 519.191 745.933C509.754 744.09 514.5 730.743 521.425 729.012Z"></path>
<path fill="#41646C" d="M661.763 734.987C677.399 729.515 670.474 753.975 658.579 751.294C648.807 749.34 654.782 736.216 661.763 734.987Z"></path>
<path fill="#4A5D63" d="M369.752 773.409C383.769 766.372 393.932 790.329 378.24 794.127C365.731 801.833 356.405 778.267 369.752 773.409Z"></path>
<path fill="#3E636D" d="M666.788 785.806C671.367 781.283 686.055 784.075 678.962 792.116C672.819 802.727 650.537 793.457 666.788 785.806Z"></path>
<path fill="#617C7F" d="M385.946 802.224C395.16 799.209 398.288 802.224 395.328 811.271C386.058 814.175 382.93 811.215 385.946 802.224Z"></path>
<path fill="#7AA187" d="M511.15 856.003C520.811 855.724 530.472 855.835 540.133 856.394C538.346 867.563 512.881 866.725 511.15 856.003Z"></path>
<path fill="#355461" d="M394.658 952C399.74 942.73 400.466 927.54 413.757 926.926C420.682 934.688 426.378 943.511 432.521 952H413.254C420.626 938.82 401.359 938.932 403.761 952H394.658Z"></path>
<path fill="#345462" d="M613.904 952C622.951 943.623 628.647 929.215 642.273 928.098C645.959 935.804 648.807 943.846 651.879 952H636.744C644.339 938.764 625.296 939.099 627.083 952H613.904Z"></path>
<path fill="#A4C5C8" d="M681.643 952C679.968 944.908 681.978 939.044 687.674 934.353C693.817 937.089 700.128 944.908 696.386 952H681.643Z"></path>
<path fill="#B5CFCC" d="M358.805 940.049C365.674 941.166 368.299 945.187 366.567 952H352.83C354.338 948.984 357.297 943.009 358.805 940.049Z"></path>
<path fill="#89ACB8" d="M403.761 952C401.359 938.932 420.626 938.821 413.254 952H403.761Z"></path>
<path fill="#85A8B4" d="M627.083 951.999C625.296 939.099 644.339 938.764 636.744 951.999H627.083Z"></path>
</svg>
