<svg xmlns="http://www.w3.org/2000/svg" fill="none" viewBox="0 0 1024 1024" height="1024" width="1024">
<rect fill="white" height="1024" width="1024"></rect>
<path fill="#FEFEFD" d="M584.005 266.108C611.6 254.168 646.059 281.199 637.174 311.051C633.46 339.916 599.565 361.4 573.145 345.369C542.635 327.505 552.037 276.874 584.005 266.108ZM568.679 316.269C571.359 334.086 597.356 342.219 608.967 327.834C617.57 319.513 613.292 306.82 610.848 296.854C604.548 299.58 597.967 301.649 591.291 303.341C590.962 299.251 590.351 291.165 590.022 287.075C575.59 287.452 564.589 302.307 568.679 316.269Z"></path>
<path fill="#3D3A4F" d="M253 173.544C267.526 182.57 271.381 200.622 280.266 214.302C287.882 230.333 300.434 242.979 313.785 254.356C307.909 253.933 301.186 254.262 297.002 249.373C282.758 236.445 273.779 219.098 263.671 203.02C260.428 242.462 258.735 289.05 292.395 316.833C295.451 311.662 298.413 306.491 301.327 301.32C299.87 315.611 299.071 329.997 298.601 344.382C296.673 324.919 275.847 318.009 267.855 301.837C244.397 263.053 258.5 216.089 253 173.544Z"></path>
<path fill="#37384D" d="M589.646 257.693C607.134 254.027 626.22 261.407 636.751 275.793C657.53 305.786 634.259 354.959 597.12 356.04C577.235 357.827 556.738 344.946 551.097 325.53C541.271 297.512 559.371 262.301 589.646 257.693ZM584.004 266.108C552.037 276.874 542.635 327.505 573.145 345.369C599.565 361.4 633.46 339.916 637.174 311.051C646.059 281.199 611.6 254.168 584.004 266.108Z"></path>
<path fill="#37384D" d="M419.983 271.656C437.706 263.899 460.177 269.728 471.507 285.524C486.738 307.525 479.593 340.621 458.203 355.993C433.71 373.528 391.823 360.365 386.605 329.244C380.964 304.845 396.618 279.412 419.983 271.656ZM415.376 280.541C387.263 294.127 383.549 339.728 413.73 353.126C441.843 370.849 476.913 342.078 473.293 311.427C474.61 282.609 438.599 263.758 415.376 280.541Z"></path>
<path fill="#37384D" d="M455.523 652.915C455.523 644.923 463.28 643.137 469.768 645.299C499.525 650.517 529.801 647.697 559.794 650.047C558.618 651.552 556.268 654.607 555.093 656.111C522.044 658.697 488.29 658.791 455.523 652.915Z"></path>
<path fill="#37384D" d="M453.972 761.228C469.203 754.552 485.986 756.292 502.158 755.775C520.398 755.493 538.638 754.318 556.879 754.506C555.938 755.963 554.011 758.878 553.071 760.335C520.163 760.711 486.55 766.869 453.972 761.228Z"></path>
<path fill="#FEFEFE" d="M415.376 280.541C438.599 263.758 474.61 282.609 473.294 311.427C476.913 342.078 441.843 370.849 413.731 353.126C383.55 339.728 387.263 294.127 415.376 280.541ZM404.469 325.531C408.794 344.852 437.753 349.459 448.754 333.381C456.464 324.026 453.784 311.662 450.493 301.273C443.771 306.068 437.236 312.273 428.304 311.897C427.458 305.363 426.612 298.922 425.765 292.482C409.359 293.234 399.721 310.44 404.469 325.531Z"></path>
<path fill="#423547" d="M430.984 95.5055C439.069 86.2443 447.155 75.0557 459.801 72C448.848 105.472 444.006 142.704 459.754 175.612C475.456 177.728 490.829 181.583 506.342 184.873C509.069 176.694 506.013 164.659 514.945 160.052C516.45 166.492 517.954 172.98 519.364 179.561C531.869 168.138 543.058 155.397 555.657 144.115C558.007 158.735 545.737 170.253 539.908 182.57C565.905 179.655 591.949 176.223 618.134 177.257C623.118 161.415 628.054 144.679 624.951 127.99C622.883 113.652 613.715 101.899 609.954 88.1718C637.597 103.074 666.697 123.853 675.77 155.632C680.424 170.018 682.68 185.202 681.787 200.387C691.989 208.191 701.908 216.465 711.075 225.538C734.44 208.614 739.564 177.493 759.496 158.03C759.167 186.049 767.582 212.986 769.792 240.722C772.048 266.014 760.484 290.554 742.337 307.76C742.149 324.261 741.35 340.95 735.192 356.51C722.828 388.619 728.281 423.595 727.623 457.161C726.307 491.714 727.529 526.314 725.555 560.867C724.661 572.526 722.029 584.984 713.567 593.634C706.609 595.702 703.976 587.711 700.357 583.762C696.69 601.203 693.258 619.631 681.458 633.781C677.462 629.738 673.513 625.883 669.517 621.981C665.051 640.034 661.714 660.39 647.657 673.882C640.982 682.015 633.977 670.027 629.464 665.749C610.989 701.571 604.219 741.907 600.458 781.678C597.403 819.428 591.385 858.682 569.854 890.791C548.605 925.203 509.257 944.43 470.238 950.354C442.031 953.833 410.393 953.08 386.699 935.263C365.027 917.352 352.945 888.91 352.945 861.033C353.603 839.408 363.194 814.633 384.96 806.594C391.353 803.068 398.64 805.042 404.328 808.944C413.119 820.744 411.85 837.856 404.093 849.891C399.016 843.639 394.221 837.01 388.58 831.416C384.772 843.121 379.836 857.084 387.122 868.649C402.213 889.286 439.21 883.363 449.647 860.845C456.558 846.318 453.643 829.582 450.07 814.633C440.997 783.136 415.188 760.241 404.61 729.449C397.935 710.457 397.23 690.148 394.879 670.356C365.262 666.689 360.42 630.82 355.86 607.126C353.415 609.477 348.479 614.272 346.035 616.622C331.931 596.737 331.038 570.082 332.448 546.529C330.098 548.457 325.397 552.358 323.046 554.286C311.435 545.824 313.08 530.686 312.469 518.04C312.093 481.983 311.482 445.926 313.174 409.915C314.349 393.602 309.601 377.853 305.323 362.387C315.148 363.938 316.324 374.516 318.392 382.131C321.683 398.585 320.602 415.415 320.132 432.104C319.238 460.687 320.367 489.317 320.132 517.899C320.978 526.878 318.063 538.678 327.371 544.319C330.897 532.943 334 521.472 337.62 510.236C345.659 539.336 331.32 572.902 349.513 599.981C353.885 584.467 354.92 568.436 356.33 552.546L364.228 548.598C362.771 585.924 360.091 629.362 386.088 659.684C393.845 657.099 394.926 647.744 398.969 641.82C405.692 648.167 412.508 654.513 419.607 660.625C421.816 636.884 405.504 616.905 404.986 593.54C402.401 543.755 405.41 493.689 413.589 444.515L417.209 443.387C412.602 493.125 407.29 543.097 411.897 593.07C413.589 616.904 433.146 637.824 425.201 662.552C416.88 669.463 408.042 659.121 399.862 657.193C401.649 691.276 404.375 727.38 423.885 756.621C442.877 786.238 466.195 819.099 458.485 856.332C451.997 884.585 415.329 894.27 391.588 882.188C374.617 872.033 374.335 847.305 383.408 831.792C390.225 819.569 399.392 834.142 405.88 838.843C403.811 829.911 406.726 817.877 398.734 811.671C385.571 807.111 373.348 818.91 368.177 830.005C351.347 862.255 363.006 903.718 389.708 926.942C406.679 940.81 429.62 943.772 450.822 943.772C493.696 943.678 537.981 924.639 562.473 888.487C582.782 860.045 589.035 824.552 591.761 790.469C595.381 752.249 600.928 714.029 613.715 677.69L610.095 673.976L610.378 670.45C617.993 663.633 623.588 651.692 633.883 649.671C638.02 655.265 640.982 661.659 644.414 667.864C663.124 632.042 668.671 591.142 668.953 551.183C669.329 510.378 671.492 469.572 669.658 428.813C670.928 428.625 673.419 428.296 674.689 428.108C676.804 478.551 676.334 529.088 675.394 579.531C675.723 592.647 670.599 609.524 683.245 618.644C694.245 589.544 696.22 558.329 694.715 527.631C695.656 516.442 691.848 502.668 701.344 494.253C705.105 519.357 701.673 544.837 704.776 569.988C704.729 576.522 708.254 581.881 712.909 586.3C715.165 577.838 717.281 569.376 717.751 560.679C719.866 505.347 720.242 450.015 718.08 394.73C720.242 378.324 725.037 362.528 730.632 347.108C740.974 318.29 735.85 286.793 727.059 258.351C736.931 269.117 738.2 283.878 741.068 297.512C748.684 285.665 757.898 273.959 759.873 259.621C763.21 235.457 758.133 211.247 751.834 188.023C739.376 204.383 728.845 222.811 711.075 234.188C701.156 221.166 688.651 210.4 675.206 201.233C676.193 165.129 659.927 129.447 629.793 108.998C634.87 132.08 635.575 156.197 626.126 178.386C635.952 180.642 645.777 183.51 654.474 188.869C627.866 181.865 600.223 183.463 573.192 186.66C548.276 190.091 523.078 187.694 498.068 189.151C474.046 185.061 449.882 178.057 425.389 183.275C433.522 180.313 441.749 177.54 449.976 174.86C440.151 147.547 439.587 118.212 446.027 90.0991C440.762 94.001 435.497 97.8091 430.184 101.711L430.984 95.5055Z"></path>
<path fill="#705879" d="M430.185 101.711C435.497 97.8091 440.762 94.001 446.027 90.0991C439.587 118.212 440.151 147.547 449.976 174.86C441.749 177.54 433.522 180.313 425.39 183.275C403.906 190.092 384.96 202.503 364.698 212.187C369.211 208.238 373.818 204.618 378.52 201.045C382.798 160.945 402.871 123.947 430.984 95.5055L430.185 101.711Z"></path>
<path fill="#6F567B" d="M629.793 108.998C659.927 129.448 676.193 165.129 675.206 201.233C668.389 196.861 661.526 192.677 654.474 188.87C645.777 183.51 635.952 180.643 626.126 178.386C635.576 156.197 634.87 132.08 629.793 108.998Z"></path>
<path fill="#E7744C" d="M364.698 212.187C384.96 202.503 403.905 190.092 425.389 183.275C449.882 178.057 474.046 185.061 498.068 189.151C523.078 187.694 548.276 190.091 573.192 186.66C600.223 183.463 627.866 181.865 654.474 188.869C661.526 192.677 668.389 196.861 675.206 201.233C688.651 210.4 701.156 221.166 711.075 234.188C716.434 242.18 721.559 250.36 727.059 258.351C735.85 286.793 740.974 318.29 730.632 347.108C725.038 362.528 720.242 378.324 718.08 394.73C716.341 403.992 714.272 413.253 712.251 422.561C699.699 424.018 687.194 425.993 674.689 428.108C673.419 428.296 670.928 428.625 669.659 428.813C653.205 430.412 636.751 433.092 621.049 438.451L616.489 440.096C625.75 492.842 630.216 547.093 621.566 600.31C618.135 620.901 603.326 638.012 602.245 659.12C601.117 665.561 605.865 669.98 610.096 673.976L613.715 677.69C600.929 714.029 595.381 752.249 591.761 790.469C589.035 824.552 582.782 860.045 562.473 888.487C537.981 924.639 493.696 943.678 450.822 943.772C429.62 943.772 406.679 940.81 389.708 926.942C363.006 903.718 351.347 862.255 368.177 830.005C373.348 818.911 385.571 807.111 398.734 811.671C406.726 817.877 403.811 829.911 405.88 838.843C399.392 834.142 390.225 819.569 383.409 831.792C374.335 847.305 374.617 872.033 391.588 882.188C415.329 894.27 451.998 884.585 458.485 856.332C466.195 819.099 442.877 786.238 423.885 756.621C404.375 727.38 401.649 691.276 399.862 657.193C408.042 659.121 416.88 669.463 425.201 662.552C433.146 637.824 413.59 616.904 411.897 593.07C407.29 543.097 412.602 493.125 417.209 443.387L413.59 444.515C398.029 449.592 381.246 451.144 365.92 444.327L361.078 442.588C347.821 437.651 334 434.549 320.132 432.104C320.602 415.415 321.683 398.585 318.392 382.131C316.324 374.516 315.149 363.938 305.323 362.387L304.571 365.913C302.362 358.767 299.118 351.81 298.601 344.382C299.071 329.996 299.87 315.611 301.327 301.32C307.909 280.588 316.559 260.467 328.735 242.368C338.983 230.474 351.065 219.897 364.698 212.187ZM434.792 237.526C452.092 243.872 467.699 253.415 479.781 267.519C495.248 244.107 463.468 218.533 440.762 222.012C432.817 221.495 424.167 233.906 434.792 237.526ZM578.927 223.516C568.773 228.453 560.076 236.304 553.823 245.706C550.627 250.595 547.524 258.916 553.917 263.053C565.2 256.095 573.944 245.376 586.449 240.487C594.394 235.974 610.143 234 601.963 221.73C594.488 217.875 585.932 219.709 578.927 223.516ZM589.646 257.693C559.371 262.301 541.272 297.512 551.097 325.53C556.738 344.946 577.235 357.827 597.121 356.04C634.259 354.959 657.53 305.786 636.751 275.793C626.22 261.407 607.134 254.027 589.646 257.693ZM419.983 271.656C396.619 279.412 380.964 304.845 386.605 329.244C391.824 360.365 433.71 373.528 458.203 355.993C479.593 340.621 486.739 307.525 471.507 285.524C460.178 269.728 437.706 263.899 419.983 271.656ZM641.076 370.896C650.901 371.977 651.089 361.212 652.97 354.489C650.619 354.254 646.012 353.737 643.708 353.455C632.097 350.023 628.994 370.849 641.076 370.896ZM475.644 369.768C468.31 374.234 475.879 386.551 482.884 380.486C490.124 375.879 482.555 363.75 475.644 369.768ZM499.056 369.909C498.774 372.776 498.256 378.606 497.974 381.473C508.787 379.452 519.835 379.076 530.694 381.191C530.553 378.277 530.224 372.447 530.083 369.533C519.787 370.849 509.351 371.131 499.056 369.909ZM545.832 368.31C539.015 369.533 536.57 382.32 545.126 382.79C559.23 389.841 560.452 361.682 545.832 368.31ZM368.224 374.093C358.916 382.743 373.489 398.914 381.998 388.243C391.353 379.452 377.626 365.161 368.224 374.093ZM509.727 495.052C518.283 492.842 535.865 499.706 535.536 485.885C526.04 487.107 507.8 479.162 509.727 495.052ZM504.039 505.253C505.825 511.741 516.685 508.544 521.903 509.484C524.301 510.002 539.485 507.98 531.446 504.313C522.514 503.655 512.407 501.257 504.039 505.253ZM492.521 554.944C505.966 556.072 521.292 560.679 533.844 554.568C533.938 545.73 522.467 549.632 516.92 547.798C508.552 548.268 493.931 542.298 492.521 554.944ZM483.918 603.647C483.871 605.81 483.777 610.088 483.777 612.25C498.398 619.537 515.792 619.161 531.728 617.421C531.446 615.353 530.929 611.169 530.647 609.054C515.039 607.643 499.244 607.126 483.918 603.647ZM455.523 652.915C488.29 658.791 522.044 658.697 555.093 656.111C556.268 654.607 558.619 651.552 559.794 650.047C529.801 647.697 499.526 650.517 469.768 645.299C463.28 643.137 455.523 644.923 455.523 652.915ZM444.476 668.241C444.57 670.544 444.758 675.245 444.852 677.596C480.439 681.545 516.497 684.224 552.225 680.605C553.212 678.724 555.234 675.057 556.268 673.176C518.941 672.847 481.474 674.117 444.476 668.241ZM442.172 701.148C456.84 707.871 473.435 707.918 489.23 709.892C509.539 710.786 530.459 713.183 550.298 707.448L545.455 702.418C517.202 700.067 488.431 703.734 460.507 697.434C455.147 697.011 442.689 692.592 442.172 701.148ZM454.207 729.778C454.583 731.846 455.382 736.031 455.805 738.146C476.161 739.415 496.611 738.099 517.014 738.099C526.886 737.394 538.545 739.368 545.832 730.953C515.368 728.133 484.717 730.201 454.207 729.778ZM453.972 761.228C486.551 766.869 520.164 760.711 553.071 760.335C554.011 758.878 555.939 755.963 556.879 754.506C538.639 754.318 520.399 755.493 502.158 755.775C485.987 756.292 469.204 754.552 453.972 761.228ZM458.485 781.772C459.284 783.747 460.93 787.601 461.729 789.529C481.521 791.362 501.5 789.623 521.339 789.576C530.13 788.495 541.836 791.409 546.584 781.537C517.202 780.738 487.82 781.631 458.485 781.772ZM486.269 824.787C504.979 823.988 523.783 823.847 542.447 821.778C543.34 820.039 545.126 816.56 546.02 814.821C531.305 813.974 516.403 813.505 501.735 815.573C495.812 816.466 487.914 817.5 486.269 824.787ZM494.919 866.251C511.608 867.238 528.344 866.439 545.032 864.935C544.421 863.242 543.246 859.811 542.682 858.118C527.497 857.178 504.885 851.725 494.919 866.251ZM505.12 899.582C512.642 899.488 520.164 899.347 527.732 899.159C528.061 885.62 506.389 887.829 505.12 899.582Z"></path>
<path fill="#6E5878" d="M711.075 234.188C728.846 222.812 739.376 204.383 751.834 188.023C758.133 211.247 763.211 235.457 759.873 259.621C757.898 273.959 748.684 285.665 741.068 297.512C738.201 283.879 736.932 269.117 727.059 258.352C721.559 250.36 716.435 242.18 711.075 234.188Z"></path>
<path fill="#71597C" d="M263.671 203.02C273.779 219.098 282.758 236.445 297.002 249.373C301.186 254.262 307.909 253.933 313.785 254.356C318.674 250.172 323.516 246.035 328.735 242.368C316.559 260.467 307.909 280.588 301.327 301.32C298.413 306.491 295.451 311.662 292.395 316.833C258.735 289.05 260.428 242.462 263.671 203.02Z"></path>
<path fill="#403744" d="M434.792 237.526C424.167 233.906 432.817 221.495 440.762 222.012C463.468 218.533 495.248 244.107 479.781 267.519C467.699 253.415 452.092 243.872 434.792 237.526Z"></path>
<path fill="#3F3543" d="M578.927 223.516C585.932 219.708 594.488 217.875 601.963 221.73C610.143 234 594.394 235.974 586.449 240.487C573.944 245.376 565.2 256.095 553.918 263.052C547.524 258.915 550.627 250.595 553.824 245.706C560.076 236.303 568.773 228.452 578.927 223.516Z"></path>
<path fill="#3A3441" d="M568.679 316.269C564.589 302.307 575.589 287.451 590.022 287.075C590.351 291.165 590.962 299.251 591.291 303.341C597.967 301.649 604.548 299.58 610.848 296.853C613.292 306.82 617.57 319.513 608.967 327.834C597.356 342.219 571.358 334.086 568.679 316.269Z"></path>
<path fill="#3C3547" d="M404.469 325.53C399.721 310.44 409.359 293.234 425.765 292.482C426.612 298.922 427.458 305.363 428.304 311.897C437.236 312.273 443.771 306.068 450.493 301.273C453.784 311.662 456.464 324.026 448.754 333.381C437.753 349.459 408.794 344.852 404.469 325.53Z"></path>
<path fill="#713C37" d="M641.076 370.896C628.994 370.849 632.097 350.023 643.709 353.455C646.012 353.737 650.619 354.254 652.97 354.489C651.089 361.212 650.901 371.977 641.076 370.896Z"></path>
<path fill="#713C37" d="M505.12 899.582C506.389 887.829 528.062 885.62 527.732 899.159C520.164 899.347 512.642 899.488 505.12 899.582Z"></path>
<path fill="#623831" d="M475.644 369.768C482.555 363.75 490.124 375.879 482.884 380.486C475.879 386.551 468.311 374.234 475.644 369.768Z"></path>
<path fill="#392434" d="M499.056 369.909C509.351 371.131 519.787 370.849 530.083 369.533C530.224 372.448 530.553 378.277 530.694 381.191C519.834 379.076 508.787 379.452 497.974 381.474C498.256 378.606 498.773 372.777 499.056 369.909Z"></path>
<path fill="#552E34" d="M545.832 368.31C560.452 361.682 559.23 389.842 545.126 382.79C536.57 382.32 539.015 369.533 545.832 368.31Z"></path>
<path fill="#593135" d="M368.224 374.093C377.626 365.161 391.354 379.452 381.998 388.243C373.489 398.914 358.916 382.743 368.224 374.093Z"></path>
<path fill="#EE685F" d="M712.251 422.561C714.272 413.253 716.34 403.992 718.08 394.73C720.242 450.015 719.866 505.348 717.751 560.68C717.281 569.377 715.165 577.838 712.909 586.3C708.255 581.881 704.729 576.522 704.776 569.988C701.673 544.837 705.105 519.357 701.344 494.253C691.848 502.668 695.656 516.442 694.715 527.631C696.22 558.329 694.245 589.544 683.245 618.644C670.599 609.524 675.723 592.647 675.394 579.531C676.334 529.088 676.804 478.551 674.689 428.108C687.194 425.993 699.699 424.019 712.251 422.561Z"></path>
<path fill="#EE6961" d="M621.049 438.451C636.751 433.092 653.205 430.412 669.658 428.813C671.492 469.572 669.329 510.378 668.953 551.183C668.671 591.143 663.124 632.042 644.414 667.864C640.982 661.659 638.02 655.265 633.883 649.671C623.588 651.692 617.993 663.633 610.378 670.45C609.343 646.051 625.562 626.213 629.276 602.895C638.49 548.315 634.447 491.949 621.049 438.451Z"></path>
<path fill="#EE6861" d="M320.132 432.104C334 434.549 347.821 437.651 361.078 442.587C360.749 479.303 359.339 515.972 356.33 552.546C354.92 568.436 353.885 584.467 349.513 599.981C331.32 572.902 345.659 539.336 337.62 510.236C334 521.472 330.897 532.943 327.371 544.319C318.063 538.678 320.978 526.878 320.132 517.899C320.367 489.317 319.238 460.687 320.132 432.104Z"></path>
<path fill="#793E3C" d="M616.489 440.096L621.049 438.451C634.447 491.949 638.49 548.315 629.276 602.895C625.562 626.213 609.343 646.051 610.378 670.45L610.096 673.976C605.865 669.98 601.116 665.561 602.245 659.12C603.326 638.012 618.134 620.9 621.566 600.31C630.216 547.093 625.75 492.842 616.489 440.096Z"></path>
<path fill="#682C36" d="M361.078 442.588L365.92 444.328C367.237 479.069 367.754 513.951 364.228 548.598L356.33 552.547C359.339 515.972 360.749 479.303 361.078 442.588Z"></path>
<path fill="#EE6A61" d="M365.92 444.328C381.246 451.144 398.029 449.593 413.59 444.515C405.41 493.689 402.401 543.756 404.987 593.54C405.504 616.905 421.817 636.885 419.607 660.625C412.508 654.514 405.692 648.167 398.969 641.821C394.926 647.744 393.845 657.099 386.088 659.685C360.091 629.363 362.771 585.925 364.228 548.598C367.754 513.951 367.237 479.069 365.92 444.328Z"></path>
<path fill="#713B36" d="M509.727 495.052C507.8 479.162 526.04 487.107 535.536 485.885C535.865 499.706 518.283 492.843 509.727 495.052Z"></path>
<path fill="#592A2D" d="M504.039 505.253C512.407 501.258 522.514 503.655 531.446 504.313C539.485 507.98 524.301 510.002 521.903 509.485C516.685 508.544 505.825 511.741 504.039 505.253Z"></path>
<path fill="#402A35" d="M492.521 554.944C493.931 542.298 508.552 548.268 516.92 547.798C522.467 549.632 533.938 545.73 533.844 554.568C521.292 560.679 505.966 556.072 492.521 554.944Z"></path>
<path fill="#61393B" d="M483.918 603.647C499.244 607.126 515.039 607.643 530.647 609.054C530.929 611.169 531.446 615.353 531.728 617.421C515.792 619.161 498.398 619.537 483.777 612.25C483.777 610.088 483.871 605.81 483.918 603.647Z"></path>
<path fill="#683F3E" d="M444.476 668.241C481.473 674.117 518.941 672.847 556.268 673.176C555.234 675.057 553.212 678.724 552.225 680.605C516.497 684.224 480.439 681.545 444.852 677.596C444.758 675.245 444.57 670.544 444.476 668.241Z"></path>
<path fill="#5E3A3B" d="M442.172 701.149C442.689 692.593 455.147 697.012 460.507 697.435C488.431 703.734 517.202 700.068 545.455 702.418L550.298 707.448C530.459 713.183 509.539 710.786 489.23 709.893C473.435 707.918 456.84 707.871 442.172 701.149Z"></path>
<path fill="#73453F" d="M454.207 729.778C484.717 730.201 515.368 728.132 545.832 730.953C538.545 739.368 526.886 737.394 517.014 738.099C496.611 738.099 476.161 739.415 455.805 738.146C455.382 736.03 454.583 731.846 454.207 729.778Z"></path>
<path fill="#73443C" d="M458.485 781.773C487.82 781.632 517.202 780.738 546.584 781.537C541.836 791.41 530.13 788.495 521.339 789.576C501.5 789.623 481.521 791.362 461.729 789.529C460.93 787.602 459.284 783.747 458.485 781.773Z"></path>
<path fill="#703C3A" d="M486.269 824.787C487.914 817.5 495.812 816.466 501.735 815.573C516.403 813.504 531.305 813.974 546.02 814.82C545.126 816.56 543.34 820.039 542.447 821.778C523.784 823.846 504.979 823.988 486.269 824.787Z"></path>
<path fill="#703E39" d="M494.919 866.251C504.885 851.724 527.498 857.178 542.682 858.118C543.246 859.81 544.421 863.242 545.033 864.934C528.344 866.439 511.608 867.238 494.919 866.251Z"></path>
</svg>
