<?xml version="1.0" standalone="no"?><!DOCTYPE svg PUBLIC "-//W3C//DTD SVG 1.1//EN" "http://www.w3.org/Graphics/SVG/1.1/DTD/svg11.dtd"><svg height="1024" node-id="1" sillyvg="true" template-height="1024" template-width="1024" version="1.1" viewBox="0 0 1024 1024" width="1024" xmlns="http://www.w3.org/2000/svg" xmlns:xlink="http://www.w3.org/1999/xlink"><defs node-id="111"></defs><path d="M 0.00 0.00 L 1024.00 0.00 L 1024.00 1024.00 L 0.00 1024.00 Z" fill="#ebeadf" fill-rule="nonzero" node-id="113" stroke="none" target-height="1024" target-width="1024" target-x="0" target-y="0"></path><path d="M 316.00 91.30 L 318.80 91.50 L 321.20 91.10 L 323.30 90.30 L 325.20 89.10 L 328.80 85.80 L 336.20 77.00 L 339.00 74.60 L 341.00 73.40 L 343.30 72.50 L 345.80 72.10 L 683.70 72.00 L 688.20 72.70 L 692.80 75.10 L 695.30 77.20 L 704.40 86.90 L 706.80 89.00 L 709.50 90.60 L 746.60 91.30 L 820.90 91.30 L 830.00 92.00 L 838.90 93.30 L 847.70 95.20 L 856.30 97.70 L 864.80 100.80 L 873.10 104.40 L 881.10 108.60 L 888.80 113.30 L 896.30 118.40 L 903.40 124.00 L 910.10 130.00 L 916.40 136.50 L 921.80 143.00 L 926.80 149.80 L 931.40 156.90 L 935.50 164.30 L 939.20 171.90 L 942.40 179.70 L 945.10 187.70 L 947.30 195.90 L 949.00 204.20 L 950.20 212.50 L 950.90 220.90 L 951.20 811.10 L 951.20 819.40 L 950.60 827.70 L 949.60 835.90 L 948.00 844.20 L 946.00 852.30 L 943.60 860.20 L 940.70 868.00 L 937.30 875.60 L 933.20 882.90 L 924.90 876.50 L 928.40 869.80 L 931.50 862.90 L 934.20 855.80 L 936.50 848.60 L 938.30 841.30 L 939.50 833.80 L 940.20 823.10 L 940.60 812.50 L 940.70 229.30 L 940.60 222.30 L 939.20 208.60 L 938.00 201.80 L 934.40 188.40 L 929.50 175.50 L 923.10 163.20 L 915.50 151.70 L 911.20 146.30 L 906.60 141.10 L 901.70 136.30 L 896.50 131.70 L 890.70 127.10 L 884.70 123.00 L 878.40 119.10 L 871.90 115.70 L 865.20 112.60 L 858.40 109.90 L 851.50 107.50 L 844.40 105.60 L 837.20 104.00 L 829.90 102.90 L 822.70 102.20 L 799.90 101.80 L 736.10 102.00 L 718.60 102.50 L 729.70 117.80 L 737.90 127.50 L 742.40 131.90 L 744.60 133.40 L 747.00 134.30 L 749.50 134.80 L 757.40 135.30 L 798.30 135.00 L 808.50 135.30 L 818.70 136.20 L 825.40 137.10 L 832.10 138.50 L 838.70 140.30 L 845.50 142.70 L 852.00 145.60 L 858.30 149.10 L 864.30 153.10 L 869.90 157.50 L 875.20 162.30 L 880.10 167.60 L 884.70 173.10 L 888.90 179.00 L 892.60 185.20 L 895.90 191.50 L 898.70 198.10 L 902.30 209.80 L 903.60 215.70 L 905.00 224.70 L 905.90 233.90 L 906.50 252.20 L 906.60 435.20 L 906.20 476.30 L 905.30 517.50 L 905.70 533.50 L 905.70 549.50 L 905.10 597.50 L 906.50 662.00 L 906.60 802.70 L 906.20 817.30 L 905.10 824.20 L 903.60 830.90 L 901.60 837.40 L 899.20 843.80 L 896.30 850.10 L 893.00 856.10 L 889.30 861.80 L 885.20 867.40 L 880.80 872.70 L 876.00 877.60 L 871.00 882.20 L 865.60 886.50 L 860.00 890.50 L 854.20 894.00 L 848.10 897.10 L 841.80 899.80 L 835.30 902.00 L 828.70 903.80 L 821.90 905.00 L 815.00 905.70 L 800.60 906.00 L 757.60 905.80 L 712.30 906.10 L 375.70 906.10 L 285.10 906.70 L 225.60 906.60 L 210.70 906.90 L 197.50 905.20 L 191.00 903.80 L 184.60 902.00 L 178.30 899.80 L 172.20 897.20 L 166.20 894.20 L 160.50 890.80 L 150.20 883.10 L 145.70 879.00 L 141.40 874.60 L 137.50 869.90 L 130.50 859.90 L 127.50 854.50 L 122.50 843.30 L 118.90 831.60 L 117.60 825.60 L 116.80 790.60 L 117.20 720.50 L 116.90 243.10 L 117.30 229.00 L 118.10 222.00 L 119.30 215.00 L 120.80 208.20 L 122.80 201.40 L 125.30 194.80 L 128.30 188.50 L 134.80 177.40 L 138.10 172.80 L 145.60 164.40 L 151.20 159.30 L 157.10 154.70 L 163.40 150.50 L 170.00 146.80 L 176.90 143.60 L 183.90 141.00 L 191.20 138.80 L 198.60 137.20 L 206.00 136.10 L 223.10 135.00 L 270.10 135.50 L 283.00 135.20 L 287.00 134.70 L 291.00 132.40 L 293.20 130.40 L 315.80 101.90 L 209.00 101.60 L 201.00 102.00 L 193.00 102.90 L 185.10 104.20 L 177.20 105.90 L 169.50 108.10 L 162.00 110.80 L 154.60 113.90 L 147.40 117.40 L 140.50 121.30 L 133.80 125.70 L 127.30 130.60 L 120.30 123.20 L 132.50 114.40 L 145.60 106.90 L 152.40 103.70 L 166.40 98.20 L 173.60 96.10 L 180.90 94.30 L 188.30 92.90 L 195.70 91.90 L 203.20 91.30 L 316.00 91.30 Z M 327.10 106.10 L 296.30 145.40 L 264.50 186.90 L 262.80 191.00 L 262.30 194.30 L 262.50 204.60 L 274.40 346.00 L 276.50 361.40 L 278.30 369.00 L 277.40 374.50 L 277.70 381.40 L 280.10 393.90 L 283.30 407.70 L 285.20 414.60 L 287.60 421.30 L 289.60 425.60 L 292.00 429.60 L 294.80 433.60 L 301.40 376.50 L 304.00 357.50 L 307.00 338.60 L 311.10 317.20 L 313.20 313.00 L 314.60 311.40 L 316.80 309.60 L 319.30 308.10 L 322.20 307.00 L 326.70 305.70 L 331.50 304.90 L 355.40 302.00 L 370.20 299.70 L 389.70 295.50 L 399.30 292.90 L 408.80 289.90 L 418.10 286.50 L 427.20 282.60 L 436.10 278.30 L 444.80 273.40 L 453.20 267.90 L 457.80 264.50 L 466.20 256.70 L 472.10 250.40 L 488.80 230.70 L 494.80 234.20 L 490.20 242.70 L 485.30 250.80 L 480.00 258.80 L 463.10 282.00 L 452.20 297.80 L 459.50 297.20 L 466.70 296.10 L 473.90 294.70 L 481.00 292.80 L 488.00 290.50 L 494.80 287.80 L 501.40 284.70 L 507.90 281.30 L 514.20 277.40 L 520.20 273.20 L 525.90 268.70 L 537.40 257.90 L 543.00 251.70 L 553.40 238.40 L 563.10 224.70 L 593.20 225.60 L 671.30 225.50 L 675.80 225.90 L 682.90 227.50 L 688.30 230.20 L 692.30 233.00 L 695.80 236.10 L 698.90 239.60 L 701.70 243.50 L 704.10 247.60 L 706.20 251.90 L 707.90 256.40 L 710.50 265.50 L 714.00 282.20 L 726.70 349.40 L 731.70 373.50 L 733.50 388.30 L 734.20 399.60 L 735.00 433.40 L 740.70 424.30 L 743.00 419.60 L 746.00 412.20 L 748.50 404.60 L 750.60 396.80 L 755.70 373.40 L 767.50 229.40 L 770.20 202.50 L 770.40 195.70 L 770.10 189.00 L 768.10 184.90 L 762.90 177.40 L 728.50 133.80 L 715.40 117.40 L 696.20 94.90 L 693.40 91.60 L 688.20 86.60 L 683.30 83.60 L 673.80 82.90 L 520.30 83.20 L 356.40 82.90 L 346.50 83.90 L 342.70 87.00 L 339.30 90.60 L 327.10 106.10 Z M 140.60 186.00 L 143.30 186.40 L 140.80 186.00 L 133.60 201.00 L 130.20 210.20 L 128.40 218.60 L 127.40 231.40 L 127.20 456.90 L 128.00 470.50 L 125.70 470.60 L 126.00 558.10 L 127.20 645.60 L 126.30 654.60 L 125.90 663.60 L 126.00 672.60 L 127.30 708.80 L 125.80 763.10 L 125.70 785.80 L 126.20 808.50 L 126.80 815.70 L 127.80 822.80 L 129.30 830.00 L 131.20 837.00 L 133.70 843.80 L 136.60 850.40 L 139.20 855.10 L 142.20 859.60 L 145.50 863.90 L 149.20 868.00 L 154.20 872.60 L 159.50 876.90 L 165.10 880.80 L 170.90 884.40 L 177.00 887.60 L 183.20 890.30 L 189.60 892.60 L 196.20 894.40 L 202.90 895.80 L 209.60 896.60 L 216.40 896.90 L 223.30 896.60 L 211.80 889.50 L 176.90 869.20 L 154.00 855.00 L 149.90 851.70 L 148.10 849.90 L 146.60 847.80 L 145.50 845.50 L 144.90 842.90 L 143.40 828.40 L 142.50 813.80 L 142.00 799.20 L 141.30 755.30 L 138.90 702.60 L 137.60 694.90 L 133.70 680.80 L 133.40 678.20 L 133.70 675.60 L 136.70 670.50 L 140.10 665.80 L 155.20 647.80 L 157.40 648.00 L 165.80 634.20 L 167.20 634.00 L 169.50 632.50 L 201.90 597.10 L 212.30 586.80 L 215.70 584.30 L 220.50 582.80 L 223.60 582.50 L 233.30 582.80 L 265.60 582.80 L 314.40 582.30 L 370.20 580.10 L 375.40 575.40 L 396.70 557.40 L 401.90 552.70 L 363.40 551.60 L 350.60 550.90 L 349.80 551.10 L 331.70 541.30 L 325.90 537.70 L 318.80 532.00 L 315.60 528.70 L 311.80 524.40 L 308.50 519.80 L 305.80 514.90 L 303.50 509.80 L 301.60 504.50 L 300.10 499.10 L 298.40 490.70 L 297.30 482.20 L 295.70 463.10 L 295.60 456.00 L 294.80 451.60 L 293.80 449.60 L 288.90 444.30 L 283.10 436.80 L 280.70 432.70 L 277.80 427.00 L 275.50 421.10 L 273.70 414.90 L 270.60 401.70 L 268.00 388.30 L 265.60 370.30 L 258.70 291.30 L 253.30 221.30 L 251.60 203.50 L 251.40 191.60 L 252.00 185.70 L 256.70 178.90 L 276.70 152.70 L 281.20 145.70 L 245.40 145.40 L 227.40 145.50 L 209.60 146.10 L 202.70 146.90 L 196.00 148.20 L 189.40 150.10 L 183.00 152.50 L 176.80 155.30 L 170.90 158.60 L 165.10 162.20 L 159.60 166.30 L 154.40 170.80 L 149.50 175.50 L 144.90 180.60 L 140.60 186.00 Z M 752.30 146.00 L 756.90 152.40 L 771.90 171.00 L 776.60 177.40 L 780.90 184.10 L 781.50 188.80 L 781.60 198.40 L 778.60 227.00 L 774.70 281.50 L 772.90 299.30 L 768.60 352.90 L 765.60 376.50 L 763.60 388.20 L 759.60 405.60 L 757.00 414.20 L 752.70 426.40 L 749.10 433.30 L 746.00 438.10 L 735.50 452.20 L 734.80 463.00 L 734.60 479.40 L 733.70 489.40 L 732.80 494.00 L 728.30 512.10 L 724.20 517.60 L 720.50 523.40 L 719.10 526.50 L 718.10 529.80 L 712.20 533.90 L 706.80 538.50 L 701.70 543.60 L 693.40 546.10 L 677.70 553.10 L 646.00 553.30 L 614.30 552.60 L 655.80 606.90 L 665.60 620.80 L 675.00 635.00 L 677.00 634.80 L 684.40 648.20 L 704.90 682.70 L 715.70 707.80 L 718.90 716.60 L 721.60 725.50 L 723.90 734.60 L 724.10 750.40 L 722.50 755.90 L 719.00 764.90 L 715.20 771.50 L 712.80 774.50 L 710.10 777.20 L 703.90 782.00 L 700.60 783.90 L 693.50 786.70 L 688.60 787.80 L 683.50 788.50 L 678.40 788.80 L 668.10 788.20 L 659.50 786.60 L 645.80 781.20 L 642.40 780.10 L 638.80 779.40 L 635.10 779.20 L 632.90 783.60 L 638.30 797.60 L 647.30 818.30 L 654.80 836.80 L 672.60 883.40 L 677.30 895.00 L 706.80 895.80 L 802.80 895.70 L 812.00 895.30 L 821.10 894.40 L 827.00 893.10 L 838.40 889.40 L 843.90 887.00 L 849.30 884.30 L 859.40 877.80 L 868.70 870.10 L 876.80 861.40 L 880.40 856.60 L 883.70 851.60 L 886.70 846.40 L 889.20 841.00 L 891.40 835.30 L 893.30 828.40 L 894.70 821.40 L 895.70 814.40 L 896.40 803.80 L 896.60 793.00 L 895.90 760.80 L 896.00 715.10 L 895.70 695.60 L 896.10 528.60 L 895.80 423.60 L 896.20 410.70 L 896.00 272.80 L 896.20 251.10 L 895.70 233.10 L 893.80 218.80 L 892.20 211.60 L 890.00 204.50 L 887.30 197.50 L 884.00 190.80 L 880.20 184.50 L 875.90 178.40 L 868.50 170.00 L 860.10 162.70 L 855.60 159.50 L 850.90 156.70 L 845.90 154.10 L 840.70 152.00 L 833.50 149.60 L 826.30 147.80 L 819.10 146.60 L 804.40 145.30 L 796.90 145.20 L 763.30 146.00 L 752.30 146.00 Z M 567.10 238.90 L 554.80 255.80 L 548.10 263.80 L 540.90 271.40 L 535.90 276.20 L 525.00 284.90 L 516.00 291.20 L 513.50 293.80 L 500.30 298.60 L 487.00 302.80 L 473.50 306.50 L 463.30 308.80 L 453.00 310.70 L 442.60 312.10 L 432.10 313.20 L 434.60 302.50 L 437.70 292.00 L 426.10 296.60 L 414.30 300.60 L 402.40 304.00 L 390.40 307.00 L 366.00 311.90 L 347.60 314.80 L 326.90 317.50 L 325.10 318.10 L 323.70 319.10 L 321.50 321.90 L 320.70 323.70 L 319.90 326.50 L 318.20 335.20 L 310.90 391.40 L 308.70 410.20 L 306.90 435.20 L 306.50 447.80 L 306.70 460.30 L 307.50 472.90 L 309.90 491.50 L 311.20 497.50 L 313.10 503.30 L 315.50 508.90 L 319.70 515.90 L 325.60 522.70 L 332.90 528.70 L 336.90 531.30 L 342.50 534.40 L 348.40 536.80 L 354.50 538.70 L 360.70 540.10 L 367.00 540.90 L 373.40 541.10 L 664.50 541.60 L 669.60 541.50 L 674.60 540.90 L 679.60 539.80 L 684.40 538.30 L 689.10 536.40 L 693.60 534.10 L 697.80 531.40 L 701.80 528.30 L 705.50 524.80 L 708.90 521.10 L 711.90 517.00 L 714.40 512.60 L 717.00 507.20 L 719.10 501.70 L 720.70 496.10 L 722.70 484.60 L 723.80 469.90 L 723.90 443.40 L 723.40 406.90 L 722.60 394.80 L 721.60 386.70 L 720.20 378.80 L 718.30 370.90 L 717.90 364.10 L 716.80 357.40 L 705.40 296.10 L 699.10 265.50 L 696.60 258.40 L 692.80 251.40 L 690.50 248.20 L 687.90 245.20 L 685.10 242.50 L 682.00 240.30 L 678.70 238.60 L 673.30 237.00 L 670.40 236.70 L 571.10 237.20 L 567.10 238.90 Z M 417.30 556.00 L 393.50 573.50 L 385.80 579.50 L 405.50 581.80 L 425.30 583.50 L 444.80 590.20 L 444.20 599.10 L 442.70 607.90 L 416.50 637.00 L 390.80 666.70 L 405.30 676.20 L 417.70 682.00 L 442.00 694.70 L 459.80 704.90 L 482.90 718.70 L 488.70 721.30 L 492.80 721.80 L 517.30 717.50 L 522.90 717.00 L 528.50 717.10 L 535.80 718.40 L 545.40 721.40 L 551.30 722.70 L 557.20 723.70 L 566.30 724.60 L 575.30 725.00 L 611.80 725.00 L 606.60 710.00 L 601.90 694.90 L 597.60 679.60 L 593.90 664.20 L 590.90 648.60 L 588.40 633.00 L 587.00 621.20 L 586.10 609.40 L 585.60 597.50 L 585.60 564.20 L 585.10 553.50 L 574.90 554.40 L 565.10 572.80 L 562.70 578.30 L 542.80 600.60 L 532.40 611.40 L 520.00 623.00 L 518.20 623.90 L 516.20 624.20 L 514.20 624.00 L 511.90 622.80 L 493.30 602.60 L 483.90 593.70 L 474.30 583.50 L 464.70 574.70 L 458.70 567.70 L 452.30 561.00 L 445.60 554.70 L 442.00 554.40 L 430.90 552.70 L 427.30 552.50 L 423.80 552.80 L 421.60 553.40 L 419.40 554.50 L 417.30 556.00 Z M 463.10 554.00 L 474.70 568.20 L 480.90 575.00 L 511.20 606.10 L 517.10 612.60 L 542.20 587.90 L 548.10 581.30 L 553.70 574.50 L 558.80 564.50 L 563.40 554.20 L 513.20 553.60 L 463.10 554.00 Z M 597.80 557.80 L 596.70 568.90 L 596.10 580.00 L 596.00 591.10 L 596.30 602.30 L 597.60 624.50 L 600.20 640.50 L 603.40 656.40 L 607.00 672.20 L 611.20 687.90 L 615.80 703.50 L 621.10 718.80 L 626.90 733.90 L 633.30 748.80 L 637.40 756.70 L 642.70 763.80 L 645.80 767.00 L 649.20 769.80 L 652.90 772.20 L 656.90 774.10 L 661.20 775.60 L 666.60 776.70 L 672.20 777.40 L 677.90 777.60 L 683.60 777.20 L 690.80 775.60 L 694.30 774.30 L 697.60 772.60 L 700.70 770.50 L 703.60 767.90 L 706.20 765.00 L 708.30 762.00 L 709.90 758.70 L 712.10 751.60 L 712.60 747.90 L 712.80 742.20 L 712.40 736.50 L 711.50 730.80 L 710.10 725.50 L 707.30 716.20 L 703.90 707.20 L 700.00 698.30 L 695.70 689.60 L 686.20 672.70 L 670.70 648.10 L 642.00 606.60 L 625.00 584.40 L 610.30 567.50 L 609.80 565.60 L 608.70 564.00 L 605.30 561.60 L 597.80 557.80 Z M 224.20 593.90 L 227.40 598.70 L 230.90 603.20 L 243.90 603.50 L 257.00 603.40 L 283.00 602.10 L 300.40 601.60 L 352.50 600.90 L 369.90 600.30 L 387.20 599.20 L 413.90 598.50 L 427.20 597.00 L 420.60 594.20 L 417.20 593.30 L 410.20 592.30 L 361.00 592.20 L 315.40 592.50 L 224.20 593.90 Z M 151.30 668.50 L 149.20 670.90 L 145.70 676.30 L 143.70 682.30 L 143.20 685.50 L 148.50 683.30 L 154.10 679.30 L 157.20 676.40 L 177.20 654.60 L 211.90 617.70 L 220.30 608.20 L 217.00 597.50 L 194.50 620.60 L 151.30 668.50 Z M 234.10 614.70 L 235.30 620.50 L 241.40 621.60 L 247.60 622.20 L 263.20 622.30 L 281.90 621.30 L 351.60 619.80 L 396.10 617.70 L 399.60 617.90 L 403.10 618.50 L 407.50 620.10 L 409.60 621.40 L 399.90 631.50 L 390.50 641.90 L 352.80 685.60 L 350.50 686.80 L 348.60 686.90 L 342.30 686.10 L 332.20 676.40 L 349.40 672.30 L 363.70 656.30 L 370.60 648.10 L 377.10 639.60 L 378.70 639.10 L 381.40 637.40 L 387.90 629.90 L 373.00 629.30 L 354.40 630.00 L 329.00 631.40 L 314.90 631.80 L 258.20 631.90 L 250.20 632.30 L 246.20 632.70 L 242.40 633.60 L 237.60 635.90 L 235.50 637.50 L 218.70 652.60 L 210.50 660.40 L 202.70 668.60 L 197.70 674.20 L 188.60 686.20 L 204.40 685.90 L 220.20 686.00 L 207.20 687.00 L 194.20 688.50 L 200.20 690.00 L 206.30 691.00 L 218.60 691.60 L 231.00 691.10 L 236.90 690.00 L 245.80 687.30 L 248.70 686.80 L 251.70 686.60 L 254.80 686.90 L 252.70 693.60 L 248.10 694.80 L 222.40 694.90 L 209.50 695.40 L 196.60 696.50 L 188.10 697.60 L 171.20 700.80 L 178.30 705.00 L 193.00 711.90 L 215.50 721.40 L 222.80 725.00 L 229.90 729.10 L 238.00 731.40 L 244.70 736.90 L 248.40 739.20 L 252.30 741.10 L 257.80 742.80 L 260.70 743.20 L 271.90 743.80 L 283.10 743.90 L 305.50 743.40 L 317.70 742.40 L 354.30 740.60 L 378.70 738.70 L 393.70 738.30 L 401.20 737.60 L 408.50 736.40 L 442.40 733.50 L 453.60 732.30 L 476.00 728.90 L 456.90 718.90 L 417.70 701.10 L 408.80 695.20 L 388.20 682.90 L 385.10 681.70 L 381.90 681.10 L 375.40 683.60 L 356.70 692.90 L 356.40 688.30 L 371.30 672.70 L 385.90 656.70 L 400.00 640.30 L 413.70 623.50 L 420.90 615.60 L 427.60 607.40 L 381.80 609.10 L 336.00 610.30 L 323.20 611.20 L 310.50 611.70 L 259.50 612.60 L 246.80 613.40 L 234.10 614.70 Z M 187.80 658.30 L 165.60 681.60 L 160.40 687.70 L 155.60 694.20 L 160.00 694.30 L 162.30 694.00 L 164.40 693.50 L 166.30 692.50 L 176.80 683.20 L 185.10 675.00 L 209.00 649.40 L 224.90 632.90 L 228.40 628.00 L 230.00 623.60 L 230.30 621.40 L 230.00 618.90 L 229.20 616.20 L 221.90 622.80 L 214.90 629.70 L 187.80 658.30 Z M 147.70 703.40 L 151.50 803.90 L 153.20 837.40 L 153.50 839.40 L 154.10 841.20 L 155.20 842.80 L 157.10 844.90 L 164.40 850.00 L 192.10 866.20 L 236.50 891.20 L 242.20 893.80 L 246.10 895.10 L 250.20 896.10 L 254.40 896.60 L 254.90 825.80 L 254.80 790.30 L 254.20 754.90 L 236.20 746.80 L 165.60 711.70 L 147.70 703.40 Z M 503.50 730.50 L 502.30 737.70 L 501.70 745.00 L 501.80 752.40 L 534.00 752.20 L 533.80 729.90 L 523.70 729.80 L 503.50 730.50 Z M 545.20 731.90 L 544.80 753.20 L 554.20 753.90 L 572.90 754.30 L 591.70 753.40 L 601.00 752.60 L 597.00 738.10 L 584.00 736.50 L 570.90 735.50 L 563.30 736.20 L 554.30 733.80 L 545.20 731.90 Z M 608.50 737.10 L 610.90 746.10 L 613.70 754.90 L 617.10 763.60 L 621.00 772.10 L 631.20 769.70 L 623.80 753.80 L 616.70 737.80 L 608.50 737.10 Z M 405.50 746.90 L 405.60 766.00 L 418.00 765.60 L 467.40 762.40 L 479.80 762.20 L 479.80 808.70 L 479.00 855.10 L 439.00 860.30 L 294.80 878.00 L 288.90 878.40 L 281.50 878.60 L 280.60 878.40 L 279.10 876.80 L 278.70 875.20 L 278.30 868.70 L 278.30 798.80 L 278.60 775.50 L 291.40 773.80 L 304.20 772.60 L 342.70 770.30 L 355.50 769.20 L 359.50 752.40 L 361.70 755.80 L 363.20 759.40 L 364.30 764.60 L 363.90 812.50 L 390.30 811.30 L 397.80 811.70 L 399.40 779.80 L 399.30 769.20 L 398.90 762.10 L 398.00 755.10 L 396.70 748.10 L 353.70 750.20 L 332.30 751.70 L 321.00 752.00 L 287.30 754.40 L 276.10 754.90 L 264.80 754.70 L 265.10 825.80 L 265.00 896.80 L 300.10 894.50 L 311.80 893.30 L 323.40 891.70 L 335.00 889.50 L 372.40 884.30 L 484.90 869.50 L 486.40 858.80 L 488.30 837.40 L 489.10 821.20 L 490.60 772.60 L 491.30 756.40 L 492.50 740.30 L 470.70 741.30 L 449.00 742.90 L 405.50 746.90 Z M 499.80 764.00 L 498.90 781.60 L 511.30 782.00 L 523.60 781.90 L 536.00 781.50 L 554.40 780.10 L 572.90 778.10 L 609.50 773.00 L 604.60 763.00 L 579.60 764.80 L 563.00 765.30 L 540.90 764.00 L 527.20 763.50 L 513.50 763.50 L 499.80 764.00 Z M 409.80 777.80 L 410.90 794.70 L 410.80 800.30 L 410.20 805.90 L 409.10 811.40 L 408.00 814.90 L 404.50 821.70 L 387.60 822.40 L 353.80 822.70 L 354.70 802.80 L 354.70 782.90 L 343.60 782.20 L 332.50 782.00 L 288.10 783.60 L 287.50 797.90 L 287.20 854.90 L 286.70 869.10 L 300.30 868.30 L 313.70 866.90 L 362.10 860.90 L 405.30 855.90 L 448.40 850.30 L 469.90 846.80 L 470.60 828.80 L 470.70 810.80 L 470.10 774.70 L 460.00 774.10 L 450.00 773.90 L 439.80 774.20 L 429.80 775.00 L 419.70 776.20 L 409.80 777.80 Z M 605.90 785.70 L 596.10 787.00 L 556.90 790.80 L 547.20 792.20 L 537.90 792.30 L 528.70 793.10 L 519.50 794.40 L 519.80 810.80 L 521.00 821.70 L 528.20 849.90 L 534.70 872.60 L 541.50 895.20 L 663.90 895.90 L 663.70 889.60 L 635.50 818.70 L 628.00 801.20 L 620.00 783.90 L 605.90 785.70 Z M 499.60 795.30 L 493.40 879.30 L 472.00 882.10 L 386.20 892.20 L 364.90 895.20 L 429.20 895.60 L 493.40 895.00 L 493.40 886.10 L 497.60 876.70 L 499.20 871.80 L 502.50 855.00 L 506.00 831.50 L 507.00 819.70 L 507.40 803.80 L 507.10 795.90 L 499.60 795.30 Z M 502.70 895.30 L 530.90 895.50 L 528.20 882.50 L 524.80 869.70 L 519.10 853.00 L 515.80 844.90 L 512.60 853.00 L 510.00 861.30 L 505.90 878.20 L 502.70 895.30 Z" fill="#050505" fill-rule="nonzero" node-id="115" stroke="none" target-height="834.9" target-width="834.4" target-x="116.8" target-y="72"></path><path d="M 327.10 106.10 L 339.30 90.60 L 342.70 87.00 L 346.50 83.90 L 356.40 82.90 L 520.30 83.20 L 673.80 82.90 L 683.30 83.60 L 685.90 85.00 L 690.40 88.50 L 693.40 91.60 L 715.40 117.40 L 762.90 177.40 L 768.10 184.90 L 770.10 189.00 L 770.40 195.70 L 770.20 202.50 L 767.50 229.40 L 755.70 373.40 L 748.50 376.80 L 746.90 365.00 L 746.30 350.30 L 746.60 341.50 L 748.70 306.10 L 749.80 279.00 L 750.00 251.90 L 749.50 238.40 L 748.40 224.90 L 747.30 217.70 L 745.70 210.60 L 743.60 203.60 L 738.00 190.20 L 718.80 154.50 L 710.50 140.00 L 701.70 125.90 L 689.10 107.70 L 680.30 96.50 L 678.20 94.60 L 675.90 93.10 L 670.70 91.00 L 667.90 90.30 L 659.20 89.60 L 650.60 89.80 L 590.70 93.30 L 530.90 97.30 L 471.10 101.70 L 411.40 106.60 L 348.70 112.40 L 345.90 113.20 L 341.10 116.10 L 336.90 120.10 L 334.10 123.60 L 321.60 141.10 L 311.30 154.80 L 286.80 185.80 L 282.00 193.20 L 279.20 199.60 L 278.30 202.90 L 277.90 206.40 L 278.30 225.20 L 282.00 301.40 L 281.80 309.90 L 282.60 335.50 L 282.50 344.00 L 281.90 352.40 L 281.10 357.90 L 279.90 363.50 L 278.30 369.00 L 276.50 361.40 L 274.40 346.00 L 272.50 322.60 L 269.70 293.20 L 262.50 204.60 L 262.20 197.80 L 262.30 194.30 L 262.80 191.00 L 264.50 186.90 L 265.90 185.00 L 296.30 145.40 L 327.10 106.10 Z" fill="#a97760" fill-rule="nonzero" node-id="117" stroke="none" target-height="293.9" target-width="508.2" target-x="262.2" target-y="82.9"></path><path d="M 351.70 112.00 L 411.40 106.60 L 471.10 101.70 L 530.90 97.30 L 590.70 93.30 L 650.60 89.80 L 659.20 89.60 L 667.90 90.30 L 673.40 91.90 L 678.20 94.60 L 680.30 96.50 L 682.30 98.90 L 695.60 116.70 L 701.70 125.90 L 710.50 140.00 L 718.80 154.50 L 738.00 190.20 L 741.00 196.80 L 743.60 203.60 L 745.70 210.60 L 747.30 217.70 L 748.40 224.90 L 749.50 238.40 L 750.00 251.90 L 750.10 265.50 L 749.80 279.00 L 748.70 306.10 L 746.60 341.50 L 746.50 359.10 L 747.50 370.90 L 748.50 376.80 L 755.70 373.40 L 750.60 396.80 L 748.50 404.60 L 746.00 412.20 L 743.00 419.60 L 740.70 424.30 L 735.00 433.40 L 734.20 399.60 L 733.50 388.30 L 731.70 373.50 L 723.40 332.60 L 714.00 282.20 L 709.40 261.00 L 706.20 251.90 L 704.10 247.60 L 701.70 243.50 L 698.90 239.60 L 695.80 236.10 L 692.30 233.00 L 688.30 230.20 L 685.60 228.70 L 680.10 226.70 L 675.80 225.90 L 671.30 225.50 L 593.20 225.60 L 563.10 224.70 L 548.30 245.10 L 543.00 251.70 L 537.40 257.90 L 525.90 268.70 L 520.20 273.20 L 514.20 277.40 L 507.90 281.30 L 501.40 284.70 L 494.80 287.80 L 488.00 290.50 L 481.00 292.80 L 473.90 294.70 L 466.70 296.10 L 459.50 297.20 L 452.20 297.80 L 463.10 282.00 L 480.00 258.80 L 485.30 250.80 L 490.20 242.70 L 499.30 225.60 L 503.50 216.90 L 507.30 208.00 L 510.70 198.90 L 504.20 201.30 L 498.00 204.20 L 492.00 207.40 L 483.40 212.90 L 475.10 218.80 L 450.60 237.40 L 435.80 247.10 L 422.70 254.00 L 415.90 256.90 L 406.70 260.40 L 397.30 263.40 L 387.70 266.00 L 373.20 269.30 L 358.60 272.10 L 346.20 273.90 L 333.80 275.20 L 321.30 276.00 L 283.70 278.00 L 282.00 301.40 L 279.00 240.50 L 277.90 210.00 L 277.90 206.40 L 278.30 202.90 L 279.20 199.60 L 282.00 193.20 L 286.80 185.80 L 311.30 154.80 L 321.60 141.10 L 334.10 123.60 L 336.90 120.10 L 338.90 118.00 L 343.40 114.50 L 345.90 113.20 L 348.70 112.40 L 351.70 112.00 Z" fill="#88513a" fill-rule="nonzero" node-id="119" stroke="none" target-height="343.8" target-width="477.80002" target-x="277.9" target-y="89.6"></path><path d="M 127.30 130.60 L 133.80 125.70 L 140.50 121.30 L 147.40 117.40 L 154.60 113.90 L 162.00 110.80 L 169.50 108.10 L 177.20 105.90 L 185.10 104.20 L 193.00 102.90 L 201.00 102.00 L 209.00 101.60 L 315.80 101.90 L 300.70 121.20 L 296.90 108.70 L 282.50 106.30 L 278.90 106.30 L 275.30 106.70 L 271.30 108.30 L 267.40 110.30 L 256.10 116.90 L 252.20 118.80 L 246.80 120.50 L 243.90 121.00 L 238.10 121.40 L 215.10 120.80 L 202.90 121.00 L 190.00 122.50 L 183.70 123.90 L 171.30 127.80 L 159.50 133.00 L 153.80 136.20 L 143.10 143.50 L 138.00 147.60 L 132.10 153.20 L 126.70 159.30 L 121.80 165.80 L 117.40 172.60 L 113.50 179.70 L 110.10 187.10 L 107.20 194.70 L 104.90 202.50 L 103.10 210.50 L 101.90 218.60 L 101.20 226.70 L 101.20 244.10 L 100.80 253.40 L 99.90 262.60 L 98.50 271.80 L 96.40 280.80 L 93.80 289.70 L 91.80 286.20 L 90.20 282.50 L 89.10 278.80 L 88.00 273.00 L 87.50 267.00 L 87.40 261.00 L 88.10 237.20 L 87.80 231.30 L 85.80 216.80 L 84.10 208.20 L 85.30 200.60 L 87.00 193.30 L 89.30 186.10 L 92.00 179.10 L 95.10 172.20 L 98.70 165.60 L 102.60 159.10 L 107.00 152.90 L 111.70 146.90 L 116.60 141.20 L 127.30 130.60 Z" fill="#68a082" fill-rule="nonzero" node-id="121" stroke="none" target-height="188.1" target-width="231.69998" target-x="84.1" target-y="101.6"></path><path d="M 908.90 754.70 L 923.90 754.80 L 925.70 783.50 L 925.80 802.70 L 925.30 812.30 L 924.30 821.90 L 922.80 831.30 L 920.70 840.50 L 918.60 847.30 L 916.10 854.00 L 913.20 860.60 L 906.90 872.40 L 903.80 877.40 L 896.60 886.80 L 891.10 892.50 L 885.30 897.80 L 879.00 902.60 L 872.40 907.00 L 865.60 911.00 L 858.40 914.50 L 851.10 917.50 L 843.60 920.10 L 836.00 922.20 L 829.80 923.50 L 817.40 925.10 L 798.50 925.70 L 761.70 925.60 L 749.80 924.60 L 744.00 923.40 L 740.20 921.90 L 736.60 918.80 L 733.20 913.90 L 729.00 906.10 L 757.60 905.80 L 800.60 906.00 L 815.00 905.70 L 821.90 905.00 L 828.70 903.80 L 835.30 902.00 L 841.80 899.80 L 848.10 897.10 L 854.20 894.00 L 860.00 890.50 L 865.60 886.50 L 871.00 882.20 L 876.00 877.60 L 880.80 872.70 L 885.20 867.40 L 889.30 861.90 L 893.00 856.10 L 896.30 850.10 L 899.20 843.80 L 901.60 837.40 L 903.60 830.90 L 905.10 824.20 L 907.50 806.90 L 908.20 796.50 L 908.90 754.70 Z" fill="#68a082" fill-rule="nonzero" node-id="123" stroke="none" target-height="171" target-width="196.79999" target-x="729" target-y="754.7"></path><path d="M 718.60 102.50 L 736.10 102.00 L 753.70 102.00 L 761.00 112.60 L 763.90 115.70 L 766.10 117.40 L 768.50 118.70 L 771.30 119.60 L 777.20 120.60 L 783.20 120.90 L 814.10 119.50 L 821.10 119.80 L 828.10 120.50 L 835.00 121.80 L 841.80 123.40 L 848.50 125.50 L 855.10 128.00 L 861.60 130.80 L 868.40 134.40 L 874.80 138.40 L 880.90 142.90 L 886.60 147.90 L 892.00 153.30 L 897.00 159.00 L 901.60 165.10 L 905.80 171.50 L 909.60 178.10 L 912.90 185.00 L 915.80 192.00 L 918.20 199.30 L 920.10 206.70 L 921.60 214.20 L 922.50 221.70 L 923.30 245.50 L 923.20 272.60 L 920.90 305.40 L 920.70 316.50 L 921.80 361.10 L 921.70 521.60 L 922.00 698.10 L 922.20 703.50 L 922.90 708.70 L 924.00 713.90 L 926.20 718.00 L 933.70 730.00 L 935.90 734.10 L 937.60 738.40 L 938.40 741.30 L 938.80 744.50 L 938.80 790.80 L 939.50 833.80 L 938.30 841.20 L 936.50 848.60 L 934.20 855.80 L 931.50 862.90 L 928.40 869.80 L 924.90 876.50 L 920.00 883.90 L 914.70 890.90 L 909.00 897.60 L 902.80 903.80 L 896.20 909.70 L 889.30 915.10 L 882.10 920.10 L 874.50 924.70 L 866.70 928.70 L 858.70 932.20 L 850.40 935.20 L 842.00 937.70 L 833.40 939.70 L 824.70 941.00 L 816.00 941.70 L 200.60 941.60 L 193.30 941.00 L 186.20 940.00 L 179.20 938.50 L 172.30 936.60 L 158.80 931.60 L 145.90 925.20 L 137.60 920.10 L 129.80 914.60 L 122.40 908.50 L 112.90 899.20 L 104.60 888.80 L 99.80 881.40 L 95.40 873.70 L 91.70 865.60 L 88.40 857.40 L 85.80 848.90 L 83.70 840.30 L 82.30 831.50 L 81.40 822.70 L 81.20 813.80 L 81.40 735.30 L 94.10 727.30 L 96.80 724.90 L 99.00 722.10 L 100.10 720.00 L 100.80 717.70 L 101.70 705.90 L 101.90 696.80 L 101.40 669.30 L 101.40 582.00 L 102.00 347.40 L 102.40 325.10 L 101.90 312.70 L 100.10 303.20 L 98.60 298.60 L 96.50 294.10 L 93.80 289.70 L 96.40 280.80 L 98.50 271.80 L 99.90 262.60 L 100.80 253.40 L 101.20 244.10 L 101.20 226.70 L 101.90 218.60 L 103.10 210.50 L 104.90 202.50 L 107.20 194.70 L 110.10 187.10 L 113.50 179.70 L 117.40 172.60 L 121.80 165.80 L 126.70 159.30 L 132.10 153.20 L 138.00 147.60 L 143.10 143.50 L 153.80 136.20 L 159.50 133.00 L 171.30 127.80 L 183.70 123.90 L 190.00 122.50 L 202.90 121.00 L 215.10 120.80 L 238.10 121.40 L 243.90 121.00 L 246.80 120.50 L 252.20 118.80 L 256.10 116.90 L 271.30 108.30 L 275.30 106.70 L 278.90 106.30 L 286.10 106.70 L 296.90 108.70 L 300.70 121.20 L 293.20 130.40 L 291.00 132.40 L 287.00 134.70 L 283.00 135.20 L 270.10 135.50 L 223.10 135.00 L 206.00 136.10 L 198.60 137.20 L 191.20 138.80 L 183.90 141.00 L 176.90 143.60 L 170.00 146.80 L 163.40 150.50 L 157.10 154.70 L 151.20 159.30 L 145.60 164.40 L 141.70 168.50 L 134.80 177.40 L 131.70 182.30 L 128.30 188.50 L 125.30 194.80 L 122.80 201.40 L 120.80 208.20 L 119.30 215.00 L 117.30 229.00 L 116.90 243.10 L 117.20 720.50 L 116.80 790.60 L 117.60 825.60 L 115.20 812.70 L 113.80 796.50 L 113.00 757.30 L 112.40 747.50 L 103.40 753.10 L 99.50 756.70 L 98.30 760.50 L 97.50 764.50 L 96.90 772.70 L 96.80 780.80 L 97.20 802.60 L 97.80 813.50 L 98.80 824.30 L 101.30 838.60 L 103.10 845.70 L 105.40 852.50 L 108.00 859.10 L 111.00 865.60 L 114.50 872.00 L 118.30 878.10 L 122.50 883.90 L 127.00 889.40 L 131.90 894.60 L 137.20 899.50 L 142.70 904.00 L 148.60 908.00 L 154.90 911.70 L 162.00 915.20 L 169.30 918.20 L 176.70 920.80 L 184.30 922.80 L 199.80 925.70 L 215.50 927.00 L 226.10 927.00 L 236.60 926.60 L 247.00 925.60 L 251.10 924.60 L 255.20 922.00 L 257.30 919.90 L 264.50 910.00 L 228.60 908.60 L 210.70 906.90 L 240.50 906.50 L 300.00 906.50 L 287.70 911.20 L 290.70 918.60 L 292.80 921.90 L 294.30 923.00 L 296.20 923.80 L 300.80 924.80 L 310.10 925.70 L 324.10 925.90 L 368.00 925.50 L 412.00 926.00 L 424.50 925.80 L 428.60 925.40 L 432.70 924.60 L 436.70 923.40 L 439.80 921.20 L 442.40 918.50 L 444.80 915.60 L 451.30 906.30 L 483.40 906.10 L 475.30 911.60 L 482.50 920.20 L 485.20 922.50 L 487.20 923.80 L 489.50 924.70 L 498.30 925.90 L 504.60 926.30 L 550.00 926.20 L 610.40 925.50 L 671.90 926.00 L 686.00 925.40 L 695.30 923.70 L 699.40 921.80 L 702.00 919.80 L 704.40 917.30 L 712.30 906.10 L 729.00 906.10 L 734.80 916.40 L 736.60 918.80 L 738.70 920.80 L 742.00 922.70 L 749.80 924.60 L 755.70 925.30 L 767.70 925.70 L 807.90 925.60 L 817.40 925.10 L 829.80 923.50 L 836.00 922.20 L 843.60 920.10 L 851.10 917.50 L 858.40 914.50 L 865.60 911.00 L 872.40 907.00 L 879.00 902.60 L 885.30 897.80 L 891.10 892.50 L 896.60 886.80 L 900.30 882.20 L 906.90 872.40 L 913.20 860.60 L 916.10 854.00 L 918.60 847.30 L 920.70 840.50 L 922.80 831.30 L 924.30 821.90 L 925.30 812.30 L 925.90 793.10 L 924.90 769.00 L 923.90 754.80 L 908.90 754.70 L 908.20 796.50 L 907.50 806.90 L 906.20 817.30 L 906.60 802.70 L 906.50 662.00 L 905.10 597.50 L 905.70 549.50 L 905.70 533.50 L 905.30 517.50 L 906.20 476.30 L 906.60 435.20 L 906.50 252.20 L 905.90 233.90 L 905.00 224.70 L 903.60 215.70 L 902.30 209.80 L 898.70 198.10 L 895.90 191.50 L 892.60 185.20 L 888.90 179.00 L 884.70 173.10 L 880.10 167.60 L 875.20 162.30 L 869.90 157.50 L 864.30 153.10 L 858.30 149.10 L 852.00 145.60 L 845.50 142.70 L 838.70 140.30 L 832.10 138.50 L 825.40 137.10 L 818.70 136.20 L 808.50 135.30 L 798.30 135.00 L 757.40 135.30 L 749.50 134.80 L 747.00 134.30 L 744.60 133.40 L 742.40 131.90 L 737.90 127.50 L 729.70 117.80 L 718.60 102.50 Z" fill="#558871" fill-rule="nonzero" node-id="125" stroke="none" target-height="839.7" target-width="858.3" target-x="81.2" target-y="102"></path><path d="M 753.70 102.00 L 815.30 101.90 L 822.70 102.20 L 829.90 102.90 L 837.20 104.00 L 844.40 105.60 L 851.50 107.50 L 858.40 109.90 L 865.20 112.60 L 871.90 115.70 L 878.40 119.10 L 884.70 123.00 L 890.70 127.10 L 901.70 136.30 L 906.60 141.10 L 911.20 146.30 L 919.50 157.30 L 926.50 169.20 L 932.10 181.90 L 936.40 195.00 L 939.20 208.60 L 940.10 215.50 L 940.70 229.30 L 940.60 812.50 L 940.20 823.10 L 939.50 833.80 L 938.80 790.80 L 938.80 744.50 L 938.40 741.30 L 937.60 738.40 L 935.90 734.10 L 933.70 730.00 L 926.20 718.00 L 924.00 713.90 L 922.90 708.70 L 922.20 703.50 L 922.00 698.10 L 921.70 521.60 L 921.80 361.10 L 920.70 316.50 L 920.90 305.40 L 923.20 272.60 L 923.30 245.50 L 922.50 221.70 L 921.60 214.20 L 920.10 206.70 L 918.20 199.30 L 915.80 192.00 L 912.90 185.00 L 909.60 178.10 L 905.80 171.50 L 901.60 165.10 L 897.00 159.00 L 892.00 153.30 L 886.60 147.90 L 880.90 142.90 L 874.80 138.40 L 868.40 134.40 L 861.60 130.80 L 855.10 128.00 L 848.50 125.50 L 841.80 123.40 L 835.00 121.80 L 828.10 120.50 L 821.10 119.80 L 814.10 119.50 L 783.20 120.90 L 777.20 120.60 L 771.30 119.60 L 768.50 118.70 L 766.10 117.40 L 763.90 115.70 L 761.00 112.60 L 753.70 102.00 Z" fill="#6ea489" fill-rule="nonzero" node-id="127" stroke="none" target-height="731.89996" target-width="187" target-x="753.7" target-y="101.9"></path><path d="M 72.10 229.40 L 72.10 221.80 L 72.60 214.30 L 73.50 206.90 L 74.90 199.50 L 76.70 192.20 L 78.90 185.00 L 81.40 177.90 L 84.40 171.00 L 87.70 164.20 L 95.40 151.30 L 99.80 145.10 L 104.50 139.20 L 109.50 133.60 L 114.80 128.20 L 120.30 123.20 L 127.30 130.60 L 116.60 141.20 L 107.00 152.90 L 102.60 159.10 L 98.70 165.60 L 95.10 172.20 L 92.00 179.10 L 89.30 186.10 L 87.00 193.30 L 85.30 200.60 L 83.00 215.50 L 81.50 230.20 L 81.20 813.80 L 81.40 822.70 L 82.30 831.50 L 83.70 840.30 L 85.80 848.90 L 88.40 857.40 L 91.70 865.60 L 95.40 873.70 L 99.80 881.40 L 104.60 888.80 L 108.70 894.10 L 117.50 904.00 L 122.40 908.50 L 129.80 914.60 L 137.60 920.10 L 145.90 925.20 L 152.20 928.60 L 165.40 934.30 L 172.30 936.60 L 179.20 938.50 L 186.20 940.00 L 193.30 941.00 L 200.60 941.60 L 816.00 941.70 L 824.70 941.00 L 833.40 939.70 L 842.00 937.70 L 850.40 935.20 L 858.70 932.20 L 866.70 928.70 L 874.50 924.70 L 882.10 920.10 L 889.30 915.10 L 896.20 909.70 L 902.80 903.80 L 909.00 897.60 L 914.70 890.90 L 920.00 883.90 L 924.90 876.50 L 933.20 882.90 L 929.00 889.30 L 924.50 895.50 L 919.70 901.40 L 914.60 907.10 L 909.10 912.50 L 903.40 917.50 L 897.40 922.30 L 884.70 930.80 L 871.20 938.00 L 864.10 941.10 L 849.70 946.20 L 834.80 949.70 L 827.20 950.90 L 819.60 951.60 L 812.00 952.00 L 203.20 951.80 L 195.90 951.40 L 188.70 950.70 L 181.60 949.50 L 174.60 948.00 L 167.70 946.00 L 159.20 943.00 L 150.90 939.50 L 142.90 935.50 L 135.10 930.90 L 127.70 925.80 L 120.50 920.30 L 113.80 914.40 L 107.40 908.00 L 101.30 901.30 L 95.80 894.20 L 90.70 886.80 L 86.10 879.00 L 82.10 870.00 L 78.50 860.70 L 74.80 848.10 L 73.50 841.70 L 72.60 835.20 L 72.10 828.60 L 72.10 822.00 L 72.10 229.40 Z" fill="#09090a" fill-rule="nonzero" node-id="129" stroke="none" target-height="828.8" target-width="861.10004" target-x="72.1" target-y="123.2"></path><path d="M 140.60 186.00 L 144.90 180.60 L 149.50 175.50 L 154.40 170.80 L 159.60 166.30 L 165.10 162.20 L 170.90 158.60 L 176.80 155.30 L 183.00 152.50 L 189.40 150.10 L 196.00 148.20 L 202.70 146.90 L 209.60 146.10 L 227.40 145.50 L 245.40 145.40 L 281.20 145.70 L 276.70 152.70 L 256.70 178.90 L 252.00 185.70 L 251.40 191.60 L 251.60 203.50 L 253.30 221.30 L 258.70 291.30 L 265.60 370.30 L 268.00 388.30 L 270.60 401.70 L 273.70 414.90 L 275.50 421.10 L 277.80 427.00 L 280.70 432.70 L 283.10 436.80 L 288.90 444.30 L 293.80 449.60 L 294.80 451.60 L 295.60 456.00 L 295.70 463.10 L 296.50 473.70 L 298.40 490.70 L 300.10 499.10 L 301.60 504.50 L 303.50 509.80 L 305.80 514.90 L 308.50 519.80 L 311.80 524.40 L 318.80 532.00 L 322.30 535.00 L 331.70 541.30 L 349.80 551.10 L 337.50 553.40 L 322.00 554.70 L 312.60 554.80 L 275.10 554.00 L 273.50 529.50 L 208.10 529.40 L 186.30 529.00 L 185.90 470.40 L 171.40 469.80 L 157.00 469.60 L 128.00 470.50 L 127.20 456.90 L 127.30 257.20 L 145.60 256.70 L 163.90 256.60 L 218.80 257.30 L 237.10 257.00 L 237.20 246.20 L 236.80 235.30 L 236.10 224.50 L 224.90 223.40 L 219.40 222.50 L 214.00 221.00 L 211.60 219.20 L 209.60 217.10 L 202.90 207.40 L 185.60 204.90 L 179.90 203.40 L 176.90 201.50 L 166.00 192.50 L 163.00 190.60 L 158.20 189.00 L 153.20 188.00 L 140.60 186.00 Z M 252.20 487.90 L 253.20 491.10 L 254.70 493.80 L 256.60 496.10 L 258.90 498.10 L 261.40 499.50 L 264.20 500.50 L 267.20 501.00 L 270.30 500.90 L 273.60 500.20 L 275.70 497.50 L 276.50 495.70 L 277.10 492.90 L 277.20 489.90 L 276.90 488.00 L 275.60 484.50 L 274.50 483.10 L 273.10 482.00 L 271.50 481.20 L 268.10 481.40 L 264.70 482.20 L 261.50 483.50 L 252.20 487.90 Z" fill="#9abcd4" fill-rule="nonzero" node-id="131" stroke="none" target-height="409.4" target-width="222.59999" target-x="127.2" target-y="145.4"></path><path d="M 752.30 146.00 L 763.30 146.00 L 796.90 145.20 L 811.70 145.80 L 819.10 146.60 L 826.30 147.80 L 833.50 149.60 L 840.70 152.00 L 845.90 154.10 L 850.90 156.70 L 855.60 159.50 L 864.50 166.20 L 872.30 174.10 L 875.90 178.40 L 880.20 184.50 L 884.00 190.80 L 887.30 197.50 L 890.00 204.50 L 892.20 211.60 L 893.80 218.80 L 874.50 221.50 L 868.10 222.70 L 865.10 223.60 L 862.40 225.00 L 859.90 226.80 L 852.70 232.80 L 850.10 234.50 L 847.30 235.90 L 843.80 237.00 L 833.20 239.40 L 827.40 252.70 L 804.80 255.70 L 804.90 283.20 L 873.20 283.30 L 896.00 283.60 L 896.20 410.70 L 879.90 411.00 L 863.60 411.70 L 863.10 460.80 L 848.30 461.00 L 804.10 460.70 L 803.60 475.50 L 803.60 519.70 L 727.00 519.20 L 728.30 512.10 L 732.80 494.00 L 733.70 489.40 L 734.60 479.40 L 734.80 463.00 L 735.50 452.20 L 746.00 438.10 L 749.10 433.30 L 752.70 426.40 L 757.00 414.20 L 759.60 405.60 L 763.60 388.20 L 765.60 376.50 L 768.60 352.90 L 772.90 299.30 L 774.70 281.50 L 778.60 227.00 L 781.60 198.40 L 781.50 188.80 L 780.90 184.10 L 776.60 177.40 L 771.90 171.00 L 756.90 152.40 L 752.30 146.00 Z" fill="#99bbd3" fill-rule="nonzero" node-id="133" stroke="none" target-height="374.5" target-width="169.20001" target-x="727" target-y="145.2"></path><path d="M 131.60 206.10 L 135.90 195.90 L 140.80 186.00 L 153.20 188.00 L 158.20 189.00 L 163.00 190.60 L 166.00 192.50 L 176.90 201.50 L 179.90 203.40 L 185.60 204.90 L 202.90 207.40 L 209.60 217.10 L 211.60 219.20 L 214.00 221.00 L 219.40 222.50 L 224.90 223.40 L 236.10 224.50 L 236.80 235.30 L 237.20 246.20 L 237.10 257.00 L 218.80 257.30 L 163.90 256.60 L 145.60 256.60 L 127.30 257.20 L 127.40 231.40 L 127.70 224.90 L 129.20 214.40 L 131.60 206.10 Z" fill="#f1e9df" fill-rule="nonzero" node-id="135" stroke="none" target-height="71.29999" target-width="109.899994" target-x="127.3" target-y="186"></path><path d="M 442.20 243.20 L 450.60 237.40 L 475.10 218.80 L 483.40 212.90 L 492.00 207.40 L 498.00 204.20 L 504.20 201.30 L 510.70 198.90 L 507.30 208.00 L 503.50 216.90 L 499.30 225.60 L 494.80 234.20 L 488.80 230.70 L 472.10 250.40 L 462.10 260.70 L 453.20 267.90 L 444.80 273.40 L 436.10 278.30 L 427.20 282.60 L 418.10 286.50 L 408.80 289.90 L 399.30 292.90 L 380.00 297.70 L 370.20 299.70 L 355.40 302.00 L 331.50 304.90 L 326.70 305.70 L 322.20 307.00 L 319.30 308.10 L 316.80 309.60 L 314.60 311.40 L 313.20 313.00 L 311.10 317.20 L 310.50 319.80 L 307.00 338.60 L 304.00 357.50 L 299.10 395.50 L 294.80 433.60 L 292.00 429.60 L 289.60 425.60 L 287.60 421.30 L 285.20 414.60 L 283.30 407.70 L 280.10 393.90 L 277.70 381.40 L 277.40 377.30 L 277.70 371.80 L 281.10 357.90 L 281.90 352.40 L 282.50 344.00 L 282.60 335.50 L 281.80 309.90 L 282.00 301.40 L 283.70 278.00 L 333.80 275.20 L 346.20 273.90 L 358.60 272.10 L 373.20 269.30 L 387.70 266.00 L 397.30 263.40 L 406.70 260.40 L 415.90 256.90 L 429.40 250.80 L 442.20 243.20 Z" fill="#814c35" fill-rule="nonzero" node-id="137" stroke="none" target-height="234.70001" target-width="233.30002" target-x="277.4" target-y="198.9"></path><path d="M 81.30 237.60 L 82.10 222.80 L 84.10 208.20 L 85.80 216.80 L 87.80 231.30 L 88.10 237.20 L 87.40 261.00 L 87.50 267.00 L 88.00 273.00 L 89.10 278.80 L 90.20 282.50 L 91.80 286.20 L 96.50 294.10 L 98.60 298.60 L 100.10 303.20 L 101.90 312.70 L 102.40 325.10 L 102.00 347.40 L 101.40 582.00 L 101.40 669.30 L 101.90 696.80 L 101.70 705.90 L 100.80 717.70 L 100.10 720.00 L 99.00 722.10 L 96.80 724.90 L 94.10 727.30 L 81.40 735.30 L 81.30 237.60 Z" fill="#6da68a" fill-rule="nonzero" node-id="139" stroke="none" target-height="527.1" target-width="21.099998" target-x="81.3" target-y="208.2"></path><path d="M 868.10 222.70 L 874.50 221.50 L 893.80 218.80 L 894.90 226.00 L 896.10 240.30 L 896.00 283.60 L 873.20 283.30 L 804.90 283.20 L 804.80 255.70 L 827.40 252.70 L 833.20 239.40 L 847.30 235.90 L 850.10 234.50 L 852.70 232.80 L 862.40 225.00 L 865.10 223.60 L 868.10 222.70 Z" fill="#f1eae0" fill-rule="nonzero" node-id="141" stroke="none" target-height="64.8" target-width="91.29999" target-x="804.8" target-y="218.8"></path><path d="M 567.10 238.90 L 571.10 237.20 L 670.40 236.70 L 673.30 237.00 L 678.70 238.60 L 682.00 240.30 L 685.10 242.50 L 687.90 245.20 L 690.50 248.20 L 694.80 254.80 L 696.60 258.40 L 699.10 265.50 L 702.40 280.80 L 716.80 357.40 L 717.90 364.10 L 718.30 370.90 L 715.40 385.90 L 713.30 401.00 L 713.10 411.10 L 714.20 424.50 L 714.60 441.20 L 714.20 449.50 L 713.40 457.80 L 712.10 466.00 L 710.40 474.10 L 708.00 482.10 L 705.10 489.90 L 702.40 494.80 L 699.20 499.40 L 695.60 503.60 L 691.50 507.50 L 687.20 510.90 L 682.50 514.00 L 677.60 516.70 L 672.50 519.00 L 667.10 520.80 L 661.70 522.30 L 656.20 523.20 L 650.70 523.70 L 624.90 524.70 L 599.20 525.00 L 573.50 524.90 L 470.60 523.00 L 394.50 522.80 L 384.50 522.30 L 378.40 521.50 L 372.50 520.10 L 366.50 518.10 L 360.80 515.50 L 355.50 512.40 L 350.40 508.80 L 346.80 505.80 L 340.70 498.90 L 338.00 495.20 L 335.70 491.20 L 333.90 487.00 L 332.40 482.60 L 331.40 478.00 L 330.20 469.40 L 328.90 452.30 L 328.70 439.40 L 330.30 387.70 L 330.30 364.10 L 330.90 353.50 L 332.10 343.00 L 333.90 332.50 L 342.80 330.70 L 378.70 325.50 L 387.50 323.80 L 399.10 320.60 L 415.00 314.70 L 421.90 312.80 L 425.50 312.40 L 428.90 313.90 L 442.10 321.10 L 445.50 322.40 L 450.30 323.20 L 460.70 322.70 L 468.50 321.80 L 476.20 320.40 L 483.90 318.50 L 491.30 316.10 L 498.50 313.10 L 501.10 311.70 L 503.30 310.10 L 505.20 308.20 L 507.60 304.80 L 513.50 293.80 L 516.00 291.20 L 530.60 280.70 L 540.90 271.40 L 548.10 263.80 L 554.80 255.80 L 567.10 238.90 Z M 366.10 345.50 L 361.80 346.60 L 357.70 348.80 L 354.60 352.00 L 353.60 354.00 L 353.00 356.10 L 352.70 392.70 L 353.00 428.80 L 354.10 432.00 L 355.60 434.00 L 357.70 435.60 L 360.00 436.80 L 362.60 437.70 L 367.90 438.40 L 394.50 438.90 L 421.10 438.90 L 447.70 438.30 L 456.90 437.10 L 459.00 436.40 L 460.70 435.30 L 462.20 433.10 L 462.50 431.40 L 463.10 405.30 L 463.20 379.40 L 462.80 351.70 L 462.00 349.20 L 460.60 347.80 L 456.80 345.80 L 450.40 344.40 L 434.00 343.50 L 425.70 343.50 L 395.10 344.60 L 377.70 344.10 L 369.90 344.70 L 366.10 345.50 Z M 572.10 353.50 L 571.90 394.90 L 572.80 436.30 L 582.80 438.30 L 587.80 438.90 L 648.70 439.10 L 669.50 438.70 L 674.20 437.40 L 678.30 434.90 L 679.90 433.20 L 681.20 431.30 L 681.90 429.10 L 682.20 426.70 L 682.40 358.90 L 682.00 356.80 L 681.20 354.80 L 678.60 351.50 L 676.90 350.10 L 674.10 348.40 L 671.00 347.10 L 667.70 346.40 L 664.50 346.20 L 611.30 345.70 L 584.60 346.00 L 578.40 346.80 L 574.50 348.30 L 573.10 349.60 L 572.50 350.60 L 572.10 353.50 Z M 461.00 465.10 L 465.10 482.10 L 466.50 486.20 L 468.20 490.10 L 471.40 494.90 L 477.90 500.90 L 482.60 504.20 L 487.60 507.10 L 492.90 509.50 L 498.30 511.40 L 504.00 512.80 L 509.80 513.80 L 515.60 514.20 L 521.50 514.10 L 527.30 513.60 L 533.00 512.50 L 538.60 511.00 L 544.10 508.90 L 549.20 506.40 L 554.20 503.30 L 557.40 500.90 L 560.20 498.20 L 562.60 495.20 L 566.60 488.60 L 570.30 479.60 L 575.00 462.60 L 571.80 454.50 L 560.80 460.60 L 556.80 461.60 L 554.70 461.70 L 501.00 461.60 L 480.90 462.00 L 476.80 461.30 L 474.00 460.10 L 465.80 455.30 L 461.30 461.50 L 460.80 463.80 L 461.00 465.10 Z" fill="#f3c4a4" fill-rule="nonzero" node-id="143" stroke="none" target-height="288.3" target-width="389.59998" target-x="328.7" target-y="236.7"></path><path d="M 329.20 317.20 L 347.60 314.80 L 366.00 311.90 L 390.40 307.00 L 402.40 304.00 L 414.30 300.60 L 426.10 296.60 L 437.70 292.00 L 434.60 302.50 L 432.10 313.20 L 442.60 312.10 L 453.00 310.70 L 463.30 308.80 L 473.50 306.50 L 487.00 302.80 L 500.30 298.60 L 513.50 293.80 L 507.60 304.80 L 505.20 308.20 L 503.30 310.10 L 501.10 311.70 L 491.30 316.10 L 483.90 318.50 L 476.20 320.40 L 468.50 321.80 L 460.70 322.70 L 450.30 323.20 L 447.80 322.90 L 442.10 321.10 L 428.90 313.90 L 425.50 312.40 L 421.90 312.80 L 418.40 313.60 L 399.10 320.60 L 387.50 323.80 L 378.70 325.50 L 342.80 330.70 L 333.90 332.50 L 332.10 343.00 L 330.90 353.50 L 330.30 364.10 L 330.30 387.70 L 328.70 439.40 L 329.40 460.80 L 331.40 478.00 L 332.40 482.60 L 333.90 487.00 L 335.70 491.20 L 338.00 495.20 L 343.60 502.50 L 350.40 508.80 L 355.50 512.40 L 360.80 515.50 L 366.50 518.10 L 372.50 520.10 L 378.40 521.50 L 384.50 522.30 L 404.60 523.00 L 470.60 523.00 L 573.50 524.90 L 599.20 525.00 L 624.90 524.70 L 650.70 523.70 L 656.20 523.20 L 661.70 522.30 L 667.10 520.80 L 672.50 519.00 L 677.60 516.70 L 682.50 514.00 L 687.20 510.90 L 691.50 507.50 L 695.60 503.60 L 699.20 499.40 L 702.40 494.80 L 705.10 489.90 L 708.00 482.10 L 710.40 474.10 L 712.10 466.00 L 713.40 457.80 L 714.20 449.50 L 714.60 432.80 L 713.10 411.10 L 713.10 406.00 L 714.20 393.40 L 718.30 370.90 L 720.20 378.80 L 721.60 386.70 L 722.60 394.80 L 723.40 406.90 L 723.90 443.40 L 723.80 469.90 L 723.30 478.80 L 721.90 490.40 L 720.70 496.10 L 719.10 501.70 L 717.00 507.20 L 714.40 512.60 L 711.90 517.00 L 708.90 521.10 L 705.50 524.80 L 701.80 528.30 L 697.80 531.40 L 693.60 534.10 L 689.10 536.40 L 684.40 538.30 L 679.60 539.80 L 674.60 540.90 L 669.60 541.50 L 373.40 541.10 L 367.00 540.90 L 360.70 540.10 L 354.50 538.70 L 348.40 536.80 L 342.50 534.40 L 336.90 531.30 L 332.90 528.70 L 325.60 522.70 L 319.70 515.90 L 315.50 508.90 L 313.10 503.30 L 311.20 497.50 L 309.90 491.50 L 308.90 485.40 L 307.50 472.90 L 306.70 460.30 L 306.50 447.80 L 306.90 435.20 L 308.70 410.20 L 310.90 391.40 L 318.20 335.20 L 319.90 326.50 L 321.50 321.90 L 323.70 319.10 L 325.10 318.10 L 326.90 317.50 L 329.20 317.20 Z" fill="#e0a985" fill-rule="nonzero" node-id="145" stroke="none" target-height="249.5" target-width="417.40002" target-x="306.5" target-y="292"></path><path d="M 366.10 345.50 L 369.90 344.70 L 377.70 344.10 L 395.10 344.60 L 425.70 343.50 L 434.00 343.50 L 450.40 344.40 L 456.80 345.80 L 460.60 347.80 L 462.00 349.20 L 462.80 351.70 L 463.20 379.40 L 463.10 405.30 L 462.50 431.40 L 462.20 433.10 L 460.70 435.30 L 459.00 436.40 L 456.90 437.10 L 447.70 438.30 L 421.10 438.90 L 394.50 438.90 L 367.90 438.40 L 362.60 437.70 L 360.00 436.80 L 357.70 435.60 L 355.60 434.00 L 354.10 432.00 L 353.00 428.80 L 352.70 392.70 L 353.00 356.10 L 353.60 354.00 L 354.60 352.00 L 357.70 348.80 L 361.80 346.60 L 366.10 345.50 Z M 364.50 421.50 L 366.00 423.00 L 367.70 424.10 L 369.50 424.80 L 372.30 425.30 L 385.10 425.20 L 388.10 425.60 L 388.00 406.70 L 388.40 387.80 L 413.30 387.20 L 413.70 356.80 L 390.20 357.10 L 366.70 357.00 L 365.50 364.10 L 364.70 371.20 L 364.30 378.30 L 364.50 421.50 Z" fill="#010102" fill-rule="nonzero" node-id="147" stroke="none" target-height="95.399994" target-width="110.5" target-x="352.7" target-y="343.5"></path><path d="M 572.10 353.50 L 572.50 350.60 L 573.10 349.60 L 574.50 348.30 L 578.40 346.80 L 584.60 346.00 L 611.30 345.70 L 664.50 346.20 L 667.70 346.40 L 671.00 347.10 L 674.10 348.40 L 676.90 350.10 L 678.60 351.50 L 681.20 354.80 L 682.00 356.80 L 682.40 358.90 L 682.20 426.70 L 681.90 429.10 L 681.20 431.30 L 679.90 433.20 L 678.30 434.90 L 674.20 437.40 L 669.50 438.70 L 648.70 439.10 L 587.80 438.90 L 582.80 438.30 L 572.80 436.30 L 571.90 394.90 L 572.10 353.50 Z M 621.60 357.10 L 622.40 387.30 L 634.40 387.80 L 646.40 389.50 L 646.30 425.90 L 658.80 425.20 L 671.30 425.20 L 671.20 375.90 L 671.60 359.50 L 666.10 358.60 L 655.00 357.60 L 621.60 357.10 Z" fill="#010203" fill-rule="nonzero" node-id="149" stroke="none" target-height="93.399994" target-width="110.5" target-x="571.9" target-y="345.7"></path><path d="M 364.50 421.50 L 364.30 378.30 L 364.70 371.20 L 365.50 364.10 L 366.70 357.00 L 390.20 357.10 L 413.70 356.80 L 413.30 387.20 L 388.40 387.80 L 388.00 406.70 L 388.10 425.60 L 385.10 425.20 L 372.30 425.30 L 369.50 424.80 L 367.70 424.10 L 366.00 423.00 L 364.50 421.50 Z" fill="#f9fbfa" fill-rule="nonzero" node-id="151" stroke="none" target-height="68.80002" target-width="49.400024" target-x="364.3" target-y="356.8"></path><path d="M 621.60 357.10 L 655.00 357.60 L 666.10 358.60 L 671.60 359.50 L 671.20 375.90 L 671.30 425.20 L 658.80 425.20 L 646.30 425.90 L 646.40 389.50 L 634.40 387.80 L 622.40 387.30 L 621.60 357.10 Z" fill="#fdfbfb" fill-rule="nonzero" node-id="153" stroke="none" target-height="68.79999" target-width="50" target-x="621.6" target-y="357.1"></path><path d="M 863.60 411.70 L 879.90 411.00 L 896.20 410.70 L 895.80 423.60 L 876.20 424.90 L 875.80 450.00 L 874.70 475.10 L 818.20 476.30 L 817.00 532.90 L 803.20 533.50 L 747.90 533.20 L 734.10 534.00 L 731.00 554.80 L 722.10 555.40 L 704.30 555.40 L 691.00 554.50 L 677.70 553.10 L 693.40 546.10 L 701.70 543.60 L 717.40 543.30 L 718.10 529.80 L 719.10 526.50 L 722.20 520.40 L 728.30 512.10 L 727.00 519.20 L 803.60 519.70 L 803.60 475.50 L 804.10 460.70 L 848.30 461.00 L 863.10 460.80 L 863.60 411.70 Z" fill="#4c5649" fill-rule="nonzero" node-id="155" stroke="none" target-height="144.70001" target-width="218.5" target-x="677.7" target-y="410.7"></path><path d="M 876.20 424.90 L 895.80 423.60 L 896.10 476.10 L 895.80 633.50 L 879.70 634.40 L 847.30 634.80 L 783.60 634.60 L 737.90 633.60 L 707.40 633.30 L 692.20 633.80 L 675.00 635.00 L 665.60 620.80 L 655.80 606.90 L 614.30 552.60 L 646.00 553.30 L 677.70 553.10 L 691.00 554.50 L 704.30 555.40 L 713.20 555.60 L 731.00 554.80 L 734.10 534.00 L 747.90 533.20 L 803.20 533.50 L 817.00 532.90 L 818.20 476.20 L 874.70 475.10 L 875.80 450.00 L 876.20 424.90 Z" fill="#58725a" fill-rule="nonzero" node-id="157" stroke="none" target-height="211.4" target-width="281.8" target-x="614.3" target-y="423.6"></path><path d="M 461.00 465.10 L 460.80 463.80 L 461.30 461.50 L 465.80 455.30 L 474.00 460.10 L 476.80 461.30 L 480.90 462.00 L 501.00 461.60 L 554.70 461.70 L 556.80 461.60 L 560.80 460.60 L 571.80 454.50 L 575.00 462.60 L 570.30 479.60 L 566.60 488.60 L 562.60 495.20 L 560.20 498.20 L 557.40 500.90 L 554.20 503.30 L 549.20 506.40 L 544.10 508.90 L 538.60 511.00 L 533.00 512.50 L 527.30 513.60 L 521.50 514.10 L 515.60 514.20 L 509.80 513.80 L 504.00 512.80 L 498.30 511.40 L 492.90 509.50 L 487.60 507.10 L 482.60 504.20 L 477.90 500.90 L 471.40 494.90 L 468.20 490.10 L 466.50 486.20 L 465.10 482.10 L 461.00 465.10 Z M 478.70 478.40 L 479.00 485.40 L 479.40 487.60 L 480.70 490.20 L 485.30 494.00 L 492.40 498.30 L 496.20 499.80 L 501.60 501.50 L 507.00 502.60 L 512.60 503.30 L 518.30 503.50 L 529.40 502.80 L 533.60 502.00 L 537.50 500.90 L 541.40 499.30 L 545.10 497.30 L 548.40 495.00 L 551.60 492.20 L 554.30 489.20 L 556.70 485.80 L 558.60 482.00 L 552.20 479.60 L 545.80 477.70 L 539.20 476.30 L 525.90 474.60 L 519.10 474.40 L 508.90 474.60 L 498.80 475.40 L 478.70 478.40 Z" fill="#020303" fill-rule="nonzero" node-id="159" stroke="none" target-height="59.700012" target-width="114.20001" target-x="460.8" target-y="454.5"></path><path d="M 125.70 470.60 L 157.00 469.60 L 171.40 469.80 L 185.90 470.40 L 186.30 529.00 L 208.10 529.40 L 273.50 529.50 L 275.10 554.00 L 312.60 554.80 L 322.00 554.70 L 337.50 553.40 L 350.60 550.90 L 349.90 555.20 L 349.80 559.60 L 350.10 562.50 L 351.70 568.00 L 353.00 570.60 L 354.60 572.90 L 356.60 575.10 L 359.80 576.90 L 370.20 580.10 L 353.30 580.70 L 346.90 572.10 L 344.30 569.80 L 342.30 568.60 L 340.20 567.90 L 337.60 567.50 L 318.80 565.60 L 309.30 564.90 L 299.90 564.60 L 287.30 565.10 L 281.10 565.90 L 274.90 567.00 L 268.80 568.70 L 262.80 570.80 L 259.50 543.40 L 245.20 542.70 L 187.90 542.30 L 173.60 541.70 L 172.00 483.50 L 157.70 482.80 L 143.50 482.50 L 129.20 482.60 L 128.30 507.00 L 128.50 617.90 L 128.90 638.60 L 134.90 636.80 L 141.00 635.60 L 147.10 634.70 L 156.40 634.10 L 165.80 634.20 L 157.40 648.00 L 127.20 645.60 L 126.00 558.10 L 125.70 470.60 Z" fill="#4a5746" fill-rule="nonzero" node-id="161" stroke="none" target-height="178.4" target-width="244.50002" target-x="125.7" target-y="469.6"></path><path d="M 478.70 478.40 L 498.80 475.40 L 508.90 474.60 L 519.10 474.40 L 525.90 474.60 L 539.20 476.30 L 545.80 477.70 L 552.20 479.60 L 558.60 482.00 L 556.70 485.80 L 554.30 489.20 L 551.60 492.20 L 548.40 495.00 L 545.10 497.30 L 541.40 499.30 L 537.50 500.90 L 533.60 502.00 L 529.40 502.80 L 518.30 503.50 L 512.60 503.30 L 507.00 502.60 L 501.60 501.50 L 496.20 499.80 L 488.70 496.30 L 485.30 494.00 L 481.90 491.30 L 479.90 488.90 L 479.00 485.40 L 478.70 478.40 Z" fill="#9b464c" fill-rule="nonzero" node-id="163" stroke="none" target-height="29.100006" target-width="79.89996" target-x="478.7" target-y="474.4"></path><path d="M 129.20 482.60 L 143.50 482.50 L 157.70 482.80 L 172.00 483.50 L 173.60 541.70 L 187.90 542.30 L 245.20 542.70 L 259.50 543.40 L 262.80 570.80 L 268.80 568.70 L 274.90 567.00 L 281.10 565.90 L 293.50 564.70 L 309.30 564.90 L 337.60 567.50 L 340.20 567.90 L 342.30 568.60 L 344.30 569.80 L 346.90 572.10 L 353.30 580.70 L 314.40 582.30 L 294.80 582.60 L 233.30 582.80 L 223.60 582.50 L 220.50 582.80 L 217.50 583.50 L 213.90 585.30 L 201.90 597.10 L 192.00 607.70 L 172.50 629.50 L 168.40 633.40 L 167.20 634.00 L 165.80 634.20 L 156.40 634.10 L 147.10 634.70 L 141.00 635.60 L 134.90 636.80 L 128.90 638.60 L 128.50 617.90 L 128.30 507.00 L 129.20 482.60 Z" fill="#58735a" fill-rule="nonzero" node-id="165" stroke="none" target-height="156.09998" target-width="224.99998" target-x="128.3" target-y="482.5"></path><path d="M 252.20 487.90 L 261.50 483.50 L 264.70 482.20 L 268.10 481.40 L 271.50 481.20 L 273.10 482.00 L 274.50 483.10 L 276.30 486.20 L 277.20 489.90 L 277.10 492.90 L 276.50 495.70 L 275.70 497.50 L 273.60 500.20 L 270.30 500.90 L 267.20 501.00 L 264.20 500.50 L 261.40 499.50 L 258.90 498.10 L 256.60 496.10 L 254.70 493.80 L 253.20 491.10 L 252.20 487.90 Z" fill="#f0e6cf" fill-rule="nonzero" node-id="167" stroke="none" target-height="19.799988" target-width="25.000015" target-x="252.2" target-y="481.2"></path><path d="M 701.70 543.60 L 706.80 538.50 L 712.20 533.90 L 718.10 529.80 L 717.40 543.30 L 701.70 543.60 Z" fill="#708177" fill-rule="nonzero" node-id="169" stroke="none" target-height="13.799988" target-width="16.399963" target-x="701.7" target-y="529.8"></path><path d="M 350.60 550.90 L 363.40 551.60 L 401.90 552.70 L 396.70 557.40 L 375.40 575.40 L 370.20 580.10 L 359.80 576.90 L 356.60 575.10 L 354.60 572.90 L 353.00 570.60 L 351.70 568.00 L 350.10 562.50 L 349.80 559.60 L 349.90 555.20 L 350.60 550.90 Z" fill="#537352" fill-rule="nonzero" node-id="171" stroke="none" target-height="29.199951" target-width="52.100006" target-x="349.8" target-y="550.9"></path><path d="M 417.30 556.00 L 419.40 554.50 L 421.60 553.40 L 423.80 552.80 L 427.30 552.50 L 430.90 552.70 L 442.00 554.40 L 445.60 554.70 L 435.20 583.00 L 425.30 583.50 L 405.50 581.80 L 385.80 579.50 L 393.50 573.50 L 417.30 556.00 Z" fill="#b47a3e" fill-rule="nonzero" node-id="173" stroke="none" target-height="31" target-width="59.80002" target-x="385.8" target-y="552.5"></path><path d="M 463.10 554.00 L 513.20 553.60 L 563.40 554.20 L 558.80 564.50 L 553.70 574.50 L 541.60 573.30 L 529.50 572.60 L 517.30 572.50 L 505.10 572.80 L 493.00 573.60 L 480.90 575.00 L 474.70 568.20 L 463.10 554.00 Z" fill="#e0ab84" fill-rule="nonzero" node-id="175" stroke="none" target-height="21.400024" target-width="100.30002" target-x="463.1" target-y="553.6"></path><path d="M 574.90 554.40 L 585.10 553.50 L 585.60 564.20 L 585.60 585.60 L 576.60 579.00 L 565.10 572.80 L 574.90 554.40 Z" fill="#6a3d2a" fill-rule="nonzero" node-id="177" stroke="none" target-height="32.099976" target-width="20.5" target-x="565.1" target-y="553.5"></path><path d="M 445.60 554.70 L 452.30 561.00 L 458.70 567.70 L 464.70 574.70 L 444.80 590.20 L 425.30 583.50 L 435.20 583.00 L 445.60 554.70 Z" fill="#81492d" fill-rule="nonzero" node-id="179" stroke="none" target-height="35.5" target-width="39.400024" target-x="425.3" target-y="554.7"></path><path d="M 597.80 557.80 L 607.20 562.80 L 608.70 564.00 L 609.80 565.60 L 610.30 567.50 L 609.20 573.30 L 608.60 579.10 L 608.30 584.90 L 608.90 596.50 L 611.20 610.90 L 617.00 636.60 L 625.70 668.20 L 632.50 689.00 L 636.40 699.20 L 640.70 709.30 L 645.50 719.10 L 650.70 728.80 L 656.00 736.40 L 659.10 739.90 L 662.60 742.90 L 665.10 744.50 L 667.90 745.80 L 675.10 747.60 L 679.20 748.00 L 683.30 748.00 L 689.50 747.30 L 695.60 745.90 L 707.60 742.30 L 710.10 725.50 L 711.50 730.80 L 712.40 736.50 L 712.80 742.20 L 712.60 747.90 L 712.10 751.60 L 709.90 758.70 L 708.30 762.00 L 706.20 765.00 L 703.60 767.90 L 700.70 770.50 L 697.60 772.60 L 694.30 774.30 L 687.30 776.60 L 683.60 777.20 L 677.90 777.60 L 672.20 777.40 L 666.60 776.70 L 661.20 775.60 L 656.90 774.10 L 652.90 772.20 L 649.20 769.80 L 645.80 767.00 L 642.70 763.80 L 637.40 756.70 L 633.30 748.80 L 626.90 733.90 L 621.10 718.80 L 615.80 703.50 L 611.20 687.90 L 607.00 672.20 L 603.40 656.40 L 600.20 640.50 L 597.60 624.50 L 596.30 602.30 L 596.00 591.10 L 596.10 580.00 L 596.70 568.90 L 597.80 557.80 Z" fill="#e3ab87" fill-rule="nonzero" node-id="181" stroke="none" target-height="219.79999" target-width="116.79999" target-x="596" target-y="557.8"></path><path d="M 617.00 636.60 L 611.20 610.90 L 608.90 596.50 L 608.30 584.90 L 608.60 579.10 L 609.20 573.30 L 610.30 567.50 L 625.00 584.40 L 642.00 606.60 L 670.70 648.10 L 678.50 660.30 L 691.10 681.10 L 700.00 698.30 L 703.90 707.20 L 707.30 716.20 L 710.10 725.50 L 707.60 742.30 L 695.60 745.90 L 689.50 747.30 L 683.30 748.00 L 679.20 748.00 L 675.10 747.60 L 667.90 745.80 L 665.10 744.50 L 662.60 742.90 L 659.10 739.90 L 656.00 736.40 L 650.70 728.80 L 645.50 719.10 L 640.70 709.30 L 636.40 699.20 L 629.00 678.70 L 625.70 668.20 L 617.00 636.60 Z" fill="#f3c4a5" fill-rule="nonzero" node-id="183" stroke="none" target-height="180.5" target-width="101.79999" target-x="608.3" target-y="567.5"></path><path d="M 480.90 575.00 L 493.00 573.60 L 505.10 572.80 L 517.30 572.50 L 529.50 572.60 L 541.60 573.30 L 553.70 574.50 L 548.10 581.30 L 542.20 587.90 L 517.10 612.60 L 511.20 606.10 L 486.80 581.30 L 480.90 575.00 Z" fill="#f1bc98" fill-rule="nonzero" node-id="185" stroke="none" target-height="40.099976" target-width="72.80002" target-x="480.9" target-y="572.5"></path><path d="M 454.10 583.00 L 464.70 574.70 L 474.30 583.50 L 466.00 601.30 L 462.40 597.10 L 459.20 592.70 L 456.40 588.00 L 454.10 583.00 Z" fill="#dfa75f" fill-rule="nonzero" node-id="187" stroke="none" target-height="26.599976" target-width="20.199982" target-x="454.1" target-y="574.7"></path><path d="M 562.70 578.30 L 565.10 572.80 L 576.60 579.00 L 575.80 593.40 L 564.80 597.80 L 563.50 588.10 L 562.70 578.30 Z" fill="#dc9d4c" fill-rule="nonzero" node-id="189" stroke="none" target-height="25" target-width="13.899963" target-x="562.7" target-y="572.8"></path><path d="M 521.60 621.70 L 532.40 611.40 L 542.80 600.60 L 562.70 578.30 L 563.50 588.10 L 564.80 597.80 L 575.80 593.40 L 576.60 579.00 L 585.60 585.60 L 585.60 597.50 L 586.10 609.40 L 587.00 621.20 L 588.40 633.00 L 590.90 648.60 L 593.90 664.20 L 597.60 679.60 L 601.90 694.90 L 606.60 710.00 L 611.80 725.00 L 575.30 725.00 L 566.30 724.60 L 557.20 723.70 L 551.30 722.70 L 545.40 721.40 L 535.80 718.40 L 528.50 717.10 L 522.90 717.00 L 517.30 717.50 L 492.80 721.80 L 488.70 721.30 L 482.90 718.70 L 459.80 704.90 L 442.00 694.70 L 429.90 688.20 L 405.30 676.20 L 407.90 669.20 L 410.90 662.40 L 414.30 655.80 L 419.90 646.20 L 426.00 636.90 L 432.60 627.90 L 442.50 615.20 L 448.50 609.40 L 454.00 606.00 L 457.00 604.90 L 460.30 604.30 L 463.80 604.30 L 461.30 612.40 L 459.70 620.80 L 465.60 626.30 L 472.10 631.20 L 476.10 625.10 L 479.60 618.70 L 478.40 614.90 L 476.70 611.30 L 473.00 604.40 L 483.90 593.70 L 493.30 602.60 L 511.90 622.80 L 514.20 624.00 L 516.20 624.20 L 518.20 623.90 L 520.00 623.00 L 521.60 621.70 Z M 563.20 604.70 L 557.60 612.40 L 556.10 615.20 L 555.20 619.20 L 555.30 621.00 L 555.80 622.80 L 556.80 624.50 L 560.30 627.60 L 562.10 628.40 L 564.00 628.70 L 567.80 628.00 L 569.60 627.00 L 572.50 624.20 L 573.60 622.40 L 574.30 620.50 L 574.60 618.50 L 574.00 614.50 L 572.20 611.30 L 570.20 609.50 L 563.20 604.70 Z M 467.70 656.40 L 469.50 658.50 L 472.50 659.60 L 482.80 659.60 L 483.00 656.30 L 482.80 653.10 L 482.10 650.10 L 479.80 644.30 L 478.20 641.60 L 475.30 637.80 L 472.10 634.20 L 466.80 645.20 L 465.90 648.10 L 465.60 650.90 L 465.80 652.70 L 466.50 654.50 L 467.70 656.40 Z M 557.30 635.80 L 554.50 645.00 L 553.90 648.10 L 553.60 651.30 L 553.80 654.50 L 555.30 656.30 L 556.90 657.40 L 558.70 658.20 L 561.60 658.60 L 564.80 658.50 L 571.00 657.60 L 570.40 651.90 L 569.50 646.30 L 568.00 640.70 L 566.00 635.40 L 557.30 635.80 Z M 554.30 677.00 L 553.80 682.30 L 555.20 692.90 L 563.00 692.30 L 565.40 691.70 L 566.80 690.90 L 568.00 689.80 L 569.10 688.30 L 569.90 685.90 L 570.30 683.50 L 570.30 681.10 L 569.50 677.60 L 568.30 674.10 L 565.20 667.40 L 558.70 671.20 L 556.70 672.80 L 554.80 675.40 L 554.30 677.00 Z M 472.70 670.40 L 469.10 678.80 L 468.20 683.70 L 468.40 685.60 L 469.40 689.40 L 470.20 690.80 L 472.60 693.20 L 475.60 694.60 L 477.30 694.90 L 480.40 694.50 L 481.80 693.70 L 483.00 692.60 L 485.50 688.60 L 486.20 686.50 L 486.30 684.60 L 485.90 682.60 L 485.00 680.70 L 483.70 678.80 L 481.20 676.30 L 478.40 674.00 L 472.70 670.40 Z M 557.90 705.60 L 558.00 719.40 L 568.20 719.40 L 566.40 704.10 L 557.90 705.60 Z" fill="#aa6a40" fill-rule="nonzero" node-id="191" stroke="none" target-height="146.70001" target-width="206.5" target-x="405.3" target-y="578.3"></path><path d="M 444.80 590.20 L 454.10 583.00 L 456.40 588.00 L 459.20 592.70 L 462.40 597.10 L 466.00 601.30 L 474.30 583.50 L 483.90 593.70 L 473.00 604.40 L 460.30 604.30 L 457.00 604.90 L 454.00 606.00 L 451.20 607.50 L 446.00 611.60 L 439.30 619.00 L 442.70 607.90 L 443.70 603.50 L 444.80 590.20 Z" fill="#985c36" fill-rule="nonzero" node-id="193" stroke="none" target-height="36" target-width="44.600006" target-x="439.3" target-y="583"></path><path d="M 224.20 593.90 L 315.40 592.50 L 410.20 592.30 L 417.20 593.30 L 420.60 594.20 L 427.20 597.00 L 413.90 598.50 L 387.20 599.20 L 369.90 600.30 L 352.50 600.90 L 300.40 601.60 L 283.00 602.10 L 257.00 603.40 L 243.90 603.50 L 230.90 603.20 L 227.40 598.70 L 224.20 593.90 Z" fill="#dda758" fill-rule="nonzero" node-id="195" stroke="none" target-height="11.200012" target-width="203.00002" target-x="224.2" target-y="592.3"></path><path d="M 151.30 668.50 L 194.50 620.60 L 217.00 597.50 L 220.30 608.20 L 211.90 617.70 L 177.20 654.60 L 157.20 676.40 L 154.10 679.30 L 148.50 683.30 L 143.20 685.50 L 143.70 682.30 L 145.70 676.30 L 149.20 670.90 L 151.30 668.50 Z" fill="#e0b35c" fill-rule="nonzero" node-id="197" stroke="none" target-height="88" target-width="77.100006" target-x="143.2" target-y="597.5"></path><path d="M 463.80 604.30 L 473.00 604.40 L 476.70 611.30 L 478.40 614.90 L 479.60 618.70 L 476.10 625.10 L 472.10 631.20 L 462.50 623.70 L 459.70 620.80 L 461.30 612.40 L 463.80 604.30 Z" fill="#e8ac61" fill-rule="nonzero" node-id="199" stroke="none" target-height="26.900024" target-width="19.899994" target-x="459.7" target-y="604.3"></path><path d="M 563.20 604.70 L 570.20 609.50 L 573.30 612.80 L 574.00 614.50 L 574.60 618.50 L 574.30 620.50 L 572.50 624.20 L 569.60 627.00 L 567.80 628.00 L 564.00 628.70 L 562.10 628.40 L 560.30 627.60 L 556.80 624.50 L 555.80 622.80 L 555.30 621.00 L 555.20 619.20 L 556.10 615.20 L 559.40 609.60 L 563.20 604.70 Z" fill="#dfb458" fill-rule="nonzero" node-id="201" stroke="none" target-height="24" target-width="19.399963" target-x="555.2" target-y="604.7"></path><path d="M 234.10 614.70 L 246.80 613.40 L 259.50 612.60 L 310.50 611.70 L 323.20 611.20 L 336.00 610.30 L 381.80 609.10 L 427.60 607.40 L 420.90 615.60 L 413.70 623.50 L 405.30 619.20 L 399.60 617.90 L 396.10 617.70 L 351.60 619.80 L 281.90 621.30 L 263.20 622.30 L 247.60 622.20 L 241.40 621.60 L 235.30 620.50 L 234.10 614.70 Z" fill="#e0af59" fill-rule="nonzero" node-id="203" stroke="none" target-height="16.099976" target-width="193.5" target-x="234.1" target-y="607.4"></path><path d="M 390.80 666.70 L 416.50 637.00 L 442.70 607.90 L 439.30 619.00 L 426.00 636.90 L 419.90 646.20 L 414.30 655.80 L 410.90 662.40 L 407.90 669.20 L 405.30 676.20 L 390.80 666.70 Z" fill="#7a472b" fill-rule="nonzero" node-id="205" stroke="none" target-height="68.29999" target-width="51.900024" target-x="390.8" target-y="607.9"></path><path d="M 187.80 658.30 L 214.90 629.70 L 221.90 622.80 L 229.20 616.20 L 230.00 618.90 L 230.30 621.40 L 230.00 623.60 L 229.40 625.80 L 227.20 630.00 L 222.30 635.70 L 209.00 649.40 L 185.10 675.00 L 176.80 683.20 L 166.30 692.50 L 164.40 693.50 L 162.30 694.00 L 160.00 694.30 L 155.60 694.20 L 160.40 687.70 L 165.60 681.60 L 187.80 658.30 Z" fill="#cca757" fill-rule="nonzero" node-id="207" stroke="none" target-height="78.099976" target-width="74.7" target-x="155.6" target-y="616.2"></path><path d="M 353.80 684.40 L 390.50 641.90 L 399.90 631.50 L 409.60 621.40 L 413.70 623.50 L 400.00 640.30 L 385.90 656.70 L 371.30 672.70 L 356.40 688.30 L 353.90 692.80 L 351.80 697.50 L 348.30 707.10 L 347.00 704.10 L 345.40 701.70 L 343.40 699.90 L 341.20 698.50 L 338.60 697.50 L 331.50 696.10 L 318.30 695.30 L 336.20 693.50 L 345.10 692.10 L 342.00 690.40 L 338.80 689.00 L 331.80 687.30 L 324.70 687.20 L 321.20 687.70 L 317.80 688.50 L 314.60 689.80 L 311.60 691.40 L 308.90 693.40 L 306.50 695.90 L 304.50 698.60 L 303.00 701.80 L 301.90 705.50 L 289.40 701.70 L 276.70 699.20 L 298.50 697.20 L 288.60 694.30 L 283.50 693.40 L 275.90 692.70 L 268.10 692.50 L 260.40 692.90 L 252.70 693.60 L 254.80 686.90 L 262.80 674.70 L 273.00 676.10 L 278.10 677.10 L 283.10 678.50 L 287.90 680.30 L 292.60 682.70 L 296.20 692.20 L 313.10 686.60 L 318.90 685.20 L 324.70 684.40 L 330.60 684.10 L 334.50 684.40 L 342.30 686.10 L 348.60 686.90 L 351.70 686.40 L 353.80 684.40 Z" fill="#c29b56" fill-rule="nonzero" node-id="209" stroke="none" target-height="85.69995" target-width="161.00002" target-x="252.7" target-y="621.4"></path><path d="M 258.20 631.90 L 314.90 631.80 L 329.00 631.40 L 354.40 630.00 L 373.00 629.30 L 387.90 629.90 L 381.40 637.40 L 378.70 639.10 L 377.10 639.60 L 356.30 640.80 L 335.60 641.60 L 252.60 643.40 L 245.10 644.00 L 241.30 644.70 L 237.80 645.80 L 233.50 648.30 L 231.60 650.10 L 207.10 677.00 L 225.60 675.00 L 244.20 673.90 L 253.50 674.00 L 262.80 674.70 L 254.80 686.90 L 251.70 686.60 L 248.70 686.80 L 245.80 687.30 L 234.00 690.70 L 224.80 691.50 L 212.50 691.50 L 206.30 691.00 L 200.20 690.00 L 194.20 688.50 L 207.20 687.00 L 220.20 686.00 L 204.40 685.90 L 188.60 686.20 L 197.70 674.20 L 202.70 668.60 L 210.50 660.40 L 218.70 652.60 L 235.50 637.50 L 237.60 635.90 L 242.40 633.60 L 246.20 632.70 L 250.20 632.30 L 258.20 631.90 Z" fill="#36211a" fill-rule="nonzero" node-id="211" stroke="none" target-height="62.200012" target-width="199.29999" target-x="188.6" target-y="629.3"></path><path d="M 677.00 634.80 L 692.20 633.80 L 707.40 633.30 L 737.90 633.60 L 783.60 634.60 L 847.30 634.80 L 879.70 634.40 L 895.80 633.50 L 896.00 648.20 L 874.80 647.20 L 832.30 646.80 L 789.90 647.10 L 712.50 646.90 L 698.40 647.30 L 684.40 648.20 L 677.00 634.80 Z" fill="#5d6142" fill-rule="nonzero" node-id="213" stroke="none" target-height="14.900024" target-width="219" target-x="677" target-y="633.3"></path><path d="M 467.70 656.40 L 466.50 654.50 L 465.80 652.70 L 465.60 650.90 L 465.90 648.10 L 466.80 645.20 L 472.10 634.20 L 475.30 637.80 L 478.20 641.60 L 479.80 644.30 L 482.10 650.10 L 482.80 653.10 L 483.00 656.30 L 482.80 659.60 L 472.50 659.60 L 469.50 658.50 L 467.70 656.40 Z" fill="#edb862" fill-rule="nonzero" node-id="215" stroke="none" target-height="25.399963" target-width="17.399994" target-x="465.6" target-y="634.2"></path><path d="M 557.30 635.80 L 566.00 635.40 L 568.00 640.70 L 569.50 646.30 L 570.40 651.90 L 571.00 657.60 L 564.80 658.50 L 561.60 658.60 L 558.70 658.20 L 556.90 657.40 L 555.30 656.30 L 553.80 654.50 L 553.60 651.30 L 553.90 648.10 L 554.50 645.00 L 557.30 635.80 Z" fill="#e6b55b" fill-rule="nonzero" node-id="217" stroke="none" target-height="23.199951" target-width="17.400024" target-x="553.6" target-y="635.4"></path><path d="M 252.60 643.40 L 335.60 641.60 L 356.30 640.80 L 377.10 639.60 L 370.60 648.10 L 363.70 656.30 L 349.40 672.30 L 319.30 672.20 L 304.30 672.70 L 289.20 673.90 L 292.60 682.70 L 287.90 680.30 L 283.10 678.50 L 278.10 677.10 L 267.90 675.30 L 253.50 674.00 L 244.20 673.90 L 234.90 674.30 L 207.10 677.00 L 213.40 670.40 L 225.40 656.70 L 233.50 648.30 L 237.80 645.80 L 241.30 644.70 L 245.10 644.00 L 252.60 643.40 Z" fill="#583326" fill-rule="nonzero" node-id="219" stroke="none" target-height="43.100037" target-width="170" target-x="207.1" target-y="639.6"></path><path d="M 127.20 645.60 L 155.20 647.80 L 140.10 665.80 L 136.70 670.50 L 133.70 675.60 L 133.40 678.20 L 134.30 683.40 L 137.60 694.90 L 138.90 702.60 L 141.30 755.30 L 142.00 799.20 L 142.50 813.80 L 143.40 828.40 L 144.90 842.90 L 145.50 845.50 L 146.60 847.80 L 148.10 849.90 L 149.90 851.70 L 154.00 855.00 L 176.90 869.20 L 211.80 889.50 L 223.30 896.60 L 216.40 896.90 L 209.60 896.60 L 202.90 895.80 L 196.20 894.40 L 189.60 892.60 L 183.20 890.30 L 177.00 887.60 L 170.90 884.40 L 165.10 880.80 L 159.50 876.90 L 154.20 872.60 L 149.20 868.00 L 145.50 863.90 L 142.20 859.60 L 139.20 855.10 L 136.60 850.40 L 133.70 843.80 L 131.20 837.00 L 129.30 830.00 L 127.80 822.80 L 126.80 815.70 L 126.20 808.50 L 125.70 785.80 L 125.80 763.10 L 127.30 708.80 L 126.00 672.60 L 125.90 663.60 L 126.30 654.60 L 127.20 645.60 Z" fill="#98964f" fill-rule="nonzero" node-id="221" stroke="none" target-height="251.30005" target-width="97.600006" target-x="125.7" target-y="645.6"></path><path d="M 684.40 648.20 L 698.40 647.30 L 712.50 646.90 L 789.90 647.10 L 832.30 646.80 L 874.80 647.20 L 896.00 648.20 L 895.90 680.50 L 878.00 682.30 L 855.60 682.90 L 828.70 682.60 L 704.90 682.70 L 684.40 648.20 Z" fill="#859257" fill-rule="nonzero" node-id="223" stroke="none" target-height="36.100037" target-width="211.59998" target-x="684.4" target-y="646.8"></path><path d="M 554.30 677.00 L 554.80 675.40 L 556.70 672.80 L 558.70 671.20 L 565.20 667.40 L 568.30 674.10 L 569.50 677.60 L 570.30 681.10 L 570.30 683.50 L 569.90 685.90 L 569.10 688.30 L 568.00 689.80 L 566.80 690.90 L 565.40 691.70 L 563.00 692.30 L 555.20 692.90 L 553.80 682.30 L 554.30 677.00 Z" fill="#dcb35b" fill-rule="nonzero" node-id="225" stroke="none" target-height="25.5" target-width="16.5" target-x="553.8" target-y="667.4"></path><path d="M 289.20 673.90 L 304.30 672.70 L 319.30 672.20 L 349.40 672.30 L 332.20 676.40 L 342.30 686.10 L 334.50 684.40 L 330.60 684.10 L 324.70 684.40 L 318.90 685.20 L 313.10 686.60 L 296.20 692.20 L 289.20 673.90 Z" fill="#1f160f" fill-rule="nonzero" node-id="227" stroke="none" target-height="20" target-width="60.19998" target-x="289.2" target-y="672.2"></path><path d="M 472.70 670.40 L 478.40 674.00 L 481.20 676.30 L 483.70 678.80 L 485.00 680.70 L 485.90 682.60 L 486.30 684.60 L 486.20 686.50 L 485.50 688.60 L 483.00 692.60 L 481.80 693.70 L 478.90 694.90 L 477.30 694.90 L 474.00 694.10 L 471.20 692.10 L 470.20 690.80 L 469.40 689.40 L 468.40 685.60 L 468.40 681.70 L 469.10 678.80 L 472.70 670.40 Z" fill="#efb95f" fill-rule="nonzero" node-id="229" stroke="none" target-height="24.5" target-width="17.899994" target-x="468.4" target-y="670.4"></path><path d="M 815.30 682.60 L 869.10 682.70 L 887.00 681.60 L 895.90 680.50 L 895.70 695.60 L 870.00 695.50 L 792.70 696.10 L 733.80 695.40 L 726.50 696.10 L 719.20 697.30 L 712.00 699.10 L 704.90 682.70 L 815.30 682.60 Z" fill="#676442" fill-rule="nonzero" node-id="231" stroke="none" target-height="18.599976" target-width="191" target-x="704.9" target-y="680.5"></path><path d="M 356.70 692.90 L 375.40 683.60 L 381.90 681.10 L 385.10 681.70 L 388.20 682.90 L 399.60 689.70 L 390.30 697.70 L 373.90 699.60 L 365.80 701.10 L 357.80 703.30 L 356.70 692.90 Z" fill="#9e6f3b" fill-rule="nonzero" node-id="233" stroke="none" target-height="22.200012" target-width="42.899994" target-x="356.7" target-y="681.1"></path><path d="M 301.90 705.50 L 303.00 701.80 L 304.50 698.60 L 306.50 695.90 L 308.90 693.40 L 311.60 691.40 L 314.60 689.80 L 317.80 688.50 L 321.20 687.70 L 328.30 687.10 L 335.40 688.00 L 338.80 689.00 L 342.00 690.40 L 345.10 692.10 L 336.20 693.50 L 318.30 695.30 L 312.50 701.40 L 314.50 708.90 L 320.10 709.60 L 331.50 709.80 L 337.10 709.30 L 342.70 708.40 L 348.30 707.10 L 351.80 697.50 L 356.40 688.30 L 357.10 698.10 L 357.80 703.30 L 365.00 709.50 L 369.50 712.10 L 373.60 713.10 L 382.20 712.50 L 398.90 708.90 L 390.30 697.70 L 399.60 689.70 L 408.80 695.20 L 417.70 701.10 L 416.10 708.60 L 409.30 712.10 L 402.30 714.90 L 395.10 717.20 L 387.80 719.00 L 380.40 720.30 L 367.60 722.10 L 369.30 729.00 L 371.40 733.10 L 374.40 736.40 L 376.40 737.70 L 378.70 738.70 L 354.30 740.60 L 317.70 742.40 L 305.50 743.40 L 314.20 736.40 L 310.20 721.20 L 285.50 723.30 L 272.20 724.80 L 273.80 742.60 L 260.70 743.20 L 255.00 742.10 L 248.40 739.20 L 244.70 736.90 L 238.00 731.40 L 249.50 729.80 L 261.20 735.20 L 268.40 721.80 L 257.60 720.10 L 252.20 719.60 L 246.80 719.30 L 234.90 719.50 L 239.80 710.60 L 239.40 716.30 L 245.30 711.80 L 256.60 702.10 L 248.10 694.80 L 252.70 693.60 L 260.40 692.90 L 268.10 692.50 L 275.90 692.70 L 283.50 693.40 L 288.60 694.30 L 298.50 697.20 L 270.10 699.70 L 266.90 700.20 L 263.90 701.40 L 260.30 706.20 L 257.10 711.30 L 264.10 713.10 L 271.20 714.40 L 278.40 715.20 L 285.60 715.40 L 292.80 715.00 L 300.00 714.00 L 301.90 705.50 Z M 319.30 720.40 L 320.00 733.80 L 322.80 736.10 L 325.70 737.70 L 328.80 738.80 L 332.00 739.40 L 338.80 739.50 L 344.10 738.90 L 359.40 736.50 L 359.80 729.00 L 359.70 713.90 L 346.20 715.80 L 319.30 720.40 Z" fill="#6e4c2c" fill-rule="nonzero" node-id="235" stroke="none" target-height="56.30005" target-width="182.80002" target-x="234.9" target-y="687.1"></path><path d="M 171.20 700.80 L 188.10 697.60 L 196.60 696.50 L 209.50 695.40 L 222.40 694.90 L 248.10 694.80 L 249.90 696.30 L 244.60 703.20 L 239.80 710.60 L 229.90 729.10 L 222.80 725.00 L 215.50 721.40 L 185.50 708.60 L 178.30 705.00 L 171.20 700.80 Z" fill="#452319" fill-rule="nonzero" node-id="237" stroke="none" target-height="34.299988" target-width="78.7" target-x="171.2" target-y="694.8"></path><path d="M 312.50 701.40 L 318.30 695.30 L 331.50 696.10 L 335.80 696.80 L 338.60 697.50 L 341.20 698.50 L 343.40 699.90 L 345.40 701.70 L 347.00 704.10 L 348.30 707.10 L 342.70 708.40 L 337.10 709.30 L 331.50 709.80 L 320.10 709.60 L 314.50 708.90 L 312.50 701.40 Z" fill="#d4ab62" fill-rule="nonzero" node-id="239" stroke="none" target-height="14.5" target-width="35.799988" target-x="312.5" target-y="695.3"></path><path d="M 712.00 699.10 L 719.20 697.30 L 726.50 696.10 L 733.80 695.40 L 792.70 696.10 L 870.00 695.50 L 895.70 695.60 L 895.90 734.60 L 838.60 735.00 L 723.90 734.60 L 721.60 725.50 L 718.90 716.60 L 715.70 707.80 L 712.00 699.10 Z" fill="#809053" fill-rule="nonzero" node-id="241" stroke="none" target-height="39.599976" target-width="183.90002" target-x="712" target-y="695.4"></path><path d="M 239.80 710.60 L 244.60 703.20 L 249.90 696.30 L 256.60 702.10 L 245.30 711.80 L 239.40 716.30 L 239.80 710.60 Z" fill="#aa7e44" fill-rule="nonzero" node-id="243" stroke="none" target-height="20" target-width="17.200012" target-x="239.4" target-y="696.3"></path><path d="M 263.90 701.40 L 266.90 700.20 L 270.10 699.70 L 276.70 699.20 L 289.40 701.70 L 301.90 705.50 L 300.00 714.00 L 292.80 715.00 L 285.60 715.40 L 278.40 715.20 L 271.20 714.40 L 264.10 713.10 L 257.10 711.30 L 260.30 706.20 L 263.90 701.40 Z" fill="#e0bb64" fill-rule="nonzero" node-id="245" stroke="none" target-height="16.200012" target-width="44.799988" target-x="257.1" target-y="699.2"></path><path d="M 357.80 703.30 L 365.80 701.10 L 373.90 699.60 L 390.30 697.70 L 398.90 708.90 L 382.20 712.50 L 373.60 713.10 L 369.50 712.10 L 365.00 709.50 L 357.80 703.30 Z" fill="#e7cb75" fill-rule="nonzero" node-id="247" stroke="none" target-height="15.399963" target-width="41.100006" target-x="357.8" target-y="697.7"></path><path d="M 417.70 701.10 L 456.90 718.90 L 476.00 728.90 L 453.60 732.30 L 408.50 736.40 L 420.10 733.10 L 418.70 722.90 L 416.10 708.60 L 417.70 701.10 Z" fill="#624226" fill-rule="nonzero" node-id="249" stroke="none" target-height="35.30005" target-width="67.5" target-x="408.5" target-y="701.1"></path><path d="M 147.70 703.40 L 165.60 711.70 L 236.20 746.80 L 254.20 754.90 L 254.80 790.30 L 254.90 825.80 L 254.40 896.60 L 250.20 896.10 L 246.10 895.10 L 242.20 893.80 L 236.50 891.20 L 192.10 866.20 L 164.40 850.00 L 157.10 844.90 L 155.20 842.80 L 154.10 841.20 L 153.50 839.40 L 153.20 837.40 L 151.50 803.90 L 147.70 703.40 Z M 158.30 725.70 L 156.30 733.90 L 155.90 738.10 L 155.80 744.40 L 157.30 761.50 L 157.80 772.40 L 158.50 815.70 L 159.30 826.50 L 160.70 837.20 L 205.10 860.30 L 234.80 876.90 L 236.90 877.70 L 238.90 878.00 L 241.70 877.50 L 243.10 876.70 L 243.70 844.70 L 243.90 780.80 L 243.50 772.80 L 243.10 770.90 L 242.30 769.20 L 240.50 767.50 L 212.30 752.90 L 158.30 725.70 Z" fill="#bd9255" fill-rule="nonzero" node-id="251" stroke="none" target-height="193.19995" target-width="107.2" target-x="147.7" target-y="703.4"></path><path d="M 557.90 705.60 L 566.40 704.10 L 568.20 719.40 L 558.00 719.40 L 557.90 705.60 Z" fill="#deb856" fill-rule="nonzero" node-id="253" stroke="none" target-height="15.300049" target-width="10.299988" target-x="557.9" target-y="704.1"></path><path d="M 372.80 721.20 L 380.40 720.30 L 387.80 719.00 L 395.10 717.20 L 402.30 714.90 L 409.30 712.10 L 416.10 708.60 L 416.90 712.80 L 416.00 729.50 L 405.30 729.30 L 394.50 729.70 L 383.90 730.70 L 373.20 732.20 L 372.80 721.20 Z" fill="#d3ad5f" fill-rule="nonzero" node-id="255" stroke="none" target-height="23.600037" target-width="44.100006" target-x="372.8" target-y="708.6"></path><path d="M 319.30 720.40 L 346.20 715.80 L 359.70 713.90 L 353.40 724.60 L 349.20 729.90 L 344.90 733.20 L 340.80 734.30 L 336.70 734.80 L 332.50 734.80 L 320.00 733.80 L 319.30 720.40 Z" fill="#d8ad5f" fill-rule="nonzero" node-id="257" stroke="none" target-height="20.899963" target-width="40.400024" target-x="319.3" target-y="713.9"></path><path d="M 416.90 712.80 L 418.70 722.90 L 420.10 733.10 L 408.50 736.40 L 401.20 737.60 L 393.70 738.30 L 378.70 738.70 L 376.40 737.70 L 374.40 736.40 L 371.40 733.10 L 369.30 729.00 L 367.60 722.10 L 372.80 721.20 L 373.20 732.20 L 383.90 730.70 L 394.50 729.70 L 405.30 729.30 L 416.00 729.50 L 416.90 712.80 Z" fill="#b5894c" fill-rule="nonzero" node-id="259" stroke="none" target-height="25.900024" target-width="52.5" target-x="367.6" target-y="712.8"></path><path d="M 359.70 713.90 L 359.80 729.00 L 359.40 736.50 L 344.10 738.90 L 335.40 739.60 L 328.80 738.80 L 325.70 737.70 L 322.80 736.10 L 320.00 733.80 L 332.50 734.80 L 336.70 734.80 L 340.80 734.30 L 344.90 733.20 L 347.20 731.70 L 351.00 727.90 L 353.40 724.60 L 359.70 713.90 Z" fill="#a77d48" fill-rule="nonzero" node-id="261" stroke="none" target-height="25.699951" target-width="39.799988" target-x="320" target-y="713.9"></path><path d="M 246.80 719.30 L 257.60 720.10 L 268.40 721.80 L 261.30 735.20 L 249.50 729.80 L 246.80 719.30 Z" fill="#d8af5c" fill-rule="nonzero" node-id="263" stroke="none" target-height="15.900024" target-width="21.59999" target-x="246.8" target-y="719.3"></path><path d="M 229.90 729.10 L 234.90 719.50 L 246.80 719.30 L 249.50 729.80 L 238.00 731.40 L 229.90 729.10 Z" fill="#a5743d" fill-rule="nonzero" node-id="265" stroke="none" target-height="12.100037" target-width="19.600006" target-x="229.9" target-y="719.3"></path><path d="M 298.80 722.20 L 310.20 721.20 L 314.20 736.40 L 305.50 743.40 L 283.10 743.90 L 271.90 743.80 L 260.70 743.20 L 273.80 742.60 L 284.70 741.30 L 291.80 739.50 L 295.20 738.10 L 299.00 735.40 L 302.50 732.10 L 308.90 725.20 L 298.80 722.20 Z" fill="#ac774a" fill-rule="nonzero" node-id="267" stroke="none" target-height="22.700012" target-width="53.5" target-x="260.7" target-y="721.2"></path><path d="M 272.20 724.80 L 298.80 722.20 L 308.90 725.20 L 302.50 732.10 L 299.00 735.40 L 295.20 738.10 L 291.80 739.50 L 288.30 740.50 L 281.10 741.80 L 273.80 742.60 L 272.20 724.80 Z" fill="#cfab5c" fill-rule="nonzero" node-id="269" stroke="none" target-height="20.399963" target-width="36.69998" target-x="272.2" target-y="722.2"></path><path d="M 158.30 725.70 L 212.30 752.90 L 240.50 767.50 L 242.30 769.20 L 243.10 770.90 L 243.50 772.80 L 243.90 780.80 L 243.70 844.70 L 243.10 876.70 L 241.70 877.50 L 238.90 878.00 L 236.90 877.70 L 234.80 876.90 L 205.10 860.30 L 160.70 837.20 L 159.30 826.50 L 158.50 815.70 L 157.80 772.40 L 157.30 761.50 L 155.80 744.40 L 155.90 738.10 L 156.30 733.90 L 158.30 725.70 Z M 165.20 742.00 L 165.90 786.00 L 167.50 830.00 L 211.40 853.40 L 233.70 864.40 L 234.20 844.80 L 234.40 792.30 L 233.70 783.50 L 232.90 779.10 L 230.70 776.60 L 228.20 774.30 L 225.50 772.40 L 216.80 767.30 L 182.70 749.80 L 165.20 742.00 Z" fill="#050402" fill-rule="nonzero" node-id="271" stroke="none" target-height="152.29999" target-width="88.09999" target-x="155.8" target-y="725.7"></path><path d="M 503.50 730.50 L 523.70 729.80 L 533.80 729.90 L 534.00 752.20 L 501.80 752.40 L 501.70 745.00 L 502.30 737.70 L 503.50 730.50 Z" fill="#e0a454" fill-rule="nonzero" node-id="273" stroke="none" target-height="22.600037" target-width="32.299988" target-x="501.7" target-y="729.8"></path><path d="M 545.20 731.90 L 554.30 733.80 L 563.30 736.20 L 555.70 737.40 L 555.50 750.30 L 569.80 749.30 L 570.90 735.50 L 584.00 736.50 L 597.00 738.10 L 601.00 752.60 L 591.70 753.50 L 572.90 754.30 L 554.20 753.90 L 544.80 753.20 L 545.20 731.90 Z" fill="#b97d45" fill-rule="nonzero" node-id="275" stroke="none" target-height="22.399963" target-width="56.200012" target-x="544.8" target-y="731.9"></path><path d="M 723.90 734.60 L 838.60 735.00 L 895.90 734.60 L 896.10 750.20 L 810.10 749.60 L 767.10 749.70 L 724.10 750.40 L 723.90 734.60 Z" fill="#696544" fill-rule="nonzero" node-id="277" stroke="none" target-height="15.800049" target-width="172.19995" target-x="723.9" target-y="734.6"></path><path d="M 555.70 737.40 L 563.30 736.20 L 570.90 735.50 L 569.80 749.30 L 555.50 750.30 L 555.70 737.40 Z" fill="#e8c166" fill-rule="nonzero" node-id="279" stroke="none" target-height="14.799988" target-width="15.400024" target-x="555.5" target-y="735.5"></path><path d="M 608.50 737.10 L 616.70 737.80 L 623.80 753.80 L 631.20 769.70 L 621.00 772.10 L 617.10 763.60 L 613.70 754.90 L 610.90 746.10 L 608.50 737.10 Z" fill="#976340" fill-rule="nonzero" node-id="281" stroke="none" target-height="35" target-width="22.700012" target-x="608.5" target-y="737.1"></path><path d="M 405.50 746.90 L 449.00 742.90 L 470.70 741.30 L 492.50 740.30 L 491.30 756.40 L 490.60 772.60 L 489.10 821.20 L 488.30 837.40 L 486.40 858.80 L 484.90 869.50 L 372.40 884.30 L 335.00 889.50 L 323.40 891.70 L 311.80 893.30 L 288.40 895.40 L 265.00 896.80 L 265.10 825.80 L 264.80 754.70 L 276.10 754.90 L 287.30 754.40 L 321.00 752.00 L 332.30 751.70 L 353.70 750.20 L 396.70 748.10 L 394.90 760.60 L 380.80 760.00 L 366.80 760.10 L 366.20 782.80 L 366.60 810.00 L 390.30 811.30 L 363.90 812.50 L 364.30 764.60 L 363.20 759.40 L 361.70 755.80 L 359.50 752.40 L 355.50 769.20 L 342.70 770.30 L 304.20 772.60 L 291.40 773.80 L 278.60 775.50 L 278.30 798.80 L 278.30 868.70 L 278.70 875.20 L 279.10 876.80 L 280.60 878.40 L 281.50 878.60 L 288.90 878.40 L 294.80 878.00 L 439.00 860.30 L 479.00 855.10 L 479.80 808.70 L 479.80 762.20 L 467.40 762.40 L 418.00 765.60 L 405.60 766.00 L 405.50 746.90 Z" fill="#eabb5f" fill-rule="nonzero" node-id="283" stroke="none" target-height="156.5" target-width="227.70001" target-x="264.8" target-y="740.3"></path><path d="M 165.20 742.00 L 174.00 745.80 L 191.30 754.00 L 216.80 767.30 L 225.50 772.40 L 228.20 774.30 L 230.70 776.60 L 232.90 779.10 L 233.70 783.50 L 234.40 792.30 L 234.20 844.80 L 233.70 864.40 L 211.40 853.40 L 167.50 830.00 L 165.90 786.00 L 165.20 742.00 Z M 176.10 758.30 L 175.30 790.60 L 175.50 801.40 L 176.00 808.60 L 178.20 822.70 L 186.40 828.40 L 194.90 833.70 L 203.70 838.60 L 230.60 852.30 L 231.10 826.10 L 230.90 800.00 L 230.60 793.20 L 230.00 789.80 L 228.90 786.80 L 227.80 785.00 L 226.20 783.60 L 200.70 769.10 L 192.70 765.10 L 184.50 761.50 L 176.10 758.30 Z" fill="#432a1f" fill-rule="nonzero" node-id="285" stroke="none" target-height="122.400024" target-width="69.2" target-x="165.2" target-y="742"></path><path d="M 99.50 756.70 L 103.40 753.10 L 112.40 747.50 L 113.00 757.30 L 113.80 796.50 L 114.50 806.20 L 116.20 819.20 L 118.90 831.60 L 122.50 843.30 L 124.80 849.00 L 130.50 859.90 L 137.50 869.90 L 141.40 874.60 L 145.70 879.00 L 150.20 883.10 L 155.10 886.90 L 160.50 890.80 L 166.20 894.20 L 172.20 897.20 L 178.30 899.80 L 184.60 902.00 L 191.00 903.80 L 204.10 906.20 L 219.70 907.90 L 228.60 908.60 L 264.50 910.00 L 259.30 917.50 L 255.20 922.00 L 252.80 923.80 L 249.20 925.30 L 236.60 926.60 L 226.10 927.00 L 215.50 927.00 L 207.60 926.50 L 199.80 925.70 L 184.30 922.80 L 176.70 920.80 L 169.30 918.20 L 162.00 915.20 L 154.90 911.70 L 148.60 908.00 L 142.70 904.00 L 137.20 899.50 L 131.90 894.60 L 127.00 889.40 L 122.50 883.90 L 118.30 878.10 L 114.50 872.00 L 111.00 865.60 L 108.00 859.10 L 105.40 852.50 L 103.10 845.70 L 101.30 838.60 L 98.80 824.30 L 97.80 813.50 L 97.20 802.60 L 96.80 780.80 L 97.10 768.60 L 98.30 760.50 L 99.50 756.70 Z" fill="#68a382" fill-rule="nonzero" node-id="287" stroke="none" target-height="179.5" target-width="167.7" target-x="96.8" target-y="747.5"></path><path d="M 396.70 748.10 L 398.00 755.10 L 398.90 762.10 L 399.30 769.20 L 399.40 779.80 L 397.80 811.70 L 366.60 810.00 L 366.50 805.40 L 392.70 804.90 L 394.00 790.10 L 394.90 760.60 L 396.70 748.10 Z" fill="#80633a" fill-rule="nonzero" node-id="289" stroke="none" target-height="63.600037" target-width="32.899994" target-x="366.5" target-y="748.1"></path><path d="M 724.10 750.40 L 767.10 749.70 L 810.10 749.60 L 896.10 750.20 L 895.90 760.80 L 896.60 793.00 L 896.40 803.80 L 895.70 814.40 L 894.70 821.40 L 893.30 828.40 L 891.40 835.30 L 889.20 841.00 L 886.70 846.40 L 883.70 851.60 L 880.40 856.60 L 872.90 865.90 L 864.20 874.10 L 854.50 881.20 L 843.90 887.00 L 832.80 891.50 L 821.10 894.40 L 804.90 893.70 L 806.80 862.50 L 806.80 854.80 L 806.40 847.00 L 806.00 844.50 L 805.30 842.30 L 804.10 840.40 L 801.00 837.20 L 799.00 836.00 L 794.60 834.50 L 792.20 834.10 L 788.50 834.00 L 785.00 834.60 L 782.80 835.30 L 778.90 837.70 L 775.90 840.90 L 773.50 844.50 L 771.40 848.30 L 766.00 860.20 L 758.00 851.10 L 752.10 845.50 L 748.80 843.30 L 744.00 841.20 L 741.30 840.70 L 737.90 841.40 L 734.70 842.70 L 731.70 844.40 L 723.00 850.30 L 718.10 847.00 L 707.80 841.10 L 697.00 836.40 L 691.30 834.60 L 690.70 839.70 L 690.60 844.60 L 691.00 849.50 L 692.20 856.80 L 697.70 878.70 L 699.20 886.10 L 700.10 893.50 L 677.30 895.00 L 672.60 883.40 L 654.80 836.80 L 647.30 818.30 L 638.30 797.60 L 632.90 783.60 L 635.10 779.20 L 638.80 779.40 L 642.40 780.10 L 659.50 786.60 L 668.10 788.20 L 678.40 788.80 L 683.50 788.50 L 688.60 787.80 L 693.50 786.70 L 697.10 785.40 L 703.90 782.00 L 707.10 779.70 L 710.10 777.20 L 712.80 774.50 L 715.20 771.50 L 719.00 764.90 L 720.60 761.40 L 724.10 750.40 Z" fill="#98a25d" fill-rule="nonzero" node-id="291" stroke="none" target-height="145.40002" target-width="263.69995" target-x="632.9" target-y="749.6"></path><path d="M 176.10 758.30 L 184.50 761.50 L 192.70 765.10 L 200.70 769.10 L 226.20 783.60 L 227.80 785.00 L 228.90 786.80 L 230.00 789.80 L 230.60 793.20 L 230.90 800.00 L 231.10 826.10 L 230.60 852.30 L 203.70 838.60 L 194.90 833.70 L 186.40 828.40 L 178.20 822.70 L 176.00 808.60 L 175.50 801.40 L 175.30 790.60 L 176.10 758.30 Z" fill="#6b3f29" fill-rule="nonzero" node-id="293" stroke="none" target-height="94" target-width="55.800003" target-x="175.3" target-y="758.3"></path><path d="M 366.80 760.10 L 380.80 760.00 L 394.90 760.60 L 394.00 790.10 L 392.70 804.90 L 366.50 805.40 L 366.20 782.80 L 366.80 760.10 Z M 374.60 769.20 L 374.80 799.60 L 385.90 799.10 L 387.60 784.00 L 387.90 776.40 L 387.90 768.80 L 374.60 769.20 Z" fill="#0a0907" fill-rule="nonzero" node-id="295" stroke="none" target-height="45.400024" target-width="28.699982" target-x="366.2" target-y="760"></path><path d="M 499.80 764.00 L 513.50 763.50 L 527.20 763.50 L 540.90 764.00 L 563.00 765.30 L 579.60 764.80 L 604.60 763.00 L 609.50 773.00 L 572.90 778.10 L 554.40 780.10 L 536.00 781.50 L 523.60 781.90 L 511.30 782.00 L 498.90 781.60 L 499.80 764.00 Z" fill="#a76a40" fill-rule="nonzero" node-id="297" stroke="none" target-height="19" target-width="110.600006" target-x="498.9" target-y="763"></path><path d="M 374.60 769.20 L 387.90 768.80 L 387.90 776.40 L 387.60 784.00 L 385.90 799.10 L 374.80 799.60 L 374.60 769.20 Z" fill="#e2ad67" fill-rule="nonzero" node-id="299" stroke="none" target-height="30.799988" target-width="13.299988" target-x="374.6" target-y="768.8"></path><path d="M 409.80 777.80 L 419.70 776.20 L 429.80 775.00 L 439.80 774.20 L 450.00 773.90 L 460.00 774.10 L 470.10 774.70 L 470.70 810.80 L 470.60 828.80 L 469.90 846.80 L 448.40 850.30 L 405.30 855.90 L 362.10 860.90 L 313.70 866.90 L 300.30 868.30 L 286.70 869.10 L 287.20 854.90 L 287.50 797.90 L 288.10 783.60 L 332.50 782.00 L 343.60 782.20 L 354.70 782.90 L 354.70 802.80 L 353.80 822.70 L 352.10 807.40 L 351.10 792.10 L 342.10 791.90 L 324.20 792.40 L 306.50 794.30 L 297.70 795.80 L 296.70 805.90 L 296.20 816.10 L 296.10 826.30 L 297.00 846.60 L 297.90 856.80 L 312.10 855.80 L 326.20 854.50 L 463.50 838.00 L 463.10 819.90 L 462.30 801.80 L 461.00 783.80 L 445.70 784.20 L 430.40 785.20 L 415.20 786.90 L 413.50 804.10 L 411.50 821.30 L 404.50 821.70 L 408.00 814.90 L 409.10 811.40 L 410.20 805.90 L 410.80 800.30 L 410.90 794.70 L 409.80 777.80 Z" fill="#41281e" fill-rule="nonzero" node-id="301" stroke="none" target-height="95.19995" target-width="184" target-x="286.7" target-y="773.9"></path><path d="M 415.20 786.90 L 430.40 785.20 L 445.70 784.20 L 461.00 783.80 L 462.30 801.80 L 463.10 819.90 L 463.50 838.00 L 326.20 854.50 L 312.10 855.80 L 297.90 856.80 L 296.40 836.50 L 296.10 826.30 L 296.20 816.10 L 296.70 805.90 L 297.70 795.80 L 306.50 794.30 L 324.20 792.40 L 342.10 791.90 L 351.10 792.10 L 352.10 807.40 L 353.80 822.70 L 387.60 822.40 L 411.50 821.30 L 413.50 804.10 L 415.20 786.90 Z" fill="#693c29" fill-rule="nonzero" node-id="303" stroke="none" target-height="73" target-width="167.4" target-x="296.1" target-y="783.8"></path><path d="M 605.90 785.70 L 620.00 783.90 L 628.00 801.20 L 635.50 818.70 L 663.70 889.60 L 651.10 893.90 L 646.80 881.60 L 637.10 857.40 L 613.40 803.70 L 605.90 785.70 Z" fill="#857077" fill-rule="nonzero" node-id="305" stroke="none" target-height="110" target-width="57.799988" target-x="605.9" target-y="783.9"></path><path d="M 547.20 792.20 L 556.90 790.80 L 596.10 787.00 L 605.90 785.70 L 613.40 803.70 L 637.10 857.40 L 646.80 881.60 L 651.10 893.90 L 620.10 894.50 L 589.00 894.50 L 573.50 894.00 L 558.00 893.10 L 554.00 881.20 L 550.50 869.20 L 547.40 857.10 L 544.70 844.90 L 542.40 832.50 L 540.50 820.10 L 539.10 807.70 L 538.00 795.20 L 547.20 792.20 Z" fill="#796063" fill-rule="nonzero" node-id="307" stroke="none" target-height="108.79999" target-width="113.099976" target-x="538" target-y="785.7"></path><path d="M 519.50 794.40 L 528.70 793.10 L 537.90 792.30 L 547.20 792.20 L 538.00 795.20 L 539.10 807.70 L 540.50 820.10 L 542.40 832.50 L 544.70 844.90 L 547.40 857.10 L 550.50 869.20 L 554.00 881.20 L 558.00 893.10 L 573.50 894.00 L 589.00 894.50 L 620.10 894.50 L 651.10 893.90 L 663.70 889.60 L 663.90 895.90 L 541.50 895.20 L 534.70 872.60 L 528.20 849.90 L 521.00 821.70 L 519.80 810.80 L 519.50 794.40 Z" fill="#5a474d" fill-rule="nonzero" node-id="309" stroke="none" target-height="103.70001" target-width="144.40002" target-x="519.5" target-y="792.2"></path><path d="M 499.60 795.30 L 507.10 795.90 L 507.40 803.80 L 507.00 819.70 L 506.00 831.50 L 504.40 843.30 L 500.40 866.70 L 499.20 871.80 L 497.60 876.70 L 493.40 886.10 L 493.40 879.30 L 499.60 795.30 Z" fill="#4d4241" fill-rule="nonzero" node-id="311" stroke="none" target-height="90.79999" target-width="14" target-x="493.4" target-y="795.3"></path><path d="M 778.90 837.70 L 782.80 835.30 L 785.00 834.60 L 788.50 834.00 L 792.20 834.10 L 794.60 834.50 L 799.00 836.00 L 801.00 837.20 L 804.10 840.40 L 805.30 842.30 L 806.00 844.50 L 806.80 854.80 L 806.40 870.30 L 804.90 893.70 L 821.10 894.40 L 812.00 895.30 L 802.80 895.70 L 706.80 895.80 L 677.30 895.00 L 700.10 893.50 L 699.20 886.10 L 697.70 878.70 L 692.20 856.80 L 691.00 849.50 L 690.60 844.60 L 690.70 839.70 L 691.30 834.60 L 697.00 836.40 L 702.50 838.60 L 707.80 841.10 L 718.10 847.00 L 723.00 850.30 L 731.70 844.40 L 734.70 842.70 L 737.90 841.40 L 741.30 840.70 L 744.00 841.20 L 748.80 843.30 L 752.10 845.50 L 758.00 851.10 L 766.00 860.20 L 771.40 848.30 L 773.50 844.50 L 775.90 840.90 L 778.90 837.70 Z M 781.90 849.00 L 779.70 853.70 L 778.10 858.50 L 777.00 863.50 L 776.30 868.50 L 775.80 878.80 L 776.30 894.20 L 795.10 893.70 L 796.30 870.80 L 796.40 863.10 L 795.60 853.00 L 794.60 848.00 L 794.00 846.60 L 792.30 844.90 L 790.50 844.40 L 788.50 844.50 L 786.50 845.10 L 784.60 846.10 L 783.00 847.40 L 781.90 849.00 Z M 703.10 849.30 L 706.90 878.20 L 710.00 892.50 L 711.80 893.70 L 713.90 894.30 L 716.10 894.60 L 725.50 893.80 L 727.70 893.90 L 726.30 882.10 L 724.40 874.40 L 722.80 870.70 L 720.30 866.40 L 717.40 862.60 L 714.10 858.90 L 710.60 855.60 L 703.10 849.30 Z M 746.70 893.90 L 768.40 894.00 L 762.40 878.10 L 757.40 868.00 L 754.50 863.20 L 751.20 858.60 L 747.50 854.40 L 743.30 850.50 L 742.70 855.40 L 742.60 865.00 L 744.30 879.50 L 746.70 893.90 Z" fill="#656741" fill-rule="nonzero" node-id="313" stroke="none" target-height="61.799988" target-width="143.79999" target-x="677.3" target-y="834"></path><path d="M 781.90 849.00 L 783.00 847.40 L 784.60 846.10 L 786.50 845.10 L 788.50 844.50 L 790.50 844.40 L 792.30 844.90 L 794.00 846.60 L 794.60 848.00 L 795.60 853.00 L 796.40 863.10 L 796.30 870.80 L 795.10 893.70 L 776.30 894.20 L 775.80 878.80 L 776.30 868.50 L 777.00 863.50 L 778.10 858.50 L 779.70 853.70 L 781.90 849.00 Z" fill="#969f59" fill-rule="nonzero" node-id="315" stroke="none" target-height="49.799988" target-width="20.600037" target-x="775.8" target-y="844.4"></path><path d="M 502.70 895.30 L 505.90 878.20 L 510.00 861.30 L 512.60 853.00 L 515.80 844.90 L 519.10 853.00 L 524.80 869.70 L 528.20 882.50 L 530.90 895.50 L 502.70 895.30 Z" fill="#999b54" fill-rule="nonzero" node-id="317" stroke="none" target-height="50.599976" target-width="28.200012" target-x="502.7" target-y="844.9"></path><path d="M 703.10 849.30 L 710.60 855.60 L 714.10 858.90 L 717.40 862.60 L 720.30 866.40 L 722.80 870.70 L 724.40 874.40 L 725.50 878.20 L 726.80 886.00 L 727.70 893.90 L 725.50 893.80 L 716.10 894.60 L 713.90 894.30 L 711.80 893.70 L 710.00 892.50 L 706.90 878.20 L 703.10 849.30 Z" fill="#969d5b" fill-rule="nonzero" node-id="319" stroke="none" target-height="45.299988" target-width="24.600037" target-x="703.1" target-y="849.3"></path><path d="M 746.70 893.90 L 744.30 879.50 L 742.60 865.00 L 742.70 855.40 L 743.30 850.50 L 747.50 854.40 L 751.20 858.60 L 754.50 863.20 L 757.40 868.00 L 762.40 878.10 L 768.40 894.00 L 746.70 893.90 Z" fill="#969f5b" fill-rule="nonzero" node-id="321" stroke="none" target-height="43.5" target-width="25.800049" target-x="742.6" target-y="850.5"></path><path d="M 364.90 895.20 L 386.20 892.20 L 472.00 882.10 L 493.40 879.30 L 493.40 895.00 L 429.20 895.60 L 364.90 895.20 Z" fill="#76814c" fill-rule="nonzero" node-id="323" stroke="none" target-height="16.299988" target-width="128.5" target-x="364.9" target-y="879.3"></path><path d="M 300.00 906.50 L 375.70 906.10 L 451.30 906.30 L 444.80 915.60 L 442.40 918.50 L 439.80 921.20 L 436.70 923.40 L 432.70 924.60 L 428.60 925.40 L 420.30 925.90 L 368.00 925.50 L 314.70 925.90 L 305.40 925.40 L 296.20 923.80 L 294.30 923.00 L 292.80 921.90 L 290.70 918.60 L 287.70 911.20 L 300.00 906.50 Z" fill="#6ba589" fill-rule="nonzero" node-id="325" stroke="none" target-height="19.800049" target-width="163.59998" target-x="287.7" target-y="906.1"></path><path d="M 483.40 906.10 L 712.30 906.10 L 704.40 917.30 L 702.00 919.80 L 699.40 921.80 L 695.30 923.70 L 693.00 924.30 L 686.00 925.40 L 671.90 926.00 L 630.50 925.50 L 517.30 926.40 L 504.60 926.30 L 498.30 925.90 L 489.50 924.70 L 487.20 923.80 L 485.20 922.50 L 482.50 920.20 L 475.30 911.60 L 483.40 906.10 Z" fill="#6ba785" fill-rule="nonzero" node-id="327" stroke="none" target-height="20.300049" target-width="237" target-x="475.3" target-y="906.1"></path></svg>