<?xml version="1.0" standalone="no"?><!DOCTYPE svg PUBLIC "-//W3C//DTD SVG 1.1//EN" "http://www.w3.org/Graphics/SVG/1.1/DTD/svg11.dtd"><svg height="1024" node-id="1" sillyvg="true" template-height="1024" template-width="1024" version="1.1" viewBox="0 0 1024 1024" width="1024" xmlns="http://www.w3.org/2000/svg" xmlns:xlink="http://www.w3.org/1999/xlink"><defs node-id="111"></defs><path d="M 0.00 0.00 L 1024.00 0.00 L 1024.00 1024.00 L 0.00 1024.00 Z" fill="#ebeadf" fill-rule="nonzero" node-id="113" stroke="none" target-height="1024" target-width="1024" target-x="0" target-y="0"></path><path d="M 505.40 664.40 L 503.60 663.00 L 502.10 661.10 L 501.10 659.00 L 500.60 655.40 L 501.60 652.80 L 502.50 651.80 L 505.60 650.20 L 506.00 654.90 L 506.00 659.70 L 505.40 664.40 Z" fill="#f1efe6" fill-rule="nonzero" node-id="115" stroke="none" target-height="14.200012" target-width="5.399994" target-x="500.6" target-y="650.2"></path><path d="M 369.40 338.60 L 372.80 337.00 L 379.70 334.70 L 385.10 333.80 L 390.60 333.30 L 412.70 333.10 L 439.00 331.40 L 453.50 331.10 L 465.10 332.40 L 467.60 332.90 L 469.90 334.00 L 471.80 335.50 L 473.30 337.50 L 474.30 340.60 L 474.50 342.40 L 474.80 375.50 L 474.60 412.10 L 474.00 415.60 L 472.10 422.50 L 448.30 423.20 L 424.50 423.50 L 400.70 423.30 L 376.90 422.60 L 374.70 422.10 L 372.90 421.40 L 370.20 418.80 L 368.40 415.30 L 367.60 412.30 L 367.00 406.10 L 367.30 395.20 L 367.10 362.70 L 367.40 354.70 L 368.10 346.60 L 369.40 338.60 Z M 380.00 345.50 L 379.80 410.10 L 401.40 410.60 L 401.40 375.70 L 424.80 375.30 L 426.00 364.90 L 426.80 354.50 L 427.20 344.00 L 419.30 344.30 L 395.70 344.40 L 387.80 344.80 L 380.00 345.50 Z" fill="#010202" fill-rule="nonzero" node-id="117" stroke="none" target-height="92.399994" target-width="107.79999" target-x="367" target-y="331.1"></path><path d="M 476.30 463.20 L 473.40 453.80 L 472.30 447.50 L 472.50 444.40 L 473.00 442.50 L 475.20 438.50 L 483.10 442.70 L 485.80 443.80 L 489.60 444.60 L 509.30 444.20 L 562.40 444.20 L 564.30 444.10 L 567.70 443.10 L 576.80 437.30 L 579.80 442.10 L 580.60 443.80 L 580.90 445.50 L 580.80 447.50 L 577.10 463.50 L 574.00 471.10 L 572.00 474.50 L 569.50 477.70 L 566.50 480.60 L 562.10 483.90 L 557.50 486.70 L 552.60 489.00 L 547.50 490.80 L 542.30 492.10 L 536.90 493.00 L 531.50 493.50 L 520.50 493.30 L 509.80 491.60 L 504.60 490.30 L 500.40 488.70 L 492.40 484.30 L 488.60 481.60 L 485.30 478.60 L 482.30 475.30 L 480.30 472.50 L 477.30 466.50 L 476.30 463.20 Z M 486.30 463.30 L 488.40 466.80 L 490.70 469.90 L 493.20 472.60 L 496.10 475.00 L 500.30 477.70 L 504.70 479.90 L 509.60 481.60 L 514.60 482.80 L 519.70 483.60 L 524.90 483.90 L 535.20 483.40 L 540.10 482.60 L 544.00 481.50 L 552.20 478.30 L 556.00 476.10 L 560.30 472.50 L 563.50 468.10 L 564.50 465.40 L 565.20 462.50 L 558.60 460.50 L 552.00 459.10 L 545.40 458.10 L 535.20 457.20 L 525.00 457.00 L 504.70 457.50 L 501.40 457.80 L 495.20 459.40 L 486.30 463.30 Z" fill="#020303" fill-rule="nonzero" node-id="119" stroke="none" target-height="56.200012" target-width="108.60004" target-x="472.3" target-y="437.3"></path><path d="M 355.90 73.10 L 360.90 72.50 L 365.90 72.30 L 682.60 72.00 L 688.70 72.70 L 691.50 73.60 L 694.90 75.80 L 707.10 89.10 L 737.80 125.30 L 739.70 127.20 L 741.80 128.70 L 745.10 129.90 L 746.90 130.00 L 814.80 130.40 L 822.70 131.00 L 830.60 132.10 L 838.30 133.80 L 845.90 136.00 L 853.30 138.80 L 860.50 141.90 L 867.50 145.60 L 874.30 149.70 L 880.90 154.20 L 887.10 159.00 L 893.10 164.30 L 898.70 169.90 L 904.10 175.80 L 909.00 182.00 L 913.50 188.50 L 917.60 195.20 L 921.30 202.20 L 924.60 209.40 L 927.30 216.80 L 929.50 224.30 L 931.30 232.00 L 932.40 239.80 L 933.00 247.80 L 933.10 822.00 L 932.60 830.30 L 931.70 838.60 L 930.30 846.80 L 928.40 855.00 L 926.00 862.90 L 923.10 870.70 L 919.60 878.30 L 915.20 886.20 L 910.40 893.70 L 905.10 900.90 L 899.30 907.70 L 893.00 914.10 L 886.40 920.00 L 879.40 925.50 L 872.10 930.60 L 864.40 935.20 L 856.50 939.30 L 848.30 942.80 L 839.90 945.80 L 831.30 948.20 L 822.60 950.00 L 813.80 951.20 L 804.80 951.80 L 767.90 952.00 L 620.60 951.70 L 311.40 952.00 L 212.10 951.60 L 203.60 950.90 L 195.10 949.60 L 186.80 947.70 L 178.60 945.30 L 170.50 942.40 L 162.70 938.90 L 155.20 934.90 L 147.90 930.40 L 140.90 925.40 L 134.40 920.00 L 128.20 914.00 L 123.40 908.90 L 114.80 898.10 L 109.00 889.40 L 103.60 880.50 L 97.80 866.40 L 93.40 851.80 L 91.90 844.30 L 90.80 836.80 L 90.20 829.20 L 90.10 821.50 L 90.00 258.40 L 90.20 251.10 L 90.80 243.80 L 91.80 236.50 L 93.30 229.30 L 95.10 222.20 L 97.40 215.30 L 100.10 208.50 L 103.10 201.80 L 106.60 195.30 L 110.30 189.00 L 114.50 182.90 L 118.90 177.10 L 123.70 171.50 L 128.80 166.30 L 134.20 161.30 L 146.50 151.80 L 153.40 147.40 L 160.60 143.50 L 168.10 140.00 L 175.70 137.10 L 183.60 134.60 L 191.50 132.70 L 199.60 131.30 L 207.70 130.40 L 307.40 130.20 L 344.80 82.70 L 348.10 79.00 L 351.70 75.50 L 353.70 74.10 L 355.90 73.10 Z M 353.90 89.10 L 330.80 117.80 L 308.10 146.90 L 286.00 176.50 L 281.80 182.70 L 280.70 185.00 L 280.10 187.30 L 280.00 189.80 L 281.60 213.20 L 291.30 329.70 L 292.80 340.60 L 295.00 351.40 L 294.00 356.80 L 294.40 363.60 L 295.20 367.70 L 300.00 383.60 L 300.40 391.60 L 302.20 399.40 L 305.20 406.80 L 308.10 412.10 L 311.30 417.20 L 318.20 363.20 L 323.80 327.30 L 327.80 306.60 L 328.90 304.20 L 330.30 302.30 L 332.10 300.70 L 336.50 298.20 L 344.20 296.10 L 381.00 290.00 L 400.30 285.80 L 419.20 280.40 L 428.50 277.10 L 437.60 273.50 L 446.40 269.30 L 455.10 264.60 L 463.50 259.40 L 468.60 255.60 L 473.30 251.40 L 477.70 246.80 L 494.10 227.60 L 498.40 223.00 L 502.40 228.60 L 490.30 248.40 L 486.00 254.80 L 468.30 277.80 L 464.70 283.50 L 461.40 289.40 L 470.50 288.30 L 479.40 286.60 L 488.40 284.30 L 494.90 282.20 L 507.60 277.10 L 513.80 274.00 L 519.70 270.60 L 525.40 266.80 L 530.90 262.60 L 536.10 258.10 L 544.40 249.90 L 553.70 238.70 L 558.80 231.60 L 568.60 217.10 L 604.40 218.00 L 676.00 218.10 L 680.10 218.90 L 684.00 220.10 L 687.70 221.90 L 691.20 224.00 L 694.40 226.50 L 697.40 229.40 L 702.60 235.90 L 706.60 243.30 L 709.30 251.10 L 713.40 268.10 L 717.00 285.20 L 726.80 336.70 L 731.90 360.70 L 733.00 367.70 L 734.60 385.40 L 735.50 417.30 L 739.30 412.60 L 742.50 407.70 L 745.20 402.50 L 747.40 397.10 L 749.20 391.50 L 750.70 385.70 L 752.30 376.90 L 753.50 368.00 L 755.40 350.40 L 763.50 253.70 L 767.10 215.00 L 769.20 195.30 L 769.40 188.70 L 769.00 182.20 L 767.50 178.90 L 765.70 175.90 L 761.40 170.20 L 729.70 132.20 L 697.60 94.50 L 692.30 88.90 L 689.40 86.30 L 686.10 84.40 L 683.80 83.50 L 681.30 83.10 L 369.80 82.90 L 363.80 83.30 L 361.00 83.90 L 358.30 85.00 L 356.70 86.00 L 353.90 89.10 Z M 201.70 141.70 L 194.60 142.60 L 187.70 144.00 L 180.90 145.90 L 174.30 148.30 L 167.90 151.10 L 161.60 154.30 L 155.60 157.90 L 149.80 161.80 L 144.30 166.10 L 139.00 170.80 L 134.00 175.70 L 129.20 180.90 L 124.80 186.40 L 120.60 192.20 L 116.90 198.10 L 113.40 204.30 L 110.30 210.60 L 107.60 217.10 L 105.40 223.80 L 103.40 230.60 L 102.00 237.40 L 100.90 244.40 L 100.30 251.40 L 100.20 258.40 L 100.30 826.70 L 100.60 833.30 L 101.40 839.70 L 103.30 848.10 L 104.90 852.30 L 105.40 856.90 L 106.30 861.30 L 107.60 865.70 L 110.20 872.10 L 113.40 878.20 L 120.50 890.00 L 124.80 896.00 L 129.50 901.70 L 134.50 907.10 L 139.80 912.10 L 145.50 916.80 L 151.40 921.20 L 157.50 925.10 L 164.00 928.70 L 170.60 932.00 L 177.40 934.70 L 184.30 937.10 L 191.40 939.00 L 198.60 940.50 L 205.90 941.50 L 213.20 942.10 L 256.80 942.90 L 293.00 943.10 L 477.60 943.00 L 533.80 942.30 L 550.00 942.80 L 566.20 942.80 L 614.90 942.00 L 649.10 942.00 L 703.10 943.00 L 721.00 942.90 L 754.20 942.10 L 799.60 942.20 L 808.00 942.00 L 816.30 941.20 L 824.60 939.80 L 832.70 937.90 L 840.70 935.30 L 848.50 932.20 L 856.10 928.60 L 863.50 924.60 L 870.50 920.00 L 877.30 915.00 L 883.70 909.70 L 889.80 903.90 L 896.70 896.20 L 899.90 892.10 L 902.80 887.80 L 905.90 881.60 L 907.00 878.30 L 910.70 872.70 L 913.80 866.90 L 916.40 860.80 L 918.50 854.50 L 920.10 848.00 L 921.30 841.40 L 922.10 834.80 L 922.70 821.50 L 922.90 782.80 L 922.50 744.10 L 922.90 714.40 L 922.60 243.60 L 921.80 236.70 L 920.50 229.90 L 916.70 216.60 L 914.20 210.10 L 910.80 203.10 L 906.90 196.30 L 902.60 189.90 L 897.80 183.70 L 892.70 177.90 L 887.20 172.40 L 881.40 167.20 L 875.20 162.50 L 868.80 158.10 L 862.10 154.10 L 855.20 150.60 L 848.10 147.50 L 840.80 144.90 L 833.30 142.80 L 825.70 141.30 L 818.00 140.20 L 795.40 139.30 L 750.20 139.80 L 756.50 148.90 L 758.80 151.60 L 762.50 154.60 L 764.70 155.60 L 768.50 161.80 L 772.90 167.60 L 776.60 170.60 L 778.80 171.80 L 785.30 172.20 L 805.10 172.30 L 811.70 172.80 L 818.20 173.90 L 824.10 175.50 L 829.80 177.40 L 835.40 179.80 L 840.90 182.50 L 846.10 185.60 L 856.00 192.60 L 860.60 196.60 L 869.00 205.40 L 876.20 215.20 L 879.30 220.40 L 882.10 225.80 L 884.50 231.30 L 886.50 237.00 L 888.10 242.80 L 889.30 248.80 L 890.10 254.80 L 890.40 260.90 L 890.70 808.50 L 890.30 823.90 L 889.30 831.10 L 887.70 838.20 L 885.50 845.10 L 882.80 851.90 L 879.50 858.40 L 875.80 864.60 L 871.70 870.60 L 867.20 876.30 L 862.30 881.70 L 857.70 886.00 L 852.80 889.90 L 847.70 893.40 L 842.30 896.70 L 836.70 899.60 L 831.00 902.10 L 825.20 904.20 L 819.10 906.00 L 813.00 907.40 L 806.80 908.40 L 800.60 908.90 L 559.20 909.20 L 324.00 909.10 L 269.50 908.00 L 242.30 907.80 L 215.00 908.30 L 209.00 907.30 L 197.30 904.20 L 186.00 899.60 L 180.60 896.80 L 170.40 890.20 L 165.70 886.40 L 161.20 882.30 L 157.10 877.90 L 149.40 868.20 L 146.10 863.00 L 143.20 857.60 L 140.70 852.00 L 136.70 840.30 L 135.20 834.30 L 133.20 822.10 L 132.70 696.80 L 133.00 571.60 L 132.60 256.40 L 139.20 234.10 L 141.20 228.70 L 143.50 223.40 L 147.10 217.00 L 151.10 210.90 L 155.60 205.20 L 160.60 199.80 L 165.90 194.80 L 171.60 190.30 L 177.70 186.20 L 184.00 182.60 L 190.70 179.60 L 197.50 177.00 L 204.50 175.10 L 211.70 173.70 L 221.50 172.90 L 231.40 172.60 L 260.90 172.60 L 272.90 172.10 L 274.80 171.40 L 278.20 169.10 L 281.00 166.10 L 287.80 157.60 L 294.20 148.90 L 300.30 139.90 L 250.90 139.20 L 234.50 139.40 L 212.60 140.60 L 201.70 141.70 Z M 186.30 192.50 L 180.70 195.70 L 175.50 199.30 L 170.60 203.30 L 166.10 207.70 L 161.90 212.50 L 158.10 217.50 L 154.70 222.80 L 151.60 228.50 L 149.10 234.30 L 146.90 240.30 L 145.30 246.30 L 144.00 252.60 L 143.10 260.10 L 142.50 267.60 L 142.00 324.50 L 142.40 337.70 L 143.10 351.00 L 142.90 367.60 L 143.10 384.10 L 142.80 463.10 L 143.20 585.20 L 142.50 602.20 L 142.20 619.20 L 142.30 718.80 L 142.50 734.60 L 143.20 750.40 L 142.70 765.20 L 142.80 800.10 L 143.30 819.00 L 144.00 825.80 L 145.20 832.50 L 147.00 839.20 L 149.30 845.70 L 152.00 852.00 L 155.30 858.00 L 159.00 863.80 L 163.10 869.30 L 167.70 874.40 L 172.70 879.10 L 178.10 883.40 L 183.90 887.20 L 189.70 890.30 L 195.70 892.90 L 201.80 894.80 L 208.10 896.20 L 214.40 897.30 L 220.90 897.90 L 230.80 898.30 L 260.10 897.70 L 298.60 898.30 L 414.10 898.30 L 412.40 879.70 L 410.10 859.20 L 408.60 856.00 L 401.20 847.70 L 399.70 844.50 L 399.30 842.70 L 398.30 830.40 L 397.50 812.00 L 396.10 795.70 L 395.10 754.90 L 394.30 744.80 L 388.50 742.00 L 385.40 741.20 L 382.30 741.10 L 380.30 741.40 L 378.30 742.10 L 370.80 747.10 L 360.90 753.10 L 352.60 756.70 L 348.30 758.10 L 343.80 759.00 L 334.80 759.80 L 330.50 759.70 L 326.30 759.00 L 320.10 757.50 L 314.00 755.40 L 302.00 750.90 L 296.10 743.30 L 289.70 736.10 L 287.20 730.90 L 285.30 725.60 L 283.80 720.30 L 282.80 714.90 L 282.10 703.90 L 283.00 692.80 L 284.40 685.50 L 286.30 678.20 L 288.80 671.10 L 291.70 664.20 L 295.00 657.50 L 309.80 632.60 L 332.30 602.70 L 336.30 600.00 L 338.10 598.10 L 347.30 585.70 L 351.00 583.30 L 354.30 580.30 L 355.60 578.60 L 356.40 576.60 L 395.60 546.90 L 400.40 542.00 L 403.30 537.70 L 405.90 533.20 L 389.10 532.80 L 380.60 532.30 L 372.30 531.40 L 361.40 529.20 L 356.00 527.60 L 348.20 522.60 L 333.20 512.10 L 327.40 501.80 L 321.20 491.70 L 317.10 480.20 L 313.80 465.30 L 312.40 456.30 L 311.60 432.70 L 300.90 423.40 L 299.20 416.60 L 296.90 410.00 L 285.60 384.20 L 284.30 354.20 L 281.40 336.40 L 280.70 330.10 L 276.90 263.80 L 270.90 194.70 L 271.10 183.10 L 249.50 182.00 L 238.60 181.70 L 227.80 182.00 L 220.60 182.50 L 213.50 183.50 L 206.50 184.90 L 199.60 186.80 L 192.90 189.40 L 186.30 192.50 Z M 780.20 183.00 L 780.20 193.90 L 779.60 204.90 L 778.50 215.80 L 776.70 224.60 L 775.40 233.50 L 774.40 242.40 L 773.80 251.30 L 773.50 271.40 L 772.30 276.00 L 770.80 285.30 L 770.20 292.30 L 769.30 311.80 L 768.20 324.10 L 766.70 336.40 L 767.60 351.50 L 765.20 351.50 L 764.50 363.20 L 763.30 374.80 L 760.20 398.00 L 743.70 426.20 L 739.70 430.40 L 738.20 432.80 L 736.40 436.60 L 735.10 440.80 L 734.40 464.40 L 731.60 476.00 L 729.30 487.80 L 721.30 499.70 L 713.80 511.90 L 695.00 523.80 L 688.50 527.30 L 675.70 533.20 L 672.40 531.20 L 667.60 530.50 L 654.80 531.80 L 651.90 531.80 L 650.50 547.70 L 673.40 564.50 L 675.80 568.50 L 677.30 570.30 L 688.30 579.60 L 689.00 581.60 L 690.10 583.20 L 691.80 584.50 L 694.10 585.50 L 700.90 593.90 L 708.10 602.00 L 733.00 632.80 L 737.90 641.30 L 747.20 655.80 L 750.80 662.30 L 754.10 669.20 L 757.00 676.30 L 759.30 683.50 L 761.00 690.90 L 761.90 696.50 L 762.40 702.10 L 762.40 707.60 L 762.00 713.20 L 761.20 718.60 L 759.80 724.00 L 757.90 729.40 L 755.40 734.70 L 742.30 751.00 L 727.90 756.80 L 719.70 759.20 L 716.30 759.70 L 708.10 759.90 L 703.50 759.50 L 699.00 758.70 L 690.20 756.00 L 686.00 754.20 L 677.90 749.60 L 671.80 745.50 L 669.50 744.40 L 667.00 743.90 L 663.10 743.60 L 651.10 744.10 L 648.70 796.70 L 645.40 849.30 L 635.30 856.70 L 632.90 884.50 L 632.30 898.50 L 791.70 898.70 L 805.80 898.00 L 812.70 897.10 L 821.80 894.90 L 826.30 893.30 L 832.70 890.50 L 838.90 887.20 L 844.70 883.40 L 850.20 879.10 L 855.30 874.40 L 860.00 869.20 L 864.30 863.70 L 868.20 857.90 L 871.60 851.90 L 874.60 845.50 L 877.10 839.00 L 879.00 832.30 L 880.90 819.50 L 881.80 803.30 L 882.00 765.10 L 881.20 747.00 L 880.40 738.00 L 880.30 693.90 L 880.60 630.90 L 880.20 616.40 L 880.60 601.90 L 880.40 564.70 L 880.50 544.20 L 881.10 529.90 L 880.70 507.10 L 881.60 438.40 L 881.60 415.50 L 881.00 392.60 L 881.60 364.70 L 880.60 337.80 L 882.00 286.00 L 881.80 273.10 L 881.20 264.60 L 880.20 256.00 L 878.70 247.50 L 874.90 235.10 L 872.30 229.10 L 869.40 223.30 L 866.10 217.70 L 862.40 212.40 L 858.20 207.50 L 853.60 203.00 L 843.60 195.30 L 838.50 192.10 L 833.20 189.40 L 827.60 187.10 L 821.90 185.20 L 816.10 183.60 L 810.20 182.50 L 804.20 181.80 L 792.20 181.60 L 780.20 183.00 Z M 568.10 237.60 L 562.90 245.40 L 557.20 252.80 L 551.00 259.80 L 546.10 264.80 L 541.00 269.50 L 535.50 273.90 L 523.30 282.80 L 521.50 284.90 L 495.70 293.30 L 487.00 295.70 L 469.40 299.70 L 460.50 301.10 L 451.50 302.00 L 442.40 302.40 L 448.40 281.50 L 415.80 293.00 L 397.50 297.90 L 374.00 302.40 L 338.50 307.80 L 334.70 326.50 L 327.10 379.90 L 325.30 394.60 L 324.00 414.20 L 323.80 446.80 L 324.50 462.00 L 325.50 469.40 L 326.50 474.30 L 329.70 483.90 L 332.20 489.50 L 335.20 494.70 L 338.80 499.60 L 342.80 504.10 L 347.30 508.10 L 352.10 511.80 L 357.30 514.90 L 362.70 517.50 L 368.40 519.60 L 372.80 520.80 L 381.70 522.10 L 386.30 522.20 L 523.20 522.10 L 547.10 521.30 L 571.00 521.00 L 642.70 520.90 L 666.60 520.40 L 671.40 519.90 L 680.80 517.80 L 689.80 514.20 L 694.00 511.90 L 701.90 506.30 L 705.40 503.10 L 708.70 499.50 L 711.60 495.70 L 714.20 491.60 L 716.90 486.00 L 719.20 480.20 L 721.00 474.30 L 723.50 462.20 L 724.20 456.00 L 724.70 446.60 L 724.70 414.60 L 724.20 391.80 L 723.40 380.50 L 721.90 369.30 L 720.60 361.90 L 718.80 354.50 L 716.70 347.20 L 713.40 325.10 L 701.40 263.70 L 700.10 257.80 L 698.40 252.10 L 696.10 246.70 L 694.30 243.30 L 692.00 240.10 L 689.30 237.10 L 686.80 234.60 L 684.00 232.60 L 680.90 230.90 L 677.70 229.60 L 674.30 229.00 L 601.50 228.80 L 576.80 229.10 L 574.00 230.30 L 572.30 231.80 L 568.10 237.60 Z M 439.20 533.10 L 440.00 545.30 L 440.70 551.40 L 441.90 557.40 L 445.50 571.40 L 450.00 585.10 L 452.80 591.70 L 456.20 598.20 L 487.10 577.70 L 479.90 568.00 L 473.70 557.60 L 466.40 533.40 L 439.20 533.10 Z M 478.20 532.90 L 479.60 540.20 L 481.50 547.40 L 484.00 554.40 L 487.20 558.40 L 490.70 562.10 L 494.60 565.40 L 500.80 569.90 L 507.40 574.00 L 521.10 581.00 L 532.60 576.10 L 538.40 573.30 L 547.30 567.70 L 553.60 562.20 L 556.20 559.10 L 558.50 555.60 L 560.50 551.80 L 564.80 533.30 L 543.20 532.70 L 478.20 532.90 Z M 575.40 533.40 L 573.10 542.40 L 570.30 551.30 L 564.10 568.90 L 558.60 572.90 L 558.00 578.50 L 589.80 595.80 L 594.20 579.30 L 596.10 571.00 L 597.60 562.60 L 598.40 551.30 L 597.50 532.90 L 575.40 533.40 Z M 416.60 534.80 L 413.40 541.90 L 410.70 549.10 L 408.40 556.40 L 406.50 563.80 L 404.50 573.80 L 403.00 583.90 L 402.00 594.10 L 401.10 614.70 L 401.50 640.50 L 403.20 681.90 L 403.40 734.40 L 413.30 735.70 L 413.70 730.20 L 413.70 707.90 L 414.80 698.90 L 417.20 691.90 L 424.10 690.70 L 427.70 690.60 L 444.00 692.00 L 449.40 692.20 L 450.20 674.50 L 450.40 656.80 L 450.00 639.10 L 449.00 621.40 L 448.30 615.10 L 447.00 609.00 L 443.30 596.90 L 436.90 579.10 L 433.30 567.00 L 426.50 536.20 L 416.60 534.80 Z M 609.30 533.10 L 609.00 553.80 L 608.40 560.70 L 606.60 574.30 L 605.10 581.00 L 603.20 587.60 L 598.80 600.00 L 597.10 605.80 L 595.80 611.70 L 594.50 620.70 L 593.80 629.70 L 593.50 638.90 L 593.50 666.30 L 594.10 679.00 L 595.20 691.60 L 612.40 690.80 L 629.50 691.10 L 630.40 735.70 L 640.70 734.70 L 641.60 716.30 L 643.10 661.00 L 643.80 642.60 L 645.00 624.20 L 645.20 613.70 L 645.00 603.30 L 644.30 592.90 L 643.20 582.50 L 641.70 572.20 L 639.70 562.00 L 637.30 551.80 L 634.50 541.80 L 631.20 538.70 L 626.30 536.20 L 619.50 534.60 L 609.30 533.10 Z M 318.20 640.20 L 312.50 648.80 L 307.10 657.70 L 300.90 670.10 L 298.30 676.50 L 296.10 683.10 L 294.50 689.70 L 293.30 696.40 L 292.60 706.60 L 293.50 717.10 L 299.20 729.40 L 303.40 735.60 L 307.80 739.70 L 312.20 742.50 L 316.80 744.80 L 321.70 746.60 L 326.80 747.90 L 331.90 748.50 L 337.10 748.60 L 344.80 747.50 L 352.30 745.00 L 357.70 742.20 L 362.80 738.90 L 367.50 735.00 L 375.90 726.40 L 385.20 714.20 L 391.40 705.10 L 392.70 701.80 L 393.00 699.10 L 392.50 690.80 L 392.60 683.60 L 392.30 676.50 L 390.90 655.00 L 390.60 612.30 L 390.90 600.50 L 391.80 590.40 L 396.00 560.20 L 385.90 567.50 L 376.20 575.30 L 366.90 583.60 L 357.90 592.20 L 349.30 601.20 L 341.00 610.60 L 333.10 620.30 L 318.20 640.20 Z M 650.90 562.10 L 653.00 575.80 L 654.50 589.70 L 655.30 598.90 L 655.90 617.40 L 655.70 626.70 L 655.10 635.90 L 654.00 645.20 L 655.00 649.30 L 653.90 662.70 L 653.30 676.20 L 653.10 703.20 L 657.40 711.00 L 664.30 720.00 L 678.20 735.00 L 681.70 738.40 L 685.60 741.40 L 689.80 743.90 L 694.20 745.90 L 698.80 747.40 L 703.60 748.50 L 708.50 749.00 L 713.30 748.90 L 718.10 748.40 L 722.80 747.20 L 727.40 745.50 L 734.70 741.30 L 739.80 736.70 L 743.00 732.70 L 745.80 728.30 L 750.50 719.00 L 751.10 703.20 L 750.90 698.00 L 750.10 692.80 L 746.30 680.30 L 743.40 673.00 L 740.10 665.90 L 732.50 652.30 L 721.50 636.00 L 714.40 626.60 L 699.40 608.50 L 684.20 592.00 L 676.40 583.90 L 668.30 576.20 L 656.90 566.50 L 650.90 562.10 Z M 496.10 579.20 L 493.00 586.40 L 490.60 589.80 L 489.30 590.90 L 480.20 596.00 L 472.80 600.60 L 465.70 605.50 L 458.80 610.80 L 460.10 623.30 L 460.80 635.80 L 461.00 686.10 L 470.60 686.00 L 509.10 686.60 L 518.80 686.40 L 517.30 659.50 L 517.00 646.00 L 517.10 632.50 L 517.70 619.10 L 518.60 605.70 L 518.40 595.80 L 517.00 591.10 L 513.80 588.60 L 507.00 584.30 L 496.10 579.20 Z M 527.40 589.50 L 525.20 654.30 L 525.20 686.70 L 564.70 685.50 L 584.50 685.60 L 584.40 670.40 L 583.00 647.60 L 582.90 640.00 L 583.00 634.30 L 584.80 605.90 L 568.30 596.60 L 559.90 592.20 L 551.20 588.30 L 549.10 578.50 L 541.70 581.90 L 527.40 589.50 Z M 468.90 697.30 L 469.00 739.20 L 522.80 739.00 L 576.70 739.20 L 576.70 696.70 L 538.60 697.20 L 513.20 698.30 L 478.40 697.10 L 468.90 697.30 Z M 422.80 702.60 L 422.30 727.40 L 423.00 752.20 L 459.10 752.10 L 459.00 703.90 L 440.90 702.40 L 422.80 702.60 Z M 585.70 702.60 L 585.70 751.70 L 609.40 751.90 L 621.20 751.60 L 621.50 726.80 L 621.30 702.10 L 585.70 702.60 Z M 383.00 735.10 L 395.20 735.10 L 392.20 721.90 L 383.00 735.10 Z M 652.30 722.30 L 650.50 735.70 L 663.30 737.50 L 661.50 733.00 L 659.00 729.00 L 654.90 724.30 L 652.30 722.30 Z M 405.90 745.70 L 405.60 761.70 L 405.80 777.70 L 406.40 793.60 L 409.20 841.50 L 414.30 843.30 L 424.90 845.80 L 432.90 846.90 L 441.00 847.60 L 440.60 804.90 L 440.10 783.60 L 438.90 762.30 L 426.50 762.00 L 414.10 761.40 L 412.50 752.50 L 410.40 743.80 L 405.90 745.70 Z M 628.10 761.50 L 622.10 762.20 L 603.80 762.60 L 602.90 847.60 L 618.80 845.90 L 634.60 843.10 L 637.00 815.20 L 637.80 801.30 L 638.20 781.60 L 639.70 764.30 L 639.80 758.50 L 639.50 752.90 L 638.80 749.20 L 637.80 745.50 L 636.30 741.80 L 634.80 744.10 L 633.70 746.60 L 630.90 757.10 L 629.80 759.50 L 628.10 761.50 Z M 464.40 760.90 L 457.30 761.90 L 450.20 762.50 L 450.80 811.60 L 459.40 812.10 L 468.00 812.10 L 476.50 811.60 L 485.10 810.70 L 485.20 794.90 L 486.10 779.20 L 522.90 778.70 L 541.30 779.00 L 559.70 780.00 L 560.90 795.50 L 561.30 811.20 L 577.30 812.40 L 593.30 812.90 L 593.50 762.50 L 579.20 761.60 L 575.20 751.00 L 557.90 750.10 L 540.50 749.70 L 470.90 749.70 L 466.40 758.40 L 464.40 760.90 Z M 495.30 790.30 L 494.10 809.70 L 492.50 815.70 L 490.10 820.20 L 486.00 821.40 L 481.80 822.20 L 477.60 822.60 L 452.00 822.60 L 450.90 850.40 L 450.20 859.70 L 421.30 856.20 L 422.00 876.40 L 422.50 883.10 L 423.40 889.70 L 424.90 896.30 L 428.50 897.40 L 432.10 898.00 L 439.50 898.40 L 485.30 898.30 L 504.50 897.30 L 510.60 861.90 L 513.30 844.20 L 515.50 826.40 L 517.30 808.50 L 518.40 790.60 L 495.30 790.30 Z M 529.10 790.00 L 528.70 802.10 L 528.90 814.10 L 529.60 826.10 L 530.60 838.00 L 533.70 861.80 L 539.40 897.40 L 552.90 898.30 L 580.00 898.80 L 620.60 897.70 L 623.60 877.30 L 624.50 867.00 L 624.80 856.70 L 609.80 857.30 L 594.70 857.50 L 592.90 846.30 L 591.80 823.70 L 572.60 822.30 L 553.40 820.30 L 551.30 800.40 L 550.80 790.40 L 540.00 789.90 L 529.10 790.00 Z M 523.10 847.40 L 519.90 864.20 L 517.10 881.10 L 516.20 889.60 L 515.70 898.20 L 528.10 898.40 L 527.20 881.40 L 523.10 847.40 Z" fill="#040504" fill-rule="nonzero" node-id="121" stroke="none" target-height="880" target-width="843.1" target-x="90" target-y="72"></path><path d="M 353.90 89.10 L 356.70 86.00 L 358.30 85.00 L 361.00 83.90 L 363.80 83.30 L 369.80 82.90 L 681.30 83.10 L 683.80 83.50 L 686.10 84.40 L 689.40 86.30 L 692.30 88.90 L 697.60 94.50 L 729.70 132.20 L 761.40 170.20 L 765.70 175.90 L 767.50 178.90 L 769.00 182.20 L 769.40 188.70 L 769.20 195.30 L 767.10 215.00 L 763.50 253.70 L 755.40 350.40 L 748.70 365.50 L 746.50 357.00 L 745.60 346.20 L 745.70 339.70 L 747.60 313.60 L 748.50 291.90 L 748.90 270.20 L 748.90 226.70 L 748.80 220.50 L 748.20 214.30 L 747.20 208.20 L 745.70 202.20 L 743.70 196.40 L 741.20 190.70 L 733.70 176.20 L 725.70 162.00 L 717.20 148.10 L 708.40 134.40 L 690.00 107.40 L 682.40 97.60 L 677.40 93.00 L 672.60 90.30 L 667.50 89.30 L 662.40 88.80 L 652.00 88.80 L 641.70 89.20 L 524.60 96.80 L 485.60 99.60 L 400.30 106.90 L 370.90 108.80 L 360.90 110.40 L 358.40 111.50 L 356.10 112.90 L 353.00 115.50 L 350.10 118.50 L 344.90 125.00 L 303.80 178.50 L 301.20 182.20 L 299.10 186.00 L 297.30 190.10 L 296.00 194.30 L 295.30 198.60 L 295.10 203.10 L 295.40 220.70 L 298.60 290.90 L 299.60 330.30 L 299.40 335.80 L 298.60 341.10 L 296.60 348.00 L 295.00 351.40 L 292.80 340.60 L 291.30 329.70 L 281.60 213.20 L 280.00 189.80 L 280.10 187.30 L 280.70 185.00 L 281.80 182.70 L 286.00 176.50 L 308.10 146.90 L 330.80 117.80 L 353.90 89.10 Z" fill="#a8775f" fill-rule="nonzero" node-id="123" stroke="none" target-height="282.6" target-width="489.40002" target-x="280" target-y="82.9"></path><path d="M 407.60 106.30 L 485.60 99.60 L 524.60 96.80 L 641.70 89.20 L 657.20 88.70 L 667.50 89.30 L 672.60 90.30 L 675.10 91.50 L 679.50 94.70 L 685.00 100.80 L 690.00 107.40 L 699.30 120.80 L 717.20 148.10 L 725.70 162.00 L 733.70 176.20 L 741.20 190.70 L 743.70 196.40 L 745.70 202.20 L 747.20 208.20 L 748.20 214.30 L 748.80 220.50 L 748.90 226.70 L 748.90 270.20 L 748.50 291.90 L 747.60 313.60 L 745.70 339.70 L 745.60 346.20 L 746.00 352.70 L 747.40 361.20 L 748.70 365.50 L 755.40 350.40 L 752.30 376.90 L 750.70 385.70 L 749.20 391.50 L 747.40 397.10 L 745.20 402.50 L 742.50 407.70 L 739.30 412.60 L 735.50 417.30 L 734.60 385.40 L 733.80 374.80 L 731.90 360.70 L 726.80 336.70 L 717.00 285.20 L 713.40 268.10 L 709.30 251.10 L 706.60 243.30 L 704.70 239.50 L 700.20 232.60 L 694.40 226.50 L 691.20 224.00 L 687.70 221.90 L 684.00 220.10 L 680.10 218.90 L 676.00 218.10 L 604.40 218.00 L 568.60 217.10 L 558.90 231.60 L 548.30 245.50 L 540.40 254.10 L 536.10 258.10 L 530.90 262.60 L 525.40 266.80 L 519.70 270.60 L 513.80 274.00 L 507.60 277.10 L 494.90 282.20 L 488.40 284.30 L 479.40 286.60 L 470.50 288.30 L 461.40 289.40 L 464.70 283.50 L 468.30 277.80 L 472.30 272.30 L 481.40 261.00 L 490.30 248.40 L 505.90 222.90 L 511.80 210.90 L 514.30 204.80 L 518.20 192.00 L 508.90 195.20 L 504.60 197.30 L 498.20 200.80 L 486.30 209.10 L 460.90 228.80 L 452.50 234.40 L 443.70 239.60 L 434.70 244.30 L 425.40 248.50 L 416.00 252.20 L 406.30 255.30 L 396.50 258.00 L 384.90 260.70 L 373.30 262.90 L 361.50 264.70 L 314.40 270.10 L 302.70 271.80 L 301.70 346.40 L 301.10 365.00 L 300.00 383.60 L 295.20 367.70 L 294.40 363.60 L 294.00 359.50 L 294.30 354.10 L 295.00 351.40 L 296.60 348.00 L 298.60 341.10 L 299.40 335.80 L 299.60 330.30 L 298.60 290.90 L 295.40 220.70 L 295.10 203.10 L 295.30 198.60 L 296.00 194.30 L 297.30 190.10 L 299.10 186.00 L 301.20 182.20 L 313.90 165.00 L 350.10 118.50 L 353.00 115.50 L 356.10 112.90 L 358.40 111.50 L 360.90 110.40 L 370.90 108.80 L 407.60 106.30 Z" fill="#87513a" fill-rule="nonzero" node-id="125" stroke="none" target-height="328.59998" target-width="461.40002" target-x="294" target-y="88.7"></path><path d="M 492.90 653.20 L 494.80 650.20 L 497.00 647.60 L 502.10 642.80 L 509.20 649.20 L 510.70 651.10 L 511.60 653.10 L 512.10 656.10 L 511.70 659.90 L 510.30 663.30 L 508.60 665.40 L 506.30 667.10 L 503.80 668.40 L 501.10 669.20 L 496.50 661.40 L 494.50 657.40 L 492.90 653.20 Z M 505.40 664.40 L 506.00 659.70 L 506.00 654.90 L 505.60 650.20 L 502.50 651.80 L 501.60 652.80 L 500.60 655.40 L 501.10 659.00 L 502.10 661.10 L 503.60 663.00 L 505.40 664.40 Z" fill="#090a0a" fill-rule="nonzero" node-id="127" stroke="none" target-height="26.400024" target-width="19.199982" target-x="492.9" target-y="642.8"></path><path d="M 534.50 648.60 L 535.70 646.90 L 537.10 645.90 L 538.50 645.30 L 540.90 645.10 L 543.50 645.50 L 548.70 646.90 L 548.80 649.50 L 548.20 654.60 L 545.60 661.90 L 542.20 669.00 L 537.30 665.10 L 535.10 662.60 L 533.30 660.00 L 532.50 658.20 L 531.90 654.40 L 532.20 652.50 L 533.00 650.60 L 534.50 648.60 Z M 537.00 651.80 L 538.70 662.80 L 541.00 661.40 L 542.80 659.90 L 544.20 658.10 L 545.10 656.10 L 545.50 653.80 L 545.30 651.10 L 537.00 651.80 Z" fill="#090a0a" fill-rule="nonzero" node-id="129" stroke="none" target-height="23.900024" target-width="16.899963" target-x="531.9" target-y="645.1"></path><path d="M 201.70 141.70 L 212.60 140.60 L 234.50 139.40 L 250.90 139.20 L 300.30 139.90 L 294.20 148.90 L 287.80 157.60 L 281.00 166.10 L 278.20 169.10 L 274.80 171.40 L 272.90 172.10 L 260.90 172.60 L 231.40 172.60 L 221.50 172.90 L 211.70 173.70 L 204.50 175.10 L 197.50 177.00 L 190.70 179.60 L 184.00 182.60 L 177.70 186.20 L 171.60 190.30 L 165.90 194.80 L 160.60 199.80 L 155.60 205.20 L 151.10 210.90 L 147.10 217.00 L 143.50 223.40 L 141.20 228.70 L 139.20 234.10 L 132.60 256.40 L 130.20 248.20 L 128.00 257.20 L 123.20 251.30 L 123.30 269.70 L 122.00 288.00 L 120.50 265.00 L 120.20 253.50 L 120.20 242.00 L 121.80 234.60 L 123.90 227.40 L 126.50 220.30 L 129.60 213.50 L 133.30 206.90 L 137.30 200.50 L 141.80 194.50 L 146.70 188.80 L 152.00 183.40 L 157.70 178.50 L 163.60 174.00 L 169.90 169.90 L 176.50 166.30 L 183.40 163.30 L 190.50 160.80 L 197.80 158.90 L 203.80 157.70 L 209.80 157.10 L 234.00 157.40 L 240.00 157.20 L 246.00 156.50 L 258.70 152.30 L 277.50 144.80 L 283.80 142.60 L 263.30 142.00 L 201.70 141.70 Z" fill="#bb503d" fill-rule="nonzero" node-id="131" stroke="none" target-height="148.8" target-width="180.09999" target-x="120.2" target-y="139.2"></path><path d="M 750.20 139.80 L 795.40 139.30 L 818.00 140.20 L 825.70 141.30 L 833.30 142.80 L 840.80 144.90 L 848.10 147.50 L 855.20 150.60 L 862.10 154.10 L 868.80 158.10 L 875.20 162.50 L 881.40 167.20 L 887.20 172.40 L 892.70 177.90 L 897.80 183.70 L 902.60 189.90 L 906.90 196.30 L 910.80 203.10 L 914.20 210.10 L 907.60 218.50 L 896.10 209.40 L 897.30 213.50 L 892.10 206.00 L 886.50 198.80 L 880.50 191.90 L 874.10 185.40 L 867.30 179.40 L 860.20 173.90 L 854.50 170.10 L 848.60 166.70 L 842.50 163.60 L 836.10 160.90 L 830.40 158.90 L 824.60 157.40 L 818.70 156.30 L 809.80 155.20 L 800.80 154.80 L 764.70 155.60 L 762.50 154.60 L 758.80 151.60 L 756.50 148.90 L 750.20 139.80 Z" fill="#da674d" fill-rule="nonzero" node-id="133" stroke="none" target-height="79.2" target-width="164" target-x="750.2" target-y="139.3"></path><path d="M 100.20 258.40 L 100.30 251.40 L 100.90 244.40 L 102.00 237.40 L 103.40 230.60 L 105.40 223.80 L 107.60 217.10 L 110.30 210.60 L 113.40 204.30 L 116.90 198.10 L 120.60 192.20 L 124.80 186.40 L 129.20 180.90 L 134.00 175.70 L 139.00 170.80 L 144.30 166.10 L 149.80 161.80 L 155.60 157.90 L 161.60 154.30 L 167.90 151.10 L 174.30 148.30 L 180.90 145.90 L 187.70 144.00 L 194.60 142.60 L 201.70 141.70 L 263.30 142.00 L 283.80 142.60 L 277.50 144.80 L 258.70 152.30 L 246.00 156.50 L 240.00 157.20 L 234.00 157.40 L 215.80 157.00 L 209.80 157.10 L 203.80 157.70 L 197.80 158.90 L 190.50 160.80 L 183.40 163.30 L 176.50 166.30 L 169.90 169.90 L 163.60 174.00 L 157.70 178.50 L 152.00 183.40 L 146.70 188.80 L 141.80 194.50 L 137.30 200.50 L 133.30 206.80 L 129.60 213.50 L 126.50 220.30 L 123.90 227.40 L 121.80 234.60 L 119.00 247.90 L 117.60 259.80 L 117.10 277.70 L 117.70 304.70 L 117.80 345.30 L 117.10 361.10 L 116.70 364.00 L 115.00 369.60 L 110.90 377.40 L 106.20 384.90 L 111.70 392.80 L 114.20 397.00 L 116.10 401.30 L 117.70 407.50 L 118.00 410.80 L 118.40 479.90 L 118.20 687.30 L 118.50 715.20 L 118.10 722.10 L 117.20 729.00 L 116.00 731.90 L 112.90 737.10 L 110.00 740.60 L 100.50 750.60 L 100.20 258.40 Z" fill="#db654c" fill-rule="nonzero" node-id="135" stroke="none" target-height="608.89996" target-width="183.59999" target-x="100.2" target-y="141.7"></path><path d="M 764.70 155.60 L 800.80 154.80 L 809.80 155.20 L 818.70 156.30 L 824.60 157.40 L 830.40 158.90 L 836.10 160.90 L 842.50 163.60 L 848.60 166.70 L 854.50 170.10 L 860.20 173.90 L 867.30 179.40 L 874.10 185.40 L 880.50 191.90 L 886.50 198.80 L 892.10 206.00 L 897.30 213.50 L 903.10 229.70 L 905.40 238.00 L 907.10 246.50 L 908.30 257.80 L 908.00 332.10 L 907.20 366.30 L 908.00 378.40 L 908.30 390.50 L 908.20 402.60 L 907.60 414.70 L 906.60 426.80 L 907.00 616.30 L 906.30 711.10 L 907.10 724.30 L 908.80 730.60 L 910.60 733.30 L 912.70 735.70 L 922.50 744.10 L 922.90 782.80 L 922.60 828.10 L 921.30 841.40 L 920.10 848.00 L 918.50 854.50 L 916.40 860.80 L 913.80 866.90 L 910.70 872.70 L 907.00 878.30 L 909.70 865.10 L 910.50 858.40 L 910.80 851.80 L 910.50 847.30 L 909.80 842.90 L 908.60 838.50 L 908.60 826.30 L 909.70 789.60 L 909.20 773.40 L 908.30 765.20 L 890.60 762.20 L 890.40 260.90 L 890.10 254.80 L 889.30 248.80 L 888.10 242.80 L 886.50 237.00 L 884.50 231.30 L 882.10 225.80 L 879.30 220.40 L 876.20 215.20 L 872.70 210.20 L 864.90 200.90 L 856.00 192.60 L 851.20 188.90 L 840.90 182.50 L 835.40 179.80 L 829.80 177.40 L 824.10 175.50 L 818.20 173.90 L 811.70 172.80 L 805.10 172.30 L 785.30 172.20 L 778.80 171.80 L 776.60 170.60 L 772.90 167.60 L 768.50 161.80 L 764.70 155.60 Z" fill="#c35443" fill-rule="nonzero" node-id="137" stroke="none" target-height="723.5" target-width="158.20001" target-x="764.7" target-y="154.8"></path><path d="M 186.30 192.50 L 192.90 189.40 L 199.60 186.80 L 206.50 184.90 L 213.50 183.50 L 220.60 182.50 L 227.80 182.00 L 238.60 181.70 L 249.50 182.00 L 271.10 183.10 L 270.90 194.70 L 253.40 195.80 L 252.40 226.90 L 224.50 227.90 L 223.90 253.50 L 198.60 254.90 L 197.10 283.60 L 168.20 284.30 L 168.30 311.70 L 144.10 313.30 L 143.30 283.00 L 144.00 252.60 L 145.30 246.30 L 146.90 240.30 L 149.10 234.30 L 151.60 228.50 L 154.70 222.80 L 158.10 217.50 L 161.90 212.50 L 166.10 207.70 L 170.60 203.30 L 175.50 199.30 L 180.70 195.70 L 186.30 192.50 Z" fill="#bd7b9f" fill-rule="nonzero" node-id="139" stroke="none" target-height="131.59999" target-width="127.8" target-x="143.3" target-y="181.7"></path><path d="M 780.20 183.00 L 792.20 181.60 L 804.20 181.80 L 810.20 182.50 L 816.10 183.60 L 821.90 185.20 L 827.60 187.10 L 833.20 189.40 L 838.50 192.10 L 843.60 195.30 L 853.60 203.00 L 858.20 207.50 L 862.40 212.40 L 866.10 217.70 L 869.40 223.30 L 872.30 229.10 L 877.00 241.30 L 878.70 247.50 L 879.40 263.90 L 879.60 280.30 L 878.80 313.10 L 858.30 311.50 L 857.10 283.40 L 829.40 282.60 L 827.70 256.10 L 802.00 254.70 L 800.90 228.30 L 777.70 227.30 L 779.60 204.90 L 780.20 193.90 L 780.20 183.00 Z" fill="#be7ea0" fill-rule="nonzero" node-id="141" stroke="none" target-height="131.5" target-width="101.89996" target-x="777.7" target-y="181.6"></path><path d="M 469.10 222.70 L 486.30 209.10 L 492.20 204.80 L 498.20 200.80 L 504.60 197.30 L 513.50 193.50 L 518.20 192.00 L 516.40 198.50 L 511.80 210.90 L 505.90 222.90 L 502.40 228.60 L 498.40 223.00 L 494.10 227.60 L 477.70 246.80 L 473.30 251.40 L 468.60 255.60 L 463.50 259.40 L 455.10 264.60 L 446.40 269.30 L 437.60 273.50 L 428.50 277.10 L 419.20 280.40 L 409.80 283.30 L 390.70 288.10 L 381.00 290.00 L 351.80 294.80 L 340.20 297.00 L 334.10 299.30 L 330.30 302.30 L 328.90 304.20 L 327.80 306.60 L 323.80 327.30 L 318.20 363.20 L 311.30 417.20 L 308.10 412.10 L 303.60 403.10 L 301.20 395.50 L 300.00 387.70 L 301.70 346.40 L 302.70 271.80 L 314.40 270.10 L 361.50 264.70 L 373.30 262.90 L 384.90 260.70 L 406.30 255.30 L 416.00 252.20 L 425.40 248.50 L 434.70 244.30 L 443.70 239.60 L 452.50 234.40 L 460.90 228.80 L 469.10 222.70 Z" fill="#804b34" fill-rule="nonzero" node-id="143" stroke="none" target-height="225.20001" target-width="218.20001" target-x="300" target-y="192"></path><path d="M 253.40 195.80 L 270.90 194.70 L 276.90 263.80 L 278.10 281.10 L 278.80 298.40 L 211.10 298.40 L 211.20 336.20 L 281.40 336.40 L 284.30 354.20 L 278.00 352.90 L 265.30 351.60 L 255.70 351.30 L 226.80 351.60 L 226.80 366.40 L 225.80 410.80 L 225.80 425.60 L 226.10 440.40 L 255.70 441.10 L 270.40 440.80 L 285.20 440.00 L 285.60 384.20 L 294.10 403.50 L 299.20 416.60 L 300.90 423.40 L 300.50 439.70 L 309.60 439.50 L 311.60 432.70 L 312.40 456.30 L 269.00 456.70 L 225.70 456.70 L 225.20 469.40 L 225.30 482.00 L 226.00 494.60 L 309.40 494.90 L 316.10 493.80 L 321.20 491.70 L 327.40 501.80 L 333.20 512.10 L 303.30 512.10 L 303.40 585.00 L 325.30 585.80 L 347.30 585.70 L 338.10 598.10 L 336.30 600.00 L 332.30 602.70 L 315.90 601.30 L 307.70 601.00 L 260.60 601.10 L 143.70 600.50 L 143.50 616.60 L 143.70 632.60 L 309.80 632.60 L 304.40 642.00 L 298.60 651.10 L 290.60 650.00 L 282.50 649.20 L 274.50 648.80 L 225.80 648.90 L 225.00 693.20 L 225.30 715.40 L 226.00 737.50 L 257.90 738.20 L 279.10 737.20 L 289.70 736.10 L 296.10 743.30 L 302.00 750.90 L 222.60 751.30 L 182.90 751.10 L 143.20 750.40 L 142.50 734.60 L 142.30 718.80 L 142.20 619.20 L 142.50 602.20 L 143.20 585.20 L 175.60 585.40 L 207.90 584.80 L 208.50 571.40 L 208.50 557.90 L 208.10 544.50 L 191.90 543.70 L 143.10 542.80 L 143.10 530.20 L 187.10 530.40 L 209.00 529.30 L 209.00 395.70 L 209.40 367.10 L 209.10 351.50 L 143.10 351.00 L 142.40 337.70 L 142.00 324.50 L 142.50 267.60 L 143.10 260.10 L 144.00 252.60 L 143.30 283.00 L 144.10 313.30 L 168.30 311.70 L 168.20 284.30 L 197.10 283.60 L 198.60 254.90 L 223.90 253.50 L 224.50 227.90 L 252.40 226.90 L 253.40 195.80 Z M 263.90 209.20 L 263.80 228.80 L 271.10 228.80 L 270.40 209.20 L 263.90 209.20 Z M 239.60 239.40 L 238.70 250.90 L 238.40 262.30 L 238.50 273.90 L 239.20 285.30 L 251.70 285.90 L 264.10 286.00 L 276.60 285.60 L 273.70 254.60 L 272.40 247.00 L 270.50 239.40 L 269.20 242.20 L 267.60 247.80 L 266.90 256.70 L 266.90 265.50 L 253.20 265.50 L 251.20 239.70 L 239.60 239.40 Z M 211.60 267.80 L 211.90 285.40 L 224.00 285.30 L 224.40 268.00 L 211.60 267.80 Z M 181.40 298.30 L 182.20 312.50 L 195.90 312.50 L 196.50 298.50 L 181.40 298.30 Z M 143.60 326.00 L 143.50 335.70 L 170.00 336.00 L 183.30 335.80 L 196.60 335.30 L 196.50 326.40 L 170.10 325.70 L 143.60 326.00 Z M 225.70 512.00 L 225.00 530.30 L 224.90 548.60 L 225.20 585.30 L 255.60 585.60 L 286.10 585.20 L 286.90 566.90 L 287.10 548.60 L 287.00 536.40 L 285.70 512.10 L 225.70 512.00 Z M 144.20 649.00 L 143.50 671.10 L 143.30 693.30 L 143.80 737.60 L 176.10 738.00 L 208.40 737.80 L 208.80 678.60 L 207.90 649.00 L 144.20 649.00 Z" fill="#575453" fill-rule="nonzero" node-id="145" stroke="none" target-height="556.6" target-width="205.29999" target-x="142" target-y="194.7"></path><path d="M 263.90 209.20 L 270.40 209.20 L 271.10 228.80 L 263.80 228.80 L 263.90 209.20 Z" fill="#b8a79a" fill-rule="nonzero" node-id="147" stroke="none" target-height="19.600006" target-width="7.3000183" target-x="263.8" target-y="209.2"></path><path d="M 896.10 209.40 L 907.60 218.50 L 914.20 210.10 L 916.70 216.60 L 920.50 229.90 L 921.80 236.70 L 922.60 243.60 L 922.90 714.40 L 922.50 744.10 L 912.70 735.70 L 910.60 733.30 L 908.80 730.60 L 907.80 727.50 L 906.70 721.00 L 906.30 711.10 L 907.00 616.30 L 906.60 426.80 L 907.60 414.70 L 908.20 402.60 L 908.30 390.50 L 908.00 378.40 L 907.20 366.30 L 908.00 332.10 L 908.30 257.80 L 907.10 246.50 L 905.40 238.00 L 903.10 229.70 L 896.10 209.40 Z" fill="#dd6d53" fill-rule="nonzero" node-id="149" stroke="none" target-height="534.69995" target-width="26.800049" target-x="896.1" target-y="209.4"></path><path d="M 773.70 269.30 L 773.80 251.30 L 774.40 242.40 L 775.40 233.50 L 776.70 224.60 L 778.50 215.80 L 777.70 227.30 L 800.90 228.30 L 802.00 254.70 L 827.70 256.10 L 829.40 282.60 L 857.10 283.40 L 858.30 311.50 L 878.80 313.10 L 879.60 280.30 L 879.40 263.90 L 878.70 247.50 L 880.20 256.00 L 881.20 264.60 L 881.80 273.10 L 882.00 286.00 L 880.60 337.80 L 881.00 350.80 L 829.50 351.40 L 827.60 383.00 L 826.00 367.40 L 824.80 351.80 L 815.80 351.80 L 815.20 362.90 L 815.10 374.10 L 815.60 407.70 L 815.30 418.80 L 813.90 433.60 L 812.70 440.90 L 811.80 426.00 L 811.60 411.10 L 812.50 366.40 L 812.40 351.50 L 767.60 351.50 L 766.70 336.40 L 814.10 336.00 L 814.40 297.90 L 803.20 297.40 L 792.10 297.50 L 780.90 298.20 L 769.80 299.40 L 770.80 285.30 L 771.40 280.60 L 773.50 271.40 L 773.20 285.60 L 787.00 285.60 L 787.30 264.00 L 787.10 242.30 L 777.70 239.80 L 775.40 254.50 L 773.70 269.30 Z M 801.20 268.40 L 801.60 285.20 L 815.00 284.90 L 815.70 268.60 L 801.20 268.40 Z M 830.30 297.10 L 831.00 312.70 L 843.20 312.60 L 843.30 297.70 L 830.30 297.10 Z M 830.40 326.40 L 829.60 335.60 L 842.20 336.30 L 854.80 336.50 L 880.00 335.70 L 879.10 326.10 L 854.70 326.00 L 830.40 326.40 Z" fill="#595553" fill-rule="nonzero" node-id="151" stroke="none" target-height="225.09999" target-width="115.29999" target-x="766.7" target-y="215.8"></path><path d="M 568.10 237.60 L 572.30 231.80 L 574.00 230.30 L 576.80 229.10 L 601.50 228.80 L 674.30 229.00 L 677.70 229.60 L 680.90 230.90 L 684.00 232.60 L 686.80 234.60 L 689.30 237.10 L 692.00 240.10 L 694.30 243.30 L 696.10 246.70 L 698.40 252.10 L 700.10 257.80 L 701.40 263.70 L 713.40 325.10 L 716.70 347.20 L 715.90 361.30 L 716.00 368.40 L 718.10 411.10 L 718.20 418.20 L 717.30 432.30 L 716.30 439.30 L 714.80 446.30 L 711.00 458.40 L 708.90 463.40 L 706.30 468.20 L 703.40 472.80 L 700.10 477.20 L 696.50 481.30 L 692.70 485.10 L 684.10 491.90 L 674.60 497.30 L 669.60 499.50 L 658.70 502.40 L 653.10 503.30 L 644.70 504.00 L 636.20 504.30 L 523.50 503.00 L 497.30 503.40 L 464.30 504.90 L 444.50 505.40 L 424.60 505.60 L 404.70 505.30 L 400.00 505.00 L 395.30 504.30 L 390.70 503.20 L 386.10 501.60 L 377.50 497.60 L 369.70 492.20 L 366.10 489.00 L 359.80 481.90 L 357.20 478.00 L 354.80 473.90 L 352.90 469.60 L 351.40 465.10 L 350.30 460.40 L 348.70 451.10 L 347.70 441.70 L 347.00 432.40 L 346.70 418.30 L 347.70 375.90 L 347.90 361.80 L 347.60 347.80 L 347.90 336.30 L 348.80 329.90 L 350.80 325.50 L 352.20 323.70 L 354.20 322.20 L 356.70 321.00 L 362.80 318.90 L 369.00 317.30 L 375.30 316.20 L 400.80 312.40 L 411.50 309.60 L 424.90 305.10 L 429.40 303.90 L 434.00 303.20 L 438.80 304.40 L 456.00 310.90 L 462.50 312.10 L 473.80 312.00 L 479.60 311.30 L 485.40 310.30 L 490.90 308.90 L 496.30 307.00 L 501.60 304.60 L 506.40 301.80 L 510.90 298.40 L 514.00 295.50 L 516.80 292.30 L 519.30 288.80 L 521.50 284.90 L 523.30 282.80 L 535.50 273.90 L 541.00 269.50 L 546.10 264.80 L 551.00 259.80 L 557.20 252.80 L 562.90 245.40 L 568.10 237.60 Z M 369.40 338.60 L 368.10 346.60 L 367.40 354.70 L 367.10 362.70 L 367.30 395.20 L 367.00 406.10 L 367.60 412.30 L 368.40 415.30 L 369.20 417.20 L 371.40 420.20 L 372.90 421.40 L 374.70 422.10 L 376.90 422.60 L 400.70 423.30 L 424.50 423.50 L 448.30 423.20 L 472.10 422.50 L 474.00 415.60 L 474.60 412.10 L 474.80 408.60 L 474.50 342.40 L 474.30 340.60 L 473.30 337.50 L 471.80 335.50 L 469.90 334.00 L 467.60 332.90 L 465.10 332.40 L 453.50 331.10 L 439.00 331.40 L 412.70 333.10 L 390.60 333.30 L 385.10 333.80 L 379.70 334.70 L 372.80 337.00 L 369.40 338.60 Z M 580.60 336.80 L 578.60 341.00 L 577.60 346.40 L 577.80 371.00 L 577.50 393.40 L 577.80 400.80 L 578.60 408.20 L 580.80 417.70 L 582.40 422.50 L 604.40 423.10 L 626.40 423.30 L 670.40 423.00 L 675.00 422.50 L 679.50 420.50 L 683.00 417.40 L 684.20 415.50 L 684.90 413.30 L 685.10 410.90 L 685.10 345.70 L 684.80 343.60 L 684.10 341.80 L 681.60 338.60 L 677.10 335.70 L 674.00 334.60 L 670.80 333.90 L 667.80 333.60 L 633.60 333.10 L 599.40 332.90 L 592.90 333.20 L 586.50 334.20 L 583.50 335.30 L 580.60 336.80 Z M 476.30 463.20 L 477.30 466.50 L 480.30 472.50 L 482.30 475.30 L 485.30 478.60 L 488.60 481.60 L 492.40 484.30 L 500.40 488.70 L 504.60 490.30 L 509.80 491.60 L 520.50 493.30 L 531.50 493.50 L 536.90 493.00 L 542.30 492.10 L 547.50 490.80 L 552.60 489.00 L 557.50 486.70 L 562.10 483.90 L 566.50 480.60 L 569.50 477.70 L 572.00 474.50 L 574.00 471.10 L 577.10 463.50 L 580.80 447.50 L 580.90 445.50 L 580.60 443.80 L 576.80 437.30 L 567.70 443.10 L 564.30 444.10 L 562.40 444.20 L 509.30 444.20 L 489.60 444.60 L 485.80 443.80 L 483.10 442.70 L 475.20 438.50 L 473.00 442.50 L 472.50 444.40 L 472.30 447.50 L 473.40 453.80 L 476.30 463.20 Z" fill="#f4c6a5" fill-rule="nonzero" node-id="153" stroke="none" target-height="276.8" target-width="371.5" target-x="346.7" target-y="228.8"></path><path d="M 239.60 239.40 L 251.20 239.70 L 253.20 265.50 L 266.90 265.50 L 266.90 256.70 L 267.60 247.80 L 269.20 242.20 L 270.50 239.40 L 272.40 247.00 L 273.70 254.60 L 276.60 285.60 L 264.10 286.00 L 251.70 285.90 L 239.20 285.30 L 238.50 273.90 L 238.40 262.40 L 238.70 250.90 L 239.60 239.40 Z" fill="#c4bab0" fill-rule="nonzero" node-id="155" stroke="none" target-height="46.600006" target-width="38.200012" target-x="238.4" target-y="239.4"></path><path d="M 777.70 239.80 L 787.10 242.30 L 787.30 264.00 L 787.00 285.60 L 773.20 285.60 L 773.70 269.30 L 775.40 254.50 L 777.70 239.80 Z" fill="#c2b5b3" fill-rule="nonzero" node-id="157" stroke="none" target-height="45.800003" target-width="14.099976" target-x="773.2" target-y="239.8"></path><path d="M 117.70 313.70 L 117.10 268.70 L 118.10 253.80 L 120.20 242.00 L 120.50 265.00 L 122.00 288.00 L 123.30 269.70 L 123.20 251.30 L 128.00 257.20 L 130.20 248.20 L 132.60 256.40 L 133.00 571.60 L 132.70 696.80 L 133.20 822.10 L 132.10 810.30 L 131.50 798.40 L 130.60 751.00 L 122.90 757.40 L 118.30 762.20 L 116.60 765.00 L 115.20 769.10 L 114.70 780.70 L 115.10 827.40 L 112.90 812.50 L 111.30 797.50 L 108.60 815.70 L 106.50 833.90 L 104.90 852.30 L 103.30 848.10 L 101.40 839.70 L 100.60 833.30 L 100.30 826.70 L 100.30 813.60 L 100.50 750.60 L 110.00 740.60 L 112.90 737.10 L 116.00 731.90 L 117.20 729.00 L 118.10 722.10 L 118.50 715.20 L 118.20 687.30 L 118.40 479.90 L 118.00 410.80 L 117.70 407.50 L 116.10 401.30 L 114.20 397.00 L 111.70 392.80 L 106.20 384.90 L 113.10 373.50 L 115.00 369.60 L 116.70 364.00 L 117.60 353.20 L 117.80 345.30 L 117.70 313.70 Z" fill="#c45240" fill-rule="nonzero" node-id="159" stroke="none" target-height="610.3" target-width="32.899994" target-x="100.3" target-y="242"></path><path d="M 211.60 267.80 L 224.40 268.00 L 224.00 285.30 L 211.90 285.40 L 211.60 267.80 Z" fill="#beada7" fill-rule="nonzero" node-id="161" stroke="none" target-height="17.600006" target-width="12.799988" target-x="211.6" target-y="267.8"></path><path d="M 801.20 268.40 L 815.70 268.60 L 815.00 284.90 L 801.60 285.20 L 801.20 268.40 Z" fill="#b4a6a4" fill-rule="nonzero" node-id="163" stroke="none" target-height="16.800018" target-width="14.5" target-x="801.2" target-y="268.4"></path><path d="M 409.10 294.90 L 422.30 290.80 L 448.40 281.50 L 442.40 302.40 L 451.50 302.00 L 460.50 301.10 L 469.40 299.70 L 487.00 295.70 L 508.70 289.20 L 521.50 284.90 L 519.30 288.80 L 516.80 292.30 L 514.00 295.50 L 510.90 298.40 L 506.40 301.80 L 501.60 304.60 L 496.30 307.00 L 490.90 308.90 L 485.40 310.30 L 479.60 311.30 L 473.80 312.00 L 462.50 312.10 L 459.20 311.60 L 452.80 309.80 L 438.80 304.40 L 434.00 303.20 L 429.40 303.90 L 424.90 305.10 L 411.50 309.60 L 400.80 312.40 L 375.30 316.20 L 369.00 317.30 L 362.80 318.90 L 356.70 321.00 L 354.20 322.20 L 352.20 323.70 L 350.80 325.50 L 348.80 329.90 L 348.30 332.40 L 347.80 340.30 L 347.70 375.90 L 346.70 418.30 L 347.00 432.40 L 347.70 441.70 L 348.70 451.10 L 350.30 460.40 L 351.40 465.10 L 352.90 469.60 L 354.80 473.90 L 357.20 478.00 L 359.80 481.90 L 366.10 489.00 L 369.70 492.20 L 377.50 497.60 L 386.10 501.60 L 390.70 503.20 L 395.30 504.30 L 400.00 505.00 L 404.70 505.30 L 424.60 505.60 L 444.50 505.40 L 464.30 504.90 L 497.30 503.40 L 523.50 503.00 L 636.20 504.30 L 644.70 504.00 L 653.10 503.30 L 664.20 501.10 L 669.60 499.50 L 674.60 497.30 L 684.10 491.80 L 692.70 485.10 L 696.50 481.30 L 700.10 477.20 L 703.40 472.80 L 706.30 468.20 L 708.90 463.40 L 711.00 458.40 L 712.80 453.20 L 714.80 446.30 L 716.30 439.30 L 717.30 432.30 L 718.20 418.20 L 717.70 400.50 L 716.00 368.40 L 715.90 361.30 L 716.70 347.20 L 718.80 354.50 L 720.60 361.90 L 721.90 369.30 L 723.40 380.50 L 724.20 391.80 L 724.60 403.20 L 724.70 446.60 L 724.20 456.00 L 723.50 462.20 L 721.00 474.30 L 719.20 480.20 L 716.90 485.90 L 714.20 491.60 L 711.60 495.70 L 708.70 499.50 L 705.40 503.10 L 701.90 506.30 L 694.00 511.90 L 685.40 516.20 L 676.10 519.10 L 666.60 520.40 L 642.70 520.90 L 571.00 521.00 L 547.10 521.30 L 523.20 522.10 L 381.70 522.10 L 372.80 520.80 L 368.40 519.60 L 362.70 517.50 L 357.30 514.90 L 352.10 511.80 L 347.30 508.10 L 342.80 504.10 L 338.80 499.60 L 335.20 494.70 L 332.20 489.50 L 329.70 483.90 L 327.90 479.10 L 325.50 469.40 L 324.50 462.00 L 324.00 454.40 L 324.00 414.20 L 325.30 394.60 L 327.10 379.90 L 333.20 335.90 L 334.70 326.50 L 338.50 307.80 L 385.80 300.30 L 397.50 297.90 L 409.10 294.90 Z" fill="#e1aa86" fill-rule="nonzero" node-id="165" stroke="none" target-height="240.59998" target-width="400.7" target-x="324" target-y="281.5"></path><path d="M 181.40 298.30 L 196.50 298.50 L 195.90 312.50 L 182.20 312.50 L 181.40 298.30 Z" fill="#b8aaa4" fill-rule="nonzero" node-id="167" stroke="none" target-height="14.200012" target-width="15.100006" target-x="181.4" target-y="298.3"></path><path d="M 211.10 298.40 L 278.80 298.40 L 280.70 330.10 L 281.40 336.40 L 211.20 336.20 L 211.10 298.40 Z" fill="#c3b9b0" fill-rule="nonzero" node-id="169" stroke="none" target-height="38" target-width="70.29999" target-x="211.1" target-y="298.4"></path><path d="M 765.20 351.50 L 812.40 351.50 L 812.50 366.40 L 811.60 411.10 L 811.80 426.00 L 812.70 440.90 L 786.00 441.30 L 759.30 440.80 L 759.10 419.40 L 759.40 408.70 L 760.20 398.00 L 764.50 363.20 L 765.20 351.50 Z" fill="#c3b9b0" fill-rule="nonzero" node-id="171" stroke="none" target-height="89.79999" target-width="53.600037" target-x="759.1" target-y="351.5"></path><path d="M 769.80 299.40 L 780.90 298.20 L 792.10 297.50 L 803.20 297.40 L 814.40 297.90 L 814.10 336.00 L 766.70 336.40 L 768.20 324.10 L 769.30 311.80 L 769.80 299.40 Z" fill="#c4b9b1" fill-rule="nonzero" node-id="173" stroke="none" target-height="39" target-width="47.700012" target-x="766.7" target-y="297.4"></path><path d="M 830.30 297.10 L 843.30 297.70 L 843.20 312.60 L 831.00 312.70 L 830.30 297.10 Z" fill="#bab2ae" fill-rule="nonzero" node-id="175" stroke="none" target-height="15.600006" target-width="13" target-x="830.3" target-y="297.1"></path><path d="M 143.60 326.00 L 170.10 325.70 L 196.50 326.40 L 196.60 335.30 L 170.00 336.00 L 143.50 335.70 L 143.60 326.00 Z" fill="#b5aaa6" fill-rule="nonzero" node-id="177" stroke="none" target-height="10.299988" target-width="53.100006" target-x="143.5" target-y="325.7"></path><path d="M 830.40 326.40 L 854.70 326.00 L 879.10 326.10 L 880.00 335.70 L 854.80 336.50 L 842.20 336.30 L 829.60 335.60 L 830.40 326.40 Z" fill="#b1aca8" fill-rule="nonzero" node-id="179" stroke="none" target-height="10.5" target-width="50.400024" target-x="829.6" target-y="326"></path><path d="M 580.60 336.80 L 583.50 335.30 L 586.50 334.20 L 589.60 333.50 L 599.40 332.90 L 667.80 333.60 L 670.80 333.90 L 674.00 334.60 L 677.10 335.70 L 679.90 337.30 L 681.60 338.60 L 684.10 341.80 L 684.80 343.60 L 685.10 345.70 L 685.10 410.90 L 684.90 413.30 L 684.20 415.50 L 683.00 417.40 L 679.50 420.50 L 677.30 421.70 L 672.70 422.90 L 626.40 423.30 L 604.40 423.10 L 582.40 422.50 L 580.80 417.70 L 578.60 408.20 L 577.80 400.80 L 577.50 393.40 L 577.80 371.00 L 577.60 346.40 L 578.60 341.00 L 580.60 336.80 Z M 626.70 344.30 L 627.00 373.00 L 638.70 374.00 L 650.30 375.50 L 650.80 392.90 L 650.80 410.40 L 662.40 410.00 L 674.10 410.00 L 673.90 347.90 L 670.40 344.80 L 626.70 344.30 Z" fill="#000102" fill-rule="nonzero" node-id="181" stroke="none" target-height="90.399994" target-width="107.599976" target-x="577.5" target-y="332.9"></path><path d="M 340.40 707.10 L 345.20 703.30 L 349.70 699.30 L 353.90 694.90 L 359.80 688.00 L 376.40 666.20 L 382.20 659.20 L 388.50 652.60 L 390.20 671.70 L 392.90 696.30 L 393.00 699.10 L 392.20 703.50 L 391.40 705.10 L 385.20 714.20 L 375.90 726.40 L 367.50 735.00 L 362.80 738.80 L 357.70 742.20 L 352.30 745.00 L 348.60 746.40 L 341.00 748.20 L 337.10 748.60 L 331.90 748.50 L 326.80 747.90 L 321.70 746.60 L 316.80 744.80 L 312.20 742.50 L 307.80 739.70 L 305.40 737.70 L 301.60 733.20 L 297.10 725.40 L 293.50 717.10 L 311.80 716.30 L 317.90 715.60 L 323.80 714.40 L 329.60 712.70 L 333.30 711.20 L 340.40 707.10 Z" fill="#e4ac88" fill-rule="nonzero" node-id="183" stroke="none" target-height="96" target-width="99.5" target-x="293.5" target-y="652.6"></path><path d="M 380.00 345.50 L 387.80 344.80 L 395.70 344.40 L 419.30 344.30 L 427.20 344.00 L 426.80 354.50 L 426.00 364.90 L 424.80 375.30 L 401.40 375.70 L 401.40 410.60 L 379.80 410.10 L 380.00 345.50 Z" fill="#f8f8f8" fill-rule="nonzero" node-id="185" stroke="none" target-height="66.600006" target-width="47.400024" target-x="379.8" target-y="344"></path><path d="M 626.70 344.30 L 670.40 344.80 L 673.90 347.90 L 674.10 410.00 L 662.40 410.00 L 650.80 410.40 L 650.80 392.90 L 650.30 375.50 L 638.70 374.00 L 627.00 373.00 L 626.70 344.30 Z" fill="#fdfdfc" fill-rule="nonzero" node-id="187" stroke="none" target-height="66.100006" target-width="47.399963" target-x="626.7" target-y="344.3"></path><path d="M 143.10 351.00 L 209.10 351.50 L 209.30 382.70 L 187.20 383.70 L 143.10 384.10 L 142.90 367.60 L 143.10 351.00 Z" fill="#c9654f" fill-rule="nonzero" node-id="189" stroke="none" target-height="33.100006" target-width="66.40001" target-x="142.9" target-y="351"></path><path d="M 226.80 351.60 L 255.70 351.30 L 265.30 351.60 L 278.00 352.90 L 284.30 354.20 L 285.60 384.20 L 285.20 440.00 L 270.40 440.80 L 255.70 441.10 L 226.10 440.40 L 225.80 425.60 L 225.80 410.80 L 226.80 366.40 L 226.80 351.60 Z" fill="#c4b9b0" fill-rule="nonzero" node-id="191" stroke="none" target-height="89.80002" target-width="59.800003" target-x="225.8" target-y="351.3"></path><path d="M 815.80 351.80 L 824.80 351.70 L 826.00 367.40 L 827.60 383.00 L 840.90 385.40 L 830.50 390.00 L 829.50 397.80 L 828.80 441.70 L 829.20 529.70 L 845.70 530.40 L 862.10 530.60 L 881.10 529.90 L 880.50 544.20 L 855.10 543.50 L 829.60 544.00 L 828.80 564.50 L 828.80 574.80 L 829.30 587.40 L 837.30 587.80 L 861.30 588.00 L 869.30 588.40 L 877.20 589.10 L 873.40 590.60 L 869.60 591.70 L 865.70 592.40 L 859.70 592.80 L 853.70 592.90 L 827.00 592.20 L 812.40 591.50 L 797.80 590.30 L 783.20 588.60 L 811.50 587.10 L 811.80 530.20 L 811.60 511.90 L 811.10 502.00 L 788.60 499.00 L 811.40 496.90 L 811.80 485.20 L 811.50 456.90 L 736.60 456.30 L 734.40 464.40 L 735.10 440.80 L 742.90 441.20 L 743.70 426.20 L 760.20 398.00 L 759.40 408.70 L 759.10 419.40 L 759.30 440.80 L 786.00 441.30 L 812.70 440.90 L 813.90 433.60 L 815.30 418.80 L 815.60 407.70 L 815.10 374.10 L 815.20 362.90 L 815.80 351.80 Z" fill="#544f4d" fill-rule="nonzero" node-id="193" stroke="none" target-height="241.20001" target-width="146.69995" target-x="734.4" target-y="351.7"></path><path d="M 829.50 351.40 L 878.60 350.80 L 879.10 366.50 L 879.10 382.10 L 853.30 382.80 L 827.60 383.00 L 829.50 351.40 Z" fill="#c56752" fill-rule="nonzero" node-id="195" stroke="none" target-height="32.200012" target-width="51.5" target-x="827.6" target-y="350.8"></path><path d="M 878.60 350.80 L 881.00 350.70 L 881.60 364.70 L 881.00 392.60 L 881.60 415.50 L 881.60 438.40 L 880.70 507.10 L 881.10 529.90 L 878.60 530.10 L 879.30 496.90 L 879.50 463.70 L 878.90 397.40 L 854.20 396.80 L 841.80 397.10 L 829.50 397.80 L 830.50 390.00 L 840.90 385.40 L 827.60 383.00 L 853.30 382.80 L 879.10 382.10 L 879.10 366.50 L 878.60 350.80 Z" fill="#72584c" fill-rule="nonzero" node-id="197" stroke="none" target-height="179.39996" target-width="54" target-x="827.6" target-y="350.7"></path><path d="M 143.10 384.10 L 187.20 383.70 L 209.30 382.70 L 209.00 395.70 L 192.50 396.50 L 176.00 396.70 L 143.10 396.10 L 143.10 384.10 Z" fill="#6e5249" fill-rule="nonzero" node-id="199" stroke="none" target-height="14" target-width="66.2" target-x="143.1" target-y="382.7"></path><path d="M 143.10 396.10 L 176.00 396.70 L 192.50 396.50 L 209.00 395.70 L 209.00 529.30 L 187.10 530.40 L 143.10 530.20 L 142.80 463.10 L 143.10 396.10 Z M 154.00 440.10 L 158.90 440.80 L 163.70 441.00 L 168.60 440.80 L 173.50 440.10 L 172.90 435.10 L 171.80 430.20 L 170.20 425.40 L 168.10 420.80 L 164.20 422.90 L 160.70 425.30 L 156.90 429.30 L 155.50 431.60 L 154.50 434.10 L 154.00 437.00 L 154.00 440.10 Z M 182.00 474.60 L 181.10 486.10 L 181.80 497.50 L 189.60 497.50 L 192.20 497.20 L 195.20 496.00 L 198.10 493.30 L 199.20 491.60 L 200.10 489.70 L 201.00 485.80 L 200.50 481.70 L 199.80 479.80 L 198.70 478.00 L 197.10 476.80 L 193.60 475.30 L 190.80 474.90 L 182.00 474.60 Z" fill="#cd6550" fill-rule="nonzero" node-id="201" stroke="none" target-height="134.70001" target-width="66.2" target-x="142.8" target-y="395.7"></path><path d="M 829.50 397.80 L 841.80 397.10 L 854.20 396.80 L 878.90 397.40 L 879.50 463.70 L 879.30 496.90 L 878.60 530.10 L 862.10 530.60 L 845.70 530.40 L 829.20 529.70 L 828.80 441.70 L 829.50 397.80 Z M 848.70 420.70 L 848.00 422.60 L 847.60 426.40 L 849.60 437.90 L 856.90 437.40 L 864.00 436.10 L 864.90 433.30 L 865.40 430.40 L 865.40 418.80 L 859.60 417.90 L 856.60 417.80 L 853.80 418.00 L 850.30 419.40 L 848.70 420.70 Z M 853.00 485.70 L 850.70 486.10 L 849.00 486.70 L 846.30 489.00 L 844.80 492.20 L 844.50 494.90 L 844.80 497.80 L 846.10 501.30 L 848.50 504.20 L 850.10 505.30 L 854.00 507.00 L 855.80 507.30 L 857.50 507.10 L 859.20 506.50 L 862.00 504.10 L 864.00 500.80 L 864.70 498.80 L 865.00 495.00 L 864.50 491.30 L 863.90 489.80 L 862.80 488.50 L 859.90 486.70 L 858.20 486.20 L 855.50 485.70 L 853.00 485.70 Z" fill="#cc6752" fill-rule="nonzero" node-id="203" stroke="none" target-height="133.79999" target-width="50.700012" target-x="828.8" target-y="396.8"></path><path d="M 848.70 420.70 L 850.30 419.40 L 852.00 418.50 L 853.80 418.00 L 856.60 417.80 L 859.60 417.90 L 865.40 418.80 L 865.40 430.40 L 864.90 433.30 L 864.00 436.10 L 860.50 437.00 L 856.90 437.40 L 849.60 437.90 L 847.60 426.40 L 848.00 422.60 L 848.70 420.70 Z" fill="#d98768" fill-rule="nonzero" node-id="205" stroke="none" target-height="20.100006" target-width="17.800049" target-x="847.6" target-y="417.8"></path><path d="M 154.00 440.10 L 154.00 437.00 L 154.50 434.10 L 155.50 431.60 L 156.90 429.30 L 160.70 425.30 L 164.20 422.90 L 168.10 420.80 L 170.20 425.40 L 171.80 430.20 L 172.90 435.10 L 173.50 440.10 L 168.60 440.80 L 163.70 441.00 L 158.90 440.80 L 154.00 440.10 Z" fill="#dd885f" fill-rule="nonzero" node-id="207" stroke="none" target-height="20.200012" target-width="19.5" target-x="154" target-y="420.8"></path><path d="M 300.50 439.70 L 300.90 423.40 L 311.60 432.70 L 309.60 439.50 L 300.50 439.70 Z" fill="#ccbdb2" fill-rule="nonzero" node-id="209" stroke="none" target-height="16.300018" target-width="11.100006" target-x="300.5" target-y="423.4"></path><path d="M 743.70 426.20 L 742.90 441.20 L 735.10 440.80 L 736.40 436.60 L 738.20 432.80 L 741.50 428.20 L 743.70 426.20 Z" fill="#beb3b5" fill-rule="nonzero" node-id="211" stroke="none" target-height="15" target-width="8.600037" target-x="735.1" target-y="426.2"></path><path d="M 225.70 456.70 L 269.00 456.70 L 312.40 456.30 L 313.80 465.30 L 315.60 474.30 L 319.00 486.00 L 321.20 491.70 L 316.10 493.80 L 309.40 494.90 L 226.00 494.60 L 225.30 482.00 L 225.20 469.40 L 225.70 456.70 Z" fill="#c5bbb1" fill-rule="nonzero" node-id="213" stroke="none" target-height="38.600006" target-width="96.000015" target-x="225.2" target-y="456.3"></path><path d="M 736.60 456.30 L 811.50 456.90 L 811.80 475.80 L 811.60 494.70 L 728.20 494.80 L 731.60 476.00 L 736.60 456.30 Z" fill="#c1b6ac" fill-rule="nonzero" node-id="215" stroke="none" target-height="38.5" target-width="83.599976" target-x="728.2" target-y="456.3"></path><path d="M 486.30 463.30 L 495.20 459.40 L 501.40 457.80 L 525.00 457.00 L 535.20 457.20 L 545.40 458.10 L 552.00 459.10 L 558.60 460.50 L 565.20 462.50 L 564.50 465.40 L 563.50 468.10 L 562.10 470.40 L 558.30 474.40 L 552.20 478.30 L 548.20 480.10 L 540.10 482.60 L 530.10 483.80 L 524.90 483.90 L 519.70 483.60 L 514.60 482.80 L 509.60 481.60 L 504.70 479.90 L 500.30 477.70 L 496.10 475.00 L 493.20 472.60 L 490.70 469.90 L 488.40 466.80 L 486.30 463.30 Z" fill="#99474b" fill-rule="nonzero" node-id="217" stroke="none" target-height="26.899994" target-width="78.900024" target-x="486.3" target-y="457"></path><path d="M 182.00 474.60 L 190.80 474.90 L 193.60 475.30 L 197.10 476.80 L 198.70 478.00 L 199.80 479.80 L 200.50 481.70 L 201.00 485.80 L 200.10 489.70 L 199.20 491.60 L 198.10 493.30 L 195.20 496.00 L 192.20 497.20 L 189.60 497.50 L 181.80 497.50 L 181.10 486.10 L 182.00 474.60 Z" fill="#d47c62" fill-rule="nonzero" node-id="219" stroke="none" target-height="22.899994" target-width="19.899994" target-x="181.1" target-y="474.6"></path><path d="M 853.00 485.70 L 855.50 485.70 L 859.90 486.70 L 862.80 488.50 L 863.90 489.80 L 864.50 491.30 L 865.00 496.90 L 864.00 500.80 L 862.00 504.10 L 860.70 505.50 L 857.50 507.10 L 855.80 507.30 L 854.00 507.00 L 850.10 505.30 L 848.50 504.20 L 846.10 501.30 L 844.80 497.80 L 844.50 494.90 L 844.80 492.20 L 846.30 489.00 L 849.00 486.70 L 850.70 486.10 L 853.00 485.70 Z" fill="#cc816b" fill-rule="nonzero" node-id="221" stroke="none" target-height="21.599976" target-width="20.5" target-x="844.5" target-y="485.7"></path><path d="M 713.80 511.90 L 721.30 499.70 L 729.30 487.80 L 728.30 494.80 L 811.60 494.70 L 811.40 496.90 L 788.60 499.00 L 811.10 502.00 L 811.60 512.00 L 755.50 512.10 L 755.20 548.50 L 755.50 584.90 L 774.20 585.50 L 792.90 585.50 L 811.60 584.90 L 811.50 587.10 L 783.20 588.60 L 797.80 590.30 L 812.40 591.50 L 827.00 592.20 L 853.70 592.90 L 859.70 592.80 L 865.70 592.40 L 869.60 591.70 L 873.40 590.60 L 877.20 589.10 L 869.30 588.40 L 861.30 588.00 L 837.30 587.80 L 829.30 587.40 L 829.10 585.00 L 846.30 585.50 L 863.40 585.60 L 880.50 585.30 L 880.60 601.90 L 850.00 601.20 L 735.10 601.20 L 708.10 602.00 L 700.90 593.90 L 694.10 585.50 L 715.70 585.70 L 737.40 585.30 L 737.70 548.60 L 736.80 511.90 L 725.30 511.70 L 713.80 511.90 Z" fill="#5b5755" fill-rule="nonzero" node-id="223" stroke="none" target-height="114.20001" target-width="186.5" target-x="694.1" target-y="487.8"></path><path d="M 225.70 512.00 L 285.70 512.10 L 287.00 536.40 L 286.90 566.90 L 286.10 585.20 L 255.60 585.60 L 225.20 585.30 L 224.90 548.60 L 225.00 530.30 L 225.70 512.00 Z" fill="#c5bab1" fill-rule="nonzero" node-id="225" stroke="none" target-height="73.599976" target-width="62.100006" target-x="224.9" target-y="512"></path><path d="M 303.30 512.10 L 333.20 512.10 L 348.20 522.60 L 356.00 527.60 L 356.60 560.20 L 356.40 576.60 L 355.60 578.60 L 354.30 580.30 L 351.00 583.30 L 347.30 585.70 L 325.30 585.80 L 303.40 585.10 L 303.30 512.10 Z" fill="#c6bab0" fill-rule="nonzero" node-id="227" stroke="none" target-height="73.70001" target-width="53.30002" target-x="303.3" target-y="512.1"></path><path d="M 713.80 511.90 L 725.30 511.70 L 736.80 511.90 L 737.70 548.60 L 737.40 585.30 L 715.70 585.70 L 694.10 585.50 L 691.80 584.50 L 690.10 583.20 L 689.00 581.60 L 688.30 579.60 L 688.00 566.50 L 688.50 527.30 L 695.00 523.80 L 713.80 511.90 Z" fill="#c4bbb3" fill-rule="nonzero" node-id="229" stroke="none" target-height="74" target-width="49.700012" target-x="688" target-y="511.7"></path><path d="M 755.50 512.10 L 811.60 511.90 L 811.80 548.40 L 811.60 584.90 L 792.90 585.50 L 774.20 585.50 L 755.50 584.90 L 755.20 548.50 L 755.50 512.10 Z" fill="#c3b9af" fill-rule="nonzero" node-id="231" stroke="none" target-height="73.600006" target-width="56.599976" target-x="755.2" target-y="511.9"></path><path d="M 356.00 527.60 L 361.40 529.20 L 372.30 531.40 L 380.60 532.30 L 389.10 532.80 L 405.90 533.20 L 403.30 537.70 L 400.40 542.00 L 395.60 546.90 L 356.40 576.60 L 356.60 560.20 L 356.00 527.60 Z" fill="#615f57" fill-rule="nonzero" node-id="233" stroke="none" target-height="49" target-width="49.899994" target-x="356" target-y="527.6"></path><path d="M 675.70 533.20 L 688.50 527.30 L 688.00 566.50 L 688.30 579.60 L 677.30 570.30 L 675.80 568.50 L 673.40 564.50 L 675.40 541.00 L 675.70 533.20 Z" fill="#37363c" fill-rule="nonzero" node-id="235" stroke="none" target-height="52.299988" target-width="15.099976" target-x="673.4" target-y="527.3"></path><path d="M 439.20 533.10 L 466.40 533.40 L 473.70 557.60 L 457.80 557.00 L 441.90 557.40 L 440.00 545.30 L 439.20 533.10 Z" fill="#af9fa3" fill-rule="nonzero" node-id="237" stroke="none" target-height="24.5" target-width="34.5" target-x="439.2" target-y="533.1"></path><path d="M 478.20 532.90 L 543.20 532.70 L 564.80 533.30 L 560.50 551.80 L 550.90 551.60 L 521.90 550.00 L 512.30 550.00 L 502.80 550.50 L 496.50 551.30 L 490.20 552.60 L 484.00 554.40 L 481.50 547.40 L 479.60 540.20 L 478.20 532.90 Z" fill="#e2ac8a" fill-rule="nonzero" node-id="239" stroke="none" target-height="21.700012" target-width="86.599976" target-x="478.2" target-y="532.7"></path><path d="M 575.40 533.40 L 597.50 532.90 L 598.20 545.60 L 594.50 546.10 L 591.10 547.10 L 588.10 548.60 L 585.20 550.40 L 579.90 554.90 L 568.30 565.90 L 564.10 568.90 L 570.30 551.30 L 573.10 542.40 L 575.40 533.40 Z" fill="#b2a6ab" fill-rule="nonzero" node-id="241" stroke="none" target-height="36" target-width="34.100037" target-x="564.1" target-y="532.9"></path><path d="M 651.90 531.80 L 654.80 531.80 L 667.60 530.50 L 672.40 531.20 L 675.70 533.20 L 674.80 548.80 L 673.40 564.50 L 661.90 556.30 L 650.50 547.70 L 651.90 531.80 Z" fill="#92755a" fill-rule="nonzero" node-id="243" stroke="none" target-height="34" target-width="25.200012" target-x="650.5" target-y="530.5"></path><path d="M 416.60 534.80 L 426.50 536.20 L 433.30 567.00 L 436.90 579.10 L 443.30 596.90 L 447.00 609.00 L 448.30 615.10 L 449.00 621.40 L 450.00 639.10 L 450.40 656.80 L 450.20 674.50 L 449.40 692.20 L 444.00 692.00 L 427.70 690.60 L 424.10 690.70 L 417.20 691.90 L 414.80 698.90 L 413.70 707.90 L 413.70 730.20 L 413.30 735.70 L 403.40 734.40 L 403.20 681.90 L 402.00 655.80 L 401.20 625.00 L 401.10 614.70 L 402.00 594.10 L 403.00 583.90 L 404.50 573.80 L 406.50 563.80 L 408.40 556.40 L 410.70 549.10 L 413.40 541.90 L 416.60 534.80 Z" fill="#80456e" fill-rule="nonzero" node-id="245" stroke="none" target-height="200.90002" target-width="49.299988" target-x="401.1" target-y="534.8"></path><path d="M 609.30 533.10 L 619.50 534.60 L 626.30 536.20 L 631.20 538.70 L 634.50 541.80 L 637.30 551.80 L 639.70 562.00 L 641.70 572.20 L 643.20 582.50 L 644.30 592.90 L 645.00 603.30 L 645.20 613.70 L 645.00 624.20 L 643.80 642.60 L 643.10 661.00 L 641.60 716.30 L 640.70 734.70 L 630.40 735.70 L 629.50 691.10 L 612.40 690.80 L 595.20 691.60 L 594.10 679.00 L 593.50 666.30 L 593.50 638.90 L 593.80 629.70 L 594.50 620.70 L 595.80 611.70 L 597.10 605.80 L 598.80 600.00 L 603.20 587.60 L 605.10 581.00 L 606.60 574.30 L 608.40 560.70 L 609.00 553.80 L 609.30 533.10 Z" fill="#80456b" fill-rule="nonzero" node-id="247" stroke="none" target-height="202.60004" target-width="51.700012" target-x="593.5" target-y="533.1"></path><path d="M 143.10 542.80 L 191.90 543.70 L 208.10 544.50 L 208.50 557.90 L 208.50 571.40 L 207.90 584.80 L 175.60 585.40 L 143.20 585.20 L 143.10 542.80 Z" fill="#d0664e" fill-rule="nonzero" node-id="249" stroke="none" target-height="42.600037" target-width="65.399994" target-x="143.1" target-y="542.8"></path><path d="M 829.60 544.00 L 855.10 543.50 L 880.50 544.20 L 880.50 585.30 L 863.40 585.60 L 846.30 585.50 L 829.10 585.00 L 828.80 564.50 L 829.60 544.00 Z" fill="#c96a54" fill-rule="nonzero" node-id="251" stroke="none" target-height="42.099976" target-width="51.700012" target-x="828.8" target-y="543.5"></path><path d="M 564.10 568.90 L 568.30 565.90 L 579.90 554.90 L 585.20 550.40 L 588.10 548.60 L 591.10 547.10 L 594.50 546.10 L 598.20 545.60 L 598.40 551.30 L 597.60 562.60 L 596.10 571.00 L 594.20 579.30 L 589.80 595.80 L 558.00 578.50 L 558.60 572.90 L 564.10 568.90 Z" fill="#dbd5d5" fill-rule="nonzero" node-id="253" stroke="none" target-height="50.200012" target-width="40.400024" target-x="558" target-y="545.6"></path><path d="M 484.00 554.40 L 490.20 552.60 L 496.50 551.30 L 502.80 550.50 L 512.30 550.00 L 521.90 550.00 L 550.90 551.60 L 560.50 551.80 L 558.50 555.60 L 556.20 559.10 L 553.60 562.20 L 547.30 567.70 L 538.40 573.30 L 532.60 576.10 L 521.10 581.00 L 507.40 574.00 L 500.80 569.90 L 494.60 565.40 L 490.70 562.10 L 487.20 558.40 L 484.00 554.40 Z" fill="#ecc5b0" fill-rule="nonzero" node-id="255" stroke="none" target-height="31" target-width="76.5" target-x="484" target-y="550"></path><path d="M 441.90 557.40 L 457.80 557.00 L 473.70 557.60 L 479.90 568.00 L 487.10 577.70 L 456.20 598.20 L 452.80 591.70 L 450.00 585.10 L 447.60 578.30 L 445.50 571.40 L 441.90 557.40 Z" fill="#d5cdcb" fill-rule="nonzero" node-id="257" stroke="none" target-height="41.200012" target-width="45.200012" target-x="441.9" target-y="557"></path><path d="M 318.20 640.20 L 333.10 620.30 L 341.00 610.60 L 349.30 601.20 L 357.90 592.20 L 366.90 583.60 L 376.20 575.30 L 385.90 567.50 L 396.00 560.20 L 391.80 590.40 L 390.90 600.50 L 390.60 612.30 L 390.90 655.00 L 392.30 676.50 L 392.60 683.60 L 392.50 690.80 L 390.20 671.70 L 388.50 652.60 L 382.20 659.20 L 376.40 666.20 L 359.80 688.00 L 353.90 694.90 L 349.70 699.30 L 345.20 703.30 L 340.40 707.10 L 333.30 711.20 L 329.60 712.70 L 323.80 714.40 L 317.90 715.60 L 311.80 716.30 L 293.50 717.10 L 292.90 711.80 L 292.80 701.50 L 293.30 696.40 L 294.50 689.70 L 296.10 683.10 L 298.30 676.50 L 303.90 663.90 L 307.10 657.70 L 312.50 648.80 L 318.20 640.20 Z" fill="#f4c3a3" fill-rule="nonzero" node-id="259" stroke="none" target-height="156.89996" target-width="103.20001" target-x="292.8" target-y="560.2"></path><path d="M 650.90 562.10 L 656.90 566.50 L 668.30 576.20 L 676.40 583.90 L 684.20 592.00 L 699.40 608.50 L 714.40 626.60 L 721.50 636.00 L 732.50 652.30 L 740.10 665.90 L 743.40 673.00 L 746.30 680.30 L 750.10 692.80 L 750.90 698.00 L 751.10 703.20 L 750.50 719.00 L 748.90 713.00 L 732.40 715.20 L 723.20 715.40 L 716.00 714.30 L 712.60 713.30 L 709.30 711.80 L 706.00 709.80 L 697.70 703.10 L 694.00 699.40 L 688.80 693.40 L 684.00 687.10 L 665.60 661.10 L 660.50 655.00 L 655.00 649.30 L 654.00 645.20 L 655.10 635.90 L 655.70 626.70 L 655.80 608.20 L 654.50 589.70 L 653.00 575.80 L 650.90 562.10 Z" fill="#f4c5a4" fill-rule="nonzero" node-id="261" stroke="none" target-height="156.90002" target-width="100.19995" target-x="650.9" target-y="562.1"></path><path d="M 496.10 579.20 L 507.00 584.30 L 513.80 588.60 L 517.00 591.10 L 518.40 595.80 L 518.60 605.70 L 517.70 619.10 L 517.10 632.50 L 517.00 646.00 L 517.30 659.50 L 518.80 686.40 L 509.10 686.60 L 470.60 686.00 L 461.00 686.10 L 460.80 635.80 L 460.10 623.30 L 458.80 610.80 L 465.70 605.50 L 472.80 600.60 L 480.20 596.00 L 489.30 590.90 L 490.60 589.80 L 493.00 586.40 L 496.10 579.20 Z M 494.80 598.90 L 495.10 610.80 L 495.60 613.70 L 496.60 616.30 L 497.60 617.80 L 498.90 619.20 L 500.80 620.30 L 503.00 620.30 L 505.30 619.80 L 507.50 618.90 L 509.30 617.50 L 510.80 615.80 L 511.80 613.90 L 512.10 612.50 L 512.10 611.00 L 510.90 606.90 L 509.70 604.80 L 508.20 603.00 L 504.40 600.30 L 499.70 598.90 L 494.80 598.90 Z M 492.90 653.20 L 494.50 657.40 L 496.50 661.40 L 501.10 669.20 L 503.80 668.40 L 506.30 667.10 L 508.60 665.40 L 510.30 663.30 L 511.70 659.90 L 512.10 656.10 L 511.60 653.10 L 510.70 651.10 L 509.20 649.20 L 502.10 642.80 L 497.00 647.60 L 494.80 650.20 L 492.90 653.20 Z" fill="#c5b9c1" fill-rule="nonzero" node-id="263" stroke="none" target-height="107.39996" target-width="60" target-x="458.8" target-y="579.2"></path><path d="M 527.40 589.50 L 541.70 581.90 L 549.10 578.50 L 551.20 588.30 L 559.90 592.20 L 568.30 596.60 L 584.80 605.90 L 584.70 611.60 L 583.00 634.30 L 582.90 640.00 L 583.00 647.60 L 584.40 670.40 L 584.50 685.60 L 564.70 685.50 L 525.20 686.70 L 525.20 654.30 L 527.40 589.50 Z M 534.60 604.20 L 532.80 607.50 L 532.00 611.40 L 532.40 615.20 L 533.10 616.90 L 534.10 618.40 L 536.90 620.60 L 539.60 621.30 L 541.80 621.30 L 548.30 620.40 L 548.10 601.40 L 538.90 601.20 L 537.30 601.70 L 535.80 602.60 L 534.60 604.20 Z M 534.50 648.60 L 533.00 650.60 L 532.20 652.50 L 531.90 654.40 L 532.50 658.20 L 535.10 662.60 L 537.30 665.10 L 542.20 669.00 L 545.60 661.90 L 548.20 654.60 L 548.80 649.50 L 548.70 646.90 L 543.50 645.50 L 540.90 645.10 L 538.50 645.30 L 537.10 645.90 L 535.70 646.90 L 534.50 648.60 Z" fill="#c1b4bc" fill-rule="nonzero" node-id="265" stroke="none" target-height="108.20001" target-width="59.599976" target-x="525.2" target-y="578.5"></path><path d="M 143.70 600.50 L 260.60 601.10 L 307.70 601.00 L 315.90 601.30 L 332.30 602.70 L 309.80 632.60 L 143.70 632.60 L 143.50 616.60 L 143.70 600.50 Z" fill="#c0b5ac" fill-rule="nonzero" node-id="267" stroke="none" target-height="32.099976" target-width="188.79999" target-x="143.5" target-y="600.5"></path><path d="M 494.80 598.90 L 499.70 598.90 L 504.40 600.30 L 506.40 601.50 L 508.20 603.00 L 509.70 604.80 L 510.90 606.90 L 512.10 611.00 L 511.80 613.90 L 510.80 615.80 L 509.30 617.50 L 507.50 618.90 L 505.30 619.80 L 503.00 620.30 L 500.80 620.30 L 498.90 619.20 L 497.60 617.80 L 496.60 616.30 L 495.60 613.70 L 495.10 610.80 L 494.80 598.90 Z M 502.50 610.00 L 501.30 611.90 L 501.00 613.10 L 501.40 614.00 L 502.40 614.70 L 504.50 615.20 L 505.60 613.20 L 505.90 612.00 L 505.50 611.10 L 504.50 610.40 L 502.50 610.00 Z" fill="#0f0e10" fill-rule="nonzero" node-id="269" stroke="none" target-height="21.399963" target-width="17.299988" target-x="494.8" target-y="598.9"></path><path d="M 534.60 604.20 L 535.80 602.60 L 537.30 601.70 L 538.90 601.20 L 548.10 601.40 L 548.30 620.40 L 541.80 621.30 L 539.60 621.30 L 536.90 620.60 L 534.10 618.40 L 533.10 616.90 L 532.40 615.20 L 532.00 611.40 L 532.80 607.50 L 534.60 604.20 Z M 539.00 612.00 L 538.10 613.00 L 537.80 614.10 L 537.90 615.30 L 539.20 617.20 L 540.20 617.80 L 541.40 617.80 L 542.60 617.30 L 543.40 616.30 L 543.70 615.20 L 543.60 614.10 L 542.30 612.10 L 541.30 611.60 L 540.20 611.50 L 539.00 612.00 Z" fill="#3c3838" fill-rule="nonzero" node-id="271" stroke="none" target-height="20.099976" target-width="16.299988" target-x="532" target-y="601.2"></path><path d="M 708.10 602.00 L 735.10 601.20 L 850.00 601.20 L 880.60 601.90 L 880.20 616.40 L 880.60 630.90 L 871.00 632.00 L 851.90 632.80 L 778.10 632.50 L 733.00 632.80 L 708.10 602.00 Z" fill="#c2b7ae" fill-rule="nonzero" node-id="273" stroke="none" target-height="31.599976" target-width="172.5" target-x="708.1" target-y="601.2"></path><path d="M 502.50 610.00 L 504.50 610.40 L 505.50 611.10 L 505.90 612.00 L 505.60 613.20 L 504.50 615.20 L 502.40 614.70 L 501.40 614.00 L 501.00 613.10 L 501.30 611.90 L 502.50 610.00 Z" fill="#b9b3b7" fill-rule="nonzero" node-id="275" stroke="none" target-height="5.200012" target-width="4.899994" target-x="501" target-y="610"></path><path d="M 539.00 612.00 L 540.20 611.50 L 541.30 611.60 L 543.10 613.00 L 543.70 615.20 L 543.40 616.30 L 542.60 617.30 L 541.40 617.80 L 540.20 617.80 L 538.40 616.30 L 537.80 614.10 L 538.10 613.00 L 539.00 612.00 Z" fill="#b0acaf" fill-rule="nonzero" node-id="277" stroke="none" target-height="6.299988" target-width="5.9000244" target-x="537.8" target-y="611.5"></path><path d="M 651.10 744.10 L 663.10 743.60 L 667.00 743.90 L 669.50 744.40 L 671.80 745.50 L 681.90 752.00 L 690.20 756.00 L 699.00 758.70 L 703.50 759.50 L 708.10 759.90 L 716.30 759.70 L 719.70 759.20 L 727.90 756.80 L 742.30 751.00 L 749.60 750.40 L 764.30 750.20 L 786.40 750.80 L 878.80 751.20 L 879.40 771.50 L 879.60 791.80 L 879.00 832.30 L 877.10 839.00 L 874.60 845.50 L 871.60 851.90 L 868.20 857.90 L 864.30 863.70 L 860.00 869.20 L 855.30 874.40 L 850.20 879.10 L 844.70 883.40 L 838.90 887.20 L 832.70 890.50 L 826.30 893.30 L 817.30 896.20 L 805.80 898.00 L 791.70 898.70 L 632.30 898.50 L 632.90 884.50 L 635.30 856.70 L 645.40 849.30 L 648.70 796.70 L 651.10 744.10 Z M 838.00 770.60 L 837.60 774.30 L 837.90 778.10 L 839.90 789.40 L 840.00 793.10 L 839.80 795.50 L 839.10 797.90 L 833.10 810.10 L 832.30 812.60 L 832.10 815.40 L 836.60 820.20 L 841.50 824.70 L 844.60 822.70 L 847.30 820.40 L 849.60 817.90 L 851.70 815.20 L 853.90 811.20 L 855.70 807.00 L 857.00 802.50 L 857.80 797.80 L 858.20 793.10 L 858.10 788.30 L 856.90 779.00 L 855.30 772.60 L 854.50 770.90 L 853.30 769.60 L 850.20 767.70 L 846.40 766.90 L 842.60 767.40 L 840.80 768.20 L 838.00 770.60 Z M 762.10 795.10 L 769.90 796.70 L 772.50 797.00 L 775.10 796.80 L 777.40 796.10 L 780.10 794.20 L 781.30 792.60 L 782.40 790.50 L 782.90 788.60 L 782.90 786.70 L 782.30 784.90 L 781.40 783.20 L 778.40 780.40 L 774.60 778.70 L 772.50 778.40 L 770.50 778.50 L 766.70 779.50 L 765.40 780.30 L 764.40 781.30 L 763.40 783.10 L 762.90 785.40 L 762.10 795.10 Z" fill="#99a35c" fill-rule="nonzero" node-id="279" stroke="none" target-height="155.10004" target-width="247.29999" target-x="632.3" target-y="743.6"></path><path d="M 823.20 632.60 L 851.90 632.80 L 861.50 632.60 L 871.00 632.00 L 880.60 630.90 L 880.50 649.80 L 854.90 649.00 L 829.30 648.80 L 829.30 737.70 L 854.90 738.30 L 880.40 738.00 L 881.20 747.00 L 882.00 765.10 L 881.80 803.30 L 880.90 819.50 L 879.00 832.30 L 879.60 791.80 L 879.40 771.50 L 878.80 751.20 L 786.40 750.80 L 757.00 750.20 L 742.30 751.00 L 755.40 734.70 L 764.60 737.10 L 776.40 738.30 L 783.50 738.40 L 812.10 737.20 L 811.90 649.00 L 760.40 649.10 L 743.20 649.60 L 737.90 641.30 L 733.00 632.80 L 823.20 632.60 Z" fill="#595653" fill-rule="nonzero" node-id="281" stroke="none" target-height="201.39996" target-width="149" target-x="733" target-y="630.9"></path><path d="M 144.20 649.00 L 207.90 649.00 L 208.80 678.60 L 208.40 737.80 L 176.10 738.00 L 143.80 737.60 L 143.30 693.30 L 143.50 671.10 L 144.20 649.00 Z" fill="#c7bdb5" fill-rule="nonzero" node-id="283" stroke="none" target-height="89" target-width="65.5" target-x="143.3" target-y="649"></path><path d="M 225.80 648.90 L 274.50 648.80 L 282.50 649.20 L 290.60 650.00 L 298.60 651.10 L 295.00 657.50 L 291.70 664.20 L 288.80 671.10 L 286.30 678.20 L 284.40 685.50 L 283.00 692.80 L 282.40 698.30 L 282.30 709.40 L 282.80 714.90 L 283.80 720.30 L 285.30 725.60 L 287.20 730.90 L 289.70 736.10 L 279.10 737.20 L 257.90 738.20 L 226.00 737.50 L 225.30 715.40 L 225.00 693.20 L 225.80 648.90 Z" fill="#c6bbb2" fill-rule="nonzero" node-id="285" stroke="none" target-height="89.400024" target-width="73.600006" target-x="225" target-y="648.8"></path><path d="M 743.20 649.60 L 760.40 649.10 L 811.90 649.00 L 812.10 737.20 L 783.50 738.40 L 776.40 738.30 L 769.30 737.80 L 760.00 736.00 L 755.40 734.70 L 757.90 729.40 L 759.80 724.00 L 761.20 718.60 L 762.00 713.20 L 762.40 707.60 L 762.40 702.10 L 761.90 696.50 L 761.00 690.90 L 759.30 683.50 L 757.00 676.30 L 754.10 669.20 L 750.80 662.30 L 747.20 655.80 L 743.20 649.60 Z" fill="#c6bcb5" fill-rule="nonzero" node-id="287" stroke="none" target-height="89.400024" target-width="68.89996" target-x="743.2" target-y="649"></path><path d="M 829.30 648.80 L 854.90 649.00 L 880.50 649.80 L 880.30 693.90 L 880.40 738.00 L 854.90 738.30 L 842.10 738.10 L 829.30 737.70 L 829.30 648.80 Z" fill="#c6bab1" fill-rule="nonzero" node-id="289" stroke="none" target-height="89.5" target-width="51.200012" target-x="829.3" target-y="648.8"></path><path d="M 655.00 649.30 L 660.50 655.00 L 665.60 661.10 L 684.00 687.10 L 688.80 693.40 L 694.00 699.40 L 697.70 703.10 L 706.00 709.80 L 709.30 711.80 L 712.60 713.30 L 716.00 714.30 L 723.20 715.40 L 732.40 715.20 L 748.90 713.00 L 750.50 719.00 L 745.80 728.30 L 743.00 732.70 L 739.80 736.70 L 737.40 739.10 L 734.70 741.30 L 731.70 743.20 L 727.40 745.50 L 722.80 747.20 L 718.10 748.40 L 713.30 748.90 L 708.50 749.00 L 703.60 748.50 L 698.80 747.40 L 694.20 745.90 L 689.80 743.90 L 685.60 741.40 L 681.70 738.40 L 678.20 735.00 L 664.30 720.00 L 657.40 711.00 L 653.10 703.20 L 653.30 676.20 L 653.90 662.70 L 655.00 649.30 Z" fill="#e2a984" fill-rule="nonzero" node-id="291" stroke="none" target-height="99.70001" target-width="97.400024" target-x="653.1" target-y="649.3"></path><path d="M 468.90 697.30 L 478.40 697.10 L 513.20 698.30 L 538.60 697.20 L 576.70 696.70 L 576.90 717.90 L 576.70 739.20 L 522.80 739.00 L 469.00 739.20 L 468.90 697.30 Z" fill="#d5d0d5" fill-rule="nonzero" node-id="293" stroke="none" target-height="42.5" target-width="108.00003" target-x="468.9" target-y="696.7"></path><path d="M 422.80 702.60 L 440.90 702.40 L 459.00 703.90 L 459.10 752.10 L 423.00 752.20 L 422.30 727.40 L 422.80 702.60 Z" fill="#a9796d" fill-rule="nonzero" node-id="295" stroke="none" target-height="49.799988" target-width="36.80002" target-x="422.3" target-y="702.4"></path><path d="M 585.70 702.60 L 621.30 702.10 L 621.50 726.80 L 621.20 751.60 L 609.40 751.90 L 585.70 751.70 L 585.70 702.60 Z" fill="#b48271" fill-rule="nonzero" node-id="297" stroke="none" target-height="49.80005" target-width="35.799988" target-x="585.7" target-y="702.1"></path><path d="M 383.00 735.10 L 392.20 721.90 L 395.20 735.10 L 383.00 735.10 Z" fill="#524f3b" fill-rule="nonzero" node-id="299" stroke="none" target-height="13.199951" target-width="12.200012" target-x="383" target-y="721.9"></path><path d="M 652.30 722.30 L 654.90 724.30 L 659.00 729.00 L 661.50 733.00 L 663.30 737.50 L 650.50 735.70 L 652.30 722.30 Z" fill="#4f523b" fill-rule="nonzero" node-id="301" stroke="none" target-height="15.200012" target-width="12.799988" target-x="650.5" target-y="722.3"></path><path d="M 376.50 743.20 L 378.30 742.10 L 380.30 741.40 L 382.30 741.10 L 385.40 741.20 L 388.50 742.00 L 394.30 744.80 L 395.10 754.90 L 396.10 795.70 L 397.50 812.00 L 398.30 830.40 L 399.30 842.70 L 399.70 844.50 L 401.20 847.70 L 408.60 856.00 L 410.10 859.20 L 412.40 879.70 L 414.10 898.30 L 298.60 898.30 L 260.10 897.70 L 230.80 898.30 L 220.90 897.90 L 214.40 897.30 L 208.10 896.20 L 201.80 894.80 L 195.70 892.90 L 189.70 890.30 L 183.90 887.20 L 178.10 883.40 L 172.70 879.10 L 167.70 874.40 L 163.10 869.30 L 159.00 863.80 L 155.30 858.00 L 152.00 852.00 L 149.30 845.70 L 147.00 839.20 L 145.20 832.50 L 144.00 825.80 L 143.30 819.00 L 142.90 809.50 L 142.70 781.30 L 149.00 781.30 L 155.20 780.60 L 161.40 779.40 L 170.10 792.80 L 179.30 805.80 L 192.90 785.10 L 197.10 792.20 L 200.90 799.50 L 207.20 814.70 L 210.50 804.50 L 213.50 798.00 L 217.10 793.50 L 221.10 790.70 L 226.90 814.70 L 233.10 802.40 L 239.00 790.00 L 230.80 783.90 L 225.80 781.90 L 223.60 781.60 L 216.20 781.80 L 211.30 781.40 L 206.40 780.60 L 191.80 777.50 L 189.20 778.50 L 186.70 779.80 L 177.60 786.60 L 170.20 775.30 L 167.50 771.70 L 164.50 768.40 L 161.00 765.60 L 156.40 764.90 L 151.90 764.80 L 142.70 765.20 L 143.20 750.40 L 182.90 751.10 L 222.60 751.30 L 302.00 750.90 L 320.10 757.50 L 326.30 759.00 L 330.50 759.70 L 334.80 759.80 L 343.80 759.00 L 348.30 758.10 L 352.60 756.70 L 360.90 753.10 L 365.00 750.80 L 376.50 743.20 Z" fill="#99a25c" fill-rule="nonzero" node-id="303" stroke="none" target-height="157.20001" target-width="271.40002" target-x="142.7" target-y="741.1"></path><path d="M 405.90 745.70 L 410.40 743.80 L 412.50 752.50 L 414.10 761.40 L 426.50 762.00 L 438.90 762.30 L 440.10 783.60 L 440.60 804.90 L 441.00 847.60 L 432.90 846.90 L 424.90 845.80 L 414.30 843.30 L 409.20 841.50 L 406.40 793.60 L 405.80 777.70 L 405.60 761.70 L 405.90 745.70 Z" fill="#b0806f" fill-rule="nonzero" node-id="305" stroke="none" target-height="103.79999" target-width="35.399994" target-x="405.6" target-y="743.8"></path><path d="M 628.10 761.50 L 629.80 759.50 L 630.90 757.10 L 633.70 746.60 L 634.80 744.10 L 636.30 741.80 L 637.80 745.50 L 638.80 749.20 L 639.50 752.90 L 639.80 758.50 L 639.70 764.30 L 638.20 781.60 L 637.80 801.30 L 637.00 815.20 L 634.60 843.10 L 618.80 845.90 L 610.90 846.90 L 602.90 847.60 L 603.80 762.60 L 622.10 762.20 L 628.10 761.50 Z" fill="#b37d6e" fill-rule="nonzero" node-id="307" stroke="none" target-height="105.79999" target-width="36.899963" target-x="602.9" target-y="741.8"></path><path d="M 115.00 771.40 L 115.70 766.90 L 116.60 765.00 L 118.30 762.20 L 122.90 757.40 L 130.60 751.00 L 131.50 798.40 L 132.10 810.30 L 134.10 828.20 L 136.70 840.30 L 140.70 852.00 L 143.20 857.60 L 146.10 863.00 L 149.40 868.20 L 157.10 877.90 L 161.20 882.30 L 165.70 886.40 L 170.40 890.20 L 175.40 893.70 L 186.00 899.60 L 197.30 904.20 L 209.00 907.30 L 223.60 909.50 L 232.20 910.10 L 240.80 910.40 L 266.70 910.30 L 284.00 911.10 L 276.20 918.00 L 272.00 921.10 L 267.60 923.60 L 264.40 924.80 L 261.10 925.60 L 235.30 926.70 L 224.20 926.50 L 213.10 925.80 L 205.80 924.90 L 198.50 923.60 L 191.30 921.90 L 184.60 919.70 L 178.10 917.00 L 171.80 914.00 L 165.60 910.50 L 159.70 906.60 L 154.10 902.40 L 148.80 897.80 L 143.70 892.80 L 139.10 887.60 L 134.80 882.00 L 131.00 876.10 L 127.60 869.80 L 124.60 863.10 L 122.00 856.20 L 119.80 849.10 L 117.90 841.90 L 115.10 827.40 L 115.20 818.10 L 114.70 790.10 L 115.00 771.40 Z" fill="#d9654a" fill-rule="nonzero" node-id="309" stroke="none" target-height="175.70001" target-width="169.3" target-x="114.7" target-y="751"></path><path d="M 464.40 760.90 L 466.40 758.40 L 470.90 749.70 L 540.50 749.70 L 557.90 750.10 L 575.20 751.00 L 579.20 761.60 L 593.50 762.50 L 593.30 812.90 L 577.30 812.40 L 561.30 811.20 L 560.90 795.50 L 559.70 780.00 L 541.30 779.00 L 522.90 778.70 L 486.10 779.20 L 485.20 794.90 L 485.10 810.70 L 476.50 811.60 L 468.00 812.10 L 459.40 812.10 L 450.80 811.60 L 450.20 762.50 L 457.30 761.90 L 464.40 760.90 Z" fill="#ab7564" fill-rule="nonzero" node-id="311" stroke="none" target-height="63.200012" target-width="143.29999" target-x="450.2" target-y="749.7"></path><path d="M 890.60 762.20 L 908.30 765.20 L 909.20 773.40 L 909.70 789.60 L 908.60 826.30 L 908.60 838.50 L 905.00 847.60 L 897.20 865.60 L 892.60 874.20 L 889.10 879.70 L 885.30 885.00 L 877.00 894.50 L 868.00 902.60 L 863.10 906.20 L 856.30 910.60 L 849.20 914.50 L 841.80 917.80 L 834.20 920.60 L 826.50 922.90 L 818.50 924.60 L 810.50 925.80 L 802.40 926.40 L 759.80 926.20 L 742.50 925.40 L 739.50 924.90 L 734.00 922.90 L 718.60 913.50 L 713.20 911.50 L 710.20 910.90 L 706.70 912.20 L 703.30 913.90 L 690.50 922.40 L 687.20 924.10 L 683.70 925.50 L 678.80 926.30 L 499.20 925.90 L 496.50 925.40 L 493.90 924.60 L 490.20 922.80 L 476.40 913.30 L 472.80 911.30 L 469.50 912.20 L 466.40 913.60 L 452.00 923.70 L 448.90 925.10 L 444.40 926.10 L 378.60 924.90 L 327.70 925.30 L 320.30 924.90 L 312.90 924.10 L 308.80 922.70 L 304.90 919.40 L 298.80 911.80 L 311.40 910.20 L 324.00 909.10 L 794.30 909.10 L 800.60 908.90 L 806.80 908.40 L 813.00 907.40 L 819.10 906.00 L 825.20 904.20 L 836.70 899.60 L 842.30 896.70 L 847.70 893.40 L 852.80 889.90 L 857.70 886.00 L 862.30 881.70 L 867.20 876.30 L 871.70 870.60 L 875.80 864.60 L 879.50 858.40 L 882.80 851.90 L 885.50 845.10 L 887.70 838.20 L 889.30 831.10 L 890.30 823.90 L 890.70 808.50 L 890.60 762.20 Z" fill="#db654f" fill-rule="nonzero" node-id="313" stroke="none" target-height="164.20001" target-width="610.9" target-x="298.8" target-y="762.2"></path><path d="M 142.70 765.20 L 151.90 764.80 L 156.40 764.90 L 161.00 765.60 L 164.50 768.40 L 167.50 771.70 L 170.20 775.30 L 177.60 786.60 L 186.70 779.80 L 189.20 778.50 L 191.80 777.50 L 206.40 780.60 L 211.30 781.40 L 216.20 781.80 L 223.60 781.60 L 225.80 781.90 L 227.90 782.50 L 230.80 783.90 L 239.00 790.00 L 233.10 802.40 L 226.90 814.70 L 221.10 790.70 L 217.10 793.50 L 213.50 798.00 L 210.50 804.50 L 207.20 814.70 L 200.90 799.50 L 197.10 792.20 L 192.90 785.10 L 179.30 805.80 L 170.10 792.80 L 161.40 779.40 L 155.20 780.60 L 149.00 781.30 L 142.70 781.30 L 142.70 765.20 Z" fill="#686946" fill-rule="nonzero" node-id="315" stroke="none" target-height="49.900024" target-width="96.3" target-x="142.7" target-y="764.8"></path><path d="M 838.00 770.60 L 840.80 768.20 L 842.60 767.40 L 846.40 766.90 L 850.20 767.70 L 851.80 768.50 L 854.50 770.90 L 855.30 772.60 L 857.70 783.60 L 858.20 793.10 L 857.80 797.80 L 857.00 802.50 L 855.70 807.00 L 853.90 811.20 L 851.70 815.20 L 849.60 817.90 L 847.30 820.40 L 844.60 822.70 L 841.50 824.70 L 836.60 820.20 L 832.10 815.40 L 832.30 812.60 L 833.10 810.10 L 839.10 797.90 L 839.80 795.50 L 840.00 793.10 L 839.90 789.40 L 837.90 778.10 L 837.60 774.30 L 838.00 770.60 Z" fill="#cacd6d" fill-rule="nonzero" node-id="317" stroke="none" target-height="57.799988" target-width="26.100037" target-x="832.1" target-y="766.9"></path><path d="M 762.10 795.10 L 762.90 785.40 L 763.40 783.10 L 764.40 781.30 L 765.40 780.30 L 766.70 779.50 L 770.50 778.50 L 772.50 778.40 L 774.60 778.70 L 776.60 779.40 L 780.00 781.70 L 781.40 783.20 L 782.30 784.90 L 782.90 786.70 L 782.90 788.60 L 782.40 790.50 L 780.10 794.20 L 777.40 796.10 L 775.10 796.80 L 772.50 797.00 L 769.90 796.70 L 762.10 795.10 Z" fill="#c8d073" fill-rule="nonzero" node-id="319" stroke="none" target-height="18.599976" target-width="20.800049" target-x="762.1" target-y="778.4"></path><path d="M 495.30 790.30 L 518.40 790.60 L 517.30 808.50 L 515.50 826.40 L 513.30 844.20 L 510.60 861.90 L 504.50 897.30 L 485.30 898.30 L 439.50 898.40 L 432.10 898.00 L 428.50 897.40 L 424.90 896.30 L 423.40 889.70 L 422.50 883.10 L 422.00 876.40 L 421.30 856.20 L 450.20 859.70 L 450.90 850.40 L 452.00 822.60 L 477.60 822.60 L 481.80 822.20 L 486.00 821.40 L 490.10 820.20 L 492.50 815.70 L 494.10 809.70 L 495.30 790.30 Z" fill="#875039" fill-rule="nonzero" node-id="321" stroke="none" target-height="108.10004" target-width="97.10004" target-x="421.3" target-y="790.3"></path><path d="M 529.10 790.00 L 540.00 789.90 L 550.80 790.40 L 551.30 800.40 L 553.40 820.30 L 572.60 822.30 L 591.80 823.70 L 592.90 846.30 L 594.70 857.50 L 609.80 857.30 L 624.80 856.70 L 624.50 867.00 L 623.60 877.30 L 620.60 897.70 L 580.00 898.80 L 566.40 898.70 L 539.40 897.40 L 533.70 861.80 L 530.60 838.00 L 529.60 826.10 L 528.90 814.10 L 528.70 802.10 L 529.10 790.00 Z" fill="#854d37" fill-rule="nonzero" node-id="323" stroke="none" target-height="108.89996" target-width="96.099976" target-x="528.7" target-y="789.9"></path><path d="M 104.90 852.30 L 106.50 833.90 L 108.60 815.70 L 111.30 797.50 L 112.90 812.50 L 115.10 827.40 L 117.90 841.90 L 119.80 849.10 L 122.00 856.20 L 124.60 863.10 L 127.60 869.80 L 131.00 876.10 L 134.80 882.00 L 139.10 887.60 L 143.70 892.80 L 148.80 897.80 L 154.10 902.40 L 159.70 906.60 L 165.60 910.50 L 171.80 914.00 L 178.10 917.00 L 184.60 919.70 L 191.30 921.90 L 198.50 923.60 L 205.80 924.90 L 213.10 925.80 L 224.20 926.50 L 235.30 926.60 L 257.50 925.90 L 261.10 925.60 L 264.40 924.80 L 267.60 923.60 L 272.00 921.10 L 276.20 918.00 L 284.00 911.10 L 266.70 910.30 L 240.80 910.40 L 223.60 909.50 L 215.00 908.30 L 242.30 907.80 L 269.50 908.00 L 324.00 909.10 L 311.40 910.20 L 298.80 911.80 L 304.90 919.40 L 308.80 922.70 L 312.90 924.10 L 320.30 924.90 L 327.70 925.30 L 378.60 924.90 L 444.40 926.10 L 448.90 925.10 L 452.00 923.70 L 466.40 913.60 L 469.50 912.20 L 472.80 911.30 L 476.40 913.30 L 490.20 922.80 L 493.90 924.60 L 496.50 925.40 L 499.20 925.90 L 678.80 926.30 L 683.70 925.50 L 687.20 924.10 L 690.50 922.40 L 703.30 913.90 L 706.70 912.20 L 710.20 910.90 L 713.20 911.50 L 718.60 913.50 L 734.00 922.90 L 739.50 924.90 L 742.50 925.40 L 759.80 926.20 L 794.40 926.50 L 802.40 926.40 L 810.50 925.80 L 818.50 924.60 L 826.50 922.90 L 834.20 920.60 L 841.80 917.80 L 849.20 914.50 L 856.30 910.60 L 863.10 906.20 L 868.00 902.60 L 877.00 894.50 L 885.30 885.00 L 889.10 879.70 L 892.60 874.20 L 897.20 865.60 L 901.30 856.60 L 908.60 838.50 L 909.80 842.90 L 910.50 847.30 L 910.80 851.80 L 910.50 858.40 L 909.70 865.10 L 908.50 871.80 L 907.00 878.30 L 905.90 881.60 L 902.80 887.80 L 899.90 892.10 L 896.70 896.20 L 889.80 903.90 L 883.70 909.70 L 877.30 915.00 L 870.50 920.00 L 863.50 924.60 L 856.10 928.60 L 848.50 932.20 L 840.70 935.30 L 832.70 937.90 L 824.60 939.80 L 816.30 941.20 L 808.00 942.00 L 799.60 942.20 L 754.20 942.10 L 721.00 942.90 L 703.10 943.00 L 649.10 942.00 L 614.90 942.00 L 566.20 942.80 L 550.00 942.80 L 533.80 942.30 L 477.60 943.00 L 293.00 943.10 L 256.80 942.90 L 213.20 942.10 L 205.90 941.50 L 198.60 940.50 L 191.40 939.00 L 184.30 937.10 L 177.40 934.70 L 170.60 932.00 L 164.00 928.70 L 157.50 925.10 L 151.40 921.20 L 145.50 916.80 L 139.80 912.10 L 134.50 907.10 L 129.50 901.70 L 124.80 896.00 L 120.50 890.00 L 113.40 878.20 L 110.20 872.10 L 107.60 865.70 L 106.30 861.30 L 105.40 856.90 L 104.90 852.30 Z" fill="#bc4e3e" fill-rule="nonzero" node-id="325" stroke="none" target-height="145.59998" target-width="805.89996" target-x="104.9" target-y="797.5"></path><path d="M 523.10 847.40 L 527.20 881.40 L 528.10 898.40 L 515.70 898.20 L 516.20 889.60 L 517.10 881.10 L 519.90 864.20 L 523.10 847.40 Z" fill="#bfa952" fill-rule="nonzero" node-id="327" stroke="none" target-height="51" target-width="12.399963" target-x="515.7" target-y="847.4"></path></svg>