<?xml version="1.0" standalone="no"?><!DOCTYPE svg PUBLIC "-//W3C//DTD SVG 1.1//EN" "http://www.w3.org/Graphics/SVG/1.1/DTD/svg11.dtd"><svg height="1024" node-id="1" sillyvg="true" template-height="1024" template-width="1024" version="1.1" viewBox="0 0 1024 1024" width="1024" xmlns="http://www.w3.org/2000/svg" xmlns:xlink="http://www.w3.org/1999/xlink"><defs node-id="92"></defs><path d="M 0.00 0.00 L 1024.00 0.00 L 1024.00 1024.00 L 0.00 1024.00 Z" fill="#ebeadf" fill-rule="nonzero" node-id="94" stroke="none" target-height="1024" target-width="1024" target-x="0" target-y="0"></path><path d="M 378.80 362.50 L 383.10 358.70 L 387.80 355.50 L 390.40 354.50 L 393.20 353.90 L 407.30 353.30 L 428.50 353.20 L 457.00 351.60 L 471.40 351.80 L 478.60 352.40 L 481.20 353.90 L 483.50 355.90 L 487.80 360.20 L 487.70 410.20 L 487.40 422.60 L 486.80 435.10 L 486.40 437.50 L 485.70 439.40 L 484.70 440.80 L 482.00 443.10 L 480.30 443.80 L 474.40 444.80 L 452.20 444.70 L 411.40 445.00 L 394.50 444.10 L 381.00 442.10 L 379.80 433.30 L 378.50 415.70 L 378.30 402.40 L 378.80 362.50 Z M 391.30 365.00 L 391.00 381.50 L 391.10 431.10 L 402.10 431.00 L 413.20 431.50 L 413.30 425.60 L 413.10 407.80 L 414.10 400.10 L 415.20 396.30 L 417.60 395.10 L 420.20 394.40 L 422.90 394.10 L 434.50 394.30 L 437.20 394.10 L 437.20 364.40 L 391.30 365.00 Z" fill="#010102" fill-rule="nonzero" node-id="96" stroke="none" target-height="93.399994" target-width="109.5" target-x="378.3" target-y="351.6"></path><path d="M 592.80 353.40 L 601.00 352.50 L 617.40 351.80 L 629.70 352.00 L 679.10 354.30 L 691.40 354.30 L 695.60 357.50 L 699.30 361.20 L 700.90 364.20 L 701.30 366.00 L 702.00 378.40 L 701.80 421.40 L 701.50 427.40 L 700.30 435.30 L 699.20 439.10 L 698.10 440.80 L 695.50 443.10 L 693.20 444.20 L 690.60 444.90 L 679.70 445.50 L 637.50 445.50 L 616.40 445.30 L 595.40 444.60 L 593.20 436.20 L 592.20 425.50 L 592.00 370.90 L 592.80 353.40 Z M 641.00 364.30 L 641.10 379.20 L 641.50 386.60 L 642.60 394.00 L 645.30 394.20 L 657.10 393.90 L 659.90 394.20 L 662.50 395.00 L 664.90 396.30 L 665.90 400.20 L 667.00 408.20 L 667.10 432.50 L 689.30 432.20 L 689.50 395.00 L 689.90 385.80 L 691.10 372.20 L 691.00 370.10 L 690.50 368.20 L 688.90 366.10 L 687.50 365.20 L 641.00 364.30 Z" fill="#010102" fill-rule="nonzero" node-id="98" stroke="none" target-height="93.70001" target-width="110" target-x="592" target-y="351.8"></path><path d="M 400.50 80.20 L 494.40 74.20 L 508.40 73.00 L 522.30 72.30 L 536.30 72.00 L 550.30 72.20 L 564.20 72.80 L 586.10 74.30 L 651.60 77.80 L 673.40 79.30 L 695.20 81.20 L 700.20 86.10 L 705.00 91.20 L 723.20 112.80 L 734.70 113.80 L 746.10 114.30 L 810.20 114.50 L 819.20 114.60 L 828.20 115.20 L 834.10 115.90 L 840.00 117.00 L 845.90 118.50 L 852.40 120.30 L 865.00 125.10 L 871.20 128.00 L 879.00 132.40 L 886.60 137.30 L 893.80 142.70 L 900.60 148.60 L 906.90 155.00 L 912.80 161.90 L 916.90 167.30 L 924.10 178.60 L 927.20 184.70 L 931.00 193.00 L 934.10 201.40 L 936.70 210.20 L 938.70 219.00 L 940.10 228.00 L 940.80 237.00 L 940.90 813.60 L 940.90 822.40 L 940.20 831.30 L 939.00 840.00 L 937.20 848.70 L 934.90 857.30 L 932.10 865.70 L 928.70 873.90 L 924.90 881.90 L 920.90 888.60 L 916.50 895.10 L 911.80 901.30 L 906.70 907.30 L 901.20 912.90 L 895.50 918.20 L 889.50 923.20 L 883.20 927.90 L 876.70 932.20 L 869.90 936.20 L 863.00 939.70 L 855.80 942.80 L 848.50 945.60 L 841.00 947.80 L 833.40 949.60 L 825.70 951.00 L 816.60 951.70 L 807.60 952.00 L 211.80 951.80 L 196.50 950.80 L 186.40 948.90 L 174.80 945.70 L 168.30 943.50 L 155.80 938.00 L 147.90 933.60 L 140.20 928.70 L 132.90 923.30 L 125.90 917.40 L 119.40 911.10 L 113.20 904.40 L 107.40 897.30 L 102.10 889.90 L 97.20 882.30 L 93.40 874.50 L 90.20 866.60 L 87.50 858.50 L 85.30 850.20 L 83.70 841.80 L 82.60 833.40 L 82.10 824.80 L 82.10 237.20 L 82.30 230.40 L 82.90 223.70 L 83.90 217.10 L 85.30 210.60 L 89.30 197.90 L 94.80 185.70 L 99.10 177.90 L 103.90 170.40 L 109.20 163.10 L 114.90 156.20 L 120.90 149.60 L 127.20 143.40 L 130.70 140.20 L 141.90 131.50 L 145.50 128.50 L 148.70 125.10 L 158.50 104.60 L 163.80 94.50 L 169.50 84.70 L 201.40 100.80 L 219.60 111.20 L 222.40 112.10 L 225.30 112.50 L 234.30 113.00 L 261.90 113.30 L 350.30 113.00 L 356.10 112.30 L 360.30 107.50 L 372.00 92.40 L 376.10 87.60 L 380.50 83.10 L 382.60 82.00 L 386.90 80.80 L 400.50 80.20 Z M 388.90 91.70 L 384.40 95.10 L 380.70 99.30 L 340.10 150.60 L 322.10 174.40 L 318.80 176.90 L 313.90 183.50 L 358.40 187.20 L 356.20 187.40 L 352.30 188.50 L 347.10 191.80 L 342.30 195.90 L 318.60 194.60 L 318.20 264.00 L 317.10 284.20 L 316.50 304.50 L 316.40 345.10 L 315.30 335.50 L 313.70 325.90 L 307.50 333.40 L 305.80 336.10 L 304.30 340.00 L 303.90 342.20 L 283.10 335.50 L 293.20 311.60 L 282.60 307.00 L 271.70 302.90 L 277.60 290.90 L 284.20 279.20 L 267.10 272.40 L 261.60 269.90 L 274.20 249.60 L 262.70 244.40 L 251.00 240.00 L 263.20 217.70 L 240.80 207.80 L 245.90 196.90 L 250.60 185.80 L 232.70 178.90 L 238.20 168.80 L 242.80 158.40 L 220.80 149.80 L 221.80 145.70 L 224.80 137.90 L 230.90 126.90 L 223.50 124.20 L 216.20 121.10 L 209.20 117.60 L 188.30 106.40 L 178.70 125.10 L 190.30 130.90 L 201.50 137.40 L 195.90 147.10 L 191.40 157.40 L 211.40 167.80 L 202.30 188.50 L 221.10 198.80 L 213.00 219.50 L 231.70 229.20 L 227.10 239.30 L 223.30 249.70 L 242.00 261.60 L 233.10 282.90 L 252.80 290.40 L 247.00 301.60 L 244.50 307.30 L 242.50 313.30 L 262.10 322.90 L 253.80 344.80 L 273.20 355.10 L 267.60 365.50 L 262.50 376.10 L 281.80 386.80 L 277.00 396.50 L 272.70 406.50 L 279.30 411.00 L 286.20 415.20 L 293.40 419.00 L 287.70 428.90 L 282.80 439.20 L 303.60 450.20 L 298.40 460.90 L 293.60 471.70 L 312.00 480.90 L 307.90 492.00 L 303.40 503.00 L 312.90 508.20 L 322.70 513.10 L 319.20 525.00 L 314.90 536.60 L 320.70 539.60 L 312.60 539.30 L 315.60 546.50 L 307.00 543.30 L 298.60 539.80 L 304.10 529.00 L 310.10 518.40 L 288.10 508.60 L 292.90 497.00 L 298.40 485.60 L 278.00 475.90 L 288.30 452.60 L 281.60 450.00 L 267.70 445.90 L 268.10 442.90 L 269.80 437.30 L 277.30 421.00 L 270.80 418.40 L 264.30 416.30 L 257.60 414.70 L 257.90 411.70 L 259.50 406.10 L 267.20 390.20 L 247.90 382.20 L 250.00 376.10 L 257.60 358.20 L 237.30 350.10 L 249.40 327.90 L 226.80 318.00 L 232.60 306.70 L 237.60 294.90 L 216.20 287.90 L 229.20 265.90 L 218.60 260.90 L 207.80 256.30 L 217.80 234.00 L 197.70 224.70 L 201.40 217.60 L 208.10 203.10 L 187.90 194.50 L 196.90 171.50 L 176.50 162.10 L 181.20 151.20 L 186.30 140.50 L 167.90 133.40 L 168.40 136.40 L 152.90 161.70 L 145.60 174.70 L 152.10 177.30 L 142.40 183.10 L 132.70 178.10 L 134.60 173.00 L 136.90 168.20 L 148.20 149.70 L 150.70 144.90 L 152.80 139.90 L 147.30 142.10 L 142.00 144.90 L 136.30 149.40 L 130.90 154.30 L 125.70 159.40 L 120.90 164.90 L 116.40 170.60 L 112.20 176.60 L 108.40 182.70 L 104.90 189.10 L 101.80 195.70 L 99.00 202.50 L 96.70 209.30 L 94.70 216.40 L 93.20 223.50 L 92.00 230.70 L 91.30 237.90 L 91.00 245.20 L 91.50 742.80 L 91.00 760.50 L 90.90 778.20 L 91.20 820.90 L 92.60 835.60 L 93.80 842.90 L 95.40 850.10 L 97.50 857.20 L 99.90 864.10 L 102.80 870.80 L 109.90 883.70 L 113.80 889.70 L 118.10 895.40 L 122.80 900.90 L 127.80 906.10 L 133.10 911.00 L 138.60 915.60 L 144.50 919.90 L 150.50 923.80 L 156.80 927.40 L 163.20 930.60 L 169.80 933.50 L 176.60 936.00 L 183.50 938.10 L 190.40 939.80 L 197.50 941.10 L 209.90 941.70 L 259.60 942.00 L 272.00 942.60 L 672.20 942.90 L 805.60 942.70 L 812.90 942.40 L 820.20 941.70 L 827.40 940.60 L 834.50 939.10 L 841.60 937.10 L 848.50 934.80 L 855.30 932.10 L 868.00 925.90 L 873.80 922.40 L 879.40 918.70 L 889.90 910.10 L 899.30 900.50 L 903.70 895.30 L 909.00 888.00 L 913.80 880.30 L 918.00 872.40 L 921.70 864.10 L 924.80 855.60 L 927.30 847.00 L 929.40 836.10 L 930.50 822.40 L 930.70 814.10 L 930.90 767.30 L 930.30 737.10 L 930.70 640.30 L 930.70 339.10 L 930.40 333.70 L 929.60 328.50 L 930.40 316.40 L 930.60 304.30 L 930.60 246.20 L 929.80 229.90 L 927.90 217.10 L 926.40 210.80 L 924.50 204.50 L 919.20 191.30 L 915.70 184.50 L 911.80 178.00 L 907.40 171.70 L 902.50 165.80 L 897.40 160.20 L 891.80 154.90 L 885.90 150.00 L 879.70 145.40 L 873.30 141.30 L 866.60 137.60 L 859.60 134.40 L 852.50 131.60 L 845.20 129.30 L 837.80 127.50 L 820.30 125.00 L 810.40 124.30 L 800.50 124.00 L 751.10 123.80 L 741.30 124.10 L 731.60 125.00 L 733.30 126.80 L 728.00 121.40 L 724.10 130.50 L 701.50 103.60 L 697.50 99.30 L 689.00 91.40 L 652.80 88.50 L 580.40 84.70 L 566.50 83.50 L 552.70 82.70 L 538.80 82.60 L 524.90 82.90 L 511.00 83.60 L 497.20 84.80 L 443.00 87.90 L 388.90 91.70 Z M 171.30 101.40 L 164.40 114.40 L 162.40 118.90 L 160.70 123.50 L 159.50 128.30 L 164.20 125.10 L 168.60 119.90 L 172.70 112.50 L 177.90 101.00 L 171.30 101.40 Z M 240.10 124.20 L 234.40 146.10 L 239.40 145.60 L 250.80 153.40 L 254.90 155.50 L 257.70 156.50 L 260.60 157.00 L 285.40 157.40 L 307.00 157.20 L 316.10 156.30 L 319.00 155.50 L 322.40 153.70 L 330.10 145.60 L 335.80 138.60 L 346.50 124.00 L 310.10 123.60 L 292.00 123.80 L 273.80 124.40 L 265.40 123.80 L 257.00 123.60 L 240.10 124.20 Z M 251.60 168.20 L 250.60 175.00 L 263.30 180.90 L 262.10 186.70 L 260.40 192.40 L 256.00 203.50 L 274.70 211.60 L 274.00 215.70 L 273.00 219.70 L 270.10 227.40 L 266.80 235.00 L 285.30 243.50 L 284.40 249.40 L 283.10 255.20 L 279.80 266.70 L 296.00 273.90 L 295.30 278.00 L 292.70 285.90 L 287.20 297.00 L 305.10 307.00 L 305.70 292.90 L 306.40 250.50 L 307.80 227.70 L 308.20 202.50 L 307.40 198.30 L 306.20 195.20 L 301.40 186.50 L 313.30 167.20 L 272.10 166.80 L 261.80 167.30 L 251.60 168.20 Z M 299.30 329.70 L 306.00 334.30 L 305.40 325.30 L 304.40 316.50 L 300.20 325.00 L 299.30 329.70 Z" fill="#090a0a" fill-rule="nonzero" node-id="100" stroke="none" target-height="880" target-width="858.80005" target-x="82.1" target-y="72"></path><path d="M 388.90 91.70 L 443.00 87.90 L 497.20 84.80 L 511.00 83.60 L 524.90 82.90 L 538.80 82.60 L 552.70 82.70 L 566.50 83.50 L 580.40 84.70 L 652.80 88.50 L 689.00 91.40 L 697.50 99.30 L 707.20 110.30 L 724.10 130.50 L 750.50 163.40 L 759.10 174.50 L 755.60 174.60 L 752.20 174.10 L 750.10 173.30 L 748.20 172.10 L 739.00 163.50 L 731.80 156.20 L 704.50 125.80 L 697.40 118.50 L 690.00 111.40 L 687.70 109.50 L 682.70 106.90 L 678.60 105.70 L 670.00 104.50 L 630.60 102.80 L 578.00 98.90 L 564.80 98.50 L 551.60 98.50 L 546.40 111.70 L 536.40 112.60 L 535.70 165.90 L 533.60 160.30 L 531.90 154.70 L 530.60 149.00 L 529.30 140.40 L 527.10 114.00 L 526.00 105.20 L 524.30 96.60 L 507.40 97.50 L 439.80 103.20 L 408.40 104.80 L 403.60 105.30 L 398.80 106.20 L 394.30 107.60 L 391.50 108.90 L 388.80 110.60 L 379.80 119.10 L 356.70 143.50 L 343.30 158.50 L 338.60 163.20 L 333.60 167.50 L 330.00 170.10 L 322.10 174.40 L 340.10 150.60 L 380.70 99.30 L 384.40 95.10 L 388.90 91.70 Z" fill="#dad2d1" fill-rule="nonzero" node-id="102" stroke="none" target-height="92.00001" target-width="436.99997" target-x="322.1" target-y="82.6"></path><path d="M 422.80 103.90 L 439.80 103.20 L 507.40 97.50 L 524.30 96.60 L 526.00 105.20 L 527.10 114.00 L 529.30 140.40 L 530.60 149.00 L 531.90 154.70 L 533.60 160.30 L 535.70 165.90 L 536.00 181.90 L 535.60 197.80 L 476.60 193.60 L 358.40 187.20 L 313.90 183.50 L 318.80 176.90 L 320.30 175.50 L 330.00 170.10 L 333.60 167.50 L 338.60 163.20 L 343.30 158.50 L 356.70 143.50 L 373.60 125.60 L 379.80 119.10 L 388.80 110.60 L 391.50 108.90 L 394.30 107.60 L 398.80 106.20 L 403.60 105.30 L 408.40 104.80 L 422.80 103.90 Z" fill="#ab9d9d" fill-rule="nonzero" node-id="104" stroke="none" target-height="101.200005" target-width="222.1" target-x="313.9" target-y="96.6"></path><path d="M 551.60 98.50 L 564.80 98.50 L 578.00 98.90 L 630.60 102.80 L 670.00 104.50 L 678.60 105.70 L 682.70 106.90 L 687.70 109.50 L 690.00 111.40 L 697.40 118.50 L 704.50 125.80 L 731.80 156.20 L 739.00 163.50 L 746.40 170.50 L 748.20 172.10 L 750.10 173.30 L 752.20 174.10 L 755.60 174.60 L 759.10 174.50 L 766.10 184.20 L 739.00 186.50 L 684.70 189.70 L 591.50 194.70 L 544.80 196.50 L 544.70 168.20 L 546.40 111.70 L 551.60 98.50 Z" fill="#bbb0b2" fill-rule="nonzero" node-id="106" stroke="none" target-height="98" target-width="221.39996" target-x="544.7" target-y="98.5"></path><path d="M 171.30 101.40 L 177.90 101.00 L 170.80 116.30 L 168.60 119.90 L 166.10 123.10 L 162.00 126.80 L 159.50 128.30 L 160.70 123.50 L 162.40 118.90 L 164.40 114.40 L 171.30 101.40 Z" fill="#bfb2b2" fill-rule="nonzero" node-id="108" stroke="none" target-height="27.300003" target-width="18.399994" target-x="159.5" target-y="101"></path><path d="M 178.70 125.10 L 188.30 106.40 L 209.20 117.60 L 216.20 121.10 L 223.50 124.20 L 230.90 126.90 L 224.80 137.90 L 221.80 145.70 L 220.80 149.80 L 242.80 158.40 L 238.20 168.80 L 232.70 178.90 L 250.60 185.80 L 245.90 196.90 L 240.80 207.80 L 263.20 217.70 L 251.00 240.00 L 262.70 244.40 L 274.20 249.60 L 261.60 269.90 L 267.10 272.40 L 284.20 279.20 L 277.60 290.90 L 271.70 302.90 L 282.60 307.00 L 293.20 311.60 L 283.10 335.50 L 303.90 342.20 L 302.90 348.20 L 300.30 355.30 L 298.20 359.30 L 293.50 367.10 L 304.10 372.40 L 314.30 378.50 L 304.50 397.90 L 314.70 404.20 L 324.70 410.80 L 315.20 431.10 L 333.40 440.60 L 322.80 461.30 L 343.60 471.50 L 332.50 492.30 L 354.00 502.40 L 343.70 523.00 L 362.60 531.50 L 352.70 552.50 L 343.50 573.90 L 321.10 566.80 L 334.10 546.20 L 314.90 536.60 L 319.20 525.00 L 322.70 513.10 L 312.90 508.20 L 303.40 503.00 L 307.90 492.00 L 312.00 480.90 L 293.60 471.70 L 298.40 460.90 L 303.60 450.20 L 282.80 439.20 L 287.70 428.90 L 293.40 419.00 L 286.20 415.20 L 279.30 411.00 L 272.70 406.50 L 277.00 396.50 L 281.80 386.80 L 262.50 376.10 L 267.60 365.50 L 273.20 355.10 L 253.80 344.80 L 262.10 322.90 L 242.50 313.30 L 244.50 307.30 L 247.00 301.60 L 252.80 290.40 L 233.10 282.90 L 242.00 261.60 L 223.30 249.70 L 227.10 239.30 L 231.70 229.20 L 213.00 219.50 L 221.10 198.80 L 202.30 188.50 L 211.40 167.80 L 191.40 157.40 L 193.50 152.20 L 195.90 147.10 L 201.50 137.40 L 190.30 130.90 L 178.70 125.10 Z" fill="#bfb2b2" fill-rule="nonzero" node-id="110" stroke="none" target-height="467.50003" target-width="183.90001" target-x="178.7" target-y="106.4"></path><path d="M 536.40 112.60 L 546.40 111.70 L 544.70 168.20 L 544.80 196.50 L 591.50 194.70 L 684.70 189.70 L 739.00 186.50 L 766.10 184.20 L 750.50 163.40 L 724.10 130.50 L 728.00 121.40 L 737.70 131.80 L 750.80 147.20 L 757.40 153.10 L 761.10 155.70 L 766.90 156.90 L 772.70 157.50 L 778.60 157.70 L 802.40 157.30 L 814.50 158.00 L 820.60 158.80 L 826.60 160.10 L 832.50 161.90 L 838.30 164.00 L 849.30 169.30 L 859.70 176.10 L 869.00 184.10 L 873.30 188.50 L 877.40 193.20 L 881.00 198.20 L 884.40 203.30 L 887.40 208.70 L 890.20 215.00 L 892.50 221.50 L 894.20 228.10 L 895.50 234.90 L 897.00 248.60 L 897.40 259.00 L 897.90 792.60 L 897.10 830.40 L 895.50 836.90 L 893.40 843.30 L 890.90 849.50 L 888.00 855.60 L 884.70 861.50 L 881.00 867.10 L 876.90 872.50 L 872.50 877.50 L 867.70 882.30 L 862.70 886.70 L 857.30 890.80 L 851.60 894.50 L 845.60 897.90 L 839.40 900.80 L 832.90 903.10 L 826.30 904.80 L 819.60 906.20 L 812.70 907.10 L 802.40 907.90 L 792.10 908.00 L 231.80 907.90 L 209.90 906.80 L 198.00 904.90 L 188.60 902.20 L 182.50 899.70 L 176.50 896.70 L 170.80 893.40 L 165.20 889.70 L 159.90 885.60 L 154.90 881.20 L 150.30 876.50 L 145.90 871.40 L 141.90 866.10 L 138.40 860.40 L 135.30 854.60 L 132.60 848.40 L 130.20 841.80 L 128.40 835.10 L 127.10 828.30 L 125.70 814.60 L 125.40 797.20 L 125.80 776.20 L 125.90 710.10 L 125.90 464.10 L 125.80 424.80 L 125.30 385.40 L 125.80 328.70 L 125.50 248.50 L 126.00 240.70 L 127.70 230.50 L 129.10 225.40 L 131.60 218.60 L 134.60 212.00 L 138.00 205.50 L 149.30 186.80 L 142.40 183.10 L 152.10 177.30 L 165.30 182.90 L 160.70 191.60 L 152.00 206.00 L 175.40 216.20 L 164.80 238.70 L 186.10 246.80 L 175.50 269.80 L 197.00 278.30 L 185.00 301.40 L 205.10 310.50 L 194.80 333.50 L 215.40 342.10 L 204.20 364.50 L 223.00 371.00 L 219.50 381.10 L 213.10 396.70 L 234.40 404.80 L 224.20 426.80 L 238.60 433.70 L 242.00 435.80 L 245.10 438.30 L 232.90 457.70 L 255.50 467.20 L 244.20 483.30 L 239.90 473.20 L 237.10 470.70 L 234.00 468.70 L 230.80 467.00 L 220.70 462.60 L 225.40 451.50 L 230.80 440.70 L 209.20 430.90 L 219.00 410.50 L 197.40 398.80 L 210.50 377.70 L 189.50 368.90 L 200.00 346.20 L 179.90 337.80 L 191.70 314.60 L 181.80 311.20 L 176.90 309.40 L 172.10 307.20 L 171.80 303.10 L 172.20 301.10 L 173.30 298.30 L 180.30 287.10 L 181.60 284.30 L 170.60 278.90 L 159.90 272.90 L 172.20 252.60 L 148.80 243.40 L 161.80 220.90 L 143.10 213.80 L 138.40 225.60 L 136.50 231.70 L 135.00 237.80 L 134.10 246.20 L 134.50 277.30 L 134.60 357.80 L 135.00 384.60 L 135.90 411.40 L 136.00 432.90 L 135.60 454.30 L 134.60 475.80 L 135.50 497.90 L 136.10 542.30 L 135.80 608.80 L 134.70 633.50 L 134.30 658.30 L 134.50 732.50 L 134.20 793.90 L 134.50 806.10 L 135.00 814.20 L 136.00 822.20 L 137.50 830.30 L 138.90 836.30 L 140.80 842.10 L 143.10 847.70 L 145.90 853.20 L 149.00 858.40 L 152.60 863.40 L 156.40 868.10 L 160.70 872.60 L 165.20 876.70 L 170.00 880.50 L 175.00 883.90 L 180.30 887.00 L 185.80 889.70 L 191.50 891.90 L 197.40 893.70 L 203.40 895.10 L 213.00 896.30 L 222.60 897.00 L 232.30 897.30 L 381.30 897.30 L 421.30 897.00 L 418.20 847.00 L 417.50 828.20 L 416.50 824.40 L 415.20 821.70 L 408.60 811.60 L 407.50 809.00 L 406.80 805.10 L 407.40 792.60 L 408.40 782.20 L 412.00 751.10 L 412.70 740.70 L 412.60 726.80 L 412.00 719.80 L 408.70 693.10 L 405.20 666.40 L 402.60 648.70 L 396.40 613.30 L 380.70 612.20 L 372.80 612.10 L 365.00 612.50 L 367.30 618.50 L 369.90 624.30 L 379.00 641.30 L 384.30 652.90 L 386.20 659.00 L 387.50 664.50 L 389.00 675.70 L 389.20 681.30 L 388.70 692.60 L 387.10 700.70 L 383.60 710.40 L 375.50 727.10 L 390.20 734.60 L 382.30 750.50 L 374.90 766.60 L 352.40 764.20 L 362.10 757.20 L 365.20 754.40 L 368.10 751.40 L 372.10 746.60 L 375.60 741.30 L 369.60 736.90 L 366.50 735.10 L 363.20 733.60 L 358.50 732.80 L 345.00 732.80 L 349.90 724.50 L 353.90 723.60 L 357.50 722.20 L 360.90 720.30 L 364.00 718.10 L 366.90 715.50 L 371.70 709.50 L 375.30 702.60 L 376.60 698.90 L 378.30 691.30 L 378.30 685.30 L 377.40 673.30 L 375.10 661.50 L 373.40 655.80 L 371.30 650.20 L 368.80 644.80 L 365.90 639.50 L 363.60 636.40 L 360.90 633.70 L 357.90 631.40 L 342.10 623.10 L 357.50 620.80 L 355.60 600.20 L 376.20 602.20 L 387.70 602.90 L 393.20 588.60 L 406.10 589.90 L 419.00 590.60 L 422.30 583.00 L 426.10 575.60 L 446.60 576.20 L 457.50 550.90 L 453.40 546.00 L 448.90 541.40 L 442.30 536.00 L 438.70 533.80 L 434.90 531.90 L 430.90 530.50 L 426.60 529.60 L 419.30 544.60 L 399.70 542.40 L 393.10 542.30 L 391.70 543.40 L 389.50 546.00 L 388.40 548.40 L 385.10 561.40 L 360.60 559.20 L 350.10 587.40 L 324.80 578.90 L 313.30 574.00 L 307.70 571.00 L 317.70 551.10 L 312.60 539.30 L 320.70 539.60 L 334.10 546.20 L 321.10 566.80 L 343.50 573.90 L 352.70 552.50 L 362.60 531.50 L 343.70 523.00 L 354.00 502.40 L 332.50 492.30 L 343.60 471.50 L 322.80 461.30 L 333.40 440.60 L 315.20 431.10 L 324.70 410.80 L 314.70 404.20 L 304.50 397.90 L 314.30 378.50 L 304.10 372.40 L 293.50 367.10 L 298.20 359.30 L 302.00 351.10 L 303.60 345.30 L 304.30 340.00 L 305.80 336.10 L 307.50 333.40 L 313.70 325.90 L 315.30 335.50 L 316.40 345.10 L 316.50 358.50 L 316.80 363.00 L 317.70 366.30 L 323.40 378.90 L 324.40 382.20 L 323.90 386.10 L 321.00 397.20 L 332.10 402.50 L 334.50 393.00 L 336.40 383.40 L 341.30 354.50 L 345.70 332.90 L 345.90 328.90 L 344.40 325.60 L 338.90 316.30 L 356.90 315.60 L 353.60 287.50 L 351.20 259.40 L 350.60 245.30 L 350.50 231.10 L 369.50 232.60 L 373.80 275.50 L 378.80 318.30 L 405.40 321.70 L 397.80 248.10 L 396.60 233.30 L 417.80 233.40 L 420.20 263.50 L 424.10 323.70 L 452.80 326.90 L 451.00 303.90 L 449.50 280.90 L 448.50 257.90 L 447.90 234.90 L 469.80 235.10 L 470.80 250.80 L 471.20 266.50 L 471.30 329.40 L 500.90 332.60 L 499.10 284.10 L 498.50 259.80 L 498.40 235.50 L 520.00 236.10 L 520.10 260.70 L 519.60 334.90 L 532.20 335.50 L 544.80 335.70 L 557.50 335.50 L 557.90 268.90 L 558.30 257.80 L 560.00 235.70 L 580.70 235.50 L 580.50 251.70 L 578.30 316.70 L 578.10 332.90 L 607.10 329.80 L 608.30 298.40 L 609.10 235.60 L 632.60 234.80 L 630.70 265.70 L 626.10 327.40 L 654.90 324.60 L 656.40 309.60 L 660.40 249.10 L 661.90 234.00 L 683.30 233.60 L 682.10 248.40 L 675.80 307.50 L 674.60 322.30 L 703.10 319.00 L 705.90 290.30 L 710.70 232.80 L 729.80 232.50 L 729.80 246.50 L 729.30 260.30 L 728.40 274.20 L 726.30 294.90 L 723.70 315.60 L 740.30 318.40 L 740.40 324.40 L 728.10 327.40 L 732.00 342.50 L 733.70 350.00 L 736.80 369.20 L 745.70 415.10 L 747.50 426.70 L 755.90 426.30 L 758.20 373.30 L 759.30 320.30 L 760.20 302.90 L 760.70 285.40 L 760.90 215.60 L 761.80 195.20 L 589.70 205.20 L 570.00 206.20 L 537.00 206.90 L 510.60 206.20 L 400.00 199.80 L 342.30 195.90 L 347.10 191.80 L 352.30 188.50 L 356.20 187.40 L 358.40 187.20 L 476.60 193.60 L 535.60 197.80 L 536.00 181.90 L 535.70 165.90 L 536.40 112.60 Z M 767.60 166.90 L 776.10 179.30 L 777.10 181.90 L 777.50 185.70 L 772.70 202.70 L 771.90 206.40 L 771.60 210.30 L 771.40 226.00 L 771.40 272.90 L 771.10 288.60 L 770.10 304.20 L 769.30 366.50 L 768.60 387.30 L 767.30 403.50 L 766.10 435.90 L 748.10 439.90 L 748.30 478.90 L 748.00 491.90 L 747.40 497.60 L 746.20 503.10 L 744.40 508.40 L 739.70 518.60 L 736.70 523.40 L 731.90 530.40 L 726.60 537.10 L 724.50 537.50 L 720.60 539.50 L 710.50 548.50 L 720.70 561.00 L 726.20 569.40 L 736.80 586.50 L 742.40 594.90 L 744.30 598.60 L 747.40 606.30 L 749.10 612.30 L 750.30 618.40 L 739.50 619.60 L 728.70 620.30 L 737.10 642.20 L 745.80 663.90 L 755.00 685.50 L 752.40 689.50 L 738.90 690.40 L 744.10 717.90 L 744.60 725.80 L 744.70 733.80 L 743.90 749.60 L 742.00 755.40 L 739.60 761.00 L 736.70 766.50 L 734.20 770.40 L 728.40 777.40 L 725.10 780.60 L 721.50 783.40 L 717.60 785.80 L 713.50 787.80 L 703.70 791.10 L 698.30 792.20 L 692.80 792.80 L 681.80 792.70 L 667.90 790.90 L 659.80 789.40 L 659.80 806.70 L 659.30 812.50 L 652.70 820.90 L 650.80 823.80 L 649.90 825.90 L 649.40 828.20 L 648.70 841.70 L 646.10 874.80 L 645.50 885.80 L 645.30 896.90 L 806.20 897.60 L 812.10 897.20 L 818.00 896.40 L 823.70 895.00 L 829.40 893.30 L 835.00 891.20 L 840.30 888.70 L 845.60 885.90 L 850.60 882.70 L 860.00 875.30 L 868.30 866.80 L 872.10 862.20 L 875.40 857.30 L 878.50 852.20 L 881.20 846.90 L 883.50 841.50 L 885.40 835.90 L 886.80 830.10 L 888.10 814.60 L 889.00 799.10 L 889.50 771.90 L 889.20 760.30 L 887.40 737.10 L 887.60 669.10 L 887.10 601.10 L 887.10 418.70 L 887.30 389.20 L 887.10 374.50 L 886.50 359.70 L 887.20 354.10 L 887.40 348.40 L 887.10 282.80 L 887.40 264.50 L 887.00 246.30 L 885.90 237.30 L 884.80 231.40 L 883.30 225.60 L 881.20 219.80 L 878.50 213.40 L 875.30 207.40 L 871.50 201.80 L 867.20 196.50 L 862.50 191.50 L 857.40 187.00 L 852.00 182.90 L 846.20 179.20 L 840.20 175.90 L 833.90 173.10 L 827.60 170.80 L 821.00 168.90 L 815.10 167.80 L 803.30 166.70 L 767.60 166.90 Z M 358.60 329.40 L 355.60 338.30 L 353.30 347.40 L 351.00 359.70 L 347.50 384.50 L 345.60 403.20 L 344.20 421.90 L 342.30 459.40 L 348.10 463.60 L 353.40 468.20 L 353.70 471.70 L 353.40 475.10 L 349.90 488.70 L 360.70 496.00 L 365.50 500.40 L 364.90 505.20 L 361.20 519.30 L 368.40 523.30 L 375.90 526.90 L 375.30 530.80 L 374.40 534.50 L 368.50 549.00 L 378.60 549.80 L 381.50 530.70 L 406.70 531.40 L 411.00 531.80 L 416.20 519.30 L 436.50 520.90 L 439.90 521.50 L 446.10 523.50 L 448.90 525.00 L 451.50 527.10 L 453.90 529.70 L 459.60 537.30 L 465.70 544.60 L 581.80 544.80 L 620.50 545.10 L 628.60 545.70 L 660.80 545.10 L 674.50 546.00 L 680.10 545.80 L 685.80 545.10 L 691.40 543.90 L 696.80 542.30 L 702.10 540.20 L 707.20 537.70 L 711.90 534.70 L 716.40 531.30 L 720.50 527.40 L 724.10 523.00 L 729.80 514.30 L 733.50 506.20 L 736.00 496.40 L 736.90 490.60 L 737.40 484.60 L 737.60 475.70 L 737.30 440.20 L 736.80 431.50 L 736.00 422.80 L 734.20 409.90 L 725.10 360.80 L 722.80 350.40 L 717.10 329.80 L 706.30 329.70 L 695.60 330.40 L 583.60 342.60 L 546.20 346.30 L 538.60 346.40 L 523.50 345.60 L 512.20 344.40 L 478.40 340.00 L 418.70 333.00 L 385.40 330.20 L 358.60 329.40 Z M 680.00 557.20 L 658.90 557.20 L 660.80 566.60 L 663.40 585.40 L 664.50 599.70 L 665.00 614.00 L 701.30 609.40 L 736.70 608.80 L 731.90 599.30 L 726.70 589.90 L 721.20 580.70 L 715.10 571.80 L 708.70 563.30 L 701.90 555.00 L 698.30 554.50 L 694.60 554.50 L 690.90 555.00 L 680.00 557.20 Z M 452.50 587.50 L 431.90 586.40 L 428.80 601.70 L 416.00 602.40 L 403.10 602.50 L 406.20 616.10 L 411.20 643.60 L 423.10 726.50 L 445.90 727.90 L 491.60 729.30 L 525.90 729.60 L 628.70 729.20 L 638.50 728.80 L 640.90 728.30 L 642.90 727.40 L 643.90 726.50 L 644.70 725.20 L 645.20 723.40 L 650.30 663.90 L 653.20 623.80 L 653.80 610.40 L 653.90 601.50 L 653.10 583.70 L 652.10 574.90 L 650.60 566.10 L 648.50 557.40 L 621.80 556.90 L 595.20 557.10 L 592.70 560.70 L 586.80 567.10 L 582.00 571.50 L 576.80 575.50 L 566.20 583.10 L 547.10 587.20 L 542.30 587.80 L 532.50 587.90 L 522.70 586.40 L 508.20 583.10 L 502.30 579.50 L 496.70 575.60 L 491.30 571.40 L 486.20 566.70 L 481.60 561.60 L 477.50 556.10 L 473.30 558.40 L 469.50 561.00 L 466.10 563.90 L 462.90 567.20 L 460.10 570.70 L 457.60 574.60 L 455.50 578.60 L 453.80 582.90 L 452.50 587.50 Z M 492.80 557.30 L 495.90 560.40 L 502.80 565.50 L 506.60 567.60 L 511.80 569.90 L 517.30 571.70 L 522.90 573.00 L 528.70 573.80 L 534.40 574.20 L 540.10 574.20 L 550.20 573.30 L 555.20 572.30 L 560.10 570.80 L 564.80 569.00 L 569.40 566.80 L 573.70 564.10 L 577.70 561.10 L 581.50 557.60 L 559.30 557.00 L 537.10 556.80 L 492.80 557.30 Z M 664.30 624.00 L 661.60 648.20 L 660.00 672.50 L 673.30 673.00 L 686.60 674.00 L 726.50 677.70 L 739.80 678.50 L 738.00 677.50 L 736.70 672.10 L 733.30 661.40 L 720.40 630.40 L 718.00 621.40 L 712.00 620.60 L 700.10 620.20 L 691.10 620.80 L 664.30 624.00 Z M 659.40 682.60 L 657.60 697.20 L 656.40 711.80 L 655.70 731.30 L 656.40 750.80 L 657.40 760.50 L 659.30 772.20 L 660.10 773.90 L 661.20 775.40 L 662.90 776.60 L 667.50 778.80 L 672.20 780.40 L 677.10 781.50 L 682.10 782.20 L 687.10 782.40 L 692.20 782.10 L 697.20 781.30 L 702.00 780.10 L 706.80 778.40 L 711.30 776.30 L 715.60 773.60 L 719.60 770.60 L 722.30 768.00 L 724.50 765.20 L 726.40 762.10 L 728.80 757.30 L 730.80 752.20 L 733.80 741.70 L 734.20 736.70 L 733.90 726.80 L 733.10 719.50 L 729.00 697.50 L 726.30 688.60 L 704.10 685.50 L 693.00 684.40 L 676.20 683.20 L 659.40 682.60 Z M 421.70 748.60 L 418.10 787.80 L 417.60 797.70 L 417.60 807.50 L 419.80 806.50 L 435.20 807.20 L 450.60 807.60 L 452.10 794.60 L 453.10 781.60 L 466.70 780.60 L 473.50 780.70 L 483.70 781.40 L 493.90 782.50 L 497.20 789.80 L 500.20 797.20 L 505.60 812.30 L 518.70 813.90 L 531.90 815.10 L 539.80 815.00 L 562.80 811.90 L 569.70 792.50 L 574.10 783.10 L 580.60 782.10 L 587.10 781.70 L 613.40 782.40 L 615.00 796.40 L 616.90 810.40 L 625.10 808.90 L 638.00 809.20 L 651.00 808.70 L 650.10 791.30 L 645.50 739.50 L 536.50 740.10 L 500.20 739.80 L 475.90 739.40 L 426.10 737.70 L 424.20 738.60 L 423.40 739.80 L 422.80 741.50 L 421.70 748.60 Z M 461.20 790.70 L 460.10 804.50 L 458.30 818.30 L 450.30 818.70 L 442.40 818.70 L 426.40 818.00 L 427.50 831.00 L 429.60 870.10 L 431.70 896.10 L 460.20 897.40 L 474.50 897.60 L 488.80 897.40 L 517.20 896.00 L 521.30 842.80 L 522.20 825.10 L 507.90 822.70 L 504.40 821.70 L 501.10 820.20 L 499.00 818.40 L 495.80 814.30 L 493.80 810.90 L 486.80 792.10 L 478.30 791.00 L 461.20 790.70 Z M 581.40 792.90 L 577.70 800.20 L 573.10 811.70 L 571.30 815.30 L 569.20 818.80 L 566.50 822.00 L 561.60 822.80 L 546.50 823.80 L 548.60 860.40 L 551.30 897.00 L 579.30 897.40 L 635.20 896.90 L 637.40 871.30 L 640.20 819.80 L 624.20 819.70 L 616.30 819.30 L 608.40 818.30 L 607.10 809.50 L 605.60 791.80 L 589.30 791.20 L 584.00 792.10 L 581.40 792.90 Z M 527.40 897.20 L 541.10 897.50 L 538.50 855.30 L 537.70 848.40 L 536.40 841.50 L 534.80 834.60 L 533.00 841.40 L 530.40 855.20 L 529.30 865.60 L 527.40 897.20 Z" fill="#040505" fill-rule="nonzero" node-id="112" stroke="none" target-height="796.3" target-width="772.60004" target-x="125.3" target-y="111.7"></path><path d="M 240.10 124.20 L 257.00 123.60 L 265.40 123.80 L 291.20 126.00 L 326.00 127.40 L 316.00 134.40 L 310.70 137.50 L 305.20 140.10 L 301.50 141.40 L 297.50 142.40 L 293.40 142.90 L 284.40 143.50 L 257.40 144.20 L 248.40 144.70 L 234.40 146.10 L 240.10 124.20 Z" fill="#679d84" fill-rule="nonzero" node-id="114" stroke="none" target-height="22.500008" target-width="91.600006" target-x="234.4" target-y="123.6"></path><path d="M 273.80 124.40 L 292.00 123.80 L 310.10 123.60 L 346.50 124.00 L 335.80 138.60 L 330.10 145.60 L 322.40 153.70 L 319.00 155.50 L 316.10 156.30 L 307.00 157.20 L 285.40 157.40 L 260.60 157.00 L 257.70 156.50 L 254.90 155.50 L 250.80 153.40 L 239.40 145.60 L 248.40 144.70 L 257.40 144.20 L 284.40 143.50 L 293.40 142.90 L 297.50 142.40 L 301.50 141.40 L 305.20 140.10 L 310.70 137.50 L 316.00 134.40 L 326.00 127.40 L 291.20 126.00 L 273.80 124.40 Z" fill="#578c6f" fill-rule="nonzero" node-id="116" stroke="none" target-height="33.799995" target-width="107.100006" target-x="239.4" target-y="123.6"></path><path d="M 731.60 125.00 L 741.30 124.10 L 751.10 123.80 L 800.50 124.00 L 810.40 124.30 L 820.30 125.00 L 830.20 126.30 L 777.80 126.40 L 751.70 127.40 L 763.30 136.50 L 767.50 139.00 L 773.50 141.30 L 776.80 141.90 L 783.20 142.30 L 809.10 141.50 L 815.50 141.80 L 822.50 142.60 L 829.40 143.90 L 836.20 145.60 L 843.00 147.80 L 849.50 150.40 L 855.90 153.50 L 862.00 156.90 L 868.00 160.70 L 873.70 164.90 L 879.10 169.40 L 884.10 174.20 L 888.90 179.40 L 893.30 184.90 L 897.30 190.70 L 900.90 196.70 L 904.10 203.10 L 906.90 209.80 L 909.00 216.60 L 910.70 223.60 L 912.60 237.80 L 913.00 245.00 L 913.20 255.90 L 912.40 287.80 L 912.80 293.10 L 913.60 298.40 L 915.30 303.30 L 917.50 308.00 L 928.20 325.90 L 918.50 332.50 L 916.30 334.30 L 914.50 336.50 L 912.90 339.80 L 911.70 350.30 L 911.50 358.70 L 911.90 384.20 L 911.80 443.10 L 912.60 709.70 L 913.60 719.00 L 914.80 723.50 L 916.80 726.40 L 919.20 728.80 L 930.30 737.10 L 930.90 767.30 L 930.70 814.10 L 930.50 822.40 L 929.40 836.10 L 927.30 847.00 L 924.80 855.60 L 921.70 864.10 L 918.00 872.40 L 913.80 880.30 L 909.00 888.00 L 903.70 895.30 L 894.70 905.40 L 884.80 914.50 L 879.40 918.70 L 873.80 922.40 L 868.00 925.90 L 861.90 929.00 L 855.30 932.10 L 848.50 934.80 L 841.60 937.10 L 834.50 939.10 L 827.40 940.60 L 820.20 941.70 L 812.90 942.40 L 805.60 942.70 L 272.00 942.60 L 259.60 942.00 L 209.90 941.70 L 197.50 941.10 L 190.40 939.80 L 183.50 938.10 L 176.60 936.00 L 169.80 933.50 L 156.80 927.40 L 144.50 919.90 L 138.60 915.60 L 133.10 911.00 L 127.80 906.10 L 122.80 900.90 L 118.10 895.40 L 113.80 889.70 L 109.90 883.70 L 102.80 870.80 L 99.90 864.10 L 97.50 857.20 L 95.40 850.10 L 93.80 842.90 L 92.60 835.60 L 91.20 820.90 L 90.90 778.20 L 91.00 760.50 L 91.50 742.80 L 100.80 736.10 L 103.60 733.60 L 106.80 729.70 L 108.00 727.50 L 109.20 723.20 L 110.00 718.80 L 110.70 709.90 L 111.00 353.70 L 110.60 347.10 L 109.70 340.50 L 107.70 330.70 L 104.40 318.30 L 104.20 315.60 L 104.40 313.00 L 105.40 309.00 L 109.80 297.50 L 117.60 305.00 L 119.70 307.90 L 120.70 309.90 L 121.40 312.20 L 122.10 323.60 L 122.10 350.20 L 122.70 367.90 L 124.10 379.60 L 125.30 385.40 L 125.80 424.80 L 125.90 464.10 L 125.90 710.10 L 125.60 765.80 L 120.60 753.80 L 114.10 756.20 L 107.90 759.20 L 106.80 763.70 L 105.90 772.80 L 105.90 786.80 L 106.70 816.20 L 108.30 832.40 L 110.70 845.20 L 112.40 851.40 L 114.60 857.60 L 119.80 868.90 L 125.60 878.80 L 129.00 883.40 L 133.90 889.30 L 139.30 894.70 L 145.00 899.80 L 151.10 904.50 L 157.50 908.70 L 164.10 912.60 L 171.10 916.00 L 178.10 919.00 L 185.30 921.60 L 190.60 923.00 L 201.50 925.00 L 209.70 925.70 L 218.00 926.10 L 234.50 926.30 L 244.60 926.00 L 249.70 925.50 L 254.70 924.60 L 257.90 923.70 L 260.90 922.30 L 276.20 912.40 L 279.40 910.80 L 282.80 909.80 L 285.10 909.40 L 290.10 909.90 L 292.90 911.40 L 295.30 913.30 L 297.40 915.60 L 303.40 923.00 L 313.40 924.40 L 323.40 925.20 L 333.50 925.60 L 408.00 925.50 L 432.90 925.80 L 448.50 925.40 L 453.70 924.70 L 458.20 922.80 L 471.70 911.90 L 476.00 910.00 L 478.50 909.40 L 481.10 910.00 L 486.00 912.00 L 499.30 921.10 L 502.80 922.90 L 506.60 924.30 L 515.20 925.40 L 523.90 925.80 L 626.50 925.60 L 676.40 925.90 L 684.20 925.60 L 692.00 924.70 L 695.60 923.70 L 698.90 922.10 L 702.00 920.00 L 711.00 913.30 L 714.10 911.30 L 717.50 909.70 L 719.50 909.50 L 723.00 910.10 L 725.50 911.20 L 727.80 912.80 L 738.80 922.00 L 741.10 923.40 L 743.60 924.40 L 747.50 925.30 L 751.60 925.80 L 759.80 926.10 L 811.00 926.00 L 823.50 925.00 L 835.70 922.40 L 847.60 918.40 L 858.90 913.00 L 869.50 906.30 L 879.20 898.40 L 883.60 894.00 L 887.80 889.30 L 891.60 884.40 L 899.50 872.40 L 903.20 865.30 L 906.40 858.00 L 909.10 850.40 L 911.30 842.70 L 912.90 834.90 L 914.00 827.00 L 916.50 787.10 L 916.60 779.20 L 916.00 769.40 L 914.90 766.40 L 913.50 764.50 L 911.60 762.80 L 903.00 757.60 L 901.60 775.80 L 900.50 803.20 L 899.80 812.30 L 898.70 821.40 L 897.10 830.40 L 897.90 792.60 L 897.50 605.10 L 897.50 269.30 L 897.00 248.60 L 896.40 241.70 L 894.20 228.10 L 892.50 221.50 L 890.20 215.00 L 887.40 208.70 L 884.40 203.30 L 881.00 198.20 L 877.40 193.20 L 869.00 184.10 L 859.70 176.10 L 854.60 172.60 L 849.30 169.30 L 838.30 164.00 L 832.50 161.90 L 826.60 160.10 L 820.60 158.80 L 814.50 158.00 L 802.40 157.30 L 778.60 157.70 L 772.70 157.50 L 766.90 156.90 L 761.10 155.70 L 757.40 153.10 L 750.80 147.20 L 731.60 125.00 Z" fill="#548873" fill-rule="nonzero" node-id="118" stroke="none" target-height="818.9" target-width="840" target-x="90.9" target-y="123.8"></path><path d="M 751.70 127.40 L 777.80 126.40 L 830.20 126.30 L 837.80 127.50 L 845.20 129.30 L 852.50 131.60 L 859.60 134.40 L 866.60 137.60 L 873.30 141.30 L 879.70 145.40 L 885.90 150.00 L 891.80 154.90 L 897.40 160.20 L 902.50 165.80 L 907.40 171.70 L 911.80 178.00 L 915.70 184.50 L 919.20 191.30 L 924.50 204.50 L 926.40 210.80 L 927.90 217.10 L 929.80 229.90 L 930.60 246.20 L 930.60 304.30 L 930.30 316.40 L 929.60 328.50 L 917.50 308.00 L 915.30 303.30 L 913.60 298.40 L 912.80 293.10 L 912.40 287.80 L 913.20 255.90 L 913.00 245.00 L 911.80 230.70 L 910.70 223.60 L 909.00 216.60 L 906.90 209.80 L 904.10 203.10 L 900.90 196.70 L 897.30 190.70 L 893.30 184.90 L 888.90 179.40 L 884.10 174.20 L 879.10 169.40 L 873.70 164.90 L 868.00 160.70 L 862.00 156.90 L 855.90 153.50 L 849.50 150.40 L 843.00 147.80 L 836.20 145.60 L 829.40 143.90 L 822.50 142.60 L 815.50 141.80 L 809.10 141.50 L 783.20 142.30 L 776.80 141.90 L 773.50 141.30 L 767.50 139.00 L 763.30 136.50 L 751.70 127.40 Z" fill="#69a284" fill-rule="nonzero" node-id="120" stroke="none" target-height="202.2" target-width="178.89996" target-x="751.7" target-y="126.3"></path><path d="M 167.90 133.40 L 186.30 140.50 L 181.20 151.20 L 176.50 162.10 L 196.90 171.50 L 187.90 194.50 L 208.10 203.10 L 201.40 217.60 L 197.70 224.70 L 217.80 234.00 L 207.80 256.30 L 218.60 260.90 L 229.20 265.90 L 216.20 287.90 L 237.60 294.90 L 232.60 306.70 L 226.80 318.00 L 249.40 327.90 L 237.30 350.10 L 257.60 358.20 L 250.00 376.10 L 247.90 382.20 L 267.20 390.20 L 259.50 406.10 L 257.90 411.70 L 257.60 414.70 L 256.50 448.70 L 245.10 438.30 L 242.00 435.80 L 235.10 431.80 L 224.20 426.80 L 234.40 404.80 L 213.10 396.70 L 219.50 381.10 L 227.50 385.00 L 234.70 374.50 L 223.00 371.00 L 204.20 364.50 L 215.40 342.10 L 194.80 333.50 L 205.10 310.50 L 185.00 301.40 L 197.00 278.30 L 175.50 269.80 L 186.10 246.80 L 164.80 238.70 L 175.40 216.20 L 152.00 206.00 L 155.80 200.00 L 173.20 209.70 L 178.90 184.80 L 172.00 184.40 L 168.60 183.90 L 165.30 182.90 L 159.10 180.10 L 165.20 168.40 L 167.90 162.40 L 170.00 156.20 L 170.60 152.90 L 170.60 149.60 L 169.70 142.90 L 167.90 133.40 Z" fill="#beb3af" fill-rule="nonzero" node-id="122" stroke="none" target-height="315.30002" target-width="115.20001" target-x="152" target-y="133.4"></path><path d="M 145.60 174.70 L 152.90 161.70 L 168.40 136.40 L 170.30 146.30 L 170.60 149.60 L 170.60 152.90 L 170.00 156.20 L 167.90 162.40 L 165.20 168.40 L 159.10 180.10 L 145.60 174.70 Z" fill="#9c9392" fill-rule="nonzero" node-id="124" stroke="none" target-height="43.700012" target-width="25" target-x="145.6" target-y="136.4"></path><path d="M 142.00 144.90 L 147.30 142.10 L 152.80 139.90 L 150.70 144.90 L 148.20 149.70 L 139.60 163.50 L 134.60 173.00 L 130.10 184.30 L 121.20 202.40 L 115.80 214.60 L 113.60 220.90 L 112.00 227.50 L 111.10 233.30 L 110.10 244.90 L 110.00 253.70 L 110.50 280.00 L 110.40 288.80 L 109.80 297.50 L 105.40 309.00 L 104.40 313.00 L 104.20 315.60 L 104.40 318.30 L 107.70 330.70 L 109.70 340.50 L 110.60 347.10 L 111.00 353.70 L 110.80 701.00 L 110.40 714.40 L 109.20 723.20 L 108.00 727.50 L 106.80 729.70 L 103.60 733.60 L 100.80 736.10 L 91.50 742.80 L 91.00 245.20 L 91.30 237.90 L 92.00 230.70 L 93.20 223.50 L 94.70 216.40 L 96.70 209.30 L 99.00 202.50 L 101.80 195.70 L 104.90 189.10 L 108.40 182.70 L 112.20 176.60 L 116.40 170.60 L 120.90 164.90 L 125.70 159.40 L 130.90 154.30 L 136.30 149.40 L 142.00 144.90 Z" fill="#6da587" fill-rule="nonzero" node-id="126" stroke="none" target-height="602.9" target-width="61.800003" target-x="91" target-y="139.9"></path><path d="M 251.60 168.20 L 261.80 167.30 L 272.10 166.80 L 313.30 167.20 L 301.40 186.50 L 306.20 195.20 L 307.40 198.30 L 308.20 202.50 L 307.70 227.70 L 306.40 250.50 L 305.70 292.90 L 305.10 307.00 L 287.20 297.00 L 292.70 285.90 L 295.30 278.00 L 296.00 273.90 L 279.80 266.70 L 283.10 255.20 L 284.40 249.40 L 285.30 243.50 L 266.80 235.00 L 270.10 227.40 L 273.00 219.70 L 274.00 215.70 L 274.70 211.60 L 256.00 203.50 L 260.40 192.40 L 262.10 186.70 L 263.30 180.90 L 250.60 175.00 L 251.60 168.20 Z" fill="#97b8d1" fill-rule="nonzero" node-id="128" stroke="none" target-height="140.2" target-width="62.69998" target-x="250.6" target-y="166.8"></path><path d="M 767.60 166.90 L 794.40 166.50 L 809.30 167.10 L 821.00 168.90 L 827.60 170.80 L 833.90 173.10 L 840.20 175.90 L 846.20 179.20 L 852.00 182.90 L 857.40 187.00 L 862.50 191.50 L 867.20 196.50 L 871.50 201.80 L 875.30 207.40 L 878.50 213.40 L 881.20 219.80 L 883.30 225.60 L 884.80 231.40 L 885.90 237.30 L 887.00 246.30 L 887.40 255.40 L 887.20 291.80 L 883.60 291.90 L 880.20 292.40 L 877.00 293.30 L 872.30 295.10 L 867.90 297.50 L 859.30 303.10 L 830.30 315.20 L 824.40 317.20 L 818.30 318.70 L 812.00 319.60 L 811.40 335.90 L 836.70 337.20 L 849.30 337.40 L 887.30 337.00 L 887.20 354.10 L 886.50 359.70 L 862.40 386.80 L 854.60 396.00 L 844.80 408.80 L 840.40 415.50 L 848.00 417.00 L 855.80 418.00 L 863.60 418.40 L 887.10 418.70 L 887.10 601.10 L 868.60 600.10 L 867.90 563.30 L 842.60 563.00 L 817.30 563.20 L 817.30 530.20 L 836.40 530.00 L 855.60 529.20 L 855.60 464.70 L 811.30 464.10 L 767.00 464.40 L 766.60 485.80 L 766.80 507.10 L 767.50 528.40 L 785.00 529.00 L 802.40 529.90 L 803.10 540.80 L 803.20 562.60 L 785.80 562.80 L 768.50 562.50 L 764.40 555.60 L 766.30 538.80 L 746.40 538.40 L 726.60 537.00 L 731.90 530.40 L 736.70 523.40 L 739.70 518.60 L 744.40 508.40 L 746.20 503.10 L 747.40 497.60 L 748.00 491.90 L 748.30 478.90 L 748.10 439.90 L 766.10 435.90 L 767.30 403.50 L 768.60 387.30 L 769.30 366.50 L 770.10 304.20 L 771.10 288.60 L 771.40 272.90 L 771.40 226.00 L 771.60 210.30 L 771.90 206.40 L 772.70 202.70 L 777.50 185.70 L 777.10 181.90 L 776.10 179.30 L 767.60 166.90 Z" fill="#9abcd3" fill-rule="nonzero" node-id="130" stroke="none" target-height="434.59998" target-width="160.80005" target-x="726.6" target-y="166.5"></path><path d="M 132.70 178.10 L 149.30 186.80 L 138.00 205.50 L 134.60 212.00 L 131.60 218.60 L 129.10 225.40 L 127.70 230.50 L 126.00 240.70 L 125.50 248.50 L 125.50 256.40 L 125.80 328.70 L 125.30 385.40 L 124.10 379.60 L 122.70 367.90 L 122.10 350.20 L 122.10 323.60 L 121.40 312.20 L 120.70 309.90 L 119.70 307.90 L 117.60 305.00 L 109.80 297.50 L 110.40 288.80 L 110.50 280.00 L 110.00 253.70 L 110.10 244.90 L 111.10 233.30 L 112.00 227.50 L 113.60 220.90 L 115.80 214.60 L 118.40 208.50 L 130.10 184.30 L 132.70 178.10 Z" fill="#517f67" fill-rule="nonzero" node-id="132" stroke="none" target-height="207.29999" target-width="39.5" target-x="109.8" target-y="178.1"></path><path d="M 165.30 182.90 L 168.60 183.90 L 172.00 184.40 L 178.90 184.80 L 173.20 209.70 L 155.80 200.00 L 160.70 191.60 L 165.30 182.90 Z" fill="#a89e9b" fill-rule="nonzero" node-id="134" stroke="none" target-height="26.800003" target-width="23.09999" target-x="155.8" target-y="182.9"></path><path d="M 318.60 194.60 L 344.80 196.10 L 320.40 197.50 L 320.40 212.00 L 345.80 213.90 L 371.30 215.20 L 473.10 218.50 L 498.50 219.60 L 540.20 222.20 L 560.60 221.60 L 597.10 219.50 L 689.10 216.60 L 719.70 215.30 L 733.50 214.90 L 747.20 215.00 L 760.90 215.60 L 760.70 285.40 L 760.20 302.90 L 759.30 320.30 L 758.20 373.30 L 755.90 426.30 L 747.50 426.70 L 745.70 415.10 L 736.80 369.20 L 733.70 350.00 L 732.00 342.50 L 728.10 327.40 L 740.40 324.40 L 740.30 318.40 L 723.70 315.60 L 726.30 294.90 L 728.40 274.20 L 729.30 260.30 L 729.80 246.50 L 729.80 232.50 L 710.70 232.80 L 705.90 290.30 L 703.10 319.00 L 674.60 322.30 L 675.80 307.50 L 682.10 248.40 L 683.30 233.60 L 661.90 234.00 L 660.40 249.10 L 656.40 309.60 L 654.90 324.60 L 626.10 327.40 L 630.70 265.70 L 632.60 234.80 L 609.10 235.60 L 608.30 298.40 L 607.10 329.80 L 578.10 332.90 L 578.30 316.70 L 580.50 251.70 L 580.70 235.50 L 560.00 235.70 L 559.00 246.70 L 557.90 268.90 L 557.50 335.50 L 544.80 335.70 L 532.20 335.50 L 519.60 334.90 L 520.10 260.70 L 520.00 236.10 L 498.40 235.50 L 498.50 259.80 L 499.10 284.10 L 500.90 332.60 L 471.30 329.40 L 471.20 266.50 L 470.80 250.80 L 469.80 235.10 L 447.90 234.90 L 448.50 257.90 L 449.50 280.90 L 451.00 303.90 L 452.80 326.90 L 424.10 323.70 L 422.30 293.60 L 417.80 233.40 L 396.60 233.30 L 397.80 248.10 L 405.40 321.70 L 378.80 318.30 L 373.80 275.50 L 369.50 232.60 L 350.50 231.10 L 350.60 245.30 L 351.20 259.40 L 353.60 287.50 L 356.90 315.60 L 338.90 316.30 L 344.40 325.60 L 345.90 328.90 L 345.70 332.90 L 341.30 354.50 L 336.40 383.40 L 334.50 393.00 L 332.10 402.50 L 321.00 397.20 L 323.90 386.10 L 324.40 382.20 L 323.40 378.90 L 317.70 366.30 L 316.80 363.00 L 316.40 354.10 L 316.50 304.50 L 317.10 284.20 L 318.20 264.00 L 318.60 194.60 Z" fill="#ac9d98" fill-rule="nonzero" node-id="136" stroke="none" target-height="232.1" target-width="444.50003" target-x="316.4" target-y="194.6"></path><path d="M 668.80 200.80 L 761.80 195.20 L 760.90 215.60 L 747.20 215.00 L 733.50 214.90 L 719.70 215.30 L 689.10 216.60 L 597.10 219.50 L 560.60 221.60 L 540.20 222.20 L 498.50 219.60 L 473.10 218.50 L 371.30 215.20 L 345.80 213.90 L 320.40 212.00 L 320.40 197.50 L 344.80 196.10 L 400.00 199.80 L 510.60 206.20 L 537.00 206.90 L 570.00 206.20 L 649.00 201.60 L 668.80 200.80 Z" fill="#cec5c4" fill-rule="nonzero" node-id="138" stroke="none" target-height="27" target-width="441.4" target-x="320.4" target-y="195.2"></path><path d="M 143.10 213.80 L 161.80 220.90 L 148.80 243.40 L 172.20 252.60 L 159.90 272.90 L 170.60 278.90 L 181.60 284.30 L 180.30 287.10 L 173.30 298.30 L 172.20 301.10 L 171.80 303.10 L 172.10 307.20 L 176.90 309.40 L 181.80 311.20 L 191.70 314.60 L 179.90 337.80 L 200.00 346.20 L 189.50 368.90 L 210.50 377.70 L 197.40 398.80 L 219.00 410.50 L 209.20 430.90 L 230.80 440.70 L 225.40 451.50 L 220.70 462.60 L 230.80 467.00 L 234.00 468.70 L 237.10 470.70 L 239.90 473.20 L 232.00 486.30 L 228.60 493.10 L 240.10 498.10 L 251.90 502.60 L 240.80 525.20 L 251.20 529.90 L 261.70 534.00 L 250.20 557.00 L 272.60 565.90 L 259.00 592.00 L 244.00 591.80 L 229.00 592.00 L 227.60 608.80 L 203.10 612.10 L 203.40 642.40 L 188.30 637.30 L 183.30 623.20 L 181.60 619.90 L 179.50 616.80 L 163.10 619.40 L 159.80 619.70 L 151.60 616.50 L 135.80 608.80 L 136.00 520.10 L 135.50 497.90 L 134.60 475.80 L 135.60 454.30 L 136.00 432.90 L 135.90 411.40 L 135.00 384.60 L 134.60 357.80 L 134.50 277.30 L 134.10 246.20 L 135.00 237.80 L 136.50 231.70 L 138.40 225.60 L 143.10 213.80 Z M 137.70 465.70 L 137.40 480.30 L 137.60 494.90 L 155.00 495.40 L 172.40 495.40 L 189.90 494.80 L 189.20 479.60 L 184.30 478.40 L 176.40 475.90 L 173.40 474.40 L 168.10 471.20 L 163.00 469.00 L 154.70 467.30 L 137.70 465.70 Z" fill="#9abbd3" fill-rule="nonzero" node-id="140" stroke="none" target-height="428.60004" target-width="138.5" target-x="134.1" target-y="213.8"></path><path d="M 859.30 303.10 L 867.90 297.50 L 872.30 295.10 L 877.00 293.30 L 880.20 292.40 L 883.60 291.90 L 887.20 291.80 L 887.30 337.00 L 849.30 337.40 L 836.70 337.20 L 811.40 335.90 L 812.00 319.60 L 818.30 318.70 L 824.40 317.20 L 830.30 315.20 L 859.30 303.10 Z" fill="#eee9e0" fill-rule="nonzero" node-id="142" stroke="none" target-height="45.600006" target-width="75.89996" target-x="811.4" target-y="291.8"></path><path d="M 299.30 329.70 L 300.20 325.00 L 304.40 316.50 L 305.40 325.30 L 306.00 334.30 L 299.30 329.70 Z" fill="#819fd0" fill-rule="nonzero" node-id="144" stroke="none" target-height="17.799988" target-width="6.700012" target-x="299.3" target-y="316.5"></path><path d="M 358.60 329.40 L 385.40 330.20 L 418.70 333.00 L 478.40 340.00 L 512.20 344.40 L 523.50 345.60 L 538.60 346.40 L 546.20 346.30 L 583.60 342.60 L 695.60 330.40 L 706.30 329.70 L 717.10 329.80 L 722.80 350.40 L 725.10 360.80 L 734.20 409.90 L 736.00 422.80 L 736.80 431.50 L 737.30 440.20 L 737.60 475.70 L 737.40 484.60 L 736.90 490.60 L 736.00 496.40 L 733.50 506.20 L 729.80 514.30 L 724.10 523.00 L 720.50 527.40 L 716.40 531.30 L 711.90 534.70 L 707.20 537.70 L 702.10 540.20 L 696.80 542.30 L 691.40 543.90 L 685.80 545.10 L 680.10 545.80 L 674.50 546.00 L 660.80 545.10 L 628.60 545.70 L 620.50 545.10 L 581.80 544.80 L 465.70 544.60 L 459.60 537.30 L 453.90 529.70 L 501.00 529.70 L 567.20 528.80 L 624.30 529.20 L 643.40 528.90 L 662.40 528.10 L 673.20 526.70 L 683.90 523.90 L 689.00 522.00 L 693.90 519.60 L 698.70 516.90 L 703.10 513.80 L 707.20 510.30 L 711.00 506.40 L 714.30 502.00 L 719.70 492.70 L 721.70 488.00 L 723.10 483.10 L 725.00 473.20 L 725.40 468.10 L 725.50 460.40 L 725.20 452.70 L 721.80 420.20 L 717.20 368.50 L 715.90 360.80 L 715.00 356.90 L 713.60 353.30 L 712.30 351.10 L 710.70 349.10 L 708.70 347.50 L 703.50 346.80 L 696.90 347.40 L 685.30 349.80 L 691.40 354.30 L 679.10 354.30 L 629.70 352.00 L 617.40 351.80 L 601.00 352.50 L 592.80 353.40 L 574.30 353.40 L 565.10 353.90 L 550.30 355.70 L 539.00 356.20 L 530.50 355.90 L 496.40 352.60 L 487.90 352.20 L 487.80 360.20 L 483.50 355.90 L 481.20 353.90 L 478.60 352.40 L 467.40 349.30 L 456.10 346.60 L 444.80 344.40 L 433.30 342.60 L 421.80 341.40 L 410.20 340.70 L 398.70 340.60 L 387.10 341.00 L 382.60 341.60 L 374.90 343.10 L 369.30 345.50 L 366.80 347.20 L 364.60 349.30 L 362.80 351.80 L 361.70 355.30 L 360.70 362.20 L 360.80 372.90 L 362.10 391.70 L 362.80 424.90 L 363.30 433.20 L 364.10 441.40 L 366.60 455.40 L 369.80 466.50 L 372.90 474.50 L 387.90 505.80 L 391.20 513.70 L 394.80 524.70 L 396.00 530.40 L 380.80 528.10 L 375.90 526.90 L 372.10 525.20 L 361.20 519.30 L 364.90 505.20 L 365.50 500.40 L 360.70 496.00 L 349.90 488.70 L 353.40 475.10 L 353.70 471.70 L 353.40 468.20 L 348.10 463.60 L 342.30 459.40 L 344.20 421.90 L 345.60 403.20 L 347.50 384.50 L 351.00 359.70 L 353.30 347.40 L 355.60 338.30 L 358.60 329.40 Z" fill="#e4ac88" fill-rule="nonzero" node-id="146" stroke="none" target-height="216.6" target-width="395.3" target-x="342.3" target-y="329.4"></path><path d="M 659.40 682.60 L 676.20 683.20 L 693.00 684.40 L 715.20 686.90 L 726.30 688.60 L 729.00 697.50 L 711.00 695.50 L 701.90 694.80 L 692.80 694.60 L 680.80 695.40 L 674.80 696.40 L 672.90 696.90 L 671.40 697.60 L 670.20 698.70 L 668.80 700.80 L 667.90 703.30 L 667.00 708.80 L 666.80 714.10 L 667.60 723.60 L 668.40 728.50 L 669.50 733.20 L 671.10 737.80 L 673.30 742.00 L 675.00 744.60 L 677.10 747.00 L 679.60 749.10 L 684.10 751.20 L 688.70 752.60 L 693.30 753.30 L 697.90 753.50 L 702.60 753.30 L 707.30 752.50 L 716.60 749.90 L 727.70 745.10 L 733.80 741.70 L 730.80 752.20 L 728.80 757.30 L 726.40 762.10 L 724.50 765.20 L 722.30 768.00 L 719.60 770.60 L 715.60 773.60 L 711.30 776.30 L 706.80 778.40 L 702.00 780.10 L 697.20 781.30 L 692.20 782.10 L 687.10 782.40 L 682.10 782.20 L 677.10 781.50 L 672.20 780.40 L 667.50 778.80 L 662.90 776.60 L 661.20 775.40 L 660.10 773.90 L 659.30 772.20 L 658.90 770.20 L 657.40 760.50 L 656.40 750.80 L 655.80 741.10 L 655.80 721.60 L 656.40 711.80 L 657.60 697.20 L 659.40 682.60 Z" fill="#e4ac88" fill-rule="nonzero" node-id="148" stroke="none" target-height="99.80005" target-width="78" target-x="655.8" target-y="682.6"></path><path d="M 912.50 341.80 L 913.60 338.00 L 916.30 334.40 L 918.50 332.50 L 928.20 325.90 L 929.60 328.50 L 930.40 333.70 L 930.70 339.10 L 930.70 640.30 L 930.30 737.10 L 919.20 728.80 L 916.80 726.40 L 914.80 723.50 L 913.60 719.00 L 912.60 709.70 L 911.80 443.10 L 911.90 384.20 L 911.50 358.70 L 911.70 350.30 L 912.50 341.80 Z" fill="#6ea388" fill-rule="nonzero" node-id="150" stroke="none" target-height="411.19998" target-width="19.200012" target-x="911.5" target-y="325.9"></path><path d="M 387.10 341.00 L 398.70 340.60 L 410.20 340.70 L 421.80 341.40 L 433.30 342.60 L 444.80 344.40 L 456.10 346.60 L 467.40 349.30 L 478.60 352.40 L 471.40 351.80 L 457.00 351.60 L 428.50 353.20 L 407.30 353.30 L 393.20 353.90 L 390.40 354.50 L 387.80 355.50 L 383.10 358.70 L 378.80 362.50 L 375.50 367.70 L 372.80 373.10 L 370.60 378.50 L 367.60 389.90 L 366.70 395.80 L 365.90 404.60 L 365.50 413.70 L 365.50 449.60 L 364.10 441.40 L 362.80 424.90 L 362.10 391.70 L 360.60 367.50 L 361.00 358.70 L 362.80 351.80 L 364.60 349.30 L 366.80 347.20 L 369.30 345.50 L 374.90 343.10 L 382.60 341.60 L 387.10 341.00 Z" fill="#eab998" fill-rule="nonzero" node-id="152" stroke="none" target-height="109" target-width="118" target-x="360.6" target-y="340.6"></path><path d="M 685.30 349.80 L 696.90 347.40 L 700.90 346.90 L 706.10 347.00 L 708.70 347.50 L 710.70 349.10 L 712.30 351.10 L 713.60 353.30 L 715.00 356.90 L 715.90 360.80 L 717.20 368.50 L 721.80 420.20 L 725.20 452.70 L 725.50 460.40 L 725.00 473.20 L 723.10 483.10 L 721.70 487.90 L 719.70 492.70 L 717.20 497.30 L 714.30 502.00 L 711.00 506.40 L 707.20 510.30 L 703.10 513.80 L 698.70 516.90 L 693.90 519.60 L 689.00 522.00 L 683.90 523.90 L 673.20 526.70 L 662.40 528.10 L 643.40 528.90 L 624.30 529.20 L 567.20 528.70 L 501.00 529.70 L 453.90 529.70 L 451.50 527.10 L 448.90 525.00 L 446.10 523.50 L 443.10 522.30 L 436.50 520.90 L 416.20 519.30 L 411.00 531.80 L 396.00 530.40 L 394.80 524.70 L 391.20 513.70 L 387.90 505.80 L 372.90 474.50 L 369.80 466.50 L 366.60 455.40 L 365.50 449.60 L 365.50 413.70 L 365.90 404.70 L 366.70 395.80 L 367.60 389.90 L 368.90 384.20 L 370.60 378.50 L 372.80 373.10 L 375.50 367.70 L 378.80 362.50 L 378.30 402.40 L 378.50 415.70 L 379.80 433.40 L 381.00 442.10 L 387.70 443.30 L 401.20 444.60 L 421.60 445.00 L 452.20 444.70 L 474.40 444.80 L 480.30 443.80 L 483.50 442.10 L 485.70 439.40 L 486.40 437.50 L 486.80 435.10 L 487.40 422.60 L 487.90 352.20 L 496.40 352.60 L 530.50 355.90 L 539.00 356.20 L 550.30 355.70 L 565.10 353.90 L 574.30 353.40 L 592.80 353.40 L 592.00 370.90 L 592.20 425.50 L 593.20 436.20 L 595.40 444.60 L 616.40 445.30 L 637.50 445.50 L 685.10 445.30 L 690.60 444.90 L 693.20 444.20 L 695.50 443.10 L 698.10 440.80 L 699.20 439.10 L 700.30 435.30 L 701.50 427.40 L 701.80 421.40 L 702.00 378.40 L 701.30 366.00 L 700.20 362.60 L 697.60 359.20 L 695.60 357.50 L 685.30 349.80 Z M 575.00 466.40 L 501.90 466.60 L 499.00 465.90 L 496.20 464.80 L 488.10 460.60 L 486.20 462.70 L 484.90 464.90 L 484.10 467.10 L 483.90 469.40 L 484.30 474.40 L 485.40 478.10 L 489.40 489.10 L 491.70 493.00 L 494.20 496.60 L 497.00 499.90 L 500.00 502.90 L 504.50 506.40 L 509.30 509.50 L 514.50 512.00 L 519.90 514.10 L 525.50 515.60 L 531.30 516.60 L 537.10 517.20 L 543.00 517.20 L 548.80 516.70 L 554.50 515.80 L 560.10 514.30 L 569.20 510.70 L 572.80 508.80 L 579.20 503.90 L 582.90 500.10 L 586.20 495.90 L 589.00 491.20 L 591.30 486.40 L 593.10 481.30 L 594.40 476.00 L 595.20 470.70 L 595.40 465.30 L 595.10 460.00 L 592.40 460.30 L 589.90 461.00 L 580.20 465.50 L 577.70 466.20 L 575.00 466.40 Z" fill="#f2c4a5" fill-rule="nonzero" node-id="154" stroke="none" target-height="184.9" target-width="360" target-x="365.5" target-y="346.9"></path><path d="M 840.40 415.50 L 844.80 408.80 L 854.60 396.00 L 862.40 386.80 L 886.50 359.70 L 887.10 374.50 L 887.30 389.20 L 887.10 418.70 L 863.60 418.40 L 855.80 418.00 L 848.00 417.00 L 840.40 415.50 Z" fill="#526456" fill-rule="nonzero" node-id="156" stroke="none" target-height="59" target-width="46.899963" target-x="840.4" target-y="359.7"></path><path d="M 391.30 365.00 L 437.20 364.40 L 437.20 394.10 L 434.50 394.30 L 422.90 394.10 L 420.20 394.40 L 417.50 395.10 L 415.20 396.30 L 414.10 400.10 L 413.10 407.80 L 413.20 431.50 L 402.10 431.00 L 391.10 431.10 L 391.00 381.50 L 391.30 365.00 Z" fill="#fefdfd" fill-rule="nonzero" node-id="158" stroke="none" target-height="67.100006" target-width="46.200012" target-x="391" target-y="364.4"></path><path d="M 641.00 364.30 L 687.50 365.20 L 688.90 366.10 L 690.50 368.20 L 691.00 370.10 L 691.10 372.20 L 689.90 385.80 L 689.50 395.00 L 689.30 432.20 L 667.10 432.50 L 667.00 408.20 L 665.90 400.20 L 664.90 396.30 L 662.50 395.00 L 659.90 394.20 L 657.10 393.90 L 645.30 394.20 L 642.60 394.00 L 641.50 386.60 L 641.10 379.20 L 641.00 364.30 Z" fill="#fcfaf8" fill-rule="nonzero" node-id="160" stroke="none" target-height="68.20001" target-width="50.099976" target-x="641" target-y="364.3"></path><path d="M 223.00 371.00 L 234.70 374.50 L 227.50 385.00 L 219.50 381.10 L 223.00 371.00 Z" fill="#9c9695" fill-rule="nonzero" node-id="162" stroke="none" target-height="14" target-width="15.199997" target-x="219.5" target-y="371"></path><path d="M 566.20 583.10 L 602.80 580.50 L 615.00 580.00 L 627.20 579.80 L 639.40 580.30 L 639.60 594.40 L 639.10 608.40 L 635.20 666.90 L 632.90 691.40 L 629.80 711.00 L 620.30 712.50 L 610.70 713.40 L 601.10 713.80 L 555.90 714.00 L 506.80 714.80 L 490.40 714.70 L 474.10 714.20 L 452.30 712.60 L 441.50 711.30 L 436.30 691.70 L 434.00 678.40 L 433.30 671.70 L 433.10 665.00 L 433.40 658.30 L 434.30 651.60 L 437.20 648.70 L 450.00 638.50 L 452.80 635.60 L 456.00 631.20 L 459.80 621.80 L 462.00 614.80 L 468.60 585.90 L 488.40 583.60 L 498.30 583.10 L 508.20 583.10 L 527.60 587.30 L 532.50 587.90 L 542.30 587.80 L 551.90 586.30 L 566.20 583.10 Z" fill="#beb3b5" fill-rule="nonzero" node-id="164" stroke="none" target-height="135" target-width="206.49997" target-x="433.1" target-y="579.8"></path><path d="M 256.50 448.70 L 257.60 414.70 L 264.30 416.30 L 270.80 418.40 L 277.30 421.00 L 269.80 437.30 L 268.10 442.90 L 267.70 445.90 L 262.40 454.00 L 256.50 448.70 Z" fill="#d7cbc7" fill-rule="nonzero" node-id="166" stroke="none" target-height="39.299988" target-width="20.799988" target-x="256.5" target-y="414.7"></path><path d="M 232.90 457.70 L 245.10 438.30 L 262.40 454.00 L 264.60 457.10 L 266.40 460.40 L 267.60 463.80 L 268.40 467.40 L 268.80 471.10 L 268.50 478.50 L 266.80 485.80 L 265.50 489.40 L 262.10 496.00 L 246.90 490.10 L 244.20 483.30 L 255.50 467.20 L 232.90 457.70 Z" fill="#aa9f9e" fill-rule="nonzero" node-id="168" stroke="none" target-height="57.700012" target-width="35.899994" target-x="232.9" target-y="438.3"></path><path d="M 267.70 445.90 L 281.60 450.00 L 288.30 452.60 L 278.00 475.90 L 298.40 485.60 L 292.90 497.00 L 288.10 508.60 L 310.10 518.40 L 304.10 529.00 L 298.60 539.80 L 307.00 543.30 L 315.60 546.50 L 317.70 551.10 L 307.70 571.00 L 313.30 574.00 L 318.90 576.60 L 345.40 586.00 L 347.90 587.50 L 349.90 589.30 L 353.10 593.70 L 354.20 596.30 L 355.40 600.30 L 357.30 618.50 L 334.30 617.20 L 328.60 617.40 L 319.60 618.70 L 316.40 618.80 L 308.60 617.70 L 294.60 614.00 L 289.90 613.00 L 285.10 612.60 L 294.10 604.30 L 301.00 599.60 L 304.90 597.80 L 322.40 601.70 L 316.10 587.70 L 306.90 585.80 L 297.80 583.30 L 280.10 577.20 L 285.40 558.90 L 265.10 550.90 L 277.00 529.00 L 255.80 519.90 L 261.00 508.70 L 266.70 497.70 L 262.10 496.00 L 265.50 489.40 L 267.80 482.20 L 268.80 474.80 L 268.80 471.10 L 268.40 467.40 L 267.60 463.80 L 266.40 460.40 L 264.60 457.10 L 262.40 454.00 L 267.70 445.90 Z" fill="#beb4b0" fill-rule="nonzero" node-id="170" stroke="none" target-height="172.9" target-width="101.499985" target-x="255.8" target-y="445.9"></path><path d="M 575.00 466.40 L 577.70 466.20 L 580.20 465.50 L 589.90 461.00 L 592.40 460.30 L 595.10 460.00 L 595.40 465.30 L 595.20 470.70 L 594.40 476.00 L 593.10 481.30 L 591.30 486.40 L 589.00 491.20 L 586.20 495.90 L 582.90 500.10 L 579.20 503.90 L 572.80 508.80 L 569.20 510.70 L 560.10 514.30 L 554.50 515.80 L 548.80 516.70 L 543.00 517.20 L 537.10 517.20 L 531.30 516.60 L 525.50 515.60 L 519.90 514.10 L 514.50 512.00 L 509.30 509.50 L 504.50 506.40 L 500.00 502.90 L 497.00 499.90 L 494.20 496.60 L 491.70 493.00 L 489.40 489.10 L 485.40 478.10 L 484.30 474.40 L 483.90 469.40 L 484.10 467.10 L 484.90 464.90 L 486.20 462.70 L 488.10 460.60 L 496.20 464.80 L 499.00 465.90 L 501.90 466.60 L 575.00 466.40 Z M 501.30 482.60 L 500.70 484.60 L 500.70 486.50 L 501.00 488.20 L 502.10 490.80 L 503.90 493.10 L 508.20 496.90 L 512.60 499.90 L 517.30 502.30 L 522.30 504.30 L 527.40 505.70 L 532.70 506.70 L 538.00 507.20 L 543.30 507.20 L 548.60 506.60 L 553.80 505.60 L 558.90 504.10 L 563.80 502.10 L 568.40 499.50 L 572.70 496.50 L 576.70 492.90 L 580.20 488.80 L 577.50 486.30 L 574.50 484.30 L 571.50 482.70 L 566.60 480.80 L 561.40 479.50 L 550.80 478.10 L 540.10 477.50 L 526.90 477.60 L 520.30 477.90 L 513.80 478.70 L 509.50 479.60 L 505.30 480.90 L 501.30 482.60 Z" fill="#030404" fill-rule="nonzero" node-id="172" stroke="none" target-height="57.200012" target-width="111.50003" target-x="483.9" target-y="460"></path><path d="M 137.70 465.70 L 154.70 467.30 L 163.00 469.00 L 168.10 471.20 L 173.40 474.40 L 176.40 475.90 L 184.30 478.40 L 189.20 479.60 L 189.90 494.80 L 172.40 495.40 L 155.00 495.40 L 137.60 494.90 L 137.40 480.30 L 137.70 465.70 Z" fill="#f1e8de" fill-rule="nonzero" node-id="174" stroke="none" target-height="29.699982" target-width="52.5" target-x="137.4" target-y="465.7"></path><path d="M 767.00 464.40 L 811.30 464.10 L 855.60 464.70 L 855.60 529.20 L 836.40 530.00 L 817.30 530.20 L 817.30 563.20 L 842.60 563.00 L 867.90 563.30 L 868.60 600.10 L 887.10 601.10 L 884.90 614.80 L 857.70 614.30 L 856.30 575.80 L 793.70 574.70 L 772.80 575.00 L 772.90 595.90 L 773.40 606.40 L 792.90 606.80 L 812.50 607.70 L 815.80 625.00 L 831.40 626.10 L 874.20 625.90 L 885.90 626.30 L 886.30 639.30 L 862.90 639.90 L 827.80 639.80 L 816.10 640.00 L 815.50 656.00 L 815.50 672.00 L 829.20 670.10 L 833.40 670.80 L 836.30 672.80 L 838.70 679.60 L 821.10 677.40 L 817.00 685.40 L 814.10 694.70 L 812.30 706.60 L 810.90 728.30 L 802.60 727.20 L 803.40 692.40 L 803.30 675.00 L 802.80 657.60 L 788.00 657.30 L 773.20 657.50 L 772.60 674.70 L 772.60 691.80 L 773.10 726.20 L 767.20 725.70 L 755.70 723.80 L 758.00 720.30 L 759.70 716.70 L 760.80 712.90 L 761.80 705.10 L 761.30 694.90 L 760.50 689.00 L 752.40 689.50 L 755.00 685.50 L 756.70 682.30 L 757.90 679.00 L 758.70 675.70 L 759.40 670.50 L 759.50 665.10 L 758.90 649.00 L 759.10 643.80 L 800.70 643.70 L 801.20 619.90 L 757.70 618.40 L 757.50 591.20 L 764.40 555.60 L 768.50 562.50 L 785.80 562.80 L 803.20 562.60 L 803.10 540.80 L 802.40 529.90 L 785.00 529.00 L 767.50 528.40 L 766.80 507.10 L 766.60 485.80 L 767.00 464.40 Z M 779.80 477.30 L 779.10 496.30 L 779.90 515.30 L 790.70 516.30 L 812.40 516.90 L 845.10 515.90 L 845.50 503.40 L 845.60 490.90 L 845.30 478.40 L 823.50 477.60 L 779.80 477.30 Z" fill="#4b5649" fill-rule="nonzero" node-id="176" stroke="none" target-height="264.19998" target-width="134.69995" target-x="752.4" target-y="464.1"></path><path d="M 228.60 493.10 L 232.00 486.30 L 239.90 473.20 L 246.90 490.10 L 266.70 497.70 L 261.00 508.70 L 255.80 519.90 L 277.00 529.00 L 265.10 550.90 L 285.40 558.90 L 280.10 577.20 L 297.80 583.30 L 306.90 585.80 L 316.10 587.70 L 322.40 601.70 L 304.90 597.80 L 282.90 590.90 L 277.30 589.60 L 271.60 588.70 L 268.30 604.20 L 253.60 603.10 L 238.90 602.50 L 237.80 619.50 L 214.30 621.20 L 214.60 657.10 L 219.50 655.60 L 224.10 653.60 L 233.20 649.10 L 237.50 648.40 L 250.70 648.10 L 254.80 634.50 L 280.90 638.40 L 285.10 612.60 L 289.90 613.00 L 294.60 614.00 L 308.60 617.70 L 316.40 618.80 L 319.60 618.70 L 328.60 617.40 L 334.30 617.20 L 357.30 618.50 L 357.50 620.80 L 342.10 623.10 L 354.60 629.50 L 343.60 627.60 L 337.80 627.30 L 332.20 627.40 L 328.40 627.90 L 324.90 628.80 L 321.50 630.10 L 318.30 631.80 L 315.30 634.10 L 312.60 636.90 L 309.20 641.80 L 306.10 646.90 L 303.40 652.30 L 301.20 658.00 L 299.50 663.70 L 298.30 669.60 L 297.50 675.60 L 297.40 681.60 L 297.80 687.60 L 298.40 692.00 L 300.90 700.60 L 302.60 704.80 L 306.00 709.60 L 309.90 714.00 L 312.70 716.60 L 315.90 718.90 L 322.50 722.30 L 329.10 724.10 L 334.30 724.60 L 349.90 724.50 L 345.00 732.80 L 355.90 733.00 L 334.20 736.80 L 336.40 742.20 L 337.90 744.60 L 340.60 747.80 L 343.80 750.70 L 351.00 755.50 L 358.60 759.60 L 352.40 764.20 L 374.90 766.60 L 358.70 767.50 L 350.80 769.00 L 346.50 771.10 L 334.50 778.60 L 334.50 768.20 L 335.00 757.80 L 320.60 751.00 L 322.40 734.20 L 315.70 730.70 L 309.30 726.70 L 305.30 723.70 L 301.60 720.40 L 298.10 716.80 L 295.10 713.00 L 292.50 708.70 L 288.80 699.80 L 286.90 691.10 L 286.30 684.40 L 286.30 677.70 L 287.00 664.30 L 289.60 649.40 L 261.40 647.60 L 258.30 658.80 L 245.10 659.00 L 240.80 659.50 L 237.80 660.80 L 229.50 665.50 L 226.70 666.90 L 223.70 667.90 L 218.50 667.10 L 213.40 665.80 L 203.20 662.80 L 203.10 612.10 L 227.60 608.80 L 229.00 592.00 L 244.00 591.80 L 259.00 592.00 L 272.60 565.90 L 250.20 557.00 L 261.70 534.00 L 251.20 529.90 L 240.80 525.20 L 251.90 502.60 L 240.10 498.10 L 228.60 493.10 Z M 292.20 625.70 L 291.60 648.40 L 296.20 642.20 L 304.50 629.20 L 292.20 625.70 Z" fill="#0a0a08" fill-rule="nonzero" node-id="178" stroke="none" target-height="305.39996" target-width="171.79999" target-x="203.1" target-y="473.2"></path><path d="M 779.80 477.30 L 823.50 477.60 L 845.30 478.40 L 845.60 490.90 L 845.50 503.40 L 845.10 515.90 L 812.40 516.90 L 790.70 516.30 L 779.90 515.30 L 779.10 496.30 L 779.80 477.30 Z" fill="#56705a" fill-rule="nonzero" node-id="180" stroke="none" target-height="39.600037" target-width="66.5" target-x="779.1" target-y="477.3"></path><path d="M 501.30 482.60 L 505.30 480.90 L 509.50 479.60 L 513.80 478.70 L 520.30 477.90 L 540.10 477.50 L 550.80 478.10 L 561.40 479.50 L 566.60 480.80 L 571.50 482.70 L 574.60 484.30 L 577.50 486.30 L 580.20 488.80 L 576.70 492.90 L 572.70 496.50 L 568.40 499.50 L 563.80 502.10 L 558.90 504.10 L 553.80 505.60 L 548.60 506.60 L 543.30 507.20 L 538.00 507.20 L 532.70 506.70 L 527.40 505.70 L 522.30 504.30 L 517.30 502.30 L 512.60 499.90 L 508.20 496.90 L 503.90 493.10 L 502.10 490.80 L 501.00 488.20 L 500.70 486.50 L 500.70 484.60 L 501.30 482.60 Z" fill="#9a4c4f" fill-rule="nonzero" node-id="182" stroke="none" target-height="29.700012" target-width="79.5" target-x="500.7" target-y="477.5"></path><path d="M 375.90 526.90 L 385.90 529.00 L 406.70 531.40 L 381.50 530.70 L 378.60 549.80 L 368.50 549.00 L 374.40 534.50 L 375.30 530.80 L 375.90 526.90 Z" fill="#bba59c" fill-rule="nonzero" node-id="184" stroke="none" target-height="22.899963" target-width="38.200012" target-x="368.5" target-y="526.9"></path><path d="M 426.60 529.60 L 430.90 530.50 L 434.90 531.90 L 438.70 533.80 L 442.30 536.00 L 448.90 541.40 L 453.40 546.00 L 457.50 550.90 L 455.40 556.10 L 442.80 553.50 L 439.30 559.50 L 435.30 565.20 L 430.90 570.60 L 426.10 575.60 L 422.30 583.00 L 419.00 590.60 L 411.00 587.80 L 408.30 576.90 L 406.40 571.60 L 404.10 566.50 L 395.70 582.90 L 387.70 602.90 L 376.20 602.20 L 375.00 579.10 L 356.90 568.80 L 360.60 559.20 L 385.10 561.40 L 388.40 548.40 L 389.50 546.00 L 391.70 543.40 L 393.10 542.30 L 399.70 542.40 L 419.30 544.60 L 426.60 529.60 Z" fill="#ccc2bf" fill-rule="nonzero" node-id="186" stroke="none" target-height="73.30005" target-width="100.600006" target-x="356.9" target-y="529.6"></path><path d="M 710.50 548.50 L 720.60 539.50 L 724.50 537.50 L 726.60 537.00 L 746.40 538.40 L 766.30 538.80 L 764.40 555.60 L 757.50 591.20 L 754.80 591.90 L 753.60 581.40 L 752.90 570.90 L 751.90 549.90 L 746.30 550.50 L 740.80 551.60 L 735.50 553.20 L 730.30 555.30 L 725.40 557.90 L 720.70 561.00 L 710.50 548.50 Z" fill="#535a3b" fill-rule="nonzero" node-id="188" stroke="none" target-height="54.900024" target-width="55.799988" target-x="710.5" target-y="537"></path><path d="M 720.70 561.00 L 725.40 557.90 L 730.30 555.30 L 735.50 553.20 L 740.80 551.60 L 746.30 550.50 L 751.90 549.90 L 752.90 570.90 L 753.60 581.40 L 754.80 591.90 L 742.40 594.90 L 720.70 561.00 Z" fill="#7d8a56" fill-rule="nonzero" node-id="190" stroke="none" target-height="45" target-width="34.099976" target-x="720.7" target-y="549.9"></path><path d="M 442.80 553.50 L 455.40 556.10 L 446.60 576.20 L 426.10 575.60 L 430.90 570.60 L 435.30 565.20 L 439.30 559.50 L 442.80 553.50 Z" fill="#9b949d" fill-rule="nonzero" node-id="192" stroke="none" target-height="22.700012" target-width="29.299988" target-x="426.1" target-y="553.5"></path><path d="M 680.00 557.20 L 690.90 555.00 L 694.60 554.50 L 698.30 554.50 L 701.90 555.00 L 708.70 563.30 L 715.10 571.80 L 721.20 580.70 L 726.70 589.90 L 731.90 599.30 L 736.70 608.80 L 666.30 609.90 L 704.00 588.00 L 693.60 579.50 L 687.50 573.10 L 684.90 569.60 L 682.70 565.80 L 681.10 561.70 L 680.00 557.20 Z" fill="#b5a9a7" fill-rule="nonzero" node-id="194" stroke="none" target-height="55.400024" target-width="70.400024" target-x="666.3" target-y="554.5"></path><path d="M 452.50 587.50 L 453.80 582.90 L 455.50 578.60 L 457.60 574.60 L 460.10 570.70 L 462.90 567.20 L 466.10 563.90 L 469.50 561.00 L 473.30 558.40 L 477.50 556.10 L 481.60 561.60 L 486.20 566.70 L 491.30 571.40 L 496.70 575.60 L 502.30 579.50 L 508.20 583.10 L 498.30 583.10 L 488.40 583.60 L 468.60 585.90 L 462.00 614.80 L 459.80 621.80 L 456.00 631.20 L 452.80 635.60 L 450.00 638.50 L 437.20 648.70 L 434.30 651.60 L 433.40 658.30 L 433.10 665.00 L 433.30 671.70 L 434.00 678.40 L 436.30 691.70 L 441.50 711.30 L 452.30 712.60 L 474.10 714.20 L 490.40 714.70 L 506.80 714.80 L 555.90 714.00 L 601.10 713.80 L 610.70 713.40 L 620.30 712.50 L 629.80 711.00 L 632.90 691.40 L 635.20 666.90 L 639.10 608.40 L 639.60 594.40 L 639.40 580.30 L 627.20 579.80 L 615.00 580.00 L 602.80 580.50 L 566.20 583.10 L 576.80 575.50 L 582.00 571.50 L 586.80 567.10 L 592.70 560.70 L 595.20 557.10 L 621.80 556.90 L 648.50 557.40 L 650.60 566.10 L 652.10 574.90 L 653.10 583.70 L 653.90 601.50 L 653.20 623.80 L 650.30 663.90 L 645.20 723.40 L 644.70 725.20 L 643.90 726.50 L 642.90 727.40 L 640.90 728.30 L 638.50 728.80 L 628.70 729.20 L 560.20 729.60 L 491.60 729.30 L 445.90 727.90 L 423.10 726.50 L 411.20 643.60 L 406.20 616.10 L 403.10 602.50 L 416.00 602.40 L 428.80 601.70 L 431.90 586.40 L 452.50 587.50 Z" fill="#a89999" fill-rule="nonzero" node-id="196" stroke="none" target-height="173.5" target-width="250.80002" target-x="403.1" target-y="556.1"></path><path d="M 492.80 557.30 L 537.10 556.80 L 559.30 557.00 L 581.50 557.60 L 577.70 561.10 L 573.70 564.10 L 569.40 566.80 L 564.80 569.00 L 560.10 570.80 L 555.20 572.30 L 550.20 573.30 L 545.20 573.90 L 534.40 574.20 L 528.70 573.80 L 522.90 573.00 L 517.30 571.70 L 511.80 569.90 L 506.60 567.60 L 502.80 565.50 L 495.90 560.40 L 492.80 557.30 Z" fill="#dea985" fill-rule="nonzero" node-id="198" stroke="none" target-height="17.400024" target-width="88.70001" target-x="492.8" target-y="556.8"></path><path d="M 658.90 557.20 L 680.00 557.20 L 681.10 561.70 L 682.70 565.80 L 684.90 569.60 L 687.50 573.10 L 693.60 579.50 L 704.00 588.00 L 666.30 609.90 L 701.30 609.40 L 665.00 614.00 L 664.50 599.70 L 663.40 585.40 L 660.80 566.60 L 658.90 557.20 Z" fill="#a79999" fill-rule="nonzero" node-id="200" stroke="none" target-height="56.799988" target-width="45.099976" target-x="658.9" target-y="557.2"></path><path d="M 350.10 587.40 L 356.90 568.80 L 375.00 579.10 L 376.20 602.20 L 355.60 600.20 L 356.00 604.60 L 355.40 600.30 L 354.20 596.30 L 351.60 591.40 L 349.90 589.30 L 347.90 587.50 L 345.40 586.00 L 342.60 584.90 L 350.10 587.40 Z" fill="#a69e9e" fill-rule="nonzero" node-id="202" stroke="none" target-height="35.799988" target-width="33.600006" target-x="342.6" target-y="568.8"></path><path d="M 393.20 588.60 L 398.30 577.40 L 404.10 566.50 L 406.40 571.60 L 408.30 576.90 L 411.00 587.80 L 419.00 590.60 L 406.10 589.90 L 393.20 588.60 Z" fill="#9f979a" fill-rule="nonzero" node-id="204" stroke="none" target-height="24.099976" target-width="25.799988" target-x="393.2" target-y="566.5"></path><path d="M 772.80 575.00 L 793.70 574.70 L 856.30 575.80 L 857.70 614.30 L 884.90 614.80 L 887.10 601.10 L 887.60 669.10 L 887.40 737.10 L 887.30 739.30 L 886.80 735.30 L 885.70 731.60 L 884.20 728.10 L 882.80 725.70 L 878.80 721.50 L 876.30 719.80 L 875.70 714.30 L 874.80 691.80 L 873.30 682.70 L 870.70 675.80 L 866.10 674.10 L 863.80 673.90 L 860.40 674.10 L 853.50 676.00 L 843.50 680.10 L 834.90 671.60 L 831.70 670.30 L 829.20 670.10 L 826.40 670.30 L 815.50 672.00 L 815.50 656.00 L 816.10 640.00 L 827.80 639.80 L 862.90 639.90 L 886.30 639.30 L 885.90 626.30 L 874.20 625.90 L 831.40 626.10 L 815.80 625.00 L 812.50 607.70 L 792.90 606.80 L 773.40 606.40 L 772.90 595.90 L 772.80 575.00 Z" fill="#5a745a" fill-rule="nonzero" node-id="206" stroke="none" target-height="164.59998" target-width="114.79999" target-x="772.8" target-y="574.7"></path><path d="M 271.60 588.70 L 277.30 589.60 L 282.90 590.90 L 304.90 597.80 L 301.00 599.60 L 294.10 604.30 L 285.10 612.60 L 280.90 638.40 L 254.80 634.50 L 250.70 648.10 L 237.50 648.40 L 233.20 649.10 L 224.10 653.60 L 219.50 655.60 L 214.60 657.10 L 214.30 621.20 L 237.80 619.50 L 238.90 602.50 L 253.60 603.10 L 268.30 604.20 L 271.60 588.70 Z" fill="#ccc7c7" fill-rule="nonzero" node-id="208" stroke="none" target-height="68.39996" target-width="90.59999" target-x="214.3" target-y="588.7"></path><path d="M 742.40 594.90 L 757.50 591.20 L 757.70 618.40 L 752.80 604.90 L 750.30 618.40 L 749.10 612.30 L 747.40 606.30 L 744.30 598.60 L 742.40 594.90 Z" fill="#94a9b4" fill-rule="nonzero" node-id="210" stroke="none" target-height="27.200012" target-width="15.299988" target-x="742.4" target-y="591.2"></path><path d="M 752.80 604.90 L 757.70 618.40 L 801.20 619.90 L 800.70 643.70 L 759.10 643.80 L 758.90 649.00 L 759.50 665.10 L 759.40 670.50 L 758.70 675.70 L 757.90 679.00 L 756.70 682.30 L 755.00 685.50 L 745.80 663.90 L 737.10 642.20 L 728.70 620.30 L 739.50 619.60 L 750.30 618.40 L 752.80 604.90 Z" fill="#9fbfd2" fill-rule="nonzero" node-id="212" stroke="none" target-height="80.599976" target-width="72.5" target-x="728.7" target-y="604.9"></path><path d="M 135.80 608.80 L 151.60 616.50 L 159.80 619.70 L 163.10 619.40 L 179.50 616.80 L 181.60 619.90 L 183.30 623.20 L 188.30 637.30 L 203.40 642.40 L 203.20 662.80 L 199.30 661.60 L 195.60 659.90 L 192.10 657.80 L 185.80 652.60 L 182.90 649.50 L 169.50 655.90 L 165.90 635.90 L 159.60 641.60 L 152.90 646.90 L 148.20 650.10 L 143.30 653.00 L 138.20 655.50 L 137.30 666.10 L 136.80 676.80 L 136.90 782.70 L 137.50 830.30 L 136.00 822.20 L 135.00 814.20 L 134.50 806.10 L 134.20 793.90 L 134.50 732.50 L 134.30 658.30 L 134.70 633.50 L 135.80 608.80 Z" fill="#606847" fill-rule="nonzero" node-id="214" stroke="none" target-height="221.5" target-width="69.2" target-x="134.2" target-y="608.8"></path><path d="M 365.00 612.50 L 372.80 612.10 L 380.70 612.20 L 396.40 613.30 L 399.60 631.00 L 405.20 666.40 L 408.70 693.10 L 412.00 719.80 L 412.60 726.80 L 412.70 740.70 L 412.00 751.10 L 408.40 782.20 L 407.40 792.60 L 406.80 805.10 L 407.50 809.00 L 408.60 811.60 L 415.20 821.70 L 416.50 824.40 L 417.50 828.20 L 418.20 847.00 L 421.30 897.00 L 381.30 897.30 L 232.30 897.30 L 222.60 897.00 L 213.00 896.30 L 203.40 895.10 L 197.40 893.70 L 191.50 891.90 L 185.80 889.70 L 180.30 887.00 L 175.00 883.90 L 170.00 880.50 L 165.20 876.70 L 160.70 872.60 L 156.40 868.10 L 152.60 863.40 L 149.00 858.40 L 145.90 853.20 L 143.10 847.70 L 140.80 842.10 L 138.90 836.30 L 137.50 830.30 L 137.00 806.50 L 136.80 676.80 L 137.30 666.10 L 138.20 655.50 L 143.30 653.00 L 148.20 650.10 L 152.90 646.90 L 159.60 641.60 L 165.90 635.90 L 169.50 655.90 L 182.90 649.50 L 185.80 652.60 L 192.10 657.80 L 195.60 659.90 L 199.30 661.60 L 213.40 665.80 L 218.50 667.10 L 223.70 667.90 L 226.70 666.90 L 229.50 665.50 L 237.80 660.80 L 240.80 659.50 L 245.10 659.00 L 258.30 658.80 L 255.90 668.90 L 260.00 669.80 L 264.00 670.20 L 268.00 670.30 L 272.00 669.90 L 275.90 669.10 L 279.70 667.90 L 283.40 666.30 L 287.00 664.30 L 286.30 677.70 L 286.30 684.40 L 286.90 691.10 L 287.70 695.50 L 290.40 704.00 L 292.50 708.70 L 295.10 713.00 L 298.10 716.80 L 301.60 720.40 L 305.30 723.70 L 309.30 726.70 L 315.70 730.70 L 322.40 734.20 L 320.60 751.00 L 335.00 757.80 L 334.50 768.20 L 334.50 778.60 L 346.50 771.10 L 350.80 769.00 L 358.70 767.50 L 374.90 766.60 L 382.30 750.50 L 390.20 734.60 L 375.50 727.10 L 383.60 710.40 L 387.10 700.70 L 388.70 692.60 L 389.20 681.30 L 389.00 675.70 L 387.50 664.50 L 386.20 659.00 L 384.30 652.90 L 379.00 641.30 L 369.90 624.30 L 367.30 618.50 L 365.00 612.50 Z M 231.90 711.80 L 234.80 722.40 L 248.50 719.10 L 248.00 715.70 L 247.20 712.60 L 245.90 709.70 L 242.20 704.40 L 239.90 702.00 L 235.60 706.60 L 231.90 711.80 Z M 215.70 711.90 L 207.20 725.30 L 212.10 727.50 L 217.20 729.20 L 222.50 730.20 L 223.50 715.40 L 215.70 711.90 Z" fill="#99a35c" fill-rule="nonzero" node-id="216" stroke="none" target-height="285.2" target-width="284.5" target-x="136.8" target-y="612.1"></path><path d="M 664.30 624.00 L 691.10 620.80 L 700.10 620.20 L 712.00 620.60 L 718.00 621.40 L 720.40 630.40 L 702.10 631.70 L 696.00 632.60 L 692.10 633.50 L 688.20 634.70 L 684.50 636.40 L 682.10 638.20 L 680.50 641.30 L 680.30 643.30 L 680.50 645.40 L 681.30 647.30 L 683.30 649.30 L 693.20 655.20 L 729.20 672.70 L 739.80 678.50 L 726.50 677.70 L 686.60 674.00 L 673.30 673.00 L 660.00 672.50 L 661.60 648.20 L 664.30 624.00 Z" fill="#a79796" fill-rule="nonzero" node-id="218" stroke="none" target-height="58.299988" target-width="79.79999" target-x="660" target-y="620.2"></path><path d="M 292.20 625.70 L 304.50 629.20 L 296.20 642.20 L 291.60 648.40 L 292.20 625.70 Z" fill="#b2b297" fill-rule="nonzero" node-id="220" stroke="none" target-height="22.700012" target-width="12.899994" target-x="291.6" target-y="625.7"></path><path d="M 312.60 636.90 L 315.30 634.10 L 318.30 631.80 L 321.50 630.10 L 324.90 628.80 L 328.40 627.90 L 332.20 627.40 L 337.80 627.30 L 343.60 627.60 L 354.60 629.50 L 357.90 631.40 L 360.90 633.70 L 363.60 636.40 L 365.90 639.50 L 368.80 644.80 L 371.30 650.20 L 373.40 655.80 L 376.40 667.40 L 377.40 673.30 L 378.00 679.30 L 378.30 691.30 L 373.20 694.20 L 367.90 696.70 L 364.20 698.00 L 360.40 698.90 L 320.50 702.60 L 302.60 704.80 L 299.50 696.30 L 297.80 687.60 L 297.40 681.60 L 297.50 675.60 L 298.30 669.60 L 299.50 663.70 L 301.20 658.00 L 303.40 652.30 L 306.10 646.90 L 309.20 641.80 L 312.60 636.90 Z" fill="#f7c8a6" fill-rule="nonzero" node-id="222" stroke="none" target-height="77.5" target-width="80.899994" target-x="297.4" target-y="627.3"></path><path d="M 684.50 636.40 L 688.20 634.70 L 692.10 633.50 L 696.00 632.60 L 702.10 631.70 L 720.40 630.40 L 733.30 661.40 L 736.70 672.10 L 738.00 677.50 L 729.20 672.70 L 693.20 655.20 L 683.30 649.30 L 681.30 647.30 L 680.50 645.40 L 680.30 643.30 L 680.50 641.30 L 681.30 639.30 L 683.20 637.20 L 684.50 636.40 Z" fill="#c0b0ac" fill-rule="nonzero" node-id="224" stroke="none" target-height="47.099976" target-width="57.700012" target-x="680.3" target-y="630.4"></path><path d="M 261.40 647.60 L 289.60 649.40 L 287.00 664.30 L 283.40 666.30 L 279.70 667.90 L 275.90 669.10 L 272.00 669.90 L 268.00 670.30 L 264.00 670.20 L 260.00 669.80 L 255.90 668.90 L 261.40 647.60 Z" fill="#b7b981" fill-rule="nonzero" node-id="226" stroke="none" target-height="22.700012" target-width="33.700012" target-x="255.9" target-y="647.6"></path><path d="M 773.20 657.50 L 788.00 657.30 L 802.80 657.60 L 803.30 675.00 L 803.40 692.40 L 802.60 727.20 L 795.20 726.70 L 773.10 726.20 L 772.60 691.80 L 772.60 674.70 L 773.20 657.50 Z" fill="#56725b" fill-rule="nonzero" node-id="228" stroke="none" target-height="69.900024" target-width="30.800049" target-x="772.6" target-y="657.3"></path><path d="M 836.30 672.80 L 843.50 680.10 L 853.50 676.00 L 860.40 674.10 L 863.80 673.90 L 866.10 674.10 L 870.70 675.80 L 873.30 682.70 L 874.80 691.80 L 875.70 714.30 L 876.30 719.80 L 878.80 721.50 L 881.00 723.50 L 884.20 728.10 L 885.70 731.60 L 886.80 735.30 L 887.30 739.30 L 865.60 736.90 L 864.60 701.20 L 863.10 683.40 L 859.50 685.80 L 856.50 688.60 L 853.90 691.50 L 851.70 694.80 L 849.90 698.30 L 848.40 701.90 L 846.60 707.70 L 845.40 713.70 L 844.50 719.90 L 842.70 738.00 L 826.80 738.70 L 763.30 738.60 L 747.50 739.20 L 743.90 749.60 L 744.70 733.80 L 744.60 725.90 L 744.10 717.90 L 755.70 723.80 L 761.40 724.90 L 773.10 726.20 L 795.20 726.70 L 802.60 727.20 L 810.90 728.30 L 812.30 706.60 L 813.20 699.40 L 815.40 690.00 L 817.00 685.40 L 815.50 700.00 L 815.00 729.30 L 833.60 729.40 L 832.80 705.50 L 830.70 681.70 L 821.10 677.40 L 838.70 679.60 L 836.30 672.80 Z" fill="#595f43" fill-rule="nonzero" node-id="230" stroke="none" target-height="76.79999" target-width="143.39996" target-x="743.9" target-y="672.8"></path><path d="M 821.10 677.40 L 830.70 681.70 L 832.80 705.50 L 833.60 729.40 L 815.00 729.30 L 815.20 707.30 L 816.00 692.70 L 817.00 685.40 L 821.10 677.40 Z" fill="#9a9d59" fill-rule="nonzero" node-id="232" stroke="none" target-height="52" target-width="18.599976" target-x="815" target-y="677.4"></path><path d="M 842.70 738.00 L 844.50 719.90 L 845.40 713.70 L 846.60 707.70 L 848.40 701.90 L 849.90 698.30 L 851.70 694.80 L 853.90 691.50 L 856.50 688.60 L 859.50 685.80 L 863.10 683.40 L 864.60 701.20 L 865.60 736.90 L 887.30 739.30 L 886.80 750.90 L 886.70 797.50 L 886.10 809.20 L 862.30 806.70 L 866.80 786.40 L 868.00 779.60 L 868.70 770.50 L 868.70 765.90 L 867.70 761.20 L 866.70 758.90 L 865.30 756.80 L 863.60 755.10 L 861.60 753.70 L 859.50 752.80 L 857.10 752.50 L 854.50 752.70 L 851.80 754.20 L 846.90 757.90 L 843.50 761.20 L 834.30 771.70 L 828.10 758.90 L 823.30 750.80 L 820.20 747.20 L 817.30 746.30 L 814.40 746.00 L 811.60 746.40 L 808.90 747.30 L 806.30 748.60 L 803.90 750.40 L 799.90 754.80 L 798.40 757.40 L 797.20 760.20 L 796.50 763.00 L 796.30 765.90 L 796.40 774.30 L 797.00 782.70 L 799.90 807.80 L 800.60 816.20 L 808.70 816.30 L 808.90 804.60 L 808.60 792.90 L 807.20 773.20 L 807.40 769.10 L 808.00 765.20 L 808.70 762.60 L 811.30 757.90 L 812.90 757.60 L 815.20 758.30 L 816.60 759.50 L 817.70 761.20 L 819.60 764.90 L 821.60 770.10 L 823.30 775.40 L 824.50 780.90 L 825.70 789.20 L 826.30 797.60 L 827.00 814.30 L 825.20 818.90 L 822.70 828.40 L 822.10 833.20 L 821.90 838.10 L 822.10 843.00 L 832.10 841.80 L 834.50 841.20 L 837.80 839.30 L 839.70 836.40 L 840.40 834.00 L 840.60 831.60 L 840.40 829.30 L 838.70 824.80 L 837.40 822.60 L 832.70 817.00 L 838.10 795.20 L 842.00 783.40 L 846.40 774.70 L 849.30 770.80 L 852.70 767.20 L 856.70 763.80 L 856.90 770.00 L 856.70 776.10 L 856.20 782.10 L 854.80 791.10 L 848.80 817.90 L 886.40 821.80 L 886.80 830.10 L 885.40 835.90 L 883.50 841.50 L 881.20 846.90 L 878.50 852.20 L 875.40 857.30 L 872.10 862.20 L 868.30 866.80 L 860.00 875.30 L 850.60 882.70 L 845.60 885.90 L 835.00 891.20 L 829.40 893.30 L 823.70 895.00 L 818.00 896.40 L 812.10 897.20 L 806.20 897.60 L 645.30 896.90 L 645.50 885.80 L 646.10 874.80 L 648.70 841.70 L 649.40 828.20 L 649.90 825.90 L 650.80 823.80 L 652.70 820.90 L 659.30 812.50 L 659.80 806.70 L 659.80 789.40 L 676.20 792.20 L 681.80 792.70 L 692.80 792.80 L 698.30 792.20 L 703.70 791.10 L 713.50 787.80 L 717.60 785.80 L 721.50 783.40 L 725.10 780.60 L 728.40 777.40 L 734.20 770.40 L 736.70 766.50 L 739.60 761.00 L 742.00 755.40 L 747.50 739.20 L 763.30 738.60 L 826.80 738.70 L 842.70 738.00 Z M 763.50 842.70 L 758.90 854.50 L 758.30 857.50 L 758.30 860.60 L 759.60 862.70 L 761.20 864.40 L 763.20 865.80 L 765.40 866.80 L 767.70 867.30 L 770.20 867.10 L 774.50 864.40 L 778.00 860.50 L 780.40 856.00 L 779.80 853.20 L 778.80 850.90 L 777.30 848.80 L 775.60 847.00 L 771.20 844.40 L 766.10 843.00 L 763.50 842.70 Z" fill="#9aa35c" fill-rule="nonzero" node-id="234" stroke="none" target-height="214.19995" target-width="242" target-x="645.3" target-y="683.4"></path><path d="M 752.40 689.50 L 760.50 689.00 L 761.30 694.90 L 761.80 705.10 L 760.80 712.90 L 759.70 716.70 L 758.00 720.30 L 755.70 723.80 L 744.10 717.90 L 738.90 690.40 L 752.40 689.50 Z" fill="#7c8e72" fill-rule="nonzero" node-id="236" stroke="none" target-height="34.799988" target-width="22.899963" target-x="738.9" target-y="689"></path><path d="M 356.50 699.50 L 360.40 698.90 L 364.20 698.00 L 367.90 696.70 L 373.20 694.20 L 378.30 691.30 L 377.60 695.10 L 375.30 702.60 L 373.60 706.10 L 369.40 712.70 L 366.90 715.50 L 364.00 718.10 L 360.90 720.30 L 357.50 722.20 L 353.90 723.60 L 349.90 724.50 L 334.30 724.60 L 329.10 724.10 L 322.50 722.30 L 315.90 718.90 L 312.70 716.60 L 309.90 714.00 L 306.00 709.60 L 302.60 704.80 L 320.50 702.60 L 356.50 699.50 Z" fill="#e3a98d" fill-rule="nonzero" node-id="238" stroke="none" target-height="33.299988" target-width="75.69998" target-x="302.6" target-y="691.3"></path><path d="M 666.80 714.10 L 667.00 708.80 L 667.90 703.30 L 668.80 700.80 L 670.20 698.70 L 671.40 697.60 L 672.90 696.90 L 680.80 695.40 L 692.80 694.60 L 701.90 694.80 L 711.00 695.50 L 729.00 697.50 L 731.90 712.10 L 733.90 726.80 L 734.20 736.70 L 733.80 741.70 L 727.70 745.10 L 721.10 748.20 L 716.60 749.90 L 707.30 752.50 L 702.60 753.30 L 697.90 753.50 L 693.30 753.30 L 688.70 752.60 L 684.10 751.20 L 679.60 749.10 L 677.10 747.00 L 675.00 744.60 L 673.30 742.00 L 671.10 737.80 L 669.50 733.20 L 668.40 728.50 L 667.60 723.60 L 666.80 714.10 Z" fill="#f6c5a4" fill-rule="nonzero" node-id="240" stroke="none" target-height="58.900024" target-width="67.400024" target-x="666.8" target-y="694.6"></path><path d="M 231.90 711.80 L 235.60 706.60 L 239.90 702.00 L 242.20 704.40 L 245.90 709.70 L 247.20 712.60 L 248.00 715.70 L 248.50 719.10 L 234.80 722.40 L 231.90 711.80 Z" fill="#cbc86f" fill-rule="nonzero" node-id="242" stroke="none" target-height="20.400024" target-width="16.600006" target-x="231.9" target-y="702"></path><path d="M 215.70 711.90 L 223.50 715.40 L 222.50 730.20 L 217.20 729.20 L 212.10 727.50 L 207.20 725.30 L 215.70 711.90 Z" fill="#ccc66f" fill-rule="nonzero" node-id="244" stroke="none" target-height="18.299988" target-width="16.300003" target-x="207.2" target-y="711.9"></path><path d="M 355.90 733.00 L 358.50 732.80 L 363.20 733.60 L 366.50 735.10 L 369.60 736.90 L 375.60 741.30 L 372.10 746.60 L 368.10 751.40 L 362.10 757.20 L 358.60 759.60 L 347.30 753.20 L 343.80 750.70 L 340.60 747.80 L 337.90 744.60 L 336.40 742.20 L 334.20 736.80 L 355.90 733.00 Z" fill="#9b4e5d" fill-rule="nonzero" node-id="246" stroke="none" target-height="26.799988" target-width="41.399994" target-x="334.2" target-y="732.8"></path><path d="M 421.70 748.60 L 422.80 741.50 L 423.40 739.80 L 424.20 738.60 L 426.10 737.70 L 475.90 739.40 L 500.20 739.80 L 536.50 740.10 L 645.50 739.50 L 650.10 791.30 L 651.00 808.70 L 638.00 809.20 L 625.10 808.90 L 636.00 804.70 L 636.20 793.80 L 635.90 782.80 L 635.10 771.90 L 634.00 761.10 L 632.50 750.20 L 622.70 749.60 L 603.30 749.30 L 588.80 749.60 L 545.00 751.50 L 530.50 751.80 L 515.90 751.60 L 502.20 751.10 L 461.30 748.20 L 447.70 747.50 L 434.00 747.50 L 433.60 755.70 L 433.20 780.40 L 432.80 788.60 L 431.60 798.20 L 430.40 800.50 L 429.00 801.80 L 417.60 807.50 L 417.60 797.70 L 418.10 787.80 L 421.70 748.60 Z" fill="#9f9194" fill-rule="nonzero" node-id="248" stroke="none" target-height="71.5" target-width="233.4" target-x="417.6" target-y="737.7"></path><path d="M 887.30 739.30 L 887.40 737.10 L 888.50 748.70 L 889.20 760.30 L 889.50 783.60 L 889.00 799.10 L 888.10 814.60 L 886.80 830.10 L 886.40 821.80 L 848.80 817.90 L 854.80 791.10 L 856.20 782.10 L 856.70 776.10 L 856.90 770.00 L 856.70 763.80 L 852.70 767.20 L 849.30 770.80 L 846.40 774.70 L 844.00 778.90 L 842.00 783.40 L 838.10 795.20 L 832.70 817.00 L 827.00 814.30 L 826.30 797.60 L 825.70 789.20 L 824.50 780.90 L 823.30 775.40 L 821.60 770.10 L 819.60 764.90 L 816.60 759.50 L 815.20 758.30 L 814.20 757.80 L 812.90 757.60 L 811.30 757.90 L 808.70 762.60 L 808.00 765.20 L 807.40 769.10 L 807.20 773.20 L 808.60 792.90 L 808.90 804.60 L 808.70 816.30 L 800.60 816.20 L 799.90 807.80 L 797.00 782.70 L 796.40 774.30 L 796.30 765.90 L 796.50 763.00 L 797.20 760.20 L 798.40 757.40 L 801.80 752.50 L 803.90 750.40 L 806.30 748.60 L 808.90 747.30 L 811.60 746.40 L 814.40 746.00 L 817.30 746.30 L 820.20 747.20 L 823.30 750.80 L 825.80 754.80 L 834.30 771.70 L 843.50 761.20 L 846.90 757.90 L 851.80 754.20 L 854.50 752.70 L 857.10 752.50 L 859.50 752.80 L 861.60 753.70 L 863.60 755.10 L 865.30 756.80 L 866.70 758.90 L 867.70 761.20 L 868.40 763.50 L 868.70 765.90 L 868.70 770.50 L 868.00 779.60 L 866.80 786.40 L 862.30 806.70 L 886.10 809.20 L 886.70 797.50 L 886.80 750.90 L 887.30 739.30 Z" fill="#656744" fill-rule="nonzero" node-id="250" stroke="none" target-height="93" target-width="93.20001" target-x="796.3" target-y="737.1"></path><path d="M 434.00 747.50 L 447.70 747.50 L 461.30 748.20 L 502.20 751.10 L 515.90 751.60 L 530.50 751.70 L 545.00 751.50 L 588.80 749.60 L 603.30 749.30 L 622.70 749.60 L 632.50 750.20 L 634.00 761.10 L 635.10 771.90 L 635.90 782.80 L 636.20 793.80 L 636.00 804.70 L 625.10 808.90 L 616.90 810.40 L 615.00 796.40 L 613.40 782.40 L 593.70 781.70 L 587.10 781.70 L 580.60 782.10 L 574.10 783.10 L 569.70 792.50 L 562.80 811.90 L 539.80 815.00 L 548.10 799.10 L 556.90 783.40 L 566.10 767.90 L 531.90 767.40 L 497.80 765.30 L 506.70 777.50 L 531.90 815.10 L 518.70 813.90 L 505.60 812.30 L 500.20 797.20 L 497.20 789.80 L 493.90 782.50 L 483.70 781.40 L 473.50 780.70 L 466.70 780.60 L 453.10 781.60 L 452.10 794.60 L 450.60 807.60 L 435.20 807.20 L 419.80 806.50 L 429.00 801.80 L 430.40 800.50 L 431.60 798.20 L 432.80 788.60 L 433.20 780.40 L 433.60 755.70 L 434.00 747.50 Z" fill="#b3a6a7" fill-rule="nonzero" node-id="252" stroke="none" target-height="67.599976" target-width="216.40002" target-x="419.8" target-y="747.5"></path><path d="M 107.90 759.20 L 114.10 756.20 L 120.60 753.80 L 125.60 765.80 L 125.80 776.20 L 125.50 807.60 L 125.70 814.60 L 127.10 828.30 L 128.40 835.10 L 130.20 841.80 L 132.60 848.40 L 135.30 854.60 L 138.40 860.40 L 141.90 866.10 L 145.90 871.40 L 150.30 876.50 L 154.90 881.20 L 159.90 885.60 L 165.20 889.70 L 170.80 893.40 L 176.50 896.70 L 182.50 899.70 L 188.60 902.20 L 198.00 904.90 L 209.90 906.80 L 231.80 907.90 L 792.10 908.00 L 802.40 907.90 L 812.70 907.10 L 819.60 906.20 L 826.30 904.80 L 832.90 903.10 L 839.40 900.80 L 845.60 897.90 L 857.30 890.80 L 862.70 886.70 L 867.70 882.30 L 872.50 877.50 L 876.90 872.50 L 881.00 867.10 L 884.70 861.50 L 888.00 855.60 L 890.90 849.50 L 893.40 843.30 L 895.50 836.90 L 897.10 830.40 L 898.70 821.40 L 899.80 812.30 L 900.50 803.20 L 901.60 775.80 L 903.00 757.60 L 911.60 762.80 L 913.50 764.50 L 914.90 766.40 L 916.00 769.40 L 916.60 779.20 L 916.50 787.10 L 914.60 819.00 L 914.00 827.00 L 912.90 834.90 L 911.30 842.70 L 909.10 850.40 L 906.40 858.00 L 903.20 865.30 L 899.50 872.40 L 891.60 884.40 L 883.60 894.00 L 879.20 898.40 L 869.50 906.30 L 864.30 909.80 L 853.30 915.90 L 841.70 920.60 L 835.70 922.40 L 823.50 925.00 L 811.00 926.00 L 798.20 926.10 L 759.80 926.10 L 751.60 925.80 L 747.50 925.30 L 743.60 924.40 L 741.10 923.40 L 738.80 922.00 L 727.80 912.80 L 725.50 911.20 L 723.00 910.10 L 719.50 909.50 L 717.50 909.70 L 714.10 911.30 L 711.00 913.30 L 702.00 920.00 L 698.90 922.10 L 695.60 923.70 L 692.00 924.70 L 684.20 925.60 L 676.40 925.90 L 626.50 925.60 L 523.90 925.80 L 515.20 925.40 L 506.60 924.30 L 502.80 922.90 L 499.30 921.10 L 486.00 912.00 L 481.10 910.00 L 478.50 909.40 L 476.00 910.00 L 471.70 911.90 L 458.20 922.80 L 453.70 924.70 L 448.50 925.40 L 432.90 925.80 L 408.00 925.50 L 333.50 925.60 L 323.40 925.20 L 313.40 924.40 L 303.40 923.00 L 297.40 915.60 L 295.30 913.30 L 292.90 911.40 L 290.10 909.90 L 285.10 909.40 L 282.80 909.80 L 279.40 910.80 L 276.20 912.40 L 260.90 922.30 L 257.90 923.70 L 254.70 924.60 L 249.70 925.50 L 244.60 926.00 L 234.50 926.30 L 218.00 926.10 L 209.70 925.70 L 201.50 925.00 L 190.60 923.00 L 185.30 921.60 L 178.10 919.00 L 171.10 916.00 L 164.10 912.60 L 157.50 908.70 L 151.10 904.50 L 145.00 899.80 L 139.30 894.70 L 133.90 889.30 L 129.00 883.40 L 122.50 874.00 L 117.30 863.60 L 114.60 857.60 L 112.40 851.40 L 110.70 845.20 L 108.30 832.40 L 106.70 816.20 L 105.90 786.80 L 105.90 772.80 L 106.20 768.20 L 106.80 763.70 L 107.90 759.20 Z" fill="#679f83" fill-rule="nonzero" node-id="254" stroke="none" target-height="172.5" target-width="810.69995" target-x="105.9" target-y="753.8"></path><path d="M 497.80 765.30 L 531.90 767.40 L 566.10 767.90 L 556.90 783.40 L 548.10 799.10 L 539.80 815.00 L 531.90 815.10 L 506.70 777.50 L 497.80 765.30 Z" fill="#beb1b2" fill-rule="nonzero" node-id="256" stroke="none" target-height="49.799988" target-width="68.29999" target-x="497.8" target-y="765.3"></path><path d="M 461.20 790.70 L 478.30 791.00 L 486.80 792.10 L 493.80 810.90 L 495.80 814.30 L 499.00 818.40 L 501.10 820.20 L 504.40 821.70 L 507.90 822.70 L 522.20 825.10 L 521.30 842.80 L 517.20 896.00 L 488.80 897.40 L 474.50 897.60 L 460.20 897.40 L 431.70 896.10 L 429.60 870.10 L 427.50 831.00 L 426.40 818.00 L 442.40 818.70 L 450.30 818.70 L 458.30 818.30 L 460.10 804.50 L 461.20 790.70 Z M 462.70 822.40 L 443.90 822.20 L 444.50 837.90 L 445.60 853.60 L 446.60 864.10 L 448.10 874.40 L 449.90 884.80 L 458.40 885.90 L 475.60 887.00 L 484.20 886.90 L 492.80 886.20 L 501.30 885.10 L 502.80 867.70 L 502.90 861.90 L 502.70 856.10 L 501.90 850.40 L 499.80 843.00 L 498.20 839.40 L 492.70 829.30 L 486.80 819.50 L 482.50 813.20 L 477.80 807.20 L 472.80 801.50 L 469.00 808.30 L 465.70 815.30 L 462.70 822.40 Z" fill="#a69896" fill-rule="nonzero" node-id="258" stroke="none" target-height="106.89996" target-width="95.80002" target-x="426.4" target-y="790.7"></path><path d="M 581.40 792.90 L 584.00 792.10 L 589.30 791.20 L 605.60 791.80 L 607.10 809.50 L 608.40 818.30 L 616.30 819.30 L 624.20 819.70 L 640.20 819.80 L 637.40 871.30 L 635.20 896.90 L 607.20 897.30 L 551.30 897.00 L 548.60 860.40 L 546.50 823.80 L 561.60 822.80 L 566.50 822.00 L 569.20 818.80 L 571.30 815.30 L 573.10 811.70 L 577.70 800.20 L 581.40 792.90 Z M 597.10 803.80 L 592.70 807.50 L 588.60 811.60 L 581.40 820.40 L 575.50 830.20 L 570.90 840.60 L 567.60 851.50 L 565.80 862.80 L 565.50 874.20 L 566.60 885.70 L 579.40 886.50 L 592.20 886.70 L 605.10 886.40 L 617.90 885.70 L 621.20 866.10 L 622.40 856.20 L 623.10 839.70 L 622.40 826.50 L 615.60 824.70 L 609.00 822.30 L 606.60 818.40 L 604.70 814.10 L 601.40 805.50 L 597.10 803.80 Z" fill="#a89898" fill-rule="nonzero" node-id="260" stroke="none" target-height="106.099976" target-width="93.70001" target-x="546.5" target-y="791.2"></path><path d="M 462.70 822.40 L 465.70 815.30 L 469.00 808.30 L 472.80 801.50 L 477.80 807.20 L 482.50 813.20 L 486.80 819.50 L 492.70 829.30 L 498.20 839.40 L 499.80 843.00 L 501.90 850.40 L 502.70 856.10 L 502.90 861.90 L 502.80 867.70 L 501.30 885.10 L 492.80 886.20 L 484.20 886.90 L 475.60 887.00 L 458.40 885.90 L 449.90 884.80 L 446.60 864.10 L 445.60 853.60 L 444.50 837.90 L 443.90 822.20 L 462.70 822.40 Z" fill="#bcb0b2" fill-rule="nonzero" node-id="262" stroke="none" target-height="85.5" target-width="59" target-x="443.9" target-y="801.5"></path><path d="M 597.10 803.80 L 601.40 805.50 L 604.70 814.10 L 606.60 818.40 L 609.00 822.30 L 615.60 824.70 L 622.40 826.50 L 623.10 839.70 L 622.40 856.20 L 621.20 866.10 L 617.90 885.70 L 605.10 886.40 L 592.20 886.70 L 579.40 886.50 L 566.60 885.70 L 565.50 874.20 L 565.80 862.80 L 567.60 851.50 L 570.90 840.60 L 575.50 830.20 L 581.40 820.40 L 584.90 815.90 L 588.60 811.60 L 597.10 803.80 Z" fill="#b9aeb1" fill-rule="nonzero" node-id="264" stroke="none" target-height="82.900024" target-width="57.599976" target-x="565.5" target-y="803.8"></path><path d="M 827.00 814.30 L 832.70 817.00 L 835.20 819.60 L 838.70 824.80 L 840.40 829.30 L 840.60 831.60 L 840.40 834.00 L 839.70 836.40 L 837.80 839.30 L 834.50 841.20 L 832.10 841.80 L 822.10 843.00 L 821.90 838.10 L 822.10 833.20 L 822.70 828.40 L 825.20 818.90 L 827.00 814.30 Z" fill="#c2c86d" fill-rule="nonzero" node-id="266" stroke="none" target-height="28.700012" target-width="18.699951" target-x="821.9" target-y="814.3"></path><path d="M 527.40 897.20 L 529.30 865.60 L 530.40 855.20 L 533.00 841.40 L 534.80 834.60 L 536.40 841.50 L 537.70 848.40 L 538.50 855.30 L 541.10 897.50 L 527.40 897.20 Z" fill="#9fa85b" fill-rule="nonzero" node-id="268" stroke="none" target-height="62.900024" target-width="13.699951" target-x="527.4" target-y="834.6"></path><path d="M 763.50 842.70 L 766.10 843.00 L 771.20 844.40 L 775.60 847.00 L 777.30 848.80 L 778.80 850.90 L 779.80 853.20 L 780.40 856.00 L 778.00 860.50 L 776.30 862.60 L 774.50 864.40 L 770.20 867.10 L 767.70 867.30 L 765.40 866.80 L 763.20 865.80 L 761.20 864.40 L 759.60 862.70 L 758.30 860.60 L 758.30 857.50 L 758.90 854.50 L 759.80 851.50 L 763.50 842.70 Z" fill="#c6ce72" fill-rule="nonzero" node-id="270" stroke="none" target-height="24.599976" target-width="22.100037" target-x="758.3" target-y="842.7"></path></svg>