<?xml version="1.0" standalone="no"?><!DOCTYPE svg PUBLIC "-//W3C//DTD SVG 1.1//EN" "http://www.w3.org/Graphics/SVG/1.1/DTD/svg11.dtd"><svg t="1735556705414" class="icon" viewBox="0 0 1024 1024" version="1.1" xmlns="http://www.w3.org/2000/svg" p-id="8493" xmlns:xlink="http://www.w3.org/1999/xlink" width="32" height="32"><path d="M508.16 212.8a56 56 0 0 1 92.992 41.984v514.432a56 56 0 0 1-92.992 41.984L350.08 672l-102.016 0.064a88 88 0 0 1-87.616-79.552L160 584v-144c0-48.64 39.424-88 88-88h102.016L508.16 212.8z m43.008 36.736a8 8 0 0 0-11.264-0.704L374.976 393.984a24 24 0 0 1-15.872 6.016H248a40 40 0 0 0-40 40v144c0 22.08 17.92 40 40 40h111.104c5.824 0 11.52 2.112 15.872 6.016l164.928 145.152a8 8 0 0 0 13.248-5.952V254.72c0-1.92-0.64-3.84-1.92-5.248zM663.04 404.48a24 24 0 0 1 33.92 0l63.04 62.976 63.04-62.976a24 24 0 0 1 29.568-3.456l4.352 3.456a24 24 0 0 1 0 33.92l-63.04 63.04 63.04 63.04a24 24 0 0 1 3.456 29.568l-3.456 4.352a24 24 0 0 1-33.92 0l-63.04-63.04-63.04 63.04a24 24 0 0 1-29.568 3.456l-4.352-3.456a24 24 0 0 1 0-33.92l62.976-63.04-62.976-63.04a24 24 0 0 1-3.456-29.632l3.456-4.288z" fill="#000000" p-id="8494"></path></svg>